<?xml version="1.0" encoding="UTF-8"?>
<svg id="Layer_1" data-name="Layer 1" xmlns="http://www.w3.org/2000/svg" xmlns:xlink="http://www.w3.org/1999/xlink" viewBox="0 0 388.96 459.97">
  <defs>
    <style>
      .cls-1 {
        fill: url(#linear-gradient);
      }

      .cls-1, .cls-2, .cls-3, .cls-4, .cls-5, .cls-6, .cls-7 {
        stroke-width: 0px;
      }

      .cls-2 {
        fill: url(#linear-gradient-6);
      }

      .cls-3 {
        fill: url(#linear-gradient-5);
      }

      .cls-4 {
        fill: url(#linear-gradient-2);
      }

      .cls-5 {
        fill: url(#linear-gradient-7);
      }

      .cls-6 {
        fill: url(#linear-gradient-3);
      }

      .cls-7 {
        fill: url(#linear-gradient-4);
      }
    </style>
    <linearGradient id="linear-gradient" x1="302.12" y1="298.54" x2="354.53" y2="246.12" gradientUnits="userSpaceOnUse">
      <stop offset=".2" stop-color="#015616"/>
      <stop offset=".55" stop-color="#06b100"/>
      <stop offset=".84" stop-color="#015616"/>
    </linearGradient>
    <linearGradient id="linear-gradient-2" x1="189.01" y1="288.21" x2="234.51" y2="242.7" xlink:href="#linear-gradient"/>
    <linearGradient id="linear-gradient-3" x1="337.19" y1="295.29" x2="385.69" y2="246.79" xlink:href="#linear-gradient"/>
    <linearGradient id="linear-gradient-4" x1="265.33" y1="301.13" x2="313.9" y2="252.57" xlink:href="#linear-gradient"/>
    <linearGradient id="linear-gradient-5" x1="110.06" y1="301.17" x2="158.58" y2="252.65" xlink:href="#linear-gradient"/>
    <linearGradient id="linear-gradient-6" x1="231.47" y1="291.6" x2="277.22" y2="245.85" xlink:href="#linear-gradient"/>
    <linearGradient id="linear-gradient-7" x1="146.84" y1="298.59" x2="195.07" y2="250.36" xlink:href="#linear-gradient"/>
  </defs>
  <path class="cls-1" d="M343.2,310.17c-2.12-1.95-4.35-4.14-6.74-6.17-1.67-1.42-2.16-3.03-2.12-5.19.13-8.72.04-17.44.1-26.16,0-1.26-.31-1.68-1.61-1.64-2.96.1-5.93.03-8.9.04-.43,0-.86.04-1.46.07,0,.6,0,1.12,0,1.63,0,9.25-.01,18.5.02,27.75,0,.91-.23,1.59-.9,2.21-2.75,2.5-5.46,5.04-7.94,7.34v-75.78c.4-.02.82-.07,1.25-.07,8.94.01,17.88.04,26.82.02,1.19,0,1.59.3,1.57,1.55-.06,6.28,0,12.57-.06,18.85,0,.62-.32,1.38-.74,1.84-2.26,2.43-4.6,4.79-6.9,7.18-.33.34-.63.7-1.16,1.27h8.77v45.24ZM334.43,243.46h-11.86v18.3q2.63.37,4.3-1.34c2.28-2.35,4.57-4.69,6.84-7.05.29-.31.68-.71.69-1.07.06-2.91.03-5.82.03-8.84Z"/>
  <path class="cls-4" d="M217.69,268.02h-8.75v-9.12h17.64c.03.53.07,1,.07,1.47.02,11.33.02,22.66.06,33.99,0,.96-.27,1.64-.95,2.33-4.32,4.38-8.59,8.81-12.86,13.23-.33.34-.56.79-.86,1.24-.5-.45-.74-.64-.95-.86-4.5-4.63-9.02-9.26-13.49-13.92-.36-.37-.66-.98-.66-1.48-.03-19.96-.02-39.92,0-59.89,0-.21.04-.42.08-.8.51,0,.99,0,1.46,0,8.85.01,17.7.05,26.56,0,1.26,0,1.68.32,1.64,1.62-.09,3.18-.02,6.37-.05,9.56,0,.5-.06,1.17-.38,1.46-2.83,2.67-5.71,5.28-8.58,7.91.08.14.15.29.23.43-.02-.45-.07-.9-.07-1.36,0-3.1,0-6.2,0-9.3,0-.57.1-1.19-.81-1.19-3.66.01-7.33,0-11.12,0-.03.59-.07,1.06-.07,1.53,0,15.49.02,30.98,0,46.48,0,.92.24,1.59.92,2.2,1.77,1.59,3.51,3.22,4.95,4.55,1.78-1.62,3.76-3.38,5.69-5.19.25-.23.36-.71.36-1.07.03-7.7.03-15.4.03-23.1,0-.17-.05-.34-.11-.73Z"/>
  <path class="cls-6" d="M367.34,310.79c-2.61-2.42-5.16-4.79-7.59-7.05-2.38,2.19-4.87,4.49-7.34,6.77v-76.17c.54-.03,1.01-.08,1.49-.08,5.97,0,11.95.02,17.92-.02.97,0,1.64.29,2.31.99,2.37,2.51,4.82,4.94,7.18,7.46.4.43.7,1.14.7,1.72.04,16.77.04,33.55,0,50.32,0,.51-.21,1.16-.55,1.52-4.56,4.77-9.15,9.49-13.74,14.23-.15.15-.32.27-.38.32ZM367.28,298.2c1.53-1.42,3.27-3.06,5.05-4.65.73-.65.93-1.39.93-2.34-.03-7.57-.01-15.14,0-22.71,0-7.88-.02-15.76.02-23.64,0-1.12-.24-1.6-1.46-1.52-1.63.11-3.27.03-4.91.03-1.84,0-3.69,0-5.58,0-.04.52-.09.86-.09,1.21,0,15.72,0,31.43.03,47.15,0,.41.06.97.32,1.22,1.92,1.83,3.89,3.6,5.71,5.27Z"/>
  <path class="cls-7" d="M304.75,310.11c-2.94-2.67-5.9-5.32-8.79-8.04-.3-.28-.29-.98-.29-1.49-.03-8.23-.03-16.46-.05-24.69,0-.52,0-1.04,0-1.65h-11.95c0,.54,0,1.05,0,1.56,0,8.23-.03,16.46,0,24.69,0,.91-.23,1.59-.91,2.21-2.75,2.49-5.46,5.01-8.19,7.52.06.12.13.24.19.36,0-.42,0-.84,0-1.26,0-21.51,0-43.01-.04-64.52,0-1.01.28-1.73.99-2.44,2.44-2.44,4.8-4.97,7.25-7.39.44-.43,1.2-.75,1.82-.76,3.23-.07,6.46-.07,9.69,0,.62.01,1.38.33,1.82.76,2.55,2.52,5.04,5.1,7.5,7.7.38.4.7,1.06.7,1.6.02,21.9,0,43.81,0,65.71,0,.17-.03.35-.05.52.1-.14.2-.27.3-.41ZM283.77,264.88h11.76v-21.41h-11.76v21.41Z"/>
  <path class="cls-3" d="M128.26,274.22c0,.59,0,1.11,0,1.63,0,8.23.02,16.47-.04,24.7,0,.7-.34,1.58-.84,2.06-2.67,2.58-5.45,5.06-8.18,7.57.09.14.19.28.28.42-.03-.32-.09-.63-.09-.95,0-21.73-.01-43.47.02-65.2,0-.58.3-1.29.7-1.72,2.45-2.62,4.94-5.19,7.48-7.73.42-.41,1.12-.75,1.7-.76,3.32-.08,6.64-.08,9.96-.01.57.01,1.27.36,1.68.77,2.45,2.43,4.8,4.96,7.25,7.39.72.72.97,1.46.97,2.45-.04,20.1-.05,40.19-.07,60.29,0,1.8,0,3.59,0,5.65-.43-.38-.66-.56-.86-.76-1.08-1.11-2.16-2.22-3.23-3.34-1.55-1.63-3.68-3.03-4.48-4.97-.78-1.9-.22-4.36-.22-6.57,0-6.51-.03-13.01.02-19.52,0-1.13-.24-1.55-1.46-1.51-3.1.09-6.2.03-9.29.03-.39,0-.77.05-1.3.08ZM128.35,264.9c.4.03.74.08,1.08.08,3.18,0,6.37-.05,9.55.03,1.11.03,1.32-.38,1.31-1.38-.04-6.32-.04-12.65-.05-18.97,0-.38-.06-.77-.1-1.2h-11.8v21.44Z"/>
  <path class="cls-2" d="M250.81,298.24c1.79-1.65,3.75-3.38,5.59-5.23.39-.39.47-1.21.47-1.82,0-18.33-.01-36.65-.02-54.98,0-.61,0-1.22,0-1.93h8.8v75.93c-2.32-2.16-4.79-4.45-7.2-6.7-2.54,2.4-5.07,4.8-7.68,7.27-.13-.11-.41-.3-.64-.54-4.48-4.6-8.96-9.19-13.4-13.83-.4-.42-.72-1.13-.72-1.71-.03-19.79-.02-39.57-.02-59.36,0-.31.03-.62.05-1.13,2.75,0,5.48-.02,8.21.03.22,0,.53.38.61.65.11.37.03.79.03,1.19,0,18.37,0,36.74-.02,55.11,0,.99.2,1.77.97,2.45,1.75,1.55,3.44,3.17,4.97,4.59Z"/>
  <path class="cls-5" d="M188.04,310.17c-2.87-2.64-5.76-5.24-8.56-7.95-.38-.37-.42-1.21-.42-1.84-.03-18.33-.04-36.66-.05-54.98,0-.61,0-1.22,0-1.92h-11.92c0,.62,0,1.18,0,1.74-.01,18.37-.03,36.74-.02,55.12,0,1-.23,1.76-.99,2.44-2.72,2.45-5.4,4.95-7.84,7.2v-75.75c.47-.02.91-.06,1.34-.06,6.07,0,12.13-.03,18.19.04.69,0,1.54.39,2.03.88,2.5,2.45,4.93,4.97,7.31,7.52.43.46.77,1.21.77,1.83.03,21.74.02,43.47,0,65.21,0,.3-.04.59-.06.89.07-.13.14-.25.21-.38Z"/>
</svg>