<?xml version="1.0" encoding="UTF-8"?>
<svg id="Layer_2" data-name="Layer 2" xmlns="http://www.w3.org/2000/svg" xmlns:xlink="http://www.w3.org/1999/xlink" viewBox="0 0 388.96 459.97">
  <defs>
    <style>
      .cls-1 {
        fill: url(#linear-gradient-17);
      }

      .cls-1, .cls-2, .cls-3, .cls-4, .cls-5, .cls-6, .cls-7, .cls-8, .cls-9, .cls-10, .cls-11, .cls-12, .cls-13, .cls-14, .cls-15, .cls-16, .cls-17 {
        stroke-width: 0px;
      }

      .cls-2 {
        fill: url(#linear-gradient);
      }

      .cls-3 {
        fill: url(#linear-gradient-21);
      }

      .cls-4 {
        fill: url(#linear-gradient-6);
      }

      .cls-18, .cls-10 {
        fill: url(#linear-gradient-14);
      }

      .cls-19 {
        clip-path: url(#clippath-2);
      }

      .cls-5 {
        fill: url(#linear-gradient-15);
      }

      .cls-20 {
        clip-path: url(#clippath-6);
      }

      .cls-6 {
        fill: url(#linear-gradient-11);
      }

      .cls-7, .cls-21 {
        fill: url(#linear-gradient-5);
      }

      .cls-22 {
        clip-path: url(#clippath-7);
      }

      .cls-8, .cls-23 {
        fill: #015616;
      }

      .cls-24 {
        clip-path: url(#clippath-1);
      }

      .cls-25, .cls-16 {
        fill: url(#linear-gradient-10);
      }

      .cls-26 {
        fill: url(#linear-gradient-16);
      }

      .cls-9 {
        fill: url(#linear-gradient-20);
      }

      .cls-11 {
        fill: url(#linear-gradient-2);
      }

      .cls-27 {
        stroke: #015616;
        stroke-miterlimit: 10;
        stroke-width: 2px;
      }

      .cls-12, .cls-28 {
        fill: url(#linear-gradient-3);
      }

      .cls-29 {
        clip-path: url(#clippath-9);
      }

      .cls-30 {
        clip-path: url(#clippath);
      }

      .cls-13 {
        fill: url(#linear-gradient-9);
      }

      .cls-31 {
        clip-path: url(#clippath-3);
      }

      .cls-32 {
        fill: url(#linear-gradient-7);
      }

      .cls-14 {
        fill: url(#linear-gradient-8);
      }

      .cls-33 {
        clip-path: url(#clippath-8);
      }

      .cls-15 {
        fill: url(#linear-gradient-18);
      }

      .cls-17 {
        fill: url(#linear-gradient-4);
      }

      .cls-34 {
        fill: url(#linear-gradient-19);
      }

      .cls-35 {
        fill: url(#linear-gradient-12);
      }

      .cls-36 {
        fill: url(#linear-gradient-13);
      }
    </style>
    <linearGradient id="linear-gradient" x1="161.98" y1="159.75" x2="167.72" y2="147.44" gradientUnits="userSpaceOnUse">
      <stop offset="0" stop-color="#06b100"/>
      <stop offset=".33" stop-color="#105f14"/>
      <stop offset=".48" stop-color="#153f1d"/>
    </linearGradient>
    <linearGradient id="linear-gradient-2" x1="227.85" y1="159.59" x2="222.15" y2="147.36" xlink:href="#linear-gradient"/>
    <linearGradient id="linear-gradient-3" x1="141.93" y1="105.28" x2="247.15" y2="105.28" gradientUnits="userSpaceOnUse">
      <stop offset="0" stop-color="#06b100"/>
      <stop offset=".05" stop-color="#05a403"/>
      <stop offset=".2" stop-color="#038709"/>
      <stop offset=".36" stop-color="#02710f"/>
      <stop offset=".53" stop-color="#016213"/>
      <stop offset=".73" stop-color="#015815"/>
      <stop offset="1" stop-color="#015616"/>
    </linearGradient>
    <clipPath id="clippath">
      <path class="cls-12" d="M192.16,55.92c-2.17,3.74-4.32,7.49-6.48,11.23-8.07,13.94-17.64,26.64-30.06,36.88-3.65,3.01-7.78,5.43-11.73,8.07-1.1.74-1.97,1.49-1.96,2.99.04,5.44.06,10.87,0,16.31-.02,1.39.49,1.94,1.77,2.34,7.64,2.4,15.35,4.64,22.84,7.46,9.68,3.65,18.8,8.49,26.8,15.27.26.22.56.41.83.61.15-.03.29-.07.43-.1v-90.69c.15-.01.29-.02.44-.04.2.42.39.83.59,1.24,2.02,4.03,3.9,8.14,6.1,12.06,3.44,6.13,7.68,11.7,12.29,16.97,8.44,9.65,18.34,17.31,29.97,22.56,2.53,1.14,3.16.7,3.16-2.07,0-.33,0-.66,0-.99-.02-1.46-.63-2.45-2-3.08-1.6-.74-3.15-1.61-4.63-2.56-12.44-8-22.39-18.63-30.64-30.9-4.86-7.24-9.16-14.88-13.71-22.33-.71-1.16-1.45-2.29-2.34-3.69-.67.99-1.21,1.69-1.65,2.45"/>
    </clipPath>
    <linearGradient id="linear-gradient-4" x1="-554.58" y1="991.44" x2="-554" y2="991.44" gradientTransform="translate(176436.17 -98427.31) rotate(-90) scale(177.76 -177.76)" xlink:href="#linear-gradient-3"/>
    <linearGradient id="linear-gradient-5" x1="262.01" y1="286.64" x2="379.15" y2="286.64" gradientUnits="userSpaceOnUse">
      <stop offset=".2" stop-color="#015616"/>
      <stop offset=".55" stop-color="#06b100"/>
      <stop offset=".84" stop-color="#015616"/>
    </linearGradient>
    <clipPath id="clippath-1">
      <path class="cls-7" d="M365.49,232.98c4.37,8.92,1.45,20.44-6.73,27.11-4.29,3.5-9.42,5.25-14.59,6.71-8.06,2.28-16.25,4.11-24.34,6.31-8.65,2.35-16.93,5.61-23.76,11.78-1.15,1.04-2.12,2.35-2.91,3.7-1.21,2.06-2.13,4.29-3.26,6.4-4.63,8.66-9.27,17.32-13.96,25.94-3.65,6.73-7.36,13.43-11.1,20.11-.81,1.44-1.88,2.73-2.83,4.08.37-.03.64-.18.84-.39,2.23-2.34,4.51-4.63,6.65-7.05,10.93-12.41,22.52-24.1,35.64-34.14,9.18-7.03,18.82-13.33,29.71-17.27,5.57-2.01,11.36-3.37,17.06-5,7.71-2.21,14.88-5.52,20.99-10.91,5.2-4.59,7.46-10.4,5.65-17.28-2.83-10.76-8.35-17.43-16.28-24.92,0,0,0,0,0,0-.04,0,2.29,2.87,3.25,4.82"/>
    </clipPath>
    <linearGradient id="linear-gradient-6" x1="-554.73" y1="991.39" x2="-554.16" y2="991.39" gradientTransform="translate(113884.82 203348.08) scale(204.83 -204.83)" xlink:href="#linear-gradient-5"/>
    <linearGradient id="linear-gradient-7" x1="9.71" y1="286.46" x2="126.73" y2="286.46" xlink:href="#linear-gradient-5"/>
    <linearGradient id="linear-gradient-8" x1="9.71" y1="286.46" x2="126.73" y2="286.46" xlink:href="#linear-gradient-5"/>
    <clipPath id="clippath-2">
      <path class="cls-14" d="M26.91,227.34c-.06,0-1.28.64-1.45.82-6.65,6.71-11.77,14.48-14.74,23.63-1.78,5.51-1.3,10.92,2.35,15.57,1.68,2.15,3.76,4.07,5.95,5.69,6.3,4.67,13.42,7.62,20.99,9.33,12.49,2.83,24.02,7.82,34.7,14.98,14.32,9.59,26.88,21.23,38.6,33.89,4.17,4.5,8.32,9.03,12.48,13.54.28.3.62.54.94.81-.85-1.6-1.95-2.95-2.8-4.44-4.32-7.64-8.68-15.27-12.83-23.01-5.29-9.85-10.39-19.81-15.59-29.72-.41-.78-.87-1.6-1.51-2.17-3.55-3.21-7.36-6.05-11.7-8.07-8.64-4.01-17.86-6.19-27.02-8.45-6.7-1.65-13.4-3.2-19.77-6.02-13.6-6.02-19.44-24.57-8.19-36.16.14-.14-.02-.21-.28-.21-.04,0-.09,0-.13,0"/>
    </clipPath>
    <linearGradient id="linear-gradient-9" x1="-553.84" y1="991.39" x2="-553.23" y2="991.39" gradientTransform="translate(113320.96 203128.33) scale(204.6 -204.6)" xlink:href="#linear-gradient-5"/>
    <linearGradient id="linear-gradient-10" x1="186.43" y1="245.84" x2="171.25" y2="272.13" gradientUnits="userSpaceOnUse">
      <stop offset="0" stop-color="#06b100"/>
      <stop offset=".12" stop-color="#099207"/>
      <stop offset=".27" stop-color="#0d740f"/>
      <stop offset=".42" stop-color="#115c15"/>
      <stop offset=".59" stop-color="#134c19"/>
      <stop offset=".77" stop-color="#14421c"/>
      <stop offset="1" stop-color="#153f1d"/>
    </linearGradient>
    <clipPath id="clippath-3">
      <path class="cls-16" d="M163.11,232.88c10.37,17.56,20.4,35.33,31.24,52.59.12-6.8.15-13.5.07-20.21,0-.81-.43-1.79-.98-2.38-7.57-8.18-14.95-16.54-23.21-24.03-2.28-2.07-4.53-4.18-6.79-6.27-.11.1-.23.2-.34.31"/>
    </clipPath>
    <linearGradient id="linear-gradient-11" x1="-554.05" y1="992.02" x2="-554.61" y2="991.05" gradientTransform="translate(30572.67 54624.58) scale(54.83 -54.83)" xlink:href="#linear-gradient-10"/>
    <linearGradient id="linear-gradient-12" x1="134.77" y1="228.64" x2="189.33" y2="228.64" gradientUnits="userSpaceOnUse">
      <stop offset="0" stop-color="#015616"/>
      <stop offset=".11" stop-color="#015a14"/>
      <stop offset=".24" stop-color="#026911"/>
      <stop offset=".37" stop-color="#03800b"/>
      <stop offset=".52" stop-color="#05a103"/>
      <stop offset=".57" stop-color="#06b100"/>
      <stop offset=".6" stop-color="#05a502"/>
      <stop offset=".72" stop-color="#03830b"/>
      <stop offset=".82" stop-color="#026a11"/>
      <stop offset=".92" stop-color="#015b14"/>
      <stop offset="1" stop-color="#015616"/>
    </linearGradient>
    <linearGradient id="linear-gradient-13" x1="227.17" y1="252.42" x2="227.17" y2="204.13" gradientUnits="userSpaceOnUse">
      <stop offset="0" stop-color="#015616"/>
      <stop offset=".11" stop-color="#015a14"/>
      <stop offset=".24" stop-color="#026911"/>
      <stop offset=".37" stop-color="#03800b"/>
      <stop offset=".52" stop-color="#05a103"/>
      <stop offset=".57" stop-color="#06b100"/>
      <stop offset=".6" stop-color="#05a502"/>
      <stop offset=".72" stop-color="#03830b"/>
      <stop offset=".82" stop-color="#026a11"/>
      <stop offset=".92" stop-color="#015b14"/>
      <stop offset="1" stop-color="#015616"/>
    </linearGradient>
    <linearGradient id="linear-gradient-14" x1="246.98" y1="247.89" x2="290.24" y2="247.89" gradientUnits="userSpaceOnUse">
      <stop offset="0" stop-color="#06b100"/>
      <stop offset=".08" stop-color="#05a502"/>
      <stop offset=".34" stop-color="#03830b"/>
      <stop offset=".59" stop-color="#026a11"/>
      <stop offset=".82" stop-color="#015b14"/>
      <stop offset="1" stop-color="#015616"/>
    </linearGradient>
    <clipPath id="clippath-6">
      <path class="cls-10" d="M276.31,234.61c-2.21,2.56-4.26,5.31-6.74,7.57-5.94,5.4-12.09,10.56-18.15,15.82-1.49,1.29-2.96,2.61-4.43,3.91.04.03.08.06.12.09,14.38-7.27,28.76-14.55,43.14-21.82-.06-.06-.15-.18-.27-.25-3.77-1.97-7.54-3.92-11.31-5.89-.33-.17-.63-.25-.91-.25-.54,0-1,.3-1.45.82"/>
    </clipPath>
    <linearGradient id="linear-gradient-15" x1="-553.84" y1="993.24" x2="-553.25" y2="993.24" gradientTransform="translate(47554.7 -26105.13) rotate(-90) scale(47.61 -47.61)" xlink:href="#linear-gradient-14"/>
    <linearGradient id="linear-gradient-16" x1="97.2" y1="247.88" x2="141.57" y2="247.88" xlink:href="#linear-gradient-14"/>
    <linearGradient id="linear-gradient-17" x1="97.2" y1="247.88" x2="141.57" y2="247.88" xlink:href="#linear-gradient-14"/>
    <clipPath id="clippath-7">
      <path class="cls-1" d="M108.54,233.95c-1.89,1.08-3.87,2-5.8,3-1.84.96-3.67,1.93-5.54,2.92,14.84,7.51,29.57,14.96,44.37,22.44-.4-.43-.75-.88-1.17-1.24-1.62-1.4-3.23-2.81-4.9-4.15-7.3-5.9-14.65-11.76-20.78-18.99-.95-1.12-1.96-2.18-2.82-3.36-.57-.78-1.15-1.12-1.81-1.12-.47,0-.98.18-1.55.5"/>
    </clipPath>
    <linearGradient id="linear-gradient-18" x1="-553.83" y1="990.94" x2="-553.23" y2="990.94" gradientTransform="translate(47259.81 -26084.4) rotate(-90) scale(47.57 -47.57)" xlink:href="#linear-gradient-14"/>
    <clipPath id="clippath-8">
      <path class="cls-8" d="M190.6,17.17c-2.25,7.13-4.48,14.26-6.65,21.41-.18.59-.05,1.6.34,2.01,2.68,2.75,5.45,5.39,8.22,8.05.3.29.69.47,1.32.88-.36-12.67-.7-24.97-1.04-37.27-.15-.02-.3-.04-.46-.06-.58,1.66-1.2,3.31-1.73,4.98"/>
    </clipPath>
    <linearGradient id="linear-gradient-19" x1="249.04" y1="124.15" x2="240.13" y2="139.58" xlink:href="#linear-gradient-10"/>
    <linearGradient id="linear-gradient-20" x1="249.04" y1="124.15" x2="240.13" y2="139.58" xlink:href="#linear-gradient-10"/>
    <clipPath id="clippath-9">
      <path class="cls-9" d="M245.25,122.29c0,.88.02,1.77,0,2.65-.06,2.73-.17,5.46-.2,8.19-.02,1.27-.61,1.93-1.75,2.37-1.83.72-3.61,1.57-5.41,2.37.04.16.08.33.13.49.4,0,.8.06,1.18,0,2.14-.37,4.26-.81,6.4-1.14.99-.15,1.35-.62,1.28-1.6-.22-3.38-.39-6.77-.64-10.15-.08-1.09-.36-2.16-.55-3.24-.15.02-.3.04-.44.07"/>
    </clipPath>
    <linearGradient id="linear-gradient-21" x1="-558.45" y1="987.04" x2="-559.03" y2="986.02" gradientTransform="translate(9038.05 15660.04) scale(15.74 -15.74)" xlink:href="#linear-gradient-10"/>
  </defs>
  <g>
    <path class="cls-2" d="M156.38,143.45c1.54-.2,3.38.13,5.12,1.14.77.45,1.63.73,2.42,1.15,2.67,1.41,5.43,2.6,7.82,4.59,2.09,1.73,4.61,2.91,6.86,4.46.67.46,1.41,1.34,1.45,2.06.02.48-1.08,1.28-1.8,1.49-3.06.87-6.16,2.14-9.27,2.21-7.84.18-14.67-2.88-16.37-12.92-.68-4.04-.6-4.05,3.79-4.18Z"/>
    <path class="cls-11" d="M237.34,143.54c1.14,7.14-3.59,14.34-10.54,16.35-4.65,1.35-9.14.64-13.59-.92-.92-.32-1.86-.63-2.72-1.09-1-.54-1.13-1.38-.34-2.21.58-.61,1.32-1.07,2.02-1.55,2.46-1.7,4.9-3.45,7.42-5.06,1.65-1.05,3.44-1.89,5.18-2.79.83-.43,1.76-.69,2.53-1.21,3.11-2.09,6.55-1.63,10.03-1.53Z"/>
  </g>
  <g>
    <g>
      <path class="cls-27" d="M89.19,244.94c.63-1.02,6.82-3.47,9.46-4.96,4.64-2.61,9.22-5.33,13.8-8.04,3-1.77,5.1-4.45,6.88-7.4,2.53-4.17,3.46-4.5,7.99-2.69.04.02.08.04.13.05,4.36,1.65,5.59,1.26,8.45-2.61,1.5-2.03,3.06-4,4.58-6.01.96-1.26.91-1.66-.4-2.41-1.49-.84-3.08-1.51-4.53-2.41-.58-.36-1.3-1.19-1.25-1.72.09-.85.73-1.67,1.24-2.44.4-.62,1.18-1.06,1.38-1.71,2.06-6.68,3.47-13.48,4.02-20.48.59-7.59.28-15.07-2.04-22.36-.46-1.42-.94-2.88-1.69-4.15-.56-.96-1.42-2.05-2.38-2.42-3.33-1.28-4.76-3.86-5.61-7.14-1.24-4.81-1.99-9.67-1.6-14.62.22-2.83.87-5.64,1.44-8.43.25-1.23.92-2.1,2.33-2.46,2.12-.55,3.29-2.22,3.59-4.39,1.62-11.78,6.64-22.14,13.2-31.74,5.85-8.56,14.1-13.95,23.74-17.17,2.62-.88,5.32-1.53,7.99-2.27,2.28-.63,3.44-2,3.39-4.3-.09-4.26-.82-8.35-3.81-11.59-.96-1.04-.91-2-.5-3.2,2.63-7.83,5.2-15.67,7.82-23.5,2.17-6.49,4.38-12.97,6.57-19.45.05-.13.06-.29.15-.39.3-.35.63-.69.94-1.03.28.33.67.61.81,1,.93,2.45,1.86,4.91,2.68,7.4,3.92,11.84,7.79,23.71,11.75,35.54.53,1.59.52,2.77-.63,4.08-2.97,3.35-3.61,7.48-3.43,11.81.08,1.9,1.16,3.07,2.93,3.63,4.39,1.38,8.89,2.53,13.14,4.28,9.34,3.84,16.43,10.46,21.58,19.25,4.05,6.92,7.54,14.11,9.47,21.98.41,1.68.7,3.39.94,5.1.37,2.68,1.6,4.59,4.29,5.24,1.24.3,1.54,1.34,1.77,2.3.51,2.18.96,4.4,1.24,6.62.81,6.26-.15,12.35-2.01,18.31-.62,2-1.66,3.7-3.71,4.47-2.57.97-3.85,2.99-4.77,5.5-1.87,5.07-2.61,10.31-2.84,15.69-.42,9.98,1.38,19.6,4.21,29.07.16.55.5,1.14.93,1.5,1.86,1.56,1.65,3.4-.52,4.41-1.34.62-2.61,1.4-3.93,2.06-.92.46-1.03,1.14-.52,1.93.45.71.99,1.35,1.51,2.01,1.65,2.14,3.3,4.3,4.97,6.43,1.4,1.78,3.15,2.32,5.28,1.5,1.29-.5,2.59-1.01,3.9-1.44,2.02-.66,3.49-.16,4.73,1.58,1.47,2.05,2.76,4.26,4.41,6.14,2.87,3.28,6.7,5.3,10.4,7.39,4.73,2.67,9.58,5.1,14.37,7.64.27.14.52.34,1.03.68-2.2,1.03-4.19,1.97-6.19,2.88-12.84,5.8-25.36,12.25-37.48,19.5-12.4,7.41-24.33,15.52-35.53,24.72-7.99,6.57-15.46,13.71-22.46,21.37-1.94,2.12-2.56,2.15-4.54-.02-11.98-13.17-25.42-24.57-40.03-34.59-10.92-7.49-22.16-14.45-33.94-20.44-8.66-4.4-17.48-8.49-26.23-12.73-.49-.24-.94-.54-1.74-1.01M195.53,205.46c-.21,0-1.16.07-1.37.08-.66-1.47-1.35-2.92-1.98-4.4-4.91-11.57-7.28-23.83-9.49-36.14-.41-2.29-1.41-4.22-3.51-5.28-7.58-3.8-15.18-7.55-22.78-11.3-2.53-1.25-5.08-2.45-7.63-3.65-1.44-.68-2.76-.15-2.86,1.27-.27,3.91.39,7.68,2.76,10.83,2.34,3.12,5.36,5.56,8.64,7.65,3.59,2.3,7.17,4.61,10.76,6.91,1.7,1.09,2.59,2.68,3.03,4.65,1.17,5.16,2.41,10.31,3.64,15.45,3.1,12.98,6.22,25.96,9.32,38.94,1.1,4.6,2.19,9.21,3.26,13.82.47,2.04.45,2.08,2.6,2.2,2.44.14,4.88.25,7.33.28,1.05.01,2.12-.13,3.15-.32.35-.07.84-.46.92-.79.61-2.5,1.08-5.04,1.68-7.54,3.04-12.78,6.1-25.55,9.15-38.33,1.74-7.3,3.51-14.59,5.22-21.9.5-2.15.74-4.39,2.7-5.82,1.61-1.18,3.19-2.41,4.84-3.52,3.73-2.5,7.64-4.75,11.22-7.45,4.66-3.51,7.13-8.3,6.81-14.36-.1-1.89-1.24-2.64-2.9-1.85-3.73,1.76-7.46,3.52-11.16,5.35-6.28,3.1-12.51,6.29-18.8,9.38-2.03,1-3.28,2.53-3.77,4.73-.4,1.78-.75,3.57-1.07,5.36-1.83,10.25-4.07,20.38-8.02,30.04-.79,1.93-1.68,4.36-2.5,6.28"/>
      <path class="cls-27" d="M194.49,459.49c-3.53-6.56-6.86-13-10.41-19.31-8.72-15.5-19.1-29.84-30.01-43.77-7.93-10.13-15.99-20.16-24.19-30.06-6.87-8.29-13.97-16.39-21.09-24.46-4.41-5-8.92-9.93-13.65-14.61-5.65-5.59-12.21-10.01-19.07-13.95-12.32-7.06-25.69-11.26-39.22-15.06-7.43-2.09-14.78-4.46-21.45-8.53-10.76-6.57-15.22-16.42-14.28-28.99.56-7.52,4.01-13.78,8.4-19.6,5.24-6.94,12.08-11.84,19.68-15.68,9.23-4.66,18.69-8.75,28.74-11.24,2.23-.55,4.52-.88,6.79-1.24.5-.08.97,1.01.58,1.18-6.67,2.97-12.97,6.57-18.56,11.35-2.39,2.05-4.66,4.31-6.69,6.73-3.95,4.71-3.44,10.16.66,14.71,4.13,4.57,9.22,7.78,14.53,10.68,7.77,4.23,15.56,8.44,23.32,12.7,6.08,3.33,10.58,8.31,14.55,14,3.66,5.25,5.97,11.2,9.06,16.74,3.64,6.54,7.19,13.13,10.77,19.7,2.91,5.34,5.85,10.65,8.67,16.04,3.01,5.74,7.07,10.54,12.09,14.52,1.53,1.21,5.29,4.18,5.83,4.23-22.43-36.34-41.08-74.76-62.08-112.34.84.27,1.35.36,1.79.59,11.01,5.84,22.02,11.69,33.03,17.53,4.42,2.35,8.84,4.69,13.27,7.01,2.79,1.46,2.84,2.25.47,4.42-2.77,2.55-5.6,5.06-8.12,7.85-2.83,3.13-2.92,6.99-.45,10.47,3.75,5.3,7.71,10.44,11.45,15.75,7.01,9.98,13.88,20.05,20.87,30.05,9.95,14.24,19.96,28.45,29.93,42.68,4.53,6.47,9.03,12.97,13.55,19.44.37.53.79,1.01,1.3,1.65,1.96-2.8,3.84-5.46,5.71-8.13,11.97-17.07,23.97-34.12,35.9-51.22,8.51-12.2,16.91-24.48,25.43-36.67,2.86-4.1,5.91-8.07,8.88-12.08,1.27-1.71,2.35-3.48,2.52-5.7.25-3.17-1.24-5.53-3.36-7.56-2.35-2.25-4.78-4.43-7.17-6.64-.03-.03-.07-.07-.1-.1-1.88-1.85-1.79-2.63.51-3.85,7.12-3.79,14.26-7.57,21.39-11.35,8.36-4.44,16.71-8.88,25.08-13.31.5-.26,1.04-.43,1.69-.5-20.67,37.39-39.35,75.84-61.92,112.06.11.11,8.15-5.97,11.21-8.97,1.77-1.73,3.33-3.79,4.58-5.95,3.7-6.39,7.27-12.86,10.75-19.37,6.1-11.37,11.82-22.96,18.23-34.15,4.29-7.5,10.18-13.64,18-17.71,8.68-4.51,17.22-9.31,25.77-14.08,4.03-2.25,7.69-5.07,10.72-8.62,4.14-4.86,4.27-10.27-.67-15.73-6.74-7.44-23.88-17.91-23.23-17.84,6.9.77,13.45,2.86,19.82,5.55,5.2,2.19,10.4,4.42,15.46,6.93,9.87,4.9,18.1,11.77,23.58,21.66,5.95,10.73,6.34,21.63.38,32.49-2.97,5.41-7.72,8.91-13.03,11.66-6.95,3.6-14.4,5.81-21.88,7.91-10.55,2.96-20.95,6.35-30.79,11.32-8.1,4.09-15.65,9.03-22.52,15.03-5.95,5.2-11.04,11.23-16.25,17.15-4.99,5.67-9.94,11.38-14.8,17.16-6.54,7.78-13.1,15.54-19.42,23.5-7.27,9.18-14.38,18.49-21.37,27.89-7.23,9.71-13.89,19.83-19.76,30.46-3.19,5.77-6.22,11.64-9.38,17.56"/>
      <path class="cls-27" d="M228.1,334.13c-.15-.13-1.04-.94-1.18-1.07-10.83,9.09-21.66,18.17-32.39,27.17-5.41-4.52-10.86-9.07-16.3-13.63-5.46-4.58-10.91-9.17-16.36-13.75-.15.13-.29.26-.44.39,10.97,15.27,21.95,30.55,33.05,46,11.1-15.46,21.99-30.62,32.87-45.79"/>
    </g>
    <g>
      <path class="cls-28" d="M192.16,55.92c-2.17,3.74-4.32,7.49-6.48,11.23-8.07,13.94-17.64,26.64-30.06,36.88-3.65,3.01-7.78,5.43-11.73,8.07-1.1.74-1.97,1.49-1.96,2.99.04,5.44.06,10.87,0,16.31-.02,1.39.49,1.94,1.77,2.34,7.64,2.4,15.35,4.64,22.84,7.46,9.68,3.65,18.8,8.49,26.8,15.27.26.22.56.41.83.61.15-.03.29-.07.43-.1v-90.69c.15-.01.29-.02.44-.04.2.42.39.83.59,1.24,2.02,4.03,3.9,8.14,6.1,12.06,3.44,6.13,7.68,11.7,12.29,16.97,8.44,9.65,18.34,17.31,29.97,22.56,2.53,1.14,3.16.7,3.16-2.07,0-.33,0-.66,0-.99-.02-1.46-.63-2.45-2-3.08-1.6-.74-3.15-1.61-4.63-2.56-12.44-8-22.39-18.63-30.64-30.9-4.86-7.24-9.16-14.88-13.71-22.33-.71-1.16-1.45-2.29-2.34-3.69-.67.99-1.21,1.69-1.65,2.45"/>
      <g class="cls-30">
        <rect class="cls-17" x="141.91" y="53.47" width="105.23" height="103.62"/>
      </g>
    </g>
    <g>
      <path class="cls-21" d="M365.49,232.98c4.37,8.92,1.45,20.44-6.73,27.11-4.29,3.5-9.42,5.25-14.59,6.71-8.06,2.28-16.25,4.11-24.34,6.31-8.65,2.35-16.93,5.61-23.76,11.78-1.15,1.04-2.12,2.35-2.91,3.7-1.21,2.06-2.13,4.29-3.26,6.4-4.63,8.66-9.27,17.32-13.96,25.94-3.65,6.73-7.36,13.43-11.1,20.11-.81,1.44-1.88,2.73-2.83,4.08.37-.03.64-.18.84-.39,2.23-2.34,4.51-4.63,6.65-7.05,10.93-12.41,22.52-24.1,35.64-34.14,9.18-7.03,18.82-13.33,29.71-17.27,5.57-2.01,11.36-3.37,17.06-5,7.71-2.21,14.88-5.52,20.99-10.91,5.2-4.59,7.46-10.4,5.65-17.28-2.83-10.76-8.35-17.43-16.28-24.92,0,0,0,0,0,0-.04,0,2.29,2.87,3.25,4.82"/>
      <g class="cls-24">
        <rect class="cls-4" x="262.01" y="228.16" width="118.33" height="116.97"/>
      </g>
    </g>
    <g>
      <path class="cls-32" d="M26.91,227.34c-.06,0-1.28.64-1.45.82-6.65,6.71-11.77,14.48-14.74,23.63-1.78,5.51-1.3,10.92,2.35,15.57,1.68,2.15,3.76,4.07,5.95,5.69,6.3,4.67,13.42,7.62,20.99,9.33,12.49,2.83,24.02,7.82,34.7,14.98,14.32,9.59,26.88,21.23,38.6,33.89,4.17,4.5,8.32,9.03,12.48,13.54.28.3.62.54.94.81-.85-1.6-1.95-2.95-2.8-4.44-4.32-7.64-8.68-15.27-12.83-23.01-5.29-9.85-10.39-19.81-15.59-29.72-.41-.78-.87-1.6-1.51-2.17-3.55-3.21-7.36-6.05-11.7-8.07-8.64-4.01-17.86-6.19-27.02-8.45-6.7-1.65-13.4-3.2-19.77-6.02-13.6-6.02-19.44-24.57-8.19-36.16.14-.14-.02-.21-.28-.21-.04,0-.09,0-.13,0"/>
      <g class="cls-19">
        <rect class="cls-13" x="2.45" y="224.08" width="124.27" height="124.76"/>
      </g>
    </g>
    <g>
      <path class="cls-25" d="M163.11,232.88c10.37,17.56,20.4,35.33,31.24,52.59.12-6.8.15-13.5.07-20.21,0-.81-.43-1.79-.98-2.38-7.57-8.18-14.95-16.54-23.21-24.03-2.28-2.07-4.53-4.18-6.79-6.27-.11.1-.23.2-.34.31"/>
      <g class="cls-31">
        <rect class="cls-6" x="163.11" y="232.57" width="31.39" height="52.9"/>
      </g>
    </g>
    <path class="cls-35" d="M134.89,206.31c-.28,1.22-.15,2.2,1.11,2.85,2.18,1.13,4.4,2.22,6.47,3.54,16.38,10.4,30.59,23.37,43.28,38.13.55.64,1.09,1.31,1.77,1.79.38.26,1.09.32,1.5.13.25-.12.37-.92.28-1.36-.48-2.32-1.63-4.3-3.18-6.04-1.65-1.86-3.34-3.67-5.03-5.49-12.51-13.5-26.25-25.44-42.2-34.58-.64-.36-1.32-.64-1.79-.86-1.38.13-1.97.81-2.22,1.89"/>
    <path class="cls-36" d="M250.53,204.59c-18.42,10.42-33.79,24.61-47.73,40.51-1.42,1.62-2.12,3.91-3.07,5.93-.15.31.03,1.02.3,1.23.28.21.96.21,1.26,0,.68-.47,1.28-1.08,1.82-1.72,6.62-7.74,13.65-15.07,21.35-21.69,8.93-7.68,18.08-15.06,28.68-20.29.57-.28.92-1.04,1.52-1.75-.58-.99-.89-2.13-1.59-2.52-.21-.12-.49-.17-.8-.17-.59,0-1.27.19-1.75.46"/>
    <g>
      <path class="cls-18" d="M276.31,234.61c-2.21,2.56-4.26,5.31-6.74,7.57-5.94,5.4-12.09,10.56-18.15,15.82-1.49,1.29-2.96,2.61-4.43,3.91.04.03.08.06.12.09,14.38-7.27,28.76-14.55,43.14-21.82-.06-.06-.15-.18-.27-.25-3.77-1.97-7.54-3.92-11.31-5.89-.33-.17-.63-.25-.91-.25-.54,0-1,.3-1.45.82"/>
      <g class="cls-20">
        <rect class="cls-5" x="246.98" y="233.79" width="43.26" height="28.21"/>
      </g>
    </g>
    <g>
      <path class="cls-26" d="M108.54,233.95c-1.89,1.08-3.87,2-5.8,3-1.84.96-3.67,1.93-5.54,2.92,14.84,7.51,29.57,14.96,44.37,22.44-.4-.43-.75-.88-1.17-1.24-1.62-1.4-3.23-2.81-4.9-4.15-7.3-5.9-14.65-11.76-20.78-18.99-.95-1.12-1.96-2.18-2.82-3.36-.57-.78-1.15-1.12-1.81-1.12-.47,0-.98.18-1.55.5"/>
      <g class="cls-22">
        <rect class="cls-15" x="97.2" y="233.45" width="44.37" height="28.87"/>
      </g>
    </g>
    <g>
      <path class="cls-23" d="M190.6,17.17c-2.25,7.13-4.48,14.26-6.65,21.41-.18.59-.05,1.6.34,2.01,2.68,2.75,5.45,5.39,8.22,8.05.3.29.69.47,1.32.88-.36-12.67-.7-24.97-1.04-37.27-.15-.02-.3-.04-.46-.06-.58,1.66-1.2,3.31-1.73,4.98"/>
      <g class="cls-33">
        <rect class="cls-8" x="183.77" y="12.19" width="10.06" height="37.33"/>
      </g>
    </g>
    <g>
      <path class="cls-34" d="M245.25,122.29c0,.88.02,1.77,0,2.65-.06,2.73-.17,5.46-.2,8.19-.02,1.27-.61,1.93-1.75,2.37-1.83.72-3.61,1.57-5.41,2.37.04.16.08.33.13.49.4,0,.8.06,1.18,0,2.14-.37,4.26-.81,6.4-1.14.99-.15,1.35-.62,1.28-1.6-.22-3.38-.39-6.77-.64-10.15-.08-1.09-.36-2.16-.55-3.24-.15.02-.3.04-.44.07"/>
      <g class="cls-29">
        <rect class="cls-3" x="237.89" y="122.22" width="9.06" height="16.19"/>
      </g>
    </g>
  </g>
</svg>