<svg width="500" height="500" viewBox="0 0 500 500" fill="none" xmlns="http://www.w3.org/2000/svg">
<g clip-path="url(#clip0_322_1005)">
<path opacity="0.3" d="M252.109 394.012C340.454 394.012 412.072 386.703 412.072 377.687C412.072 368.671 340.454 361.362 252.109 361.362C163.764 361.362 92.146 368.671 92.146 377.687C92.146 386.703 163.764 394.012 252.109 394.012Z" fill="url(#paint0_linear_322_1005)"/>
<path opacity="0.3" d="M381.644 412.536C403.53 412.536 421.273 409.342 421.273 405.402C421.273 401.462 403.53 398.268 381.644 398.268C359.757 398.268 342.015 401.462 342.015 405.402C342.015 409.342 359.757 412.536 381.644 412.536Z" fill="url(#paint1_linear_322_1005)"/>
<path opacity="0.3" d="M136.181 413.268C163.57 413.268 185.774 408.791 185.774 403.267C185.774 397.744 163.57 393.266 136.181 393.266C108.791 393.266 86.5879 397.744 86.5879 403.267C86.5879 408.791 108.791 413.268 136.181 413.268Z" fill="url(#paint2_linear_322_1005)"/>
<g opacity="0.7">
<path d="M89.925 341.475C67.459 305.198 89.665 271.999 97.652 249.443C112.99 206.126 97.847 196.901 100.397 157.138C103.475 109.133 152.056 97.841 191.995 119.176C214.547 131.223 239.633 160.448 262.484 144.153C295.143 120.864 330.773 109.503 354.754 130.936C373.052 147.289 365.272 170.511 387.577 201.372C400.323 219.007 417.285 236.524 426.588 267.972C432.406 287.639 436.482 317.174 418.833 341.577L89.925 341.475Z" fill="url(#paint3_linear_322_1005)"/>
</g>
<path d="M68.5459 341.748H435.672" stroke="url(#paint4_linear_322_1005)" stroke-miterlimit="10"/>
<path d="M406.464 166.367L403.73 166.318C402.365 166.293 401.143 165.401 400.774 164.087C400.285 162.344 399.61 160.677 398.774 159.109C398.121 157.885 398.391 156.372 399.389 155.409L401.542 153.332C402.794 152.124 402.83 150.131 401.622 148.879L399.026 146.188C397.818 144.936 395.825 144.9 394.573 146.108L392.295 148.306C391.302 149.264 389.796 149.512 388.583 148.854C386.929 147.957 385.162 147.24 383.307 146.732C381.944 146.359 381.033 145.071 381.058 143.658L381.101 141.243C381.132 139.504 379.748 138.069 378.009 138.038L374.27 137.971C372.531 137.94 371.096 139.324 371.065 141.063L371.009 144.174C370.985 145.533 370.081 146.694 368.792 147.125C367.323 147.615 365.915 148.239 364.58 148.981C363.405 149.634 361.955 149.527 360.936 148.649L357.767 145.921C356.449 144.786 354.46 144.935 353.326 146.253L350.887 149.087C349.752 150.405 349.901 152.394 351.219 153.528L353.684 155.65C354.777 156.591 355.103 158.16 354.443 159.442C353.823 160.648 353.297 161.912 352.877 163.224C352.461 164.524 351.208 165.374 349.843 165.349L347.109 165.3C345.37 165.269 343.935 166.653 343.904 168.392L343.837 172.131C343.806 173.87 345.19 175.305 346.929 175.336L349.645 175.385C351.018 175.41 352.25 176.306 352.623 177.628C352.904 178.625 353.246 179.597 353.644 180.54C354.213 181.887 353.749 183.447 352.558 184.295L350.756 185.577C349.339 186.585 349.007 188.551 350.015 189.969L352.182 193.016C353.19 194.433 355.156 194.765 356.574 193.757L359.357 191.777C360.436 191.009 361.864 191.022 362.97 191.751C364.517 192.77 366.184 193.622 367.946 194.281C369.218 194.757 370.08 195.948 370.055 197.306L369.999 200.42C369.968 202.159 371.352 203.594 373.091 203.625L376.83 203.692C378.569 203.723 380.004 202.339 380.035 200.6L380.078 198.185C380.103 196.771 381.061 195.518 382.437 195.193C384.299 194.754 386.081 194.106 387.758 193.276C388.99 192.666 390.481 192.968 391.436 193.957L393.671 196.274C394.878 197.526 396.872 197.562 398.124 196.354L400.815 193.758C402.067 192.55 402.103 190.557 400.895 189.305L398.8 187.133C397.836 186.134 397.621 184.61 398.32 183.41C399.22 181.864 399.96 180.213 400.515 178.478C400.931 177.178 402.186 176.33 403.551 176.355L406.283 176.404C408.022 176.435 409.457 175.051 409.488 173.312L409.555 169.574C409.587 167.833 408.203 166.398 406.464 166.367ZM376.398 187.454C367.229 187.289 359.929 179.723 360.094 170.553C360.259 161.384 367.825 154.084 376.994 154.249C386.163 154.414 393.463 161.98 393.298 171.15C393.134 180.319 385.567 187.619 376.398 187.454Z" fill="#92EA91"/>
<path d="M385.573 312.346C402.929 311.718 414.337 314.193 421.961 317.09C425.773 318.539 428.647 320.096 430.854 321.433C431.96 322.103 432.896 322.716 433.709 323.239C434.513 323.757 435.21 324.196 435.811 324.494H435.812C436.077 324.625 436.253 324.741 436.363 324.839C436.474 324.938 436.492 324.994 436.494 325.002C436.495 325.005 436.495 325.008 436.494 325.012C436.493 325.019 436.489 325.037 436.472 325.068C436.437 325.135 436.357 325.235 436.202 325.368C435.889 325.634 435.377 325.941 434.664 326.307C433.958 326.67 433.09 327.074 432.086 327.539C428.079 329.394 422.027 332.173 416.3 336.952C413.424 339.351 411.215 341.961 409.154 344.539C407.085 347.126 405.179 349.661 402.877 351.979C398.31 356.576 392.176 360.32 380.251 361.469C368.103 362.64 359.442 367.464 353.816 372C351.005 374.266 348.951 376.461 347.599 378.092C347.156 378.628 346.787 379.103 346.492 379.5L346.371 368.919C346.371 368.915 346.372 368.91 346.373 368.904C346.375 368.878 346.379 368.838 346.384 368.787C346.394 368.683 346.41 368.527 346.431 368.325C346.475 367.919 346.543 367.324 346.643 366.564C346.843 365.044 347.167 362.869 347.665 360.254C348.661 355.024 350.349 348.043 353.118 341.029C358.67 326.962 368.479 312.965 385.573 312.346Z" fill="url(#paint5_linear_322_1005)" stroke="#1A9D25"/>
<path d="M346.011 381.07C346.011 381.07 361.617 324.679 415.296 326.59" stroke="#1A9D25" stroke-width="1.0039" stroke-miterlimit="10" stroke-linecap="round"/>
<path d="M373.576 267.836C388.046 262.277 398.392 261.062 405.662 261.299C409.298 261.417 412.174 261.899 414.423 262.388C415.549 262.633 416.517 262.88 417.355 263.086C418.185 263.29 418.904 263.46 419.502 263.537V263.536C419.76 263.57 419.937 263.617 420.052 263.665C420.131 263.698 420.166 263.725 420.179 263.738C420.182 263.764 420.176 263.86 420.045 264.082C419.861 264.392 419.522 264.795 419.026 265.311C418.536 265.821 417.92 266.413 417.207 267.097C414.361 269.825 410.05 273.93 406.594 279.633C404.859 282.497 403.748 285.346 402.754 288.121C401.755 290.908 400.882 293.598 399.611 296.22C397.093 301.414 393.007 306.346 383.279 310.768C373.348 315.282 367.423 321.874 363.982 327.343C362.262 330.076 361.163 332.529 360.493 334.301C360.299 334.815 360.14 335.272 360.013 335.662L356.897 326.914C356.896 326.911 356.895 326.906 356.894 326.902C356.889 326.879 356.881 326.845 356.87 326.8C356.848 326.71 356.816 326.574 356.776 326.397C356.696 326.042 356.581 325.519 356.445 324.849C356.173 323.508 355.817 321.579 355.48 319.228C354.806 314.524 354.208 308.141 354.513 301.419C355.126 287.934 359.35 273.301 373.576 267.836Z" fill="url(#paint6_linear_322_1005)" stroke="#1A9D25"/>
<path d="M360.064 337.295C360.064 337.295 356.899 285.146 402.789 271.201Z" fill="url(#paint7_linear_322_1005)"/>
<path d="M360.064 337.295C360.064 337.295 356.899 285.146 402.789 271.201" stroke="#1A9D25" stroke-width="1.0039" stroke-miterlimit="10" stroke-linecap="round"/>
<path d="M224.699 188.862L218.776 189.108C215.819 189.23 213.059 187.456 212.091 184.66C210.807 180.951 209.133 177.43 207.121 174.144C205.55 171.579 205.939 168.27 207.976 166.057L212.368 161.285C214.922 158.51 214.743 154.191 211.968 151.637L206.003 146.147C203.228 143.593 198.908 143.772 196.355 146.547L191.707 151.597C189.682 153.798 186.453 154.529 183.743 153.262C180.048 151.534 176.131 150.21 172.051 149.349C169.052 148.717 166.915 146.048 166.788 142.985L166.571 137.753C166.415 133.985 163.234 131.058 159.466 131.214L151.366 131.55C147.598 131.706 144.67 134.887 144.827 138.655L145.107 145.395C145.229 148.34 143.424 150.969 140.689 152.067C137.573 153.317 134.606 154.848 131.813 156.626C129.353 158.192 126.203 158.145 123.884 156.377L116.674 150.881C113.675 148.595 109.39 149.173 107.104 152.172L102.189 158.619C99.903 161.618 100.481 165.902 103.48 168.189L109.088 172.464C111.575 174.36 112.481 177.713 111.219 180.574C110.031 183.265 109.057 186.068 108.316 188.961C107.583 191.829 104.981 193.829 102.023 193.952L96.099 194.198C92.331 194.355 89.403 197.536 89.56 201.303L89.896 209.403C90.052 213.171 93.234 216.099 97.001 215.942L102.886 215.698C105.862 215.575 108.642 217.356 109.619 220.168C110.356 222.29 111.222 224.349 112.205 226.339C113.609 229.181 112.806 232.618 110.337 234.605L106.602 237.611C103.664 239.975 103.199 244.274 105.564 247.212L110.647 253.527C113.011 256.465 117.31 256.93 120.248 254.565L126.017 249.922C128.253 248.122 131.345 247.966 133.832 249.4C137.311 251.406 141.028 253.035 144.928 254.234C147.743 255.1 149.76 257.566 149.882 260.509L150.162 267.256C150.318 271.024 153.499 273.952 157.267 273.795L165.367 273.459C169.135 273.303 172.063 270.121 171.906 266.354L171.689 261.121C171.562 258.057 173.473 255.222 176.41 254.343C180.383 253.154 184.157 251.521 187.68 249.508C190.268 248.029 193.534 248.49 195.728 250.509L200.864 255.236C203.639 257.79 207.958 257.611 210.512 254.836L216.002 248.871C218.556 246.096 218.377 241.776 215.602 239.223L210.787 234.792C208.572 232.753 207.91 229.484 209.268 226.797C211.017 223.336 212.406 219.666 213.384 215.839C214.117 212.971 216.723 210.976 219.681 210.853L225.601 210.607C229.369 210.451 232.297 207.269 232.14 203.502L231.804 195.402C231.648 191.634 228.467 188.706 224.699 188.862ZM172.561 240.605C151.13 247.175 128.43 235.128 121.86 213.696C115.29 192.265 127.336 169.565 148.768 162.995C170.199 156.425 192.899 168.472 199.47 189.903C206.039 211.334 193.992 234.034 172.561 240.605Z" fill="#92EA91"/>
<path d="M150.709 169.385C132.836 174.874 122.76 193.882 128.249 211.755C133.738 229.628 152.746 239.703 170.619 234.214C188.492 228.725 198.567 209.718 193.078 191.845C187.589 173.971 168.583 163.896 150.709 169.385ZM169.019 229.003C154.019 233.61 138.067 225.155 133.46 210.155C128.853 195.155 137.309 179.203 152.309 174.596C167.309 169.989 183.26 178.446 187.867 193.446C192.474 208.445 184.019 224.396 169.019 229.003Z" fill="#92EA91"/>
<path d="M394.044 376.868H111.129C109.01 376.868 108.067 374.205 109.713 372.871L144.545 344.646H361.02L395.463 372.899C397.088 374.233 396.146 376.868 394.044 376.868Z" fill="url(#paint8_linear_322_1005)"/>
<path d="M361.02 344.647H144.545V207.727C144.545 204.151 147.444 201.252 151.02 201.252H354.545C358.121 201.252 361.02 204.151 361.02 207.727V344.647Z" fill="#008B23"/>
<path d="M396.188 375.202C395.943 376.109 395.169 376.868 394.043 376.868H111.129C109.99 376.868 109.21 376.094 108.97 375.176C108.913 375.345 108.875 375.524 108.875 375.712V380.84C108.875 381.796 109.65 382.572 110.607 382.572H394.554C395.51 382.572 396.286 381.797 396.286 380.84V375.755C396.286 375.561 396.247 375.377 396.188 375.202Z" fill="url(#paint9_linear_322_1005)"/>
<path d="M279.586 379.046H218.716C217.55 379.046 216.605 378.101 216.605 376.935V376.844H281.789C281.789 378.059 280.803 379.046 279.586 379.046Z" fill="url(#paint10_linear_322_1005)"/>
<path d="M155.894 349.835H350.637C350.934 349.835 351.22 349.951 351.433 350.16L360.273 358.807C361.002 359.52 360.497 360.758 359.477 360.758H147.284C146.271 360.758 145.763 359.535 146.478 358.817L155.088 350.17C155.301 349.955 155.591 349.835 155.894 349.835Z" fill="url(#paint11_linear_322_1005)"/>
<path d="M280.122 373.431H219.441C218.607 373.431 218.104 372.507 218.557 371.807L222.694 365.408C222.888 365.108 223.221 364.927 223.578 364.927H277.077C277.483 364.927 277.853 365.161 278.028 365.527L281.072 371.926C281.405 372.625 280.896 373.431 280.122 373.431Z" fill="url(#paint12_linear_322_1005)"/>
<path d="M345.906 335.222H159.256C156.644 335.222 154.527 333.105 154.527 330.493V215.111C154.527 212.499 156.644 210.382 159.256 210.382H345.907C348.519 210.382 350.636 212.499 350.636 215.111V330.493C350.635 333.105 348.518 335.222 345.906 335.222Z" fill="url(#paint13_linear_322_1005)"/>
<path d="M98.168 224.386H167.472C169.681 224.386 171.472 226.177 171.472 228.387V279.43C171.472 281.639 169.681 283.43 167.472 283.43H98.168C95.959 283.43 94.167 281.639 94.167 279.43V228.387C94.167 226.177 95.958 224.386 98.168 224.386Z" fill="url(#paint14_linear_322_1005)"/>
<path d="M126.719 270.441C126.603 270.441 126.487 270.422 126.371 270.377C125.86 270.186 125.6 269.615 125.793 269.103L136.866 239.542C137.057 239.03 137.62 238.763 138.14 238.964C138.65 239.156 138.911 239.726 138.718 240.238L127.645 269.798C127.496 270.195 127.119 270.441 126.719 270.441Z" fill="#055519"/>
<path d="M121.3 262.888C121.172 262.888 121.045 262.865 120.921 262.812L103.899 255.74C103.442 255.55 103.437 254.904 103.892 254.707L120.682 247.45C121.181 247.233 121.765 247.462 121.983 247.966C122.2 248.467 121.969 249.051 121.467 249.267L108.965 254.672C108.511 254.868 108.516 255.514 108.973 255.704L121.68 260.981C122.186 261.192 122.424 261.77 122.216 262.275C122.056 262.658 121.689 262.888 121.3 262.888Z" fill="#055519"/>
<path d="M142.207 262.888C142.335 262.888 142.462 262.865 142.586 262.812L159.608 255.74C160.066 255.55 160.07 254.904 159.615 254.707L142.825 247.45C142.326 247.233 141.742 247.462 141.524 247.966C141.307 248.467 141.537 249.051 142.04 249.267L154.541 254.672C154.995 254.868 154.99 255.514 154.533 255.704L141.826 260.981C141.32 261.192 141.082 261.77 141.291 262.275C141.451 262.658 141.818 262.888 142.207 262.888Z" fill="#055519"/>
<path d="M402.673 358.39H393.992C394.062 357.762 394.164 357.143 394.164 356.494C394.164 348.012 387.988 341.112 380.397 341.112C372.805 341.112 366.629 348.012 366.629 356.494C366.629 357.143 366.731 357.762 366.801 358.39H358.119C358.059 358.39 358.009 358.421 357.951 358.426C357.905 357.786 357.861 357.146 357.861 356.494C357.861 342.875 367.97 331.795 380.397 331.795C392.823 331.795 402.933 342.875 402.933 356.494C402.933 357.146 402.889 357.787 402.844 358.426C402.783 358.422 402.733 358.39 402.673 358.39Z" fill="#055519"/>
<path d="M401.612 405.311H359.18C357.46 405.311 356.066 403.917 356.066 402.197V359.765C356.066 358.045 357.46 356.651 359.18 356.651H401.612C403.332 356.651 404.726 358.045 404.726 359.765V402.197C404.726 403.917 403.332 405.311 401.612 405.311Z" fill="url(#paint15_linear_322_1005)"/>
<path d="M384.811 374.607C384.811 371.893 382.363 369.752 379.555 370.27C377.855 370.584 376.448 371.941 376.086 373.632C375.609 375.86 376.815 377.881 378.67 378.67V388.238C378.67 389.112 379.379 389.821 380.253 389.821H380.482C381.388 389.821 382.122 389.087 382.122 388.182V378.671C383.702 377.997 384.811 376.432 384.811 374.607Z" fill="#055519"/>
<path d="M373.152 308.678H198.722C192.972 308.678 188.311 304.017 188.311 298.267V171.443C188.311 165.693 192.972 161.032 198.722 161.032H373.153C378.903 161.032 383.564 165.693 383.564 171.443V298.266C383.564 304.017 378.902 308.678 373.152 308.678Z" fill="url(#paint16_linear_322_1005)"/>
<path d="M188.31 189.774H383.564V171.443C383.564 165.693 378.903 161.032 373.153 161.032H198.722C192.972 161.032 188.311 165.693 188.311 171.443V189.774H188.31Z" fill="url(#paint17_linear_322_1005)"/>
<path d="M369.461 178.109C370.694 178.109 371.694 177.109 371.694 175.876C371.694 174.643 370.694 173.643 369.461 173.643C368.228 173.643 367.228 174.643 367.228 175.876C367.228 177.109 368.228 178.109 369.461 178.109Z" fill="#F7F5FC"/>
<path d="M363.01 175.876C363.01 177.109 362.01 178.109 360.777 178.109C359.544 178.109 358.544 177.109 358.544 175.876C358.544 174.642 359.544 173.643 360.777 173.643C362.01 173.643 363.01 174.643 363.01 175.876Z" fill="#F7F5FC"/>
<path d="M352.133 178.109C353.366 178.109 354.366 177.109 354.366 175.876C354.366 174.643 353.366 173.643 352.133 173.643C350.9 173.643 349.9 174.643 349.9 175.876C349.9 177.109 350.9 178.109 352.133 178.109Z" fill="#F7F5FC"/>
<path d="M214.888 209.255H253.076C254.035 209.255 254.812 208.478 254.812 207.519C254.812 206.56 254.035 205.783 253.076 205.783H214.888C213.929 205.783 213.152 206.56 213.152 207.519C213.153 208.478 213.93 209.255 214.888 209.255Z" fill="url(#paint18_linear_322_1005)"/>
<path d="M232.247 223.471H214.889C213.93 223.471 213.153 222.694 213.153 221.735C213.153 220.776 213.93 219.999 214.889 219.999H232.247C233.206 219.999 233.983 220.776 233.983 221.735C233.983 222.694 233.206 223.471 232.247 223.471Z" fill="url(#paint19_linear_322_1005)"/>
<path d="M283.193 223.523H240.586C239.627 223.523 238.85 222.746 238.85 221.787C238.85 220.828 239.627 220.051 240.586 220.051H283.193C284.152 220.051 284.929 220.828 284.929 221.787C284.929 222.746 284.152 223.523 283.193 223.523Z" fill="url(#paint20_linear_322_1005)"/>
<path d="M232.523 231.915H222.004C221.045 231.915 220.268 231.138 220.268 230.179C220.268 229.22 221.045 228.443 222.004 228.443H232.523C233.482 228.443 234.259 229.22 234.259 230.179C234.259 231.137 233.482 231.915 232.523 231.915Z" fill="url(#paint21_linear_322_1005)"/>
<path d="M240.862 231.967H304.255C305.214 231.967 305.991 231.19 305.991 230.231C305.991 229.272 305.214 228.495 304.255 228.495H240.862C239.903 228.495 239.126 229.272 239.126 230.231C239.127 231.189 239.904 231.967 240.862 231.967Z" fill="url(#paint22_linear_322_1005)"/>
<path d="M269.211 240.748H241.002C240.043 240.748 239.266 239.971 239.266 239.012C239.266 238.053 240.043 237.276 241.002 237.276H269.211C270.17 237.276 270.947 238.053 270.947 239.012C270.947 239.971 270.17 240.748 269.211 240.748Z" fill="url(#paint23_linear_322_1005)"/>
<path d="M227.855 249.162H232.331C233.29 249.162 234.067 248.385 234.067 247.426C234.067 246.467 233.29 245.69 232.331 245.69H227.855C226.896 245.69 226.119 246.467 226.119 247.426C226.119 248.385 226.896 249.162 227.855 249.162Z" fill="url(#paint24_linear_322_1005)"/>
<path d="M241.278 249.162H288.933C289.892 249.162 290.669 248.385 290.669 247.426C290.669 246.467 289.892 245.69 288.933 245.69H241.278C240.319 245.69 239.542 246.467 239.542 247.426C239.542 248.385 240.319 249.162 241.278 249.162Z" fill="url(#paint25_linear_322_1005)"/>
<path d="M241.992 270.514H284.599C285.558 270.514 286.335 269.737 286.335 268.778C286.335 267.819 285.558 267.042 284.599 267.042H241.992C241.033 267.042 240.256 267.819 240.256 268.778C240.256 269.737 241.033 270.514 241.992 270.514Z" fill="url(#paint26_linear_322_1005)"/>
<path d="M223.41 278.906H233.929C234.888 278.906 235.665 278.129 235.665 277.17C235.665 276.211 234.888 275.434 233.929 275.434H223.41C222.451 275.434 221.674 276.211 221.674 277.17C221.675 278.129 222.452 278.906 223.41 278.906Z" fill="url(#paint27_linear_322_1005)"/>
<path d="M305.662 278.958H242.269C241.31 278.958 240.533 278.181 240.533 277.222C240.533 276.263 241.31 275.486 242.269 275.486H305.662C306.621 275.486 307.398 276.263 307.398 277.222C307.398 278.181 306.62 278.958 305.662 278.958Z" fill="url(#paint28_linear_322_1005)"/>
<path d="M219.754 287.687H234.069C235.028 287.687 235.805 286.91 235.805 285.951C235.805 284.992 235.028 284.215 234.069 284.215H219.754C218.795 284.215 218.018 284.992 218.018 285.951C218.018 286.91 218.795 287.687 219.754 287.687Z" fill="url(#paint29_linear_322_1005)"/>
<path d="M219.736 270.472H234.051C235.01 270.472 235.787 269.695 235.787 268.736C235.787 267.777 235.01 267 234.051 267H219.736C218.777 267 218 267.777 218 268.736C218 269.695 218.777 270.472 219.736 270.472Z" fill="url(#paint30_linear_322_1005)"/>
<path d="M242.408 287.739H270.617C271.576 287.739 272.353 286.962 272.353 286.003C272.353 285.044 271.576 284.267 270.617 284.267H242.408C241.449 284.267 240.672 285.044 240.672 286.003C240.672 286.962 241.449 287.739 242.408 287.739Z" fill="url(#paint31_linear_322_1005)"/>
<path d="M318.123 279H343.877C345.602 279 347 278.105 347 277C347 275.895 345.602 275 343.877 275H318.123C316.398 275 315 275.895 315 277C315 278.105 316.398 279 318.123 279Z" fill="url(#paint32_linear_322_1005)"/>
<path d="M294.873 270.451H358.266C359.225 270.451 360.002 269.674 360.002 268.715C360.002 267.756 359.225 266.979 358.266 266.979H294.873C293.914 266.979 293.137 267.756 293.137 268.715C293.137 269.674 293.915 270.451 294.873 270.451Z" fill="url(#paint33_linear_322_1005)"/>
<path d="M276.363 240.477H339.756C340.715 240.477 341.492 239.7 341.492 238.741C341.492 237.782 340.715 237.005 339.756 237.005H276.363C275.404 237.005 274.627 237.782 274.627 238.741C274.627 239.7 275.404 240.477 276.363 240.477Z" fill="url(#paint34_linear_322_1005)"/>
<path d="M311.746 231.731H354.353C355.312 231.731 356.089 230.954 356.089 229.995C356.089 229.036 355.312 228.259 354.353 228.259H311.746C310.787 228.259 310.01 229.036 310.01 229.995C310.011 230.953 310.788 231.731 311.746 231.731Z" fill="url(#paint35_linear_322_1005)"/>
<path d="M291.293 223.458H354.686C355.645 223.458 356.422 222.681 356.422 221.722C356.422 220.763 355.645 219.986 354.686 219.986H291.293C290.334 219.986 289.557 220.763 289.557 221.722C289.557 222.681 290.334 223.458 291.293 223.458Z" fill="url(#paint36_linear_322_1005)"/>
<path d="M360.065 249.162H296.672C295.713 249.162 294.936 248.385 294.936 247.426C294.936 246.467 295.713 245.69 296.672 245.69H360.065C361.024 245.69 361.801 246.467 361.801 247.426C361.8 248.385 361.023 249.162 360.065 249.162Z" fill="url(#paint37_linear_322_1005)"/>
<path d="M279.688 287.712H332.731C333.69 287.712 334.467 286.935 334.467 285.976C334.467 285.017 333.69 284.24 332.731 284.24H279.688C278.729 284.24 277.952 285.017 277.952 285.976C277.952 286.935 278.729 287.712 279.688 287.712Z" fill="url(#paint38_linear_322_1005)"/>
<path d="M361.911 287.486H342.23C341.271 287.486 340.494 286.709 340.494 285.75C340.494 284.791 341.271 284.014 342.23 284.014H361.911C362.87 284.014 363.647 284.791 363.647 285.75C363.647 286.709 362.87 287.486 361.911 287.486Z" fill="url(#paint39_linear_322_1005)"/>
<path d="M217.355 241.025H232.478C233.437 241.025 234.214 240.248 234.214 239.289C234.214 238.33 233.437 237.553 232.478 237.553H217.355C216.396 237.553 215.619 238.33 215.619 239.289C215.619 240.247 216.396 241.025 217.355 241.025Z" fill="url(#paint40_linear_322_1005)"/>
<path opacity="0.2" d="M74.2958 285.211C74.2958 287.925 72.0948 290.126 69.3808 290.126C66.6658 290.126 64.4658 287.925 64.4658 285.211C64.4658 282.496 66.6658 280.296 69.3808 280.296C72.0948 280.295 74.2958 282.496 74.2958 285.211Z" fill="#CCF2FF"/>
<path d="M433.927 295.042C433.927 296.872 432.443 298.356 430.613 298.356C428.783 298.356 427.299 296.872 427.299 295.042C427.299 293.211 428.783 291.728 430.613 291.728C432.443 291.728 433.927 293.211 433.927 295.042Z" fill="#CFFFCC"/>
<path d="M72.2569 219.238H69.3529V216.336C69.3529 215.703 68.8379 215.188 68.2039 215.188C67.5699 215.188 67.0559 215.703 67.0559 216.336V219.238H64.1539C63.5199 219.238 63.0049 219.753 63.0049 220.386C63.0049 221.02 63.5199 221.535 64.1539 221.535H67.0559V224.438C67.0559 225.072 67.5709 225.586 68.2039 225.586C68.8379 225.586 69.3529 225.071 69.3529 224.438V221.535H72.2569C72.8909 221.535 73.4059 221.02 73.4059 220.386C73.4049 219.752 72.8909 219.238 72.2569 219.238Z" fill="#B9F2B1"/>
<path d="M298.075 139.314H302.48V134.911C302.48 133.95 303.261 133.17 304.223 133.17C305.184 133.17 305.965 133.95 305.965 134.911V139.314H310.367C311.328 139.314 312.11 140.095 312.11 141.056C312.11 142.018 311.329 142.799 310.367 142.799H305.965V147.203C305.965 148.164 305.184 148.945 304.223 148.945C303.261 148.945 302.48 148.164 302.48 147.203V142.799H298.075C297.113 142.799 296.333 142.018 296.333 141.056C296.333 140.094 297.113 139.314 298.075 139.314Z" fill="#B1F2B9"/>
<path d="M98.8668 299.245C98.8668 300.974 97.4648 302.376 95.7358 302.376C94.0068 302.376 92.6038 300.974 92.6038 299.245C92.6038 297.516 94.0058 296.114 95.7358 296.114C97.4648 296.114 98.8668 297.516 98.8668 299.245Z" fill="#CCFFD5"/>
<path opacity="0.2" d="M426.446 209.016C426.446 211.73 424.246 213.931 421.531 213.931C418.816 213.931 416.616 211.731 416.616 209.016C416.616 206.301 418.817 204.101 421.531 204.101C424.246 204.101 426.446 206.301 426.446 209.016Z" fill="#CCF2FF"/>
<path opacity="0.2" d="M248.413 112.929H254.271V107.074C254.271 105.796 255.31 104.758 256.589 104.758C257.867 104.758 258.905 105.796 258.905 107.074V112.929H264.759C266.037 112.929 267.076 113.967 267.076 115.245C267.076 116.524 266.037 117.562 264.759 117.562H258.905V123.418C258.905 124.697 257.866 125.735 256.589 125.735C255.31 125.735 254.271 124.697 254.271 123.418V117.562H248.413C247.134 117.562 246.096 116.524 246.096 115.245C246.096 113.967 247.133 112.929 248.413 112.929Z" fill="#CCF2FF"/>
<path d="M406.374 238.131H403.47V235.229C403.47 234.596 402.955 234.081 402.321 234.081C401.688 234.081 401.173 234.596 401.173 235.229V238.131H398.271C397.637 238.131 397.122 238.646 397.122 239.279C397.122 239.913 397.637 240.428 398.271 240.428H401.173V243.331C401.173 243.965 401.688 244.479 402.321 244.479C402.955 244.479 403.47 243.964 403.47 243.331V240.428H406.374C407.008 240.428 407.523 239.913 407.523 239.279C407.522 238.646 407.008 238.131 406.374 238.131Z" fill="#B1F2BF"/>
<path d="M137.532 387.995C157.826 387.995 174.278 383.235 174.278 377.363C174.278 371.491 157.826 366.731 137.532 366.731C117.238 366.731 100.786 371.491 100.786 377.363C100.786 383.235 117.238 387.995 137.532 387.995Z" fill="url(#paint41_linear_322_1005)"/>
<path d="M137.532 387.995C117.238 387.995 100.786 383.235 100.786 377.363V396.459C100.786 402.331 117.237 407.091 137.532 407.091C157.826 407.091 174.278 402.331 174.278 396.459V377.363C174.277 383.235 157.826 387.995 137.532 387.995Z" fill="url(#paint42_linear_322_1005)"/>
<path d="M137.532 362.035C157.826 362.035 174.278 357.275 174.278 351.403C174.278 345.531 157.826 340.771 137.532 340.771C117.238 340.771 100.786 345.531 100.786 351.403C100.786 357.275 117.238 362.035 137.532 362.035Z" fill="url(#paint43_linear_322_1005)"/>
<path d="M137.532 362.035C117.238 362.035 100.786 357.275 100.786 351.403V370.499C100.786 376.371 117.238 381.131 137.532 381.131C157.826 381.131 174.278 376.371 174.278 370.499V351.403C174.277 357.275 157.826 362.035 137.532 362.035Z" fill="url(#paint44_linear_322_1005)"/>
<path d="M137.532 336.283C157.826 336.283 174.278 331.523 174.278 325.651C174.278 319.779 157.826 315.019 137.532 315.019C117.238 315.019 100.786 319.779 100.786 325.651C100.786 331.523 117.238 336.283 137.532 336.283Z" fill="url(#paint45_linear_322_1005)"/>
<path d="M137.532 336.283C117.238 336.283 100.786 331.523 100.786 325.651V344.747C100.786 350.619 117.237 355.379 137.532 355.379C157.827 355.379 174.278 350.619 174.278 344.747V325.651C174.277 331.523 157.826 336.283 137.532 336.283Z" fill="url(#paint46_linear_322_1005)"/>
</g>
<defs>
<linearGradient id="paint0_linear_322_1005" x1="92.1455" y1="377.687" x2="412.072" y2="377.687" gradientUnits="userSpaceOnUse">
<stop offset="0.0308" stop-color="#00006A"/>
<stop offset="1" stop-color="#00006A"/>
</linearGradient>
<linearGradient id="paint1_linear_322_1005" x1="342.015" y1="405.402" x2="421.273" y2="405.402" gradientUnits="userSpaceOnUse">
<stop offset="0.0308" stop-color="#00006A"/>
<stop offset="1" stop-color="#00006A"/>
</linearGradient>
<linearGradient id="paint2_linear_322_1005" x1="86.5878" y1="403.267" x2="185.774" y2="403.267" gradientUnits="userSpaceOnUse">
<stop offset="0.0308" stop-color="#00006A"/>
<stop offset="1" stop-color="#00006A"/>
</linearGradient>
<linearGradient id="paint3_linear_322_1005" x1="234.974" y1="376.123" x2="308.604" y2="55.2655" gradientUnits="userSpaceOnUse">
<stop stop-color="#44D341" stop-opacity="0.67"/>
<stop offset="0.1086" stop-color="#44D341" stop-opacity="0.67"/>
<stop offset="0.2468" stop-color="#44D341" stop-opacity="0.67"/>
<stop offset="0.4011" stop-color="#8AEF88" stop-opacity="0.67"/>
<stop offset="0.567" stop-color="#A9FDA7" stop-opacity="0.67"/>
<stop offset="0.7423" stop-color="#98ED96"/>
<stop offset="0.9229" stop-color="#F9F9FD" stop-opacity="0.67"/>
<stop offset="0.9412" stop-color="white" stop-opacity="0.67"/>
</linearGradient>
<linearGradient id="paint4_linear_322_1005" x1="-nan" y1="-nan" x2="-nan" y2="-nan" gradientUnits="userSpaceOnUse">
<stop stop-color="#93FF9C"/>
<stop offset="1" stop-color="#98FCA0"/>
</linearGradient>
<linearGradient id="paint5_linear_322_1005" x1="427.779" y1="316.194" x2="323.283" y2="365.032" gradientUnits="userSpaceOnUse">
<stop stop-color="#8DDF8C"/>
<stop offset="1" stop-color="#58C159"/>
</linearGradient>
<linearGradient id="paint6_linear_322_1005" x1="408.523" y1="294.152" x2="306.955" y2="311.227" gradientUnits="userSpaceOnUse">
<stop offset="0.1302" stop-color="#8CDF8B"/>
<stop offset="1" stop-color="#1A9D1C"/>
</linearGradient>
<linearGradient id="paint7_linear_322_1005" x1="394.997" y1="300.032" x2="329.102" y2="308.251" gradientUnits="userSpaceOnUse">
<stop offset="0.1302" stop-color="#8CDF8B"/>
<stop offset="1" stop-color="#1A9D1C"/>
</linearGradient>
<linearGradient id="paint8_linear_322_1005" x1="108.876" y1="360.758" x2="396.286" y2="360.758" gradientUnits="userSpaceOnUse">
<stop stop-color="#ECF3FF"/>
<stop offset="0.8551" stop-color="#D6E5FF"/>
</linearGradient>
<linearGradient id="paint9_linear_322_1005" x1="108.876" y1="378.874" x2="396.286" y2="378.874" gradientUnits="userSpaceOnUse">
<stop stop-color="#05A801"/>
<stop offset="0.9329" stop-color="#05B301"/>
</linearGradient>
<linearGradient id="paint10_linear_322_1005" x1="216.605" y1="377.944" x2="281.789" y2="377.944" gradientUnits="userSpaceOnUse">
<stop stop-color="#ECF3FF"/>
<stop offset="0.8551" stop-color="#D6E5FF"/>
</linearGradient>
<linearGradient id="paint11_linear_322_1005" x1="146.144" y1="355.296" x2="360.617" y2="355.296" gradientUnits="userSpaceOnUse">
<stop stop-color="#06AC01"/>
<stop offset="1" stop-color="#58F655"/>
</linearGradient>
<linearGradient id="paint12_linear_322_1005" x1="218.387" y1="369.179" x2="281.176" y2="369.179" gradientUnits="userSpaceOnUse">
<stop stop-color="#12B70D"/>
<stop offset="0.9329" stop-color="#53F250"/>
</linearGradient>
<linearGradient id="paint13_linear_322_1005" x1="206.858" y1="391.538" x2="289.395" y2="177.202" gradientUnits="userSpaceOnUse">
<stop stop-color="#81C77F"/>
<stop offset="1" stop-color="#B2FD8C"/>
</linearGradient>
<linearGradient id="paint14_linear_322_1005" x1="171.472" y1="253.908" x2="94.1673" y2="253.908" gradientUnits="userSpaceOnUse">
<stop stop-color="#05A602"/>
<stop offset="0.3971" stop-color="#03B700"/>
<stop offset="0.9993" stop-color="#05A602"/>
</linearGradient>
<linearGradient id="paint15_linear_322_1005" x1="360.918" y1="390.702" x2="404.457" y2="368.972" gradientUnits="userSpaceOnUse">
<stop stop-color="#05A602"/>
<stop offset="0.2328" stop-color="#06C702"/>
<stop offset="0.615385" stop-color="#06DA01"/>
<stop offset="1" stop-color="#05A602"/>
</linearGradient>
<linearGradient id="paint16_linear_322_1005" x1="187.326" y1="235.089" x2="381.924" y2="234.626" gradientUnits="userSpaceOnUse">
<stop stop-color="#D6E5FF"/>
<stop offset="0.306" stop-color="#DEEAFF"/>
<stop offset="1" stop-color="#ECF3FF"/>
</linearGradient>
<linearGradient id="paint17_linear_322_1005" x1="399.037" y1="185.549" x2="238.489" y2="171.754" gradientUnits="userSpaceOnUse">
<stop stop-color="#4AC73A"/>
<stop offset="1" stop-color="#2C7B25"/>
</linearGradient>
<linearGradient id="paint18_linear_322_1005" x1="257.842" y1="209.57" x2="223.856" y2="206.649" gradientUnits="userSpaceOnUse">
<stop stop-color="#47BE38"/>
<stop offset="1" stop-color="#2C7B25"/>
</linearGradient>
<linearGradient id="paint19_linear_322_1005" x1="211.634" y1="222.761" x2="228.632" y2="221.3" gradientUnits="userSpaceOnUse">
<stop stop-color="#8BF655"/>
<stop offset="1" stop-color="#40C928"/>
</linearGradient>
<linearGradient id="paint20_linear_322_1005" x1="235.501" y1="224.055" x2="273.089" y2="220.825" gradientUnits="userSpaceOnUse">
<stop stop-color="#7EE44B"/>
<stop offset="0.2328" stop-color="#8DE859"/>
<stop offset="0.5887" stop-color="#9AEE6A"/>
<stop offset="0.8069" stop-color="#40C928"/>
</linearGradient>
<linearGradient id="paint21_linear_322_1005" x1="219.246" y1="230.867" x2="230.666" y2="229.886" gradientUnits="userSpaceOnUse">
<stop stop-color="#83E44B"/>
<stop offset="0.2328" stop-color="#78E859"/>
<stop offset="0.5887" stop-color="#6ED460"/>
<stop offset="0.8069" stop-color="#40C928"/>
</linearGradient>
<linearGradient id="paint22_linear_322_1005" x1="310.848" y1="233.521" x2="256.308" y2="228.834" gradientUnits="userSpaceOnUse">
<stop stop-color="#D5FFD4"/>
<stop offset="1" stop-color="#7BE645"/>
</linearGradient>
<linearGradient id="paint23_linear_322_1005" x1="236.96" y1="240.571" x2="262.807" y2="238.35" gradientUnits="userSpaceOnUse">
<stop stop-color="#8DE44B"/>
<stop offset="0.2328" stop-color="#82E859"/>
<stop offset="0.5887" stop-color="#6DD75A"/>
<stop offset="0.8069" stop-color="#40C928"/>
</linearGradient>
<linearGradient id="paint24_linear_322_1005" x1="234.651" y1="247.818" x2="228.159" y2="247.26" gradientUnits="userSpaceOnUse">
<stop stop-color="#D5FFD4"/>
<stop offset="1" stop-color="#7BE645"/>
</linearGradient>
<linearGradient id="paint25_linear_322_1005" x1="294.384" y1="249.942" x2="252.679" y2="246.358" gradientUnits="userSpaceOnUse">
<stop stop-color="#47BF38"/>
<stop offset="1" stop-color="#2C7B25"/>
</linearGradient>
<linearGradient id="paint26_linear_322_1005" x1="289.684" y1="271.046" x2="252.096" y2="267.816" gradientUnits="userSpaceOnUse">
<stop stop-color="#D5FFD4"/>
<stop offset="1" stop-color="#7BE645"/>
</linearGradient>
<linearGradient id="paint27_linear_322_1005" x1="236.687" y1="277.859" x2="225.267" y2="276.878" gradientUnits="userSpaceOnUse">
<stop stop-color="#47BF38"/>
<stop offset="1" stop-color="#2C7B25"/>
</linearGradient>
<linearGradient id="paint28_linear_322_1005" x1="235.675" y1="280.512" x2="290.215" y2="275.826" gradientUnits="userSpaceOnUse">
<stop stop-color="#7EE44B"/>
<stop offset="0.2328" stop-color="#82E859"/>
<stop offset="0.5887" stop-color="#73D35E"/>
<stop offset="0.8069" stop-color="#40C928"/>
</linearGradient>
<linearGradient id="paint29_linear_322_1005" x1="237.102" y1="286.827" x2="222.586" y2="285.58" gradientUnits="userSpaceOnUse">
<stop stop-color="#D5FFD4"/>
<stop offset="1" stop-color="#7BE645"/>
</linearGradient>
<linearGradient id="paint30_linear_322_1005" x1="237.084" y1="269.612" x2="222.568" y2="268.365" gradientUnits="userSpaceOnUse">
<stop stop-color="#D5FFD4"/>
<stop offset="1" stop-color="#7BE645"/>
</linearGradient>
<linearGradient id="paint31_linear_322_1005" x1="274.658" y1="287.562" x2="248.811" y2="285.342" gradientUnits="userSpaceOnUse">
<stop stop-color="#47BD37"/>
<stop offset="1" stop-color="#2C7B25"/>
</linearGradient>
<linearGradient id="paint32_linear_322_1005" x1="349.333" y1="278.009" x2="323.491" y2="274.541" gradientUnits="userSpaceOnUse">
<stop stop-color="#D5FFD4"/>
<stop offset="1" stop-color="#7BE645"/>
</linearGradient>
<linearGradient id="paint33_linear_322_1005" x1="364.859" y1="272.005" x2="310.319" y2="267.319" gradientUnits="userSpaceOnUse">
<stop stop-color="#47BE38"/>
<stop offset="1" stop-color="#2C7B25"/>
</linearGradient>
<linearGradient id="paint34_linear_322_1005" x1="346.349" y1="242.031" x2="291.809" y2="237.345" gradientUnits="userSpaceOnUse">
<stop offset="0.504474" stop-color="#40C928"/>
<stop offset="1" stop-color="#33FA44"/>
</linearGradient>
<linearGradient id="paint35_linear_322_1005" x1="359.439" y1="232.262" x2="321.85" y2="229.032" gradientUnits="userSpaceOnUse">
<stop stop-color="#47BE38"/>
<stop offset="1" stop-color="#2C7B25"/>
</linearGradient>
<linearGradient id="paint36_linear_322_1005" x1="361.279" y1="225.012" x2="306.739" y2="220.326" gradientUnits="userSpaceOnUse">
<stop stop-color="#47BF38"/>
<stop offset="1" stop-color="#2C7B25"/>
</linearGradient>
<linearGradient id="paint37_linear_322_1005" x1="290.078" y1="250.716" x2="344.618" y2="246.03" gradientUnits="userSpaceOnUse">
<stop stop-color="#88E44B"/>
<stop offset="0.2328" stop-color="#7DE859"/>
<stop offset="0.5887" stop-color="#40C928"/>
<stop offset="0.8069" stop-color="#40C928"/>
</linearGradient>
<linearGradient id="paint38_linear_322_1005" x1="338.572" y1="288.757" x2="292.473" y2="284.796" gradientUnits="userSpaceOnUse">
<stop stop-color="#47BF38"/>
<stop offset="1" stop-color="#2C7B25"/>
</linearGradient>
<linearGradient id="paint39_linear_322_1005" x1="338.808" y1="286.89" x2="357.7" y2="285.266" gradientUnits="userSpaceOnUse">
<stop stop-color="#67E44B"/>
<stop offset="0.2328" stop-color="#82E859"/>
<stop offset="0.5887" stop-color="#40C928"/>
<stop offset="0.8069" stop-color="#40C928"/>
</linearGradient>
<linearGradient id="paint40_linear_322_1005" x1="235.569" y1="240.204" x2="220.395" y2="238.9" gradientUnits="userSpaceOnUse">
<stop stop-color="#47BE38"/>
<stop offset="1" stop-color="#2C7B25"/>
</linearGradient>
<linearGradient id="paint41_linear_322_1005" x1="137.545" y1="393.157" x2="137.522" y2="366.622" gradientUnits="userSpaceOnUse">
<stop offset="0.3084" stop-color="#11B60C"/>
<stop offset="0.8728" stop-color="#54F251"/>
</linearGradient>
<linearGradient id="paint42_linear_322_1005" x1="137.186" y1="413.482" x2="137.521" y2="387.741" gradientUnits="userSpaceOnUse">
<stop stop-color="#215320"/>
<stop offset="0.9009" stop-color="#85CA84"/>
</linearGradient>
<linearGradient id="paint43_linear_322_1005" x1="137.599" y1="361.932" x2="137.431" y2="335.739" gradientUnits="userSpaceOnUse">
<stop offset="0.3084" stop-color="#11B60C"/>
<stop offset="0.8728" stop-color="#55F352"/>
</linearGradient>
<linearGradient id="paint44_linear_322_1005" x1="137.555" y1="362.289" x2="138.169" y2="397.567" gradientUnits="userSpaceOnUse">
<stop stop-color="#85CA83"/>
<stop offset="1" stop-color="#078504"/>
</linearGradient>
<linearGradient id="paint45_linear_322_1005" x1="137.759" y1="339.945" x2="137.166" y2="302.651" gradientUnits="userSpaceOnUse">
<stop offset="0.3084" stop-color="#16BA11"/>
<stop offset="0.8728" stop-color="#53F150"/>
</linearGradient>
<linearGradient id="paint46_linear_322_1005" x1="138.022" y1="366.526" x2="137.458" y2="330.541" gradientUnits="userSpaceOnUse">
<stop stop-color="#3D7F3C"/>
<stop offset="0.9009" stop-color="#85CA84"/>
</linearGradient>
<clipPath id="clip0_322_1005">
<rect width="500" height="500" fill="white"/>
</clipPath>
</defs>
</svg>
