<svg width="647" height="500" viewBox="0 0 647 500" fill="none" xmlns="http://www.w3.org/2000/svg">
<g clip-path="url(#clip0_322_1095)">
<path d="M588.561 253.457C579.35 242.398 568.459 231.612 565.618 216.597C560.703 190.614 581.72 168.459 588.599 143.082C593.357 125.535 590.902 105.557 582.109 90.2473C573.315 74.9373 558.361 64.6064 542.56 62.9258C515.373 60.0343 488.767 81.2703 461.986 75.1203C440.543 70.1961 423.597 48.4725 401.83 46.1455C376.215 43.4073 354.962 67.9182 330.502 77.1467C301.244 88.1852 269.523 76.6491 240.759 63.99C211.994 51.331 181.73 37.207 151.409 43.2658C117.658 50.0097 89.3599 84.101 84.8458 123.456C80.3722 162.457 117.892 193.766 85.9537 240.596C75.9729 255.23 69.3343 275.606 73.7464 293.547C78.0334 310.979 96.2767 322.003 96.4092 340.129C96.5138 354.438 84.8754 365.823 83.9377 380.092C83.133 392.339 90.7313 403.661 100.069 409.465C109.407 415.269 120.242 416.689 130.776 418.004L127.671 421.874C180.733 427.395 234.125 426.166 287.39 424.932C371.388 422.986 455.387 421.041 539.386 419.095C548.019 418.895 556.862 418.649 564.905 415.01C572.949 411.371 580.163 403.582 581.388 393.674C583.473 376.812 568.269 362.179 569.674 345.222C571.468 323.571 597.77 315.218 602.775 294.254C606.312 279.439 597.771 264.516 588.561 253.457Z" fill="url(#paint0_linear_322_1095)"/>
<path d="M554.48 263.231C558.825 278.307 581.019 367.236 512.771 406.368C512.771 406.368 485.158 352.183 552.507 262.769C553.096 261.987 554.196 262.246 554.48 263.231Z" fill="#91B3FA"/>
<path d="M550.45 278.43C549.773 288.57 548.826 298.668 547.715 308.75C546.594 318.829 545.279 328.881 543.697 338.885C542.108 348.886 540.267 358.844 537.957 368.679C536.815 373.599 535.519 378.478 534.06 383.3C532.596 388.118 530.964 392.884 529.002 397.5C528.741 398.114 528.1 398.367 527.57 398.064C527.041 397.761 526.823 397.018 527.084 396.405C527.085 396.403 527.086 396.4 527.087 396.398L527.091 396.387C529.047 391.92 530.7 387.257 532.193 382.524C533.679 377.787 535.012 372.975 536.194 368.108C538.585 358.384 540.518 348.497 542.202 338.556C543.879 328.612 545.292 318.603 546.512 308.562C547.723 298.522 548.771 288.442 549.547 278.35L549.548 278.343C549.57 278.054 549.79 277.841 550.039 277.867C550.286 277.893 550.469 278.144 550.45 278.43Z" fill="#BDD0FB"/>
<path d="M594.644 280.195C594.621 278.624 592.793 278.132 592.18 279.533C586.257 293.082 569.766 328.046 550.811 344.257C519.949 370.653 494.136 419.093 505.75 449.918C505.75 449.918 597.121 451.353 594.644 280.195Z" fill="#BDD0FB"/>
<path d="M588.743 300.113C588.63 300.585 588.508 300.952 588.391 301.359L588.023 302.547L587.266 304.912C586.753 306.483 586.217 308.044 585.682 309.605C584.602 312.723 583.489 315.825 582.351 318.915C580.064 325.09 577.629 331.19 575.118 337.248C572.615 343.31 569.96 349.289 567.196 355.2C564.428 361.108 561.587 366.972 558.581 372.726C552.588 384.243 546.039 395.387 538.838 405.952C535.186 411.186 531.415 416.312 527.396 421.174C523.344 425.997 519.115 430.625 514.609 434.866C514.494 434.973 514.326 434.953 514.233 434.82C514.143 434.691 514.159 434.501 514.265 434.391C522.917 425.503 530.659 415.513 537.71 404.925C541.252 399.643 544.615 394.201 547.867 388.672C551.12 383.142 554.169 377.455 557.2 371.757C563.219 360.325 568.699 348.519 573.913 336.56C576.509 330.573 578.999 324.523 581.399 318.426C582.605 315.38 583.786 312.321 584.934 309.245L586.625 304.616L587.452 302.294L587.853 301.129C587.979 300.746 588.121 300.331 588.217 300L588.237 299.933C588.283 299.772 588.433 299.686 588.572 299.74C588.706 299.792 588.78 299.957 588.743 300.113Z" fill="url(#paint1_linear_322_1095)"/>
<path d="M504.531 451.502C504.531 451.502 509.423 430.478 532.344 414.351C553.611 399.387 605.275 365.477 620.348 342.82C621.016 341.816 622.387 342.563 622.135 343.796C619.435 357.027 610.426 389.548 583.735 416.793C549.315 451.926 504.531 451.502 504.531 451.502Z" fill="#91B3FA"/>
<path d="M608.679 364.548C607.782 367.376 606.58 370.065 605.255 372.66C604.937 373.32 604.589 373.956 604.233 374.589L603.177 376.495C602.42 377.721 601.701 378.986 600.905 380.182C597.763 385.003 594.246 389.509 590.409 393.611C589.486 394.685 588.47 395.635 587.487 396.631C586.49 397.607 585.53 398.637 584.483 399.541L581.394 402.332C580.888 402.811 580.339 403.222 579.807 403.658L578.199 404.953L576.591 406.247L575.785 406.892L574.955 407.492L571.635 409.894C571.079 410.289 570.532 410.708 569.969 411.082L568.282 412.206L564.907 414.454C560.386 417.406 555.847 420.323 551.241 423.09C548.948 424.496 546.637 425.858 544.332 427.234L537.381 431.267C532.753 433.96 528.099 436.582 523.546 439.396C521.26 440.787 519.027 442.273 516.843 443.85C514.686 445.47 512.594 447.203 510.67 449.18L510.665 449.186C510.554 449.299 510.385 449.287 510.287 449.159C510.193 449.036 510.199 448.85 510.298 448.734C512.143 446.587 514.184 444.678 516.32 442.941C518.47 441.233 520.674 439.617 522.921 438.102C524.041 437.336 525.167 436.581 526.307 435.865C527.442 435.133 528.58 434.409 529.724 433.701C532.003 432.263 534.297 430.87 536.59 429.475C541.174 426.679 545.756 423.895 550.311 421.058C554.866 418.22 559.389 415.32 563.89 412.376L567.249 410.133C568.371 409.388 569.492 408.642 570.579 407.855L573.869 405.527L574.692 404.945L575.489 404.319L577.082 403.063C581.366 399.771 585.419 396.094 589.288 392.178C590.24 391.179 591.209 390.199 592.149 389.184L594.895 386.046C595.79 384.979 596.655 383.876 597.538 382.792C598.418 381.703 599.221 380.538 600.067 379.413C600.893 378.27 601.668 377.079 602.475 375.914L603.609 374.101C603.993 373.5 604.363 372.89 604.715 372.263C606.167 369.796 607.521 367.235 608.618 364.52C608.624 364.5 608.644 364.49 608.661 364.498C608.676 364.506 608.684 364.529 608.679 364.548Z" fill="#BDD0FB"/>
<path d="M104.519 263.231C100.174 278.307 77.9793 367.236 146.228 406.368C146.228 406.368 173.841 352.183 106.492 262.769C105.903 261.987 104.803 262.246 104.519 263.231Z" fill="#BDD0FB"/>
<path d="M109.451 278.35C110.228 288.443 111.276 298.522 112.487 308.562C113.706 318.603 115.12 328.612 116.797 338.556C118.48 348.498 120.413 358.384 122.804 368.109C123.986 372.975 125.319 377.787 126.806 382.524C128.298 387.257 129.952 391.92 131.907 396.387L131.909 396.392C132.176 397.002 131.966 397.748 131.44 398.058C130.913 398.367 130.27 398.124 130.003 397.513C130.002 397.511 129.998 397.503 129.997 397.5C128.035 392.885 126.403 388.119 124.939 383.3C123.48 378.478 122.184 373.6 121.042 368.679C118.732 358.844 116.891 348.886 115.302 338.885C113.72 328.882 112.405 318.829 111.284 308.75C110.172 298.669 109.226 288.571 108.549 278.43C108.529 278.142 108.716 277.889 108.965 277.867C109.213 277.845 109.429 278.057 109.451 278.343L109.451 278.35Z" fill="url(#paint2_linear_322_1095)"/>
<path d="M64.3552 280.195C64.3779 278.624 66.2062 278.132 66.819 279.533C72.7421 293.082 89.2332 328.046 108.188 344.257C139.05 370.653 164.863 419.093 153.249 449.918C153.249 449.918 61.8775 451.353 64.3552 280.195Z" fill="#91B3FA"/>
<path d="M70.7817 299.999C70.8782 300.331 71.0198 300.745 71.1458 301.128L71.5474 302.293L72.3734 304.616L74.0648 309.244C75.2132 312.32 76.3945 315.379 77.5996 318.426C80.0002 324.523 82.4899 330.573 85.0855 336.56C90.3002 348.518 95.7799 360.325 101.799 371.756C104.83 377.455 107.879 383.141 111.132 388.672C114.384 394.2 117.747 399.643 121.289 404.924C128.34 415.513 136.082 425.503 144.734 434.391C144.845 434.503 144.857 434.699 144.76 434.828C144.666 434.953 144.501 434.967 144.39 434.865C139.884 430.624 135.655 425.996 131.603 421.174C127.583 416.312 123.812 411.186 120.161 405.951C112.96 395.387 106.411 384.243 100.417 372.725C97.4114 366.971 94.5704 361.107 91.8025 355.199C89.0383 349.289 86.3839 343.31 83.8806 337.247C81.3692 331.189 78.9342 325.089 76.6473 318.914C75.5096 315.824 74.3963 312.722 73.3166 309.604C72.7815 308.043 72.2461 306.482 71.7322 304.911L70.9754 302.547L70.6079 301.358C70.4905 300.951 70.3684 300.584 70.2557 300.112C70.2168 299.949 70.2994 299.78 70.4403 299.734C70.5762 299.69 70.7169 299.778 70.7616 299.931L70.7817 299.999Z" fill="#BDD0FB"/>
<path d="M154.467 451.502C154.467 451.502 149.576 430.478 126.655 414.351C105.387 399.387 53.7244 365.477 38.6505 342.82C37.9829 341.816 36.6117 342.563 36.8635 343.796C39.5636 357.027 48.5727 389.548 75.2639 416.793C109.684 451.926 154.467 451.502 154.467 451.502Z" fill="#BDD0FB"/>
<path d="M50.3821 364.521C51.4787 367.236 52.8326 369.797 54.2853 372.264C54.6366 372.89 55.0076 373.501 55.3911 374.102L56.5248 375.915C57.3315 377.08 58.1074 378.27 58.933 379.414C59.7794 380.539 60.5822 381.704 61.4619 382.792C62.3455 383.877 63.2097 384.979 64.1053 386.047L66.8507 389.185C67.791 390.2 68.76 391.18 69.7121 392.179C73.5808 396.095 77.634 399.772 81.9175 403.064L83.5103 404.32L84.3082 404.945L85.1308 405.527L88.4207 407.855C89.508 408.643 90.6286 409.389 91.7506 410.134L95.1093 412.377C99.6111 415.321 104.134 418.221 108.689 421.059C113.244 423.896 117.825 426.68 122.409 429.476C124.702 430.87 126.997 432.264 129.276 433.702C130.419 434.41 131.557 435.133 132.692 435.866C133.833 436.582 134.958 437.336 136.078 438.103C138.325 439.617 140.529 441.233 142.68 442.942C144.816 444.679 146.857 446.588 148.702 448.735C148.806 448.857 148.806 449.053 148.701 449.174C148.6 449.29 148.44 449.294 148.335 449.187L148.329 449.181C146.405 447.203 144.314 445.47 142.156 443.851C139.973 442.274 137.739 440.788 135.454 439.397C130.901 436.583 126.246 433.961 121.618 431.268L114.667 427.235C112.362 425.859 110.051 424.496 107.759 423.09C103.153 420.324 98.6133 417.407 94.0918 414.455L90.7172 412.207L89.0301 411.083C88.4673 410.709 87.9204 410.29 87.3646 409.895L84.0441 407.493L83.2141 406.892L82.4085 406.248L80.8005 404.954L79.1928 403.659C78.66 403.222 78.1113 402.812 77.605 402.332L74.5164 399.542C73.4691 398.638 72.5087 397.608 71.5122 396.632C70.5293 395.636 69.5129 394.686 68.5901 393.612C64.7533 389.509 61.2363 385.004 58.0938 380.182C57.2983 378.986 56.5794 377.722 55.8219 376.496L54.766 374.589C54.4105 373.957 54.062 373.32 53.7447 372.661C52.4196 370.066 51.2173 367.377 50.3204 364.549C50.3141 364.529 50.3228 364.507 50.34 364.499C50.356 364.492 50.3748 364.503 50.3821 364.521Z" fill="url(#paint3_linear_322_1095)"/>
<path d="M233.235 172.528H159.848C156.885 172.528 154.483 169.743 154.483 166.309V110.915C154.483 107.615 156.707 104.89 159.55 104.706L235.769 99.7816C238.96 99.5755 241.598 102.629 241.424 106.329L238.592 166.647C238.437 169.945 236.085 172.528 233.235 172.528Z" fill="url(#paint4_linear_322_1095)"/>
<path d="M198.255 139.102L238.371 100.374C237.588 99.9416 236.702 99.721 235.768 99.7813L159.549 104.706C158.238 104.791 157.06 105.417 156.17 106.389L186.193 138.756C189.453 142.27 194.815 142.424 198.255 139.102Z" fill="url(#paint5_linear_322_1095)"/>
<path opacity="0.74" d="M192.678 137.183C190.684 137.183 188.699 136.356 187.103 134.723L175.791 123.147C175.459 122.807 175.427 122.22 175.721 121.835C176.014 121.45 176.521 121.413 176.852 121.753L188.164 133.33C190.567 135.789 194.064 135.992 196.667 133.823L202.529 128.939C202.89 128.64 203.39 128.735 203.648 129.151C203.906 129.568 203.825 130.149 203.465 130.449L197.603 135.333C196.116 136.571 194.394 137.183 192.678 137.183Z" fill="white"/>
<path opacity="0.74" d="M172.113 119.073C171.924 119.073 171.735 118.996 171.583 118.84L170.06 117.282C169.728 116.942 169.696 116.355 169.989 115.97C170.282 115.585 170.789 115.549 171.121 115.888L172.644 117.446C172.976 117.786 173.008 118.373 172.714 118.758C172.556 118.966 172.335 119.073 172.113 119.073Z" fill="white"/>
<path d="M529.961 446.74C529.961 451.194 526.814 454.839 522.967 454.839H144.798C140.952 454.839 137.805 451.194 137.805 446.74L134.658 194.82C134.658 190.366 139.186 181.669 147.483 182.323L517.071 171.237C521.897 171.092 526.563 173.246 529.981 177.195C533.398 181.143 535.268 186.542 535.154 192.131L529.961 446.74Z" fill="url(#paint6_linear_322_1095)"/>
<path d="M523.056 438.97C523.056 443.188 520.079 446.64 516.44 446.64H153.918C150.279 446.64 147.302 443.188 147.302 438.97L144.333 210.275C144.682 196.512 155.091 191.566 161.401 191.858L515.617 180.842C519.008 180.737 522.286 182.251 524.687 185.027C527.089 187.804 528.409 191.604 528.324 195.534L523.056 438.97Z" fill="url(#paint7_linear_322_1095)"/>
<path d="M151.22 329.819C150.928 329.819 150.69 329.547 150.685 329.208L150.45 310.661C150.446 310.319 150.682 310.037 150.977 310.032C150.98 310.032 150.982 310.032 150.985 310.032C151.277 310.032 151.515 310.304 151.52 310.643L151.754 329.19C151.759 329.532 151.523 329.814 151.228 329.819C151.225 329.819 151.222 329.819 151.22 329.819Z" fill="white"/>
<path d="M150.644 284.37C150.352 284.37 150.114 284.098 150.11 283.759L149.21 212.725C149.228 207.981 150.489 204.191 152.957 201.449C157.447 196.462 164.473 196.713 164.771 196.726L277.888 193.207C278.196 193.182 278.429 193.468 278.437 193.81C278.445 194.152 278.212 194.437 277.917 194.446L164.769 197.965C164.451 197.954 157.864 197.716 153.697 202.345C151.446 204.845 150.296 208.335 150.279 212.719L151.178 283.741C151.183 284.083 150.947 284.365 150.652 284.37C150.649 284.37 150.646 284.37 150.644 284.37Z" fill="#91B3FA"/>
<g opacity="0.2">
<path d="M163.273 426.283C163.653 407.381 163.511 240 162.576 225.544C161.64 211.088 181.062 208.377 210.881 206.75C240.7 205.123 492.292 198.682 498.77 198.073C513.331 196.705 516.345 221.934 514.888 276.704C513.794 317.853 511.98 385.638 511.145 416.81C510.897 426.092 504.352 433.457 496.341 433.482C435.798 433.675 203.752 434.446 188.305 434.979C170.529 435.593 163.123 433.778 163.273 426.283Z" fill="#91B3FA"/>
</g>
<path d="M558.677 467.697H116.755C115.676 467.697 114.793 466.673 114.793 465.423V447.836C114.793 446.586 115.676 445.562 116.755 445.562H558.677C559.756 445.562 560.639 446.586 560.639 447.836V465.423C560.639 466.673 559.756 467.697 558.677 467.697Z" fill="url(#paint8_linear_322_1095)"/>
<path d="M553.932 127.918H480.545C477.582 127.918 475.18 125.371 475.18 122.229V71.5521C475.18 68.533 477.404 66.0397 480.246 65.8718L556.465 61.3667C559.656 61.1782 562.294 63.9718 562.12 67.3561L559.289 122.538C559.134 125.555 556.781 127.918 553.932 127.918Z" fill="url(#paint9_linear_322_1095)"/>
<path d="M518.952 97.3388L559.067 61.9088C558.285 61.513 557.399 61.3112 556.465 61.3664L480.246 65.8715C478.935 65.9491 477.757 66.5218 476.866 67.4115L506.89 97.0221C510.149 100.237 515.511 100.378 518.952 97.3388Z" fill="url(#paint10_linear_322_1095)"/>
<path opacity="0.74" d="M513.375 95.583C511.38 95.583 509.395 94.8263 507.8 93.3327L496.488 82.7421C496.156 82.4312 496.124 81.8942 496.417 81.5421C496.71 81.1893 497.217 81.1563 497.549 81.4672L508.861 92.0578C511.264 94.3075 514.76 94.493 517.364 92.509L523.225 88.0412C523.586 87.7672 524.086 87.8545 524.345 88.2354C524.603 88.6166 524.521 89.1478 524.161 89.4221L518.3 93.89C516.813 95.0227 515.091 95.583 513.375 95.583Z" fill="white"/>
<path opacity="0.74" d="M492.81 79.0148C492.621 79.0148 492.431 78.9448 492.279 78.8021L490.756 77.3764C490.424 77.0654 490.393 76.5285 490.686 76.1764C490.979 75.8236 491.485 75.7912 491.817 76.1015L493.34 77.5273C493.672 77.8382 493.704 78.3754 493.411 78.7273C493.252 78.9176 493.031 79.0148 492.81 79.0148Z" fill="white"/>
<path d="M581.599 157.658H534.23C532.318 157.658 530.767 155.861 530.767 153.644V117.889C530.767 115.759 532.203 114 534.037 113.881L583.234 110.703C585.293 110.57 586.996 112.541 586.884 114.928L585.056 153.861C584.956 155.991 583.438 157.658 581.599 157.658Z" fill="url(#paint11_linear_322_1095)"/>
<path d="M559.02 136.083L584.913 111.086C584.408 110.806 583.837 110.664 583.234 110.703L534.037 113.882C533.191 113.936 532.431 114.34 531.856 114.968L551.235 135.859C553.339 138.128 556.8 138.227 559.02 136.083Z" fill="url(#paint12_linear_322_1095)"/>
<path opacity="0.74" d="M555.421 134.844C554.133 134.844 552.852 134.31 551.822 133.256L544.521 125.784C544.306 125.564 544.286 125.186 544.475 124.937C544.664 124.688 544.992 124.665 545.206 124.884L552.507 132.357C554.058 133.944 556.315 134.075 557.995 132.675L561.779 129.523C562.012 129.329 562.334 129.391 562.501 129.66C562.668 129.929 562.615 130.304 562.383 130.497L558.6 133.649C557.64 134.449 556.528 134.844 555.421 134.844Z" fill="white"/>
<path opacity="0.74" d="M542.146 123.154C542.025 123.154 541.903 123.105 541.804 123.004L540.821 121.998C540.607 121.779 540.587 121.4 540.776 121.152C540.965 120.903 541.292 120.88 541.506 121.099L542.489 122.105C542.704 122.324 542.724 122.703 542.535 122.951C542.432 123.086 542.29 123.154 542.146 123.154Z" fill="white"/>
<path d="M513.745 214.545H440.358C437.395 214.545 434.993 211.761 434.993 208.327V152.933C434.993 149.633 437.217 146.908 440.059 146.724L516.278 141.799C519.469 141.593 522.107 144.647 521.934 148.346L519.102 208.665C518.947 211.963 516.594 214.545 513.745 214.545Z" fill="url(#paint13_linear_322_1095)"/>
<path d="M478.765 181.121L518.881 142.393C518.098 141.96 517.212 141.739 516.278 141.8L440.059 146.724C438.749 146.809 437.57 147.435 436.68 148.407L466.703 180.774C469.963 184.288 475.325 184.442 478.765 181.121Z" fill="url(#paint14_linear_322_1095)"/>
<path opacity="0.74" d="M473.188 179.201C471.194 179.201 469.208 178.374 467.613 176.741L456.301 165.165C455.969 164.825 455.937 164.238 456.23 163.853C456.523 163.468 457.03 163.431 457.362 163.771L468.674 175.348C471.077 177.807 474.573 178.009 477.177 175.841L483.038 170.957C483.399 170.658 483.899 170.753 484.157 171.169C484.416 171.586 484.334 172.167 483.974 172.467L478.112 177.351C476.626 178.589 474.904 179.201 473.188 179.201Z" fill="white"/>
<path opacity="0.74" d="M452.623 161.091C452.434 161.091 452.245 161.014 452.093 160.858L450.57 159.299C450.238 158.96 450.206 158.372 450.499 157.988C450.792 157.602 451.299 157.566 451.631 157.906L453.154 159.464C453.486 159.804 453.518 160.391 453.224 160.776C453.066 160.985 452.845 161.091 452.623 161.091Z" fill="white"/>
<path d="M163.782 122.341H111.285C109.166 122.341 107.448 120.35 107.448 117.893V78.2677C107.448 75.9071 109.038 73.9574 111.072 73.8262L165.594 70.3035C167.877 70.1559 169.764 72.3404 169.639 74.9868L167.614 118.135C167.503 120.494 165.82 122.341 163.782 122.341Z" fill="url(#paint15_linear_322_1095)"/>
<path d="M138.759 98.431L167.456 70.7274C166.896 70.418 166.262 70.2601 165.594 70.3031L111.072 73.8258C110.134 73.8864 109.292 74.3343 108.655 75.0301L130.132 98.1834C132.463 100.697 136.298 100.807 138.759 98.431Z" fill="url(#paint16_linear_322_1095)"/>
<path opacity="0.74" d="M134.77 97.0582C133.343 97.0582 131.923 96.4664 130.782 95.2985L122.69 87.0176C122.452 86.7746 122.43 86.3546 122.639 86.0794C122.849 85.8037 123.212 85.7776 123.449 86.021L131.541 94.3019C133.26 96.061 135.761 96.2061 137.623 94.6546L141.816 91.161C142.074 90.9467 142.432 91.0152 142.617 91.3128C142.802 91.611 142.743 92.0264 142.486 92.241L138.293 95.7346C137.229 96.62 135.997 97.0582 134.77 97.0582Z" fill="white"/>
<path opacity="0.74" d="M120.059 84.103C119.924 84.103 119.789 84.0482 119.68 83.9367L118.59 82.8218C118.353 82.5788 118.33 82.1588 118.54 81.8836C118.749 81.6079 119.112 81.5824 119.349 81.8252L120.439 82.94C120.676 83.183 120.699 83.603 120.489 83.8785C120.376 84.027 120.218 84.103 120.059 84.103Z" fill="white"/>
<path d="M168.027 249.356H94.6396C91.6768 249.356 89.2749 246.572 89.2749 243.137V187.744C89.2749 184.444 91.4985 181.718 94.3411 181.535L170.56 176.61C173.751 176.404 176.389 179.458 176.216 183.157L173.384 243.475C173.229 246.773 170.876 249.356 168.027 249.356Z" fill="url(#paint17_linear_322_1095)"/>
<path d="M133.047 215.931L173.163 177.203C172.38 176.77 171.494 176.55 170.56 176.61L94.341 181.535C93.0302 181.619 91.852 182.245 90.9617 183.218L120.985 215.585C124.244 219.099 129.606 219.253 133.047 215.931Z" fill="url(#paint18_linear_322_1095)"/>
<path opacity="0.74" d="M127.47 214.012C125.475 214.012 123.49 213.184 121.895 211.552L110.583 199.975C110.251 199.635 110.219 199.048 110.512 198.663C110.805 198.278 111.312 198.242 111.644 198.582L122.956 210.158C125.359 212.617 128.855 212.82 131.458 210.651L137.32 205.767C137.681 205.468 138.181 205.563 138.439 205.98C138.697 206.397 138.616 206.977 138.256 207.277L132.394 212.161C130.908 213.399 129.186 214.012 127.47 214.012Z" fill="white"/>
<path opacity="0.74" d="M106.905 195.901C106.716 195.901 106.527 195.825 106.374 195.668L104.852 194.11C104.52 193.77 104.488 193.183 104.781 192.798C105.074 192.413 105.581 192.377 105.913 192.717L107.436 194.275C107.768 194.615 107.799 195.202 107.506 195.587C107.348 195.795 107.127 195.901 106.905 195.901Z" fill="white"/>
<path d="M114.043 175.626H40.6558C37.6929 175.626 35.291 172.841 35.291 169.407V114.013C35.291 110.713 37.5149 107.988 40.3572 107.804L116.576 102.879C119.767 102.673 122.405 105.727 122.232 109.426L119.4 169.745C119.245 173.043 116.892 175.626 114.043 175.626Z" fill="url(#paint19_linear_322_1095)"/>
<path d="M79.0628 142.201L119.179 103.473C118.396 103.04 117.51 102.819 116.576 102.88L40.3573 107.804C39.0466 107.889 37.8684 108.515 36.978 109.488L67.0012 141.854C70.2605 145.368 75.6224 145.522 79.0628 142.201Z" fill="url(#paint20_linear_322_1095)"/>
<path opacity="0.74" d="M73.486 140.281C71.4914 140.281 69.5062 139.454 67.9108 137.821L56.5986 126.245C56.2666 125.905 56.235 125.318 56.5283 124.933C56.8213 124.548 57.3285 124.511 57.6599 124.851L68.9721 136.428C71.3753 138.887 74.8714 139.09 77.4751 136.921L83.3368 132.037C83.6976 131.737 84.1974 131.833 84.4559 132.249C84.7142 132.666 84.6324 133.247 84.2727 133.547L78.411 138.43C76.9241 139.669 75.2016 140.281 73.486 140.281Z" fill="white"/>
<path opacity="0.74" d="M52.9208 122.171C52.7321 122.171 52.5428 122.094 52.3904 121.938L50.8677 120.38C50.5357 120.04 50.5041 119.453 50.7971 119.068C51.0899 118.682 51.5968 118.647 51.9288 118.986L53.4518 120.545C53.7838 120.884 53.8151 121.472 53.5223 121.856C53.3637 122.065 53.1425 122.171 52.9208 122.171Z" fill="white"/>
<path d="M606.125 227.671H545.862C543.429 227.671 541.457 225.384 541.457 222.564V177.076C541.457 174.366 543.283 172.128 545.617 171.978L608.205 167.934C610.826 167.764 612.992 170.272 612.85 173.31L610.524 222.841C610.397 225.55 608.465 227.671 606.125 227.671Z" fill="url(#paint21_linear_322_1095)"/>
<path d="M577.401 200.223L610.343 168.421C609.7 168.065 608.972 167.884 608.205 167.934L545.617 171.978C544.541 172.047 543.573 172.561 542.842 173.36L567.496 199.938C570.173 202.824 574.576 202.951 577.401 200.223Z" fill="url(#paint22_linear_322_1095)"/>
<path opacity="0.74" d="M572.821 198.647C571.184 198.647 569.553 197.967 568.243 196.627L558.954 187.121C558.682 186.842 558.656 186.36 558.896 186.044C559.137 185.727 559.553 185.697 559.826 185.977L569.115 195.483C571.088 197.502 573.959 197.669 576.097 195.887L580.91 191.877C581.207 191.631 581.617 191.71 581.829 192.052C582.041 192.394 581.974 192.871 581.679 193.117L576.865 197.127C575.645 198.144 574.23 198.647 572.821 198.647Z" fill="white"/>
<path opacity="0.74" d="M555.934 183.775C555.779 183.775 555.624 183.713 555.498 183.584L554.248 182.305C553.975 182.026 553.95 181.543 554.19 181.227C554.431 180.911 554.847 180.882 555.12 181.16L556.37 182.44C556.643 182.719 556.669 183.201 556.428 183.517C556.298 183.688 556.116 183.775 555.934 183.775Z" fill="white"/>
<path d="M325.555 80.7174L198.137 202.826C200.611 204.206 203.414 204.917 206.372 204.738L447.786 190.156C451.937 189.905 455.675 187.938 458.503 184.87L363.748 81.9743C353.461 70.8034 336.483 70.2449 325.555 80.7174Z" fill="url(#paint23_linear_322_1095)"/>
<path d="M442.925 411.332H210.527C201.144 411.332 193.538 402.515 193.538 391.638V216.221C193.538 205.77 200.58 197.14 209.581 196.558L450.948 180.963C461.053 180.31 469.407 189.981 468.857 201.696L459.889 392.709C459.399 403.154 451.949 411.332 442.925 411.332Z" fill="url(#paint24_linear_322_1095)"/>
<path d="M332.152 305.483L459.189 182.841C456.711 181.471 453.906 180.772 450.948 180.963L209.581 196.558C205.431 196.826 201.699 198.809 198.88 201.889L293.956 304.386C304.277 315.514 321.257 316.001 332.152 305.483Z" fill="url(#paint25_linear_322_1095)"/>
<mask id="mask0_322_1095" style="mask-type:luminance" maskUnits="userSpaceOnUse" x="200" y="87" width="257" height="227">
<path d="M332.152 305.483L455.125 186.765C457.041 184.914 456.075 181.315 453.593 181.029C452.729 180.929 451.845 87.5491 450.948 87.607L209.581 103.202C206.705 103.388 204.029 197.754 201.719 199.381C200.148 200.488 199.963 203.056 201.309 204.508L293.956 304.387C304.277 315.514 321.257 316.001 332.152 305.483Z" fill="white"/>
</mask>
<g mask="url(#mask0_322_1095)">
<path d="M423.868 337.697H232.519V126.288C232.519 118.197 239.009 111.512 247.315 111.046L407.266 102.083C416.276 101.578 423.868 108.547 423.868 117.324L423.868 337.697Z" fill="#91B3FA"/>
</g>
<mask id="mask1_322_1095" style="mask-type:luminance" maskUnits="userSpaceOnUse" x="200" y="87" width="257" height="227">
<path d="M332.152 305.483L455.125 186.765C457.041 184.914 456.075 181.315 453.593 181.029C452.729 180.929 451.845 87.5491 450.948 87.607L209.581 103.202C206.705 103.388 204.029 197.754 201.719 199.381C200.148 200.488 199.963 203.056 201.309 204.508L293.956 304.387C304.277 315.514 321.257 316.001 332.152 305.483Z" fill="white"/>
</mask>
<g mask="url(#mask1_322_1095)">
<path d="M417.321 337.697H239.067V140.756C239.067 133.219 245.113 126.991 252.851 126.558L401.855 118.207C410.249 117.737 417.321 124.229 417.321 132.406L417.321 337.697Z" fill="#BDD0FB"/>
</g>
<path d="M220.033 315.133L119.718 357.456C115.51 359.231 113.499 364.785 115.353 369.509L115.657 370.285C117.297 374.465 121.559 376.298 125.154 374.37L222.56 322.136L220.033 315.133Z" fill="url(#paint26_linear_322_1095)"/>
<g opacity="0.29">
<path d="M266.143 346.042C293.492 346.042 315.663 320.805 315.663 289.674C315.663 258.542 293.492 233.305 266.143 233.305C238.793 233.305 216.622 258.542 216.622 289.674C216.622 320.805 238.793 346.042 266.143 346.042Z" fill="#91B3FA"/>
</g>
<path d="M266.143 226.951C235.71 226.951 211.04 255.033 211.04 289.674C211.04 324.315 235.71 352.397 266.143 352.397C296.575 352.397 321.245 324.315 321.245 289.674C321.245 255.033 296.575 226.951 266.143 226.951ZM266.143 343.183C240.18 343.183 219.134 319.226 219.134 289.674C219.134 260.122 240.18 236.165 266.143 236.165C292.105 236.165 313.151 260.122 313.151 289.674C313.151 319.226 292.105 343.183 266.143 343.183Z" fill="url(#paint27_linear_322_1095)"/>
<path d="M215.229 297.325C215.096 297.325 214.981 297.21 214.964 297.054C214.801 295.572 214.686 294.062 214.622 292.565C214.615 292.395 214.728 292.25 214.876 292.241C215.022 292.219 215.148 292.364 215.156 292.535C215.219 294.015 215.332 295.509 215.494 296.975C215.513 297.145 215.409 297.3 215.263 297.322C215.251 297.324 215.24 297.325 215.229 297.325ZM215.607 279.786C215.591 279.786 215.576 279.784 215.56 279.781C215.415 279.751 215.318 279.59 215.344 279.422C215.966 275.397 216.965 271.437 218.31 267.652C226.238 245.359 245.013 230.953 266.142 230.953C275.994 230.953 285.572 234.126 293.841 240.129C293.966 240.219 294.003 240.411 293.925 240.556C293.847 240.701 293.682 240.746 293.556 240.654C285.374 234.713 275.893 231.573 266.142 231.573C245.23 231.573 226.649 245.827 218.804 267.888C217.473 271.632 216.486 275.549 215.869 279.53C215.847 279.68 215.734 279.786 215.607 279.786Z" fill="#91B3FA"/>
<path d="M121.697 372.624C121.668 372.624 121.638 372.619 121.609 372.607C118.507 371.363 116.88 369.303 116.775 366.485C116.669 363.65 118.206 361.018 120.601 359.936L132.646 354.492C132.782 354.429 132.938 354.508 132.992 354.668C133.045 354.827 132.977 355.006 132.84 355.069L120.795 360.513C118.614 361.499 117.213 363.888 117.309 366.459C117.404 368.997 118.91 370.869 121.784 372.022C121.924 372.078 121.998 372.254 121.95 372.416C121.911 372.544 121.807 372.624 121.697 372.624Z" fill="#91B3FA"/>
<path d="M136.454 353.412C136.347 353.412 136.246 353.337 136.205 353.215C136.151 353.056 136.219 352.876 136.357 352.814L137.918 352.108C138.055 352.045 138.21 352.125 138.264 352.284C138.318 352.443 138.25 352.623 138.112 352.686L136.551 353.391C136.519 353.406 136.486 353.412 136.454 353.412Z" fill="#91B3FA"/>
<path d="M335.364 254.786L357.855 233.823C360.023 231.802 362.753 230.696 365.572 230.696H496.916C503.588 230.696 508.997 236.767 508.997 244.257V286.183C508.997 293.672 503.588 299.744 496.916 299.744H365.572C362.753 299.744 360.023 298.637 357.855 296.616L335.364 275.653C329.546 270.231 329.546 260.209 335.364 254.786Z" fill="url(#paint28_linear_322_1095)"/>
<path opacity="0.92" d="M463.87 242.591H483.294C488.397 242.591 492.534 247.235 492.534 252.963V274.767C492.534 280.496 488.397 285.14 483.294 285.14H463.87C458.767 285.14 454.631 280.496 454.631 274.767V252.963C454.631 247.235 458.767 242.591 463.87 242.591Z" fill="white"/>
<path d="M463.016 258.437L473.183 279.198L484.148 248.532L472.183 264.694L463.016 258.437Z" fill="url(#paint29_linear_322_1095)"/>
<g opacity="0.87">
<path d="M381.121 256.062L378.994 256.726C378.937 256.744 378.878 256.753 378.819 256.753H377.951C377.688 256.753 377.446 256.577 377.339 256.297C377.19 255.904 377.022 255.52 376.836 255.145C376.578 254.626 376.285 254.148 375.958 253.71C375.677 253.342 375.343 253.048 374.957 252.828C374.594 252.623 374.165 252.483 373.669 252.41C373.604 252.4 373.536 252.401 373.472 252.412C373.062 252.483 372.667 252.593 372.288 252.742C371.878 252.904 371.485 253.111 371.111 253.365C370.666 253.665 370.338 254.039 370.128 254.488C369.917 254.938 369.811 255.451 369.811 256.027C369.811 256.603 369.922 257.116 370.145 257.566C370.368 258.015 370.701 258.402 371.146 258.724C371.614 259.024 372.112 259.324 372.639 259.623C373.166 259.923 373.722 260.2 374.307 260.453C374.354 260.476 374.407 260.5 374.465 260.523C374.524 260.546 374.576 260.557 374.623 260.557C374.67 260.58 374.723 260.603 374.781 260.626C374.84 260.649 374.892 260.673 374.94 260.695C375.057 260.742 375.168 260.788 375.273 260.833C375.379 260.88 375.478 260.926 375.572 260.972C376.274 261.272 376.959 261.623 377.626 262.026C378.294 262.43 378.92 262.874 379.506 263.358C380.114 263.842 380.565 264.447 380.858 265.173C381.151 265.899 381.297 266.77 381.297 267.784C381.297 268.776 381.121 269.658 380.77 270.43C380.419 271.203 379.904 271.865 379.225 272.418C378.522 272.972 377.767 273.381 376.959 273.646C376.151 273.911 375.267 274.043 374.307 274.043H372.902C371.778 274.043 370.777 273.91 369.899 273.646C369.021 273.381 368.278 272.96 367.669 272.384C367.037 271.808 366.492 271.122 366.036 270.326C365.709 269.756 365.427 269.131 365.189 268.448C365.037 268.01 365.267 267.519 365.663 267.409L367.241 266.976C367.292 266.962 367.344 266.954 367.396 266.954H368.242C368.522 266.954 368.772 267.156 368.87 267.46C369.038 267.977 369.246 268.454 369.495 268.891C369.823 269.467 370.209 269.997 370.654 270.482C371.052 270.874 371.497 271.19 371.989 271.433C372.459 271.664 372.972 271.816 373.527 271.889C373.578 271.896 373.632 271.897 373.682 271.892C374.167 271.841 374.609 271.722 375.01 271.536C375.431 271.34 375.817 271.081 376.169 270.758C376.59 270.366 376.906 269.911 377.117 269.392C377.328 268.873 377.433 268.292 377.433 267.646C377.433 266.977 377.31 266.401 377.064 265.917C376.818 265.433 376.45 265.03 375.958 264.707C375.466 264.384 374.945 264.079 374.395 263.79C373.844 263.503 373.265 263.232 372.656 262.978C372.609 262.955 372.568 262.938 372.533 262.926C372.498 262.915 372.457 262.897 372.41 262.874C372.387 262.874 372.358 262.869 372.322 262.857C372.287 262.846 372.246 262.829 372.2 262.805C372.176 262.783 372.147 262.765 372.112 262.753C372.077 262.742 372.035 262.725 371.989 262.702C371.965 262.702 371.936 262.696 371.901 262.684C371.866 262.673 371.825 262.656 371.778 262.633C371.052 262.356 370.367 262.033 369.723 261.664C369.079 261.296 368.453 260.892 367.844 260.454C367.258 259.993 366.819 259.411 366.527 258.707C366.234 258.005 366.088 257.169 366.088 256.2C366.088 255.301 366.257 254.483 366.597 253.745C366.936 253.008 367.434 252.362 368.09 251.809C368.768 251.255 369.5 250.84 370.285 250.564C371.069 250.287 371.895 250.149 372.761 250.149L374.166 250.114C375.126 250.137 375.987 250.293 376.748 250.581C377.508 250.869 378.158 251.313 378.697 251.912C379.236 252.489 379.704 253.129 380.102 253.832C380.5 254.535 380.84 255.29 381.121 256.096L381.121 256.062Z" fill="white"/>
<path d="M390.279 250.529C390.332 250.529 390.384 250.538 390.435 250.552C390.55 250.583 390.665 250.598 390.78 250.598C390.92 250.598 391.072 250.598 391.236 250.598C391.307 250.598 391.377 250.598 391.447 250.598C391.517 250.598 391.599 250.598 391.693 250.598C391.763 250.621 391.833 250.632 391.904 250.632C391.974 250.632 392.044 250.632 392.114 250.632C392.301 250.632 392.495 250.639 392.694 250.65C392.892 250.662 393.098 250.679 393.308 250.702C393.496 250.725 393.689 250.748 393.888 250.771C394.087 250.794 394.28 250.817 394.467 250.84C394.865 250.909 395.246 250.995 395.609 251.099C395.972 251.203 396.341 251.347 396.716 251.532C397.207 251.762 397.652 252.05 398.05 252.396C398.448 252.742 398.799 253.157 399.104 253.641C399.432 254.125 399.672 254.627 399.824 255.145C399.976 255.664 400.053 256.189 400.053 256.719C400.053 257.364 399.965 257.987 399.789 258.586C399.613 259.185 399.35 259.773 398.999 260.349C398.647 260.926 398.232 261.41 397.752 261.802C397.272 262.194 396.716 262.493 396.084 262.701C395.826 262.793 395.562 262.869 395.293 262.926C395.024 262.984 394.749 263.035 394.468 263.082C394.187 263.128 393.911 263.168 393.642 263.203C393.373 263.237 393.109 263.255 392.852 263.255C392.688 263.278 392.524 263.289 392.361 263.289C392.196 263.289 392.032 263.289 391.869 263.289L390.502 263.255C390.476 263.255 390.451 263.256 390.426 263.26C390.275 263.279 390.123 263.289 389.972 263.289C389.808 263.289 389.644 263.289 389.48 263.289L389.119 263.277C388.74 263.265 388.426 263.618 388.426 264.058V272.813C388.426 273.244 388.125 273.594 387.753 273.594H387.021H385.236C384.864 273.594 384.562 273.245 384.562 272.813V251.31C384.562 250.879 384.864 250.529 385.236 250.529H385.968L390.279 250.529ZM388.426 260.364C388.426 260.795 388.728 261.145 389.1 261.145H390.569V261.18C391.272 261.157 391.944 261.076 392.589 260.938C393.233 260.799 393.847 260.592 394.433 260.315C395.018 260.062 395.457 259.658 395.75 259.105C396.043 258.552 396.189 257.86 396.189 257.03C396.189 256.108 396.036 255.353 395.732 254.765C395.428 254.177 394.971 253.757 394.362 253.503C393.753 253.25 393.115 253.054 392.448 252.915C391.781 252.777 391.072 252.696 390.323 252.673C390.276 252.673 390.229 252.673 390.183 252.673C390.135 252.673 390.089 252.673 390.042 252.673C389.972 252.673 389.913 252.673 389.866 252.673C389.819 252.673 389.773 252.673 389.726 252.673C389.679 252.673 389.632 252.673 389.586 252.673C389.538 252.673 389.492 252.673 389.445 252.673C389.375 252.673 389.316 252.673 389.27 252.673C389.222 252.673 389.176 252.673 389.129 252.673C388.746 252.654 388.427 253.009 388.427 253.454L388.426 260.364Z" fill="white"/>
<path d="M418.93 272.563C419.078 273.069 418.753 273.594 418.292 273.594H417.825H415.78C415.491 273.594 415.234 273.38 415.142 273.062L413.308 266.76C413.216 266.442 412.959 266.228 412.67 266.228H407.463C407.17 266.228 406.911 266.448 406.821 266.771L405.084 273.051C404.995 273.375 404.736 273.594 404.443 273.594H403.529H401.934C401.474 273.594 401.15 273.072 401.294 272.567L407.45 251.064C407.542 250.745 407.8 250.529 408.09 250.529H409.009H412.037C412.326 250.529 412.583 250.743 412.676 251.06L418.93 272.563ZM409.396 257.181L407.865 263.078C407.735 263.579 408.059 264.084 408.51 264.084H411.639C412.094 264.084 412.418 263.572 412.282 263.069L410.684 257.172C410.486 256.438 409.587 256.444 409.396 257.181Z" fill="white"/>
<path d="M440.972 272.813C440.972 273.244 440.671 273.594 440.298 273.594H439.567H437.782C437.41 273.594 437.108 273.244 437.108 272.813V262.802C437.108 261.911 436.027 261.715 435.793 262.565L432.903 273.05C432.814 273.374 432.554 273.594 432.261 273.594H431.348H429.905C429.614 273.594 429.355 273.376 429.265 273.055L426.27 262.399C426.032 261.553 424.955 261.752 424.955 262.641V272.813C424.955 273.244 424.654 273.594 424.281 273.594H423.55H421.765C421.393 273.594 421.091 273.244 421.091 272.813V251.31C421.091 250.878 421.393 250.529 421.765 250.529H422.496H426.081C426.373 250.529 426.632 250.747 426.722 251.069L430.575 264.845C430.668 265.214 430.751 265.566 430.821 265.9C430.891 266.234 430.962 266.563 431.032 266.885C431.032 266.839 431.037 266.793 431.049 266.747C431.061 266.701 431.079 266.655 431.102 266.609C431.125 266.563 431.143 266.517 431.155 266.47C431.166 266.425 431.173 266.379 431.173 266.332C431.196 266.217 431.219 266.107 431.243 266.004C431.266 265.9 431.289 265.802 431.313 265.71C431.313 265.595 431.324 265.485 431.348 265.381C431.371 265.278 431.394 265.18 431.418 265.087L435.239 251.075C435.327 250.75 435.587 250.529 435.881 250.529H436.792H440.298C440.67 250.529 440.972 250.879 440.972 251.31L440.972 272.813Z" fill="white"/>
</g>
</g>
<defs>
<linearGradient id="paint0_linear_322_1095" x1="72.3565" y1="233.901" x2="603.592" y2="233.901" gradientUnits="userSpaceOnUse">
<stop stop-color="#DAE3FE"/>
<stop offset="1" stop-color="#E9EFFD"/>
</linearGradient>
<linearGradient id="paint1_linear_322_1095" x1="514.174" y1="367.329" x2="588.752" y2="367.329" gradientUnits="userSpaceOnUse">
<stop stop-color="#DAE3FE"/>
<stop offset="1" stop-color="#E9EFFD"/>
</linearGradient>
<linearGradient id="paint2_linear_322_1095" x1="108.547" y1="338.028" x2="132.025" y2="338.028" gradientUnits="userSpaceOnUse">
<stop stop-color="#DAE3FE"/>
<stop offset="1" stop-color="#E9EFFD"/>
</linearGradient>
<linearGradient id="paint3_linear_322_1095" x1="50.318" y1="406.881" x2="148.78" y2="406.881" gradientUnits="userSpaceOnUse">
<stop stop-color="#DAE3FE"/>
<stop offset="1" stop-color="#E9EFFD"/>
</linearGradient>
<linearGradient id="paint4_linear_322_1095" x1="191.839" y1="160.415" x2="172.128" y2="228.433" gradientUnits="userSpaceOnUse">
<stop stop-color="#FE7062"/>
<stop offset="1" stop-color="#FF928E"/>
</linearGradient>
<linearGradient id="paint5_linear_322_1095" x1="198.768" y1="69.2352" x2="196.663" y2="104.961" gradientUnits="userSpaceOnUse">
<stop stop-color="#FE7062"/>
<stop offset="1" stop-color="#FF928E"/>
</linearGradient>
<linearGradient id="paint6_linear_322_1095" x1="299.341" y1="435.472" x2="415.369" y2="135.191" gradientUnits="userSpaceOnUse">
<stop stop-color="#09005D"/>
<stop offset="1" stop-color="#1A0F91"/>
</linearGradient>
<linearGradient id="paint7_linear_322_1095" x1="498.513" y1="104.436" x2="-77.5695" y2="672.057" gradientUnits="userSpaceOnUse">
<stop stop-color="#4042E2"/>
<stop offset="1" stop-color="#4F52FF"/>
</linearGradient>
<linearGradient id="paint8_linear_322_1095" x1="507.061" y1="408.88" x2="103.82" y2="493.495" gradientUnits="userSpaceOnUse">
<stop stop-color="#09005D"/>
<stop offset="1" stop-color="#1A0F91"/>
</linearGradient>
<linearGradient id="paint9_linear_322_1095" x1="513.943" y1="112.021" x2="488.27" y2="199.757" gradientUnits="userSpaceOnUse">
<stop stop-color="#FE7062"/>
<stop offset="1" stop-color="#FF928E"/>
</linearGradient>
<linearGradient id="paint10_linear_322_1095" x1="589.57" y1="-74.369" x2="550.906" y2="-18.4999" gradientUnits="userSpaceOnUse">
<stop stop-color="#FE7062"/>
<stop offset="1" stop-color="#FF928E"/>
</linearGradient>
<linearGradient id="paint11_linear_322_1095" x1="557.572" y1="137.338" x2="539.858" y2="197.876" gradientUnits="userSpaceOnUse">
<stop stop-color="#FE7062"/>
<stop offset="1" stop-color="#FF928E"/>
</linearGradient>
<linearGradient id="paint12_linear_322_1095" x1="560.584" y1="71.3932" x2="558.479" y2="101.052" gradientUnits="userSpaceOnUse">
<stop stop-color="#FE7062"/>
<stop offset="1" stop-color="#FF928E"/>
</linearGradient>
<linearGradient id="paint13_linear_322_1095" x1="477.087" y1="202.067" x2="474.278" y2="280.223" gradientUnits="userSpaceOnUse">
<stop stop-color="#FE7062"/>
<stop offset="1" stop-color="#FF928E"/>
</linearGradient>
<linearGradient id="paint14_linear_322_1095" x1="558.132" y1="-17.6002" x2="507.603" y2="58.6809" gradientUnits="userSpaceOnUse">
<stop stop-color="#FE7062"/>
<stop offset="1" stop-color="#FF928E"/>
</linearGradient>
<linearGradient id="paint15_linear_322_1095" x1="138.216" y1="83.7916" x2="135.408" y2="129.808" gradientUnits="userSpaceOnUse">
<stop stop-color="#FE7062"/>
<stop offset="1" stop-color="#FF928E"/>
</linearGradient>
<linearGradient id="paint16_linear_322_1095" x1="197.886" y1="-50.7556" x2="153.092" y2="18.1293" gradientUnits="userSpaceOnUse">
<stop stop-color="#FE7062"/>
<stop offset="1" stop-color="#FF928E"/>
</linearGradient>
<linearGradient id="paint17_linear_322_1095" x1="132.577" y1="198.268" x2="133.982" y2="287.353" gradientUnits="userSpaceOnUse">
<stop stop-color="#FE7062"/>
<stop offset="1" stop-color="#FF928E"/>
</linearGradient>
<linearGradient id="paint18_linear_322_1095" x1="169.804" y1="69.3758" x2="139.587" y2="135.414" gradientUnits="userSpaceOnUse">
<stop stop-color="#FE7062"/>
<stop offset="1" stop-color="#FF928E"/>
</linearGradient>
<linearGradient id="paint19_linear_322_1095" x1="78.143" y1="133.188" x2="75.3338" y2="205.887" gradientUnits="userSpaceOnUse">
<stop stop-color="#FE7062"/>
<stop offset="1" stop-color="#FF928E"/>
</linearGradient>
<linearGradient id="paint20_linear_322_1095" x1="108.672" y1="-7.5128" x2="80.0314" y2="71.9044" gradientUnits="userSpaceOnUse">
<stop stop-color="#FE7062"/>
<stop offset="1" stop-color="#FF928E"/>
</linearGradient>
<linearGradient id="paint21_linear_322_1095" x1="579.347" y1="184.423" x2="556.81" y2="261.44" gradientUnits="userSpaceOnUse">
<stop stop-color="#FE7062"/>
<stop offset="1" stop-color="#FF928E"/>
</linearGradient>
<linearGradient id="paint22_linear_322_1095" x1="610.957" y1="-3.76995" x2="597.485" y2="47.1875" gradientUnits="userSpaceOnUse">
<stop stop-color="#FE7062"/>
<stop offset="1" stop-color="#FF928E"/>
</linearGradient>
<linearGradient id="paint23_linear_322_1095" x1="447.493" y1="-50.89" x2="237.325" y2="270.311" gradientUnits="userSpaceOnUse">
<stop stop-color="#E1473D"/>
<stop offset="1" stop-color="#E9605A"/>
</linearGradient>
<linearGradient id="paint24_linear_322_1095" x1="336.612" y1="41.2105" x2="329.59" y2="202.951" gradientUnits="userSpaceOnUse">
<stop stop-color="#FE7062"/>
<stop offset="1" stop-color="#FF928E"/>
</linearGradient>
<linearGradient id="paint25_linear_322_1095" x1="447.487" y1="-50.8936" x2="237.319" y2="270.308" gradientUnits="userSpaceOnUse">
<stop stop-color="#E1473D"/>
<stop offset="1" stop-color="#E9605A"/>
</linearGradient>
<linearGradient id="paint26_linear_322_1095" x1="114.661" y1="345.135" x2="222.56" y2="345.135" gradientUnits="userSpaceOnUse">
<stop stop-color="#09005D"/>
<stop offset="1" stop-color="#1A0F91"/>
</linearGradient>
<linearGradient id="paint27_linear_322_1095" x1="339.627" y1="112.453" x2="282.21" y2="215.503" gradientUnits="userSpaceOnUse">
<stop stop-color="#09005D"/>
<stop offset="1" stop-color="#1A0F91"/>
</linearGradient>
<linearGradient id="paint28_linear_322_1095" x1="444.649" y1="197.768" x2="411.813" y2="275.023" gradientUnits="userSpaceOnUse">
<stop stop-color="#E1473D"/>
<stop offset="1" stop-color="#E9605A"/>
</linearGradient>
<linearGradient id="paint29_linear_322_1095" x1="492.526" y1="221.92" x2="450.426" y2="282.072" gradientUnits="userSpaceOnUse">
<stop stop-color="#E1473D"/>
<stop offset="1" stop-color="#E9605A"/>
</linearGradient>
<clipPath id="clip0_322_1095">
<rect width="647" height="500" fill="white"/>
</clipPath>
</defs>
</svg>
