<svg width="539" height="469" viewBox="0 0 539 469" fill="none" xmlns="http://www.w3.org/2000/svg">
<g clip-path="url(#clip0_329_4251)">
<path d="M36.5342 157.441V223.629C36.5342 225.742 38.8282 227.055 40.6482 225.984L43.5222 224.293L144.085 165.201V104.472C144.085 100.78 142.342 97.6961 139.774 95.735C136.435 93.179 131.677 92.543 127.528 94.9909L44.2644 143.927C39.4755 146.741 36.5342 151.883 36.5342 157.441Z" fill="#EA7A00"/>
<path d="M37.7935 225.924L48.5742 234.31L56.3758 230.545L40.1559 221.576L37.7935 225.924Z" fill="#EA7A00"/>
<path d="M43.522 161.269V224.293L144.085 165.201V104.472C144.061 99.4845 138.644 96.3985 134.346 98.9245L51.2529 147.755C46.4635 150.569 43.522 155.712 43.522 161.269Z" fill="#FF9D33"/>
<path d="M49.0573 173.278L81.9799 153.981C85.7365 151.78 88.4924 148.205 89.6669 144.01L90.3025 141.74C91.5844 137.161 94.6182 133.272 98.7463 130.917L137.613 108.736C144.114 105.027 152.195 109.724 152.195 117.213V118.959V123.191V174.346C152.195 179.522 149.452 184.31 144.988 186.924L62.6701 235.138C54.1893 240.105 43.522 233.985 43.522 224.152V182.941C43.522 178.965 45.6288 175.288 49.0573 173.278Z" fill="#2EA8E1"/>
<path d="M55.1007 175.226L87.0706 156.494C90.7417 154.342 93.4606 150.878 94.6787 146.8L95.1781 145.128C96.508 140.675 99.5014 136.906 103.536 134.604L143.705 111.684C147.49 109.524 152.195 112.259 152.195 116.619V119.876V123.191V174.58C152.195 179.611 149.529 184.264 145.19 186.805L62.8503 235.028C56.9656 238.474 49.564 234.227 49.564 227.404V184.89C49.5642 180.913 51.6715 177.235 55.1007 175.226Z" fill="#2ECDE1"/>
<path d="M507.426 318.297L477.948 335.562L477.258 335.967L427.586 365.066L426.903 365.47L383.879 390.671C379.837 393.042 374.826 393.063 370.757 390.727L324.38 364.118L323.676 363.713L283.37 340.59C279.363 338.296 274.443 338.282 270.415 340.556L265.857 343.129L265.405 343.387L227.92 364.592L227.822 364.648L227.216 364.989L183.683 389.612C179.648 391.892 174.707 391.871 170.694 389.556L128.115 364.955L127.418 364.557L76.7217 335.263L76.0247 334.858L48.2826 318.834C39.5438 313.785 39.5508 301.171 48.2967 296.136L78.206 278.905H78.2131L78.903 278.501L127.586 250.455L128.276 250.057L177.774 221.544L178.464 221.146H178.471L228.554 192.292L229.251 191.887L271.091 167.781C275.126 165.459 280.088 165.452 284.122 167.767L326.255 191.901L326.959 192.306L377.864 221.474H377.872L378.569 221.872L427.565 249.939L428.269 250.343L475.133 277.19L475.837 277.594L507.314 295.627C516.046 300.627 516.109 313.213 507.426 318.297Z" fill="#F9F8FF"/>
<g opacity="0.3">
<path d="M228.102 364.696L227.914 364.808L227.823 364.647L227.217 364.989L177.913 336.504L177.223 336.106L126.52 306.812L125.823 306.407L78.2131 278.905L78.9031 278.501L126.52 306.01L127.217 306.414L177.92 335.709L178.61 336.106L227.725 364.48L227.92 364.592L228.102 364.696Z" fill="#908ABC"/>
</g>
<g opacity="0.3">
<path d="M286.004 341.183L285.656 341.782L276.987 336.775L276.283 336.371L227.495 308.179L226.798 307.781L176.102 278.487L175.405 278.082L127.586 250.455L128.276 250.057L176.102 277.685L176.798 278.089L227.495 307.384H227.502L228.192 307.781L276.979 335.967L277.683 336.378L286.004 341.183Z" fill="#908ABC"/>
</g>
<g opacity="0.3">
<path d="M427.586 365.066L426.903 365.47L374.75 335.339L374.053 334.935L327.384 307.976L326.687 307.572L277.892 279.386L277.203 278.982H277.196L226.499 249.695L225.802 249.29L177.774 221.544L178.464 221.146H178.471L226.499 248.893L227.196 249.297L277.9 278.584L278.589 278.989L327.384 307.174L328.081 307.579L374.75 334.537L375.447 334.942L427.586 365.066Z" fill="#908ABC"/>
</g>
<g opacity="0.3">
<path d="M477.948 335.562L477.259 335.967L425.746 306.212L425.042 305.808L378.38 278.85L377.684 278.445H377.676L328.889 250.253L328.192 249.855L277.495 220.561L276.792 220.156L228.554 192.292L229.251 191.887L277.495 219.759L278.199 220.163L328.896 249.451L329.593 249.855L378.38 278.041L379.084 278.445L425.746 305.403L426.45 305.808L477.948 335.562Z" fill="#908ABC"/>
</g>
<g opacity="0.3">
<path d="M326.959 192.305L278.199 220.163L277.495 220.561L227.195 249.297L226.498 249.695L176.798 278.089L176.101 278.487L127.217 306.414L126.52 306.812L76.7216 335.262L76.0247 334.858L125.823 306.407L126.52 306.01L175.405 278.082L176.101 277.685L225.802 249.29L226.498 248.893L276.792 220.156L277.495 219.759L326.255 191.901L326.959 192.305Z" fill="#908ABC"/>
</g>
<g opacity="0.3">
<path d="M378.569 221.872L329.593 249.855L328.889 250.252L278.589 278.989L277.893 279.386L228.192 307.781L227.495 308.179L178.61 336.106L177.913 336.504L128.116 364.954L127.419 364.557L177.223 336.106L177.92 335.709L226.799 307.781L227.495 307.384H227.502L277.196 278.982H277.203L277.9 278.584L328.192 249.855L328.896 249.45L377.865 221.474H377.872L378.569 221.872Z" fill="#908ABC"/>
</g>
<g opacity="0.3">
<path d="M428.269 250.343L379.084 278.445L378.38 278.85L328.08 307.579L327.384 307.977L277.683 336.378L276.987 336.776L265.857 343.128L265.405 343.386L228.102 364.696L227.913 364.808L227.822 364.647L227.725 364.48L227.565 364.201L276.283 336.371L276.979 335.967L326.687 307.572L327.384 307.175L377.676 278.445H377.683L378.38 278.041L427.565 249.939L428.269 250.343Z" fill="#908ABC"/>
</g>
<g opacity="0.3">
<path d="M475.837 277.594L426.45 305.808L425.746 306.212L375.447 334.942L374.75 335.339L324.38 364.117L323.677 363.713L374.053 334.935L374.75 334.537L425.042 305.808L425.746 305.403L475.133 277.19L475.837 277.594Z" fill="#908ABC"/>
</g>
<path d="M467.493 199.306V319.13C467.493 322.955 463.34 325.332 460.045 323.393L454.842 320.332L272.789 213.355V103.415C272.789 96.7304 275.945 91.1477 280.594 87.5974C286.639 82.97 295.252 81.8188 302.764 86.2506L453.499 174.841C462.168 179.937 467.493 189.245 467.493 199.306Z" fill="#63A1FC"/>
<path d="M465.213 323.286L445.696 338.467L431.573 331.651L460.936 315.413L465.213 323.286Z" fill="#63A1FC"/>
<path d="M454.842 206.237V320.332L272.788 213.355V103.415C272.831 94.385 282.638 88.7983 290.419 93.371L440.846 181.771C449.517 186.866 454.842 196.175 454.842 206.237Z" fill="#4987F3"/>
<path d="M444.822 227.977L385.22 193.043C378.419 189.057 373.43 182.585 371.304 174.991L370.154 170.882C367.833 162.593 362.341 155.552 354.868 151.288L284.505 111.134C272.737 104.418 258.107 112.922 258.107 126.479V129.641V137.303V229.911C258.107 239.281 263.073 247.948 271.154 252.681L420.178 339.965C435.531 348.957 454.842 337.877 454.842 320.076V245.471C454.842 238.273 451.028 231.615 444.822 227.977Z" fill="#76BEFF"/>
<path d="M433.881 231.503L376.004 197.592C369.359 193.698 364.436 187.426 362.231 180.043L361.327 177.016C358.919 168.955 353.501 162.132 346.197 157.964L273.477 116.47C266.625 112.56 258.107 117.512 258.107 125.405V131.301V137.303V230.335C258.107 239.442 262.934 247.866 270.788 252.466L419.851 339.766C430.505 346.005 443.904 338.317 443.904 325.964V248.998C443.904 241.8 440.089 235.141 433.881 231.503Z" fill="#5CA8FD"/>
<path d="M151.622 304.636L240.573 254.06L241.681 188.087L152.729 238.663L151.622 304.636Z" fill="#D1CFE2"/>
<path d="M152.729 238.663L114.994 215.756L113.868 282.852L151.622 304.636L152.729 238.663Z" fill="#B2B1C9"/>
<path d="M200.654 243.223L201.593 260.986L197.826 263.099L189.725 267.641L191.242 247.565C189.525 247.52 187.956 246.988 186.773 245.872C183.437 242.723 184.352 236.326 188.818 231.584C189.338 231.035 189.88 230.53 190.442 230.072C194.713 226.604 200.001 225.92 202.95 228.703C206.289 231.852 205.374 238.249 200.905 242.989C200.827 243.074 200.735 243.138 200.654 243.223Z" fill="#B2B1C9"/>
<path opacity="0.63" d="M196.892 245.468L197.826 263.099L189.725 267.641L191.242 247.565C189.525 247.521 187.956 246.988 186.773 245.872C183.437 242.723 184.352 236.326 188.818 231.584C189.338 231.035 189.88 230.53 190.442 230.073C193.734 228.74 197.066 228.948 199.188 230.95C202.527 234.097 201.612 240.494 197.145 245.236C197.064 245.321 196.973 245.385 196.892 245.468Z" fill="#A2A2BA"/>
<path d="M241.681 188.087L204.96 164.818L114.994 215.756L152.729 238.663L241.681 188.087Z" fill="#ECEAF6"/>
<path d="M135.254 213.108L148.516 221.064L156.155 203.405L144.197 194.44L135.254 213.108Z" fill="#2EA8E1"/>
<path d="M135.254 213.107L150.07 205.236L150.444 182.931C157.695 173.013 156.05 164.475 164.651 160.031L178.092 153.088C181.002 151.584 183.478 152.76 184.404 153.337C185.332 153.914 187.483 155.608 187.428 158.887L186.966 186.394L201.782 178.523L202.108 159.134C202.234 151.641 198.51 144.808 192.147 140.856C185.786 136.903 178.013 136.595 171.358 140.034L157.915 146.978C144.506 153.904 136.018 167.587 135.765 182.685L135.254 213.107Z" fill="#2EA8E1"/>
<path d="M186.966 186.395L200.229 194.351L206.845 176.199L200.217 156.715L187.428 158.887L186.966 186.395Z" fill="#2EA8E1"/>
<path d="M208.446 151.099C208.446 151.099 198.87 142.902 188.774 139.155L183.557 143.997L202.178 154.943L208.446 151.099Z" fill="#2EA8E1"/>
<path d="M148.516 221.064L163.332 213.193L163.706 190.888C163.869 181.205 169.312 172.431 177.913 167.988L191.355 161.044C194.265 159.541 196.74 160.716 197.666 161.293C198.594 161.87 200.745 163.565 200.69 166.844L200.229 194.351L215.045 186.48L215.37 167.09C215.496 159.597 211.772 152.764 205.41 148.812C199.048 144.859 191.275 144.551 184.62 147.99L171.177 154.934C157.768 161.86 149.28 175.543 149.027 190.641L148.516 221.064Z" fill="#2ECDE1"/>
<path d="M59.7402 289.992L82.2812 276.969L148.516 315.235L126.815 328.386L59.7402 289.992Z" fill="#ECEAF6"/>
<path d="M66.2842 289.992L82.2812 281.096L140.87 314.944L126.165 323.574L66.2842 289.992Z" fill="#CDCADD"/>
<path d="M60.2031 315.769L59.7402 289.992L126.815 328.386L126.438 353.856L60.2031 315.769Z" fill="#B5B3C9"/>
<path d="M126.438 353.857L148.516 340.923V315.235L126.815 328.386L126.438 353.857Z" fill="#CDCADD"/>
<path d="M82.1987 280.753L81.9726 298.79L66.2842 289.992L82.1987 280.753Z" fill="#B7B5C9"/>
<path d="M72.1975 293.308L82.1111 287.742L135.253 318.24L126.165 323.574L72.1975 293.308Z" fill="#2ECDE1"/>
<path d="M90.952 297.866C90.952 297.866 86.0096 249.74 98.5304 238.245C98.5304 238.245 79.5887 250.513 84.3622 296.512L90.952 297.866Z" fill="#2ECDE1"/>
<path d="M79.5318 297.002C79.5318 297.002 83.3336 266.553 73.7024 259.28C73.7024 259.28 88.2727 267.042 84.601 296.146L79.5318 297.002Z" fill="#2EA8E1"/>
<path d="M99.0079 302.928C99.0079 302.928 94.0655 254.801 106.586 243.306C106.586 243.306 87.6447 255.575 92.4181 301.574L99.0079 302.928Z" fill="#2EA8E1"/>
<path d="M87.5877 302.064C87.5877 302.064 91.3895 271.614 81.7583 264.341C81.7583 264.341 96.3286 272.104 92.6569 301.207L87.5877 302.064Z" fill="#2EA8E1"/>
<path d="M106.266 306.204C106.266 306.204 101.324 258.078 113.845 246.583C113.845 246.583 94.9032 258.851 99.6766 304.85L106.266 306.204Z" fill="#2EA8E1"/>
<path d="M94.8462 305.34C94.8462 305.34 98.6481 274.891 89.0168 267.618C89.0168 267.618 103.587 275.38 99.9154 304.483L94.8462 305.34Z" fill="#2ECDE1"/>
<path d="M102.377 309.653C102.377 309.653 106.679 261.526 95.781 250.031C95.781 250.031 112.268 262.3 108.113 308.299L102.377 309.653Z" fill="#2ECDE1"/>
<path d="M112.318 308.789C112.318 308.789 109.008 278.339 117.392 271.066C117.392 271.066 104.709 278.829 107.905 307.932L112.318 308.789Z" fill="#2EA8E1"/>
<path d="M110.553 313.939C110.553 313.939 114.855 265.813 103.957 254.318C103.957 254.318 120.444 266.587 116.289 312.585L110.553 313.939Z" fill="#2ECDE1"/>
<path d="M120.493 313.075C120.493 313.075 117.184 282.626 125.568 275.353C125.568 275.353 112.885 283.115 116.081 312.218L120.493 313.075Z" fill="#2EA8E1"/>
<path d="M130.026 318.901C130.026 318.901 125.469 270.775 137.012 259.28C137.012 259.28 119.55 271.549 123.951 317.547L130.026 318.901Z" fill="#2ECDE1"/>
<path d="M119.497 318.037C119.497 318.037 123.002 287.588 114.123 280.315C114.123 280.315 127.555 288.077 124.17 317.181L119.497 318.037Z" fill="#2EA8E1"/>
<path d="M74.8624 289.203L127.624 318.497L125.448 322.252L74.2346 294.128L74.8624 289.203Z" fill="#2ECDE1"/>
<path d="M297.636 314.595L320.177 301.572L386.411 339.838L364.711 352.989L297.636 314.595Z" fill="#ECEAF6"/>
<path d="M304.18 314.595L320.177 305.699L378.765 339.547L364.061 348.177L304.18 314.595Z" fill="#CDCADD"/>
<path d="M298.099 340.372L297.636 314.595L364.711 352.989L364.333 378.459L298.099 340.372Z" fill="#B5B3C9"/>
<path d="M364.333 378.459L386.411 365.526V339.837L364.711 352.989L364.333 378.459Z" fill="#CDCADD"/>
<path d="M320.094 305.355L319.868 323.393L304.18 314.595L320.094 305.355Z" fill="#B7B5C9"/>
<path d="M310.093 317.911L320.006 312.345L373.149 342.843L364.061 348.177L310.093 317.911Z" fill="#2ECDE1"/>
<path d="M328.848 322.469C328.848 322.469 323.905 274.343 336.426 262.848C336.426 262.848 317.484 275.116 322.258 321.115L328.848 322.469Z" fill="#2ECDE1"/>
<path d="M317.427 321.605C317.427 321.605 321.229 291.156 311.598 283.883C311.598 283.883 326.168 291.645 322.496 320.749L317.427 321.605Z" fill="#2EA8E1"/>
<path d="M336.904 327.531C336.904 327.531 331.961 279.404 344.482 267.909C344.482 267.909 325.54 280.178 330.314 326.177L336.904 327.531Z" fill="#2EA8E1"/>
<path d="M325.483 326.667C325.483 326.667 329.285 296.217 319.654 288.944C319.654 288.944 334.224 296.707 330.553 325.81L325.483 326.667Z" fill="#2EA8E1"/>
<path d="M344.162 330.806C344.162 330.806 339.22 282.68 351.74 271.185C351.74 271.185 332.799 283.454 337.572 329.453L344.162 330.806Z" fill="#2EA8E1"/>
<path d="M332.742 329.943C332.742 329.943 336.544 299.493 326.912 292.22C326.912 292.22 341.483 299.983 337.811 329.086L332.742 329.943Z" fill="#2ECDE1"/>
<path d="M340.273 334.256C340.273 334.256 344.575 286.129 333.677 274.634C333.677 274.634 350.164 286.903 346.009 332.902L340.273 334.256Z" fill="#2ECDE1"/>
<path d="M350.213 333.392C350.213 333.392 346.904 302.942 355.288 295.669C355.288 295.669 342.605 303.432 345.801 332.535L350.213 333.392Z" fill="#2EA8E1"/>
<path d="M348.448 338.542C348.448 338.542 352.75 290.416 341.852 278.92C341.852 278.92 358.339 291.189 354.184 337.188L348.448 338.542Z" fill="#2ECDE1"/>
<path d="M358.389 337.678C358.389 337.678 355.08 307.229 363.463 299.956C363.463 299.956 350.781 307.718 353.977 336.821L358.389 337.678Z" fill="#2EA8E1"/>
<path d="M367.921 343.504C367.921 343.504 363.365 295.378 374.907 283.883C374.907 283.883 357.445 296.152 361.846 342.15L367.921 343.504Z" fill="#2ECDE1"/>
<path d="M357.393 342.64C357.393 342.64 360.898 312.19 352.019 304.917C352.019 304.917 365.451 312.68 362.066 341.783L357.393 342.64Z" fill="#2EA8E1"/>
<path d="M312.758 313.806L365.519 343.1L363.343 346.855L312.13 318.731L312.758 313.806Z" fill="#2ECDE1"/>
<path d="M238.334 156.806L242.254 155.325L230.897 124.881L226.846 126.347L238.334 156.806Z" fill="#2EA8E1"/>
<path d="M242.782 155.162C247.547 153.388 248.869 145.118 245.736 136.69C242.602 128.262 236.199 122.869 231.434 124.642C226.67 126.416 225.347 134.686 228.481 143.114C231.615 151.542 238.017 156.935 242.782 155.162Z" fill="#2EA8E1"/>
<path d="M238.097 156.905C242.862 155.131 244.184 146.861 241.051 138.434C237.917 130.006 231.514 124.612 226.749 126.386C221.985 128.16 220.662 136.43 223.796 144.858C226.93 153.285 233.332 158.679 238.097 156.905Z" fill="#2ECDE1"/>
<path d="M239.076 143.326L237.806 140.212C237.508 139.479 236.672 139.128 235.94 139.427L231.557 141.216L229.668 136.583C229.24 135.532 228.04 135.027 226.989 135.456C225.938 135.884 225.434 137.085 225.862 138.136L227.751 142.769L229.645 147.415C229.897 148.034 230.602 148.331 231.22 148.078L238.291 145.193C239.023 144.894 239.374 144.058 239.076 143.326Z" fill="white"/>
<path d="M237.269 119.413L241.211 117.994L230.336 87.3745L226.263 88.7766L237.269 119.413Z" fill="#EA7A00"/>
<path d="M241.752 117.832C246.544 116.133 247.996 107.885 244.996 99.409C241.995 90.9328 235.678 85.4386 230.886 87.1372C226.094 88.8359 224.641 97.0842 227.642 105.56C230.642 114.037 236.96 119.531 241.752 117.832Z" fill="#EA7A00"/>
<path d="M237.039 119.503C241.832 117.804 243.284 109.556 240.283 101.079C237.283 92.6032 230.966 87.109 226.173 88.8076C221.381 90.5063 219.929 98.7546 222.929 107.231C225.93 115.707 232.247 121.201 237.039 119.503Z" fill="#FF9D33"/>
<path d="M238.223 105.947L237.003 102.813C236.716 102.076 235.886 101.711 235.15 101.998L230.738 103.718L228.923 99.0562C228.511 97.9979 227.32 97.474 226.262 97.8865C225.205 98.2988 224.681 99.491 225.093 100.549L226.908 105.211L228.729 109.887C228.971 110.509 229.672 110.817 230.294 110.575L237.409 107.801C238.145 107.514 238.51 106.684 238.223 105.947Z" fill="white"/>
<path d="M494.913 271.674L498.832 270.192L487.475 239.748L483.425 241.215L494.913 271.674Z" fill="#2EA8E1"/>
<path d="M499.351 270.037C504.116 268.263 505.438 259.993 502.305 251.565C499.171 243.137 492.768 237.744 488.004 239.517C483.239 241.291 481.916 249.561 485.05 257.989C488.184 266.417 494.587 271.81 499.351 270.037Z" fill="#2EA8E1"/>
<path d="M494.666 271.781C499.431 270.007 500.753 261.737 497.619 253.309C494.486 244.882 488.083 239.488 483.318 241.262C478.554 243.036 477.231 251.306 480.365 259.733C483.498 268.161 489.901 273.555 494.666 271.781Z" fill="#2ECDE1"/>
<path d="M495.654 258.194L494.385 255.08C494.086 254.347 493.251 253.996 492.519 254.294L488.135 256.083L486.247 251.451C485.818 250.399 484.619 249.894 483.568 250.323C482.517 250.752 482.012 251.953 482.441 253.004L484.329 257.636L486.223 262.283C486.475 262.901 487.181 263.198 487.799 262.946L494.869 260.061C495.601 259.762 495.953 258.926 495.654 258.194Z" fill="white"/>
<path d="M493.847 234.281L497.79 232.862L486.915 202.242L482.842 203.644L493.847 234.281Z" fill="#EA7A00"/>
<path d="M498.328 232.698C503.12 230.999 504.572 222.751 501.572 214.275C498.571 205.799 492.254 200.304 487.462 202.003C482.67 203.702 481.217 211.95 484.218 220.426C487.218 228.902 493.536 234.396 498.328 232.698Z" fill="#EA7A00"/>
<path d="M493.616 234.368C498.408 232.67 499.86 224.421 496.86 215.945C493.859 207.469 487.542 201.975 482.75 203.673C477.957 205.372 476.505 213.62 479.506 222.096C482.506 230.573 488.823 236.067 493.616 234.368Z" fill="#FF9D33"/>
<path d="M494.801 220.814L493.581 217.68C493.295 216.943 492.465 216.578 491.728 216.866L487.317 218.585L485.502 213.924C485.09 212.865 483.898 212.341 482.841 212.754C481.783 213.166 481.26 214.358 481.672 215.416L483.486 220.078L485.307 224.754C485.549 225.376 486.25 225.684 486.872 225.442L493.987 222.668C494.724 222.381 495.089 221.551 494.801 220.814Z" fill="white"/>
</g>
<defs>
<clipPath id="clip0_329_4251">
<rect width="539" height="469" fill="white"/>
</clipPath>
</defs>
</svg>
