<svg width="500" height="500" viewBox="0 0 500 500" fill="none" xmlns="http://www.w3.org/2000/svg">
<g clip-path="url(#clip0_322_1263)">
<path d="M33.8906 167.847V238.41C33.8906 240.663 36.0187 242.063 37.7069 240.921L40.373 239.118L133.66 176.12V111.377C133.66 107.441 132.042 104.153 129.66 102.063C126.563 99.3377 122.149 98.6597 118.3 101.269L41.0615 153.44C36.6191 156.44 33.8906 161.922 33.8906 167.847Z" fill="#2C7B25"/>
<path d="M35.0591 240.858L45.0597 249.798L52.2969 245.784L37.2506 236.221L35.0591 240.858Z" fill="#2C7B25"/>
<path d="M40.373 171.929V239.118L133.66 176.12V111.378C133.638 106.06 128.613 102.77 124.625 105.463L47.5446 157.521C43.1017 160.522 40.373 166.004 40.373 171.929Z" fill="#47BE38"/>
<path d="M45.5078 184.731L76.0483 164.159C79.533 161.812 82.0896 158 83.1791 153.528L83.7687 151.108C84.9578 146.227 87.7722 142.081 91.6015 139.57L127.656 115.923C133.686 111.968 141.183 116.976 141.183 124.96V126.822V131.334V185.87C141.183 191.388 138.638 196.492 134.497 199.279L58.1357 250.68C50.2685 255.976 40.373 249.451 40.373 238.967V195.033C40.373 190.794 42.3274 186.874 45.5078 184.731Z" fill="#3FA336"/>
<path d="M51.1136 186.808L80.7704 166.837C84.1758 164.544 86.698 160.851 87.828 156.503L88.2912 154.721C89.5249 149.974 92.3017 145.956 96.0443 143.501L133.307 119.066C136.818 116.763 141.183 119.679 141.183 124.327V127.8V131.334V186.12C141.183 191.483 138.709 196.444 134.684 199.152L58.3025 250.562C52.8436 254.237 45.9775 249.709 45.9775 242.435V197.111C45.9778 192.871 47.9325 188.95 51.1136 186.808Z" fill="#53DA43"/>
<path d="M470.71 339.335L443.366 357.742L442.726 358.173L396.647 389.196L396.014 389.627L356.103 416.494C352.353 419.021 347.705 419.043 343.93 416.553L300.909 388.185L300.257 387.754L262.866 363.102C259.149 360.656 254.586 360.642 250.849 363.065L246.621 365.808L246.201 366.083L211.429 388.69L211.338 388.75L210.776 389.114L170.392 415.364C166.65 417.795 162.066 417.773 158.343 415.304L118.845 389.077L118.199 388.653L71.1705 357.422L70.524 356.991L44.7892 339.908C36.6827 334.525 36.6892 321.077 44.8022 315.71L72.5475 297.34H72.554L73.194 296.909L118.354 267.009L118.995 266.585L164.911 236.187L165.551 235.763H165.558L212.017 205.001L212.664 204.57L251.476 178.871C255.219 176.395 259.822 176.388 263.564 178.856L302.648 204.585L303.301 205.016L350.524 236.113H350.53L351.177 236.537L396.628 266.459L397.281 266.89L440.754 295.511L441.407 295.942L470.607 315.167C478.707 320.497 478.765 333.916 470.71 339.335Z" fill="#EFF2F0"/>
<g opacity="0.3">
<path d="M211.597 388.802L211.423 388.92L211.339 388.749L210.776 389.114L165.04 358.746L164.401 358.322L117.365 327.091L116.719 326.66L72.5542 297.34L73.1942 296.909L117.365 326.236L118.012 326.667L165.047 357.898L165.687 358.322L211.248 388.571L211.429 388.69L211.597 388.802Z" fill="#908ABC"/>
</g>
<g opacity="0.3">
<path d="M265.31 363.734L264.987 364.373L256.945 359.035L256.292 358.604L211.034 328.548L210.388 328.125L163.359 296.894L162.713 296.463L118.354 267.009L118.994 266.585L163.359 296.039L164.006 296.47L211.034 327.701H211.041L211.681 328.125L256.938 358.173L257.591 358.612L265.31 363.734Z" fill="#908ABC"/>
</g>
<g opacity="0.3">
<path d="M396.648 389.196L396.014 389.627L347.635 357.504L346.988 357.073L303.696 328.333L303.049 327.902L257.785 297.853L257.146 297.422H257.139L210.11 266.199L209.464 265.767L164.911 236.187L165.551 235.764H165.558L210.11 265.344L210.757 265.775L257.792 296.998L258.432 297.429L303.696 327.478L304.342 327.909L347.635 356.649L348.281 357.08L396.648 389.196Z" fill="#908ABC"/>
</g>
<g opacity="0.3">
<path d="M443.366 357.742L442.726 358.173L394.941 326.452L394.288 326.021L351.002 297.281L350.356 296.849H350.349L305.092 266.793L304.446 266.37L257.417 235.139L256.764 234.708L212.017 205.001L212.664 204.57L257.417 234.284L258.07 234.715L305.098 265.938L305.745 266.37L351.002 296.418L351.655 296.849L394.941 325.59L395.594 326.021L443.366 357.742Z" fill="#908ABC"/>
</g>
<g opacity="0.3">
<path d="M303.301 205.016L258.07 234.715L257.417 235.139L210.757 265.775L210.11 266.199L164.006 296.47L163.36 296.894L118.012 326.667L117.365 327.091L71.1704 357.422L70.5239 356.991L116.719 326.66L117.365 326.236L162.713 296.463L163.36 296.039L209.464 265.767L210.11 265.344L256.764 234.708L257.417 234.284L302.648 204.585L303.301 205.016Z" fill="#908ABC"/>
</g>
<g opacity="0.3">
<path d="M351.177 236.537L305.745 266.37L305.092 266.793L258.432 297.429L257.785 297.853L211.681 328.125L211.035 328.548L165.687 358.322L165.04 358.746L118.846 389.077L118.199 388.653L164.4 358.322L165.047 357.898L210.388 328.125L211.035 327.701H211.041L257.139 297.422H257.146L257.792 296.998L304.446 266.37L305.098 265.938L350.524 236.113H350.531L351.177 236.537Z" fill="#8ABC8C"/>
</g>
<g opacity="0.3">
<path d="M397.281 266.89L351.655 296.849L351.002 297.281L304.342 327.909L303.695 328.333L257.591 358.612L256.945 359.035L246.621 365.808L246.201 366.083L211.597 388.802L211.423 388.92L211.338 388.749L211.248 388.571L211.099 388.274L256.292 358.604L256.938 358.173L303.049 327.902L303.695 327.478L350.349 296.849H350.356L351.002 296.418L396.628 266.459L397.281 266.89Z" fill="#908ABC"/>
</g>
<g opacity="0.3">
<path d="M441.407 295.942L395.594 326.021L394.941 326.452L348.281 357.08L347.634 357.504L300.909 388.184L300.257 387.753L346.988 357.073L347.634 356.649L394.288 326.021L394.941 325.59L440.754 295.511L441.407 295.942Z" fill="#908ABC"/>
</g>
<path d="M433.667 212.48V340.224C433.667 344.301 429.815 346.836 426.758 344.769L421.932 341.505L253.051 227.457V110.25C253.051 103.124 255.979 97.1722 260.292 93.3872C265.899 88.454 273.889 87.2267 280.857 91.9515L420.686 186.398C428.728 191.83 433.667 201.754 433.667 212.48Z" fill="#47BE38"/>
<path d="M431.552 344.654L413.447 360.839L400.346 353.572L427.585 336.261L431.552 344.654Z" fill="#47BE38"/>
<path d="M421.932 219.869V341.505L253.051 227.457V110.25C253.09 100.624 262.188 94.6677 269.406 99.5427L408.949 193.786C416.992 199.218 421.932 209.142 421.932 219.869Z" fill="#2C7B25"/>
<path d="M412.636 243.046L357.347 205.803C351.039 201.554 346.41 194.654 344.438 186.558L343.371 182.177C341.218 173.34 336.123 165.834 329.191 161.288L263.92 118.48C253.003 111.32 239.431 120.386 239.431 134.839V138.21V146.378V245.107C239.431 255.097 244.038 264.337 251.535 269.383L389.775 362.436C404.018 372.023 421.932 360.21 421.932 341.232V261.696C421.932 254.022 418.394 246.924 412.636 243.046Z" fill="#53DA43"/>
<path d="M402.487 246.805L348.798 210.652C342.633 206.501 338.067 199.815 336.021 191.943L335.183 188.717C332.949 180.123 327.923 172.849 321.147 168.406L253.689 124.169C247.333 120 239.431 125.279 239.431 133.694V139.98V146.378V245.56C239.431 255.269 243.909 264.25 251.195 269.154L389.473 362.223C399.355 368.875 411.785 360.679 411.785 347.51V265.457C411.785 257.782 408.246 250.683 402.487 246.805Z" fill="#3FA336"/>
<path d="M140.651 324.772L223.166 270.853L224.193 200.52L141.678 254.439L140.651 324.772Z" fill="#D1CFE2"/>
<path d="M141.678 254.438L106.673 230.017L105.628 301.548L140.651 324.772L141.678 254.438Z" fill="#B2B1C9"/>
<path d="M186.136 259.3L187.006 278.237L183.512 280.489L175.997 285.332L177.404 263.929C175.811 263.881 174.357 263.314 173.259 262.124C170.164 258.767 171.013 251.947 175.156 246.892C175.638 246.306 176.141 245.768 176.662 245.28C180.624 241.582 185.529 240.853 188.265 243.82C191.363 247.178 190.514 253.997 186.368 259.05C186.296 259.141 186.211 259.209 186.136 259.3Z" fill="#B2B1C9"/>
<path opacity="0.63" d="M182.646 261.693L183.512 280.489L175.997 285.332L177.404 263.929C175.811 263.881 174.357 263.314 173.259 262.124C170.164 258.767 171.013 251.947 175.156 246.892C175.638 246.306 176.141 245.768 176.662 245.28C179.716 243.859 182.807 244.081 184.775 246.215C187.873 249.57 187.024 256.39 182.88 261.445C182.805 261.536 182.721 261.604 182.646 261.693Z" fill="#A2A2BA"/>
<path d="M224.193 200.519L190.129 175.712L106.673 230.017L141.678 254.438L224.193 200.519Z" fill="#EFF2F0"/>
<path d="M125.467 227.193L137.769 235.676L144.855 216.85L133.763 207.292L125.467 227.193Z" fill="#3FA336"/>
<path d="M125.467 227.193L139.211 218.802L139.558 195.023C146.285 184.449 144.758 175.346 152.737 170.609L165.206 163.206C167.905 161.604 170.202 162.857 171.06 163.472C171.922 164.087 173.917 165.894 173.866 169.389L173.438 198.715L187.182 190.323L187.484 169.652C187.6 161.664 184.146 154.38 178.244 150.166C172.343 145.952 165.132 145.623 158.959 149.29L146.489 156.693C134.05 164.077 126.176 178.664 125.941 194.76L125.467 227.193Z" fill="#3FA336"/>
<path d="M173.438 198.715L185.741 207.197L191.878 187.845L185.73 167.073L173.866 169.389L173.438 198.715Z" fill="#3FA336"/>
<path d="M193.363 161.087C193.363 161.087 184.481 152.348 175.115 148.353L170.275 153.515L187.549 165.185L193.363 161.087Z" fill="#3FA336"/>
<path d="M137.77 235.676L151.513 227.284L151.861 203.505C152.012 193.182 157.061 183.829 165.04 179.091L177.509 171.689C180.208 170.086 182.504 171.339 183.363 171.955C184.224 172.569 186.22 174.376 186.169 177.872L185.741 207.197L199.485 198.806L199.786 178.135C199.903 170.146 196.449 162.862 190.547 158.648C184.646 154.434 177.435 154.105 171.261 157.772L158.791 165.175C146.352 172.559 138.478 187.146 138.243 203.242L137.77 235.676Z" fill="#53DA43"/>
<path d="M55.4175 309.16L76.3275 295.276L137.769 336.071L117.639 350.092L55.4175 309.16Z" fill="#EFF2F0"/>
<path d="M61.4878 309.16L76.3274 299.676L130.676 335.761L117.036 344.961L61.4878 309.16Z" fill="#CDCADD"/>
<path d="M55.8468 336.641L55.4175 309.16L117.639 350.092L117.289 377.246L55.8468 336.641Z" fill="#B5B3C9"/>
<path d="M117.289 377.246L137.769 363.457V336.071L117.639 350.092L117.289 377.246Z" fill="#CDCADD"/>
<path d="M76.2508 299.31L76.041 318.539L61.4878 309.16L76.2508 299.31Z" fill="#B7B5C9"/>
<path d="M66.9736 312.695L76.1699 306.761L125.467 339.275L117.036 344.961L66.9736 312.695Z" fill="#3FA336"/>
<path d="M84.3711 317.554C84.3711 317.554 79.7863 266.247 91.4011 253.992C91.4011 253.992 73.83 267.072 78.258 316.111L84.3711 317.554Z" fill="#53DA43"/>
<path d="M73.7772 316.633C73.7772 316.633 77.304 284.171 68.3696 276.417C68.3696 276.417 81.8857 284.693 78.4796 315.72L73.7772 316.633Z" fill="#3FA336"/>
<path d="M91.8442 322.95C91.8442 322.95 87.2594 271.643 98.8742 259.388C98.8742 259.388 81.3031 272.468 85.7312 321.507L91.8442 322.95Z" fill="#3FA336"/>
<path d="M81.2504 322.029C81.2504 322.029 84.7771 289.567 75.8428 281.814C75.8428 281.814 89.3589 290.089 85.9528 321.116L81.2504 322.029Z" fill="#3FA336"/>
<path d="M98.5776 326.443C98.5776 326.443 93.9928 275.136 105.608 262.881C105.608 262.881 88.0365 275.961 92.4646 325L98.5776 326.443Z" fill="#3FA336"/>
<path d="M87.9838 325.522C87.9838 325.522 91.5105 293.06 82.5762 285.306C82.5762 285.306 96.0923 293.582 92.6862 324.609L87.9838 325.522Z" fill="#53DA43"/>
<path d="M94.9697 330.12C94.9697 330.12 98.9604 278.813 88.8506 266.558C88.8506 266.558 104.145 279.637 100.291 328.677L94.9697 330.12Z" fill="#53DA43"/>
<path d="M104.191 329.199C104.191 329.199 101.121 296.737 108.898 288.983C108.898 288.983 97.133 297.259 100.098 328.286L104.191 329.199Z" fill="#3FA336"/>
<path d="M102.554 334.69C102.554 334.69 106.544 283.382 96.4346 271.127C96.4346 271.127 111.729 284.207 107.875 333.246L102.554 334.69Z" fill="#53DA43"/>
<path d="M111.775 333.768C111.775 333.768 108.705 301.306 116.482 293.553C116.482 293.553 104.717 301.828 107.682 332.855L111.775 333.768Z" fill="#3FA336"/>
<path d="M120.617 339.98C120.617 339.98 116.391 288.672 127.098 276.417C127.098 276.417 110.9 289.497 114.982 338.536L120.617 339.98Z" fill="#53DA43"/>
<path d="M110.851 339.059C110.851 339.059 114.102 306.597 105.866 298.843C105.866 298.843 118.326 307.119 115.186 338.146L110.851 339.059Z" fill="#3FA336"/>
<path d="M69.4457 308.319L118.389 339.549L116.371 343.552L68.8633 313.57L69.4457 308.319Z" fill="#53DA43"/>
<path d="M276.1 335.389L297.01 321.506L358.452 362.3L338.322 376.321L276.1 335.389Z" fill="#EFF2F0"/>
<path d="M282.17 335.389L297.01 325.905L351.359 361.99L337.718 371.19L282.17 335.389Z" fill="#CDCADD"/>
<path d="M276.529 362.87L276.1 335.389L338.322 376.321L337.971 403.475L276.529 362.87Z" fill="#B5B3C9"/>
<path d="M337.971 403.475L358.452 389.687V362.3L338.322 376.321L337.971 403.475Z" fill="#CDCADD"/>
<path d="M296.933 325.539L296.723 344.768L282.17 335.389L296.933 325.539Z" fill="#B7B5C9"/>
<path d="M287.656 338.924L296.852 332.99L346.149 365.504L337.718 371.19L287.656 338.924Z" fill="#3FA336"/>
<path d="M305.053 343.783C305.053 343.783 300.468 292.476 312.083 280.221C312.083 280.221 294.512 293.301 298.94 342.34L305.053 343.783Z" fill="#53DA43"/>
<path d="M294.459 342.862C294.459 342.862 297.986 310.4 289.052 302.647C289.052 302.647 302.568 310.922 299.162 341.949L294.459 342.862Z" fill="#3FA336"/>
<path d="M312.527 349.179C312.527 349.179 307.942 297.872 319.557 285.617C319.557 285.617 301.985 298.697 306.414 347.736L312.527 349.179Z" fill="#3FA336"/>
<path d="M301.933 348.258C301.933 348.258 305.459 315.796 296.525 308.043C296.525 308.043 310.041 316.318 306.635 347.345L301.933 348.258Z" fill="#3FA336"/>
<path d="M319.259 352.672C319.259 352.672 314.675 301.365 326.289 289.11C326.289 289.11 308.718 302.19 313.146 351.229L319.259 352.672Z" fill="#3FA336"/>
<path d="M308.666 351.751C308.666 351.751 312.192 319.289 303.258 311.535C303.258 311.535 316.774 319.811 313.368 350.838L308.666 351.751Z" fill="#53DA43"/>
<path d="M315.652 356.349C315.652 356.349 319.643 305.042 309.533 292.787C309.533 292.787 324.827 305.867 320.973 354.906L315.652 356.349Z" fill="#53DA43"/>
<path d="M324.873 355.428C324.873 355.428 321.803 322.966 329.58 315.212C329.58 315.212 317.815 323.488 320.78 354.515L324.873 355.428Z" fill="#3FA336"/>
<path d="M323.236 360.919C323.236 360.919 327.226 309.611 317.117 297.356C317.117 297.356 332.411 310.436 328.557 359.475L323.236 360.919Z" fill="#53DA43"/>
<path d="M332.457 359.998C332.457 359.998 329.387 327.536 337.164 319.782C337.164 319.782 325.399 328.057 328.364 359.084L332.457 359.998Z" fill="#3FA336"/>
<path d="M341.3 366.209C341.3 366.209 337.073 314.902 347.781 302.647C347.781 302.647 331.582 315.726 335.664 364.766L341.3 366.209Z" fill="#53DA43"/>
<path d="M331.533 365.288C331.533 365.288 334.784 332.826 326.548 325.072C326.548 325.072 339.008 333.348 335.868 364.375L331.533 365.288Z" fill="#3FA336"/>
<path d="M290.128 334.548L339.071 365.778L337.053 369.781L289.545 339.799L290.128 334.548Z" fill="#53DA43"/>
<path d="M221.089 167.171L224.725 165.592L214.19 133.135L210.432 134.698L221.089 167.171Z" fill="#47BE38"/>
<path d="M225.215 165.418C229.635 163.526 230.862 154.71 227.955 145.725C225.048 136.741 219.109 130.99 214.689 132.881C210.269 134.773 209.042 143.589 211.949 152.574C214.856 161.558 220.795 167.309 225.215 165.418Z" fill="#47BE38"/>
<path d="M220.869 167.276C225.289 165.385 226.516 156.568 223.609 147.584C220.702 138.599 214.762 132.849 210.342 134.74C205.922 136.631 204.696 145.448 207.603 154.432C210.51 163.417 216.449 169.167 220.869 167.276Z" fill="#3FA336"/>
<path d="M221.777 152.8L220.599 149.48C220.322 148.699 219.547 148.324 218.868 148.643L214.802 150.55L213.05 145.611C212.653 144.49 211.54 143.952 210.565 144.409C209.59 144.866 209.122 146.146 209.52 147.267L211.271 152.206L213.028 157.159C213.262 157.819 213.916 158.135 214.49 157.866L221.049 154.79C221.728 154.472 222.054 153.581 221.777 152.8Z" fill="white"/>
<path d="M220.101 127.306L223.758 125.793L213.67 93.1494L209.892 94.6442L220.101 127.306Z" fill="#47BE38"/>
<path d="M224.259 125.62C228.705 123.809 230.052 115.016 227.268 105.979C224.485 96.943 218.625 91.0856 214.179 92.8966C209.734 94.7075 208.387 103.501 211.17 112.537C213.954 121.574 219.814 127.431 224.259 125.62Z" fill="#47BE38"/>
<path d="M219.888 127.401C224.333 125.59 225.681 116.797 222.897 107.76C220.114 98.7238 214.253 92.8664 209.808 94.6773C205.363 96.4883 204.015 105.282 206.799 114.318C209.582 123.355 215.442 129.212 219.888 127.401Z" fill="#3FA336"/>
<path d="M220.986 112.949L219.854 109.609C219.588 108.823 218.818 108.434 218.135 108.74L214.043 110.573L212.359 105.604C211.977 104.475 210.872 103.917 209.891 104.357C208.91 104.796 208.424 106.067 208.806 107.195L210.49 112.165L212.179 117.15C212.403 117.814 213.053 118.142 213.63 117.884L220.231 114.927C220.914 114.62 221.252 113.735 220.986 112.949Z" fill="white"/>
<path d="M459.102 289.63L462.738 288.051L452.203 255.595L448.446 257.158L459.102 289.63Z" fill="#3FA336"/>
<path d="M463.22 287.885C467.64 285.994 468.867 277.178 465.96 268.193C463.053 259.208 457.113 253.458 452.693 255.349C448.273 257.24 447.047 266.057 449.954 275.042C452.86 284.026 458.8 289.777 463.22 287.885Z" fill="#47BE38"/>
<path d="M458.874 289.745C463.294 287.853 464.52 279.037 461.614 270.052C458.707 261.067 452.767 255.317 448.347 257.208C443.927 259.099 442.7 267.916 445.607 276.901C448.514 285.885 454.454 291.636 458.874 289.745Z" fill="#3FA336"/>
<path d="M459.79 275.259L458.613 271.94C458.336 271.159 457.561 270.784 456.882 271.102L452.815 273.01L451.064 268.071C450.666 266.95 449.554 266.411 448.579 266.869C447.604 267.326 447.136 268.606 447.533 269.727L449.285 274.665L451.042 279.619C451.276 280.278 451.93 280.595 452.503 280.326L459.062 277.25C459.741 276.931 460.067 276.04 459.79 275.259Z" fill="white"/>
<path d="M458.114 249.766L461.772 248.253L451.683 215.609L447.905 217.104L458.114 249.766Z" fill="#3FA336"/>
<path d="M462.271 248.079C466.716 246.268 468.063 237.474 465.28 228.438C462.496 219.401 456.636 213.544 452.191 215.355C447.745 217.166 446.398 225.959 449.182 234.996C451.965 244.032 457.825 249.89 462.271 248.079Z" fill="#47BE38"/>
<path d="M457.899 249.86C462.345 248.049 463.692 239.255 460.909 230.219C458.125 221.183 452.265 215.325 447.819 217.136C443.374 218.947 442.027 227.741 444.81 236.777C447.594 245.813 453.454 251.671 457.899 249.86Z" fill="#3FA336"/>
<path d="M458.999 235.409L457.867 232.068C457.601 231.283 456.832 230.894 456.148 231.2L452.056 233.033L450.373 228.063C449.99 226.935 448.885 226.377 447.904 226.816C446.923 227.256 446.437 228.527 446.819 229.655L448.503 234.625L450.192 239.61C450.416 240.273 451.066 240.602 451.643 240.343L458.244 237.386C458.927 237.08 459.266 236.195 458.999 235.409Z" fill="white"/>
</g>
<defs>
<clipPath id="clip0_322_1263">
<rect width="500" height="500" fill="white"/>
</clipPath>
</defs>
</svg>
