<?xml version="1.0" encoding="UTF-8"?>
<svg id="Layer_1" data-name="Layer 1" xmlns="http://www.w3.org/2000/svg" xmlns:xlink="http://www.w3.org/1999/xlink" viewBox="0 0 388.96 459.97">
  <defs>
    <style>
      .cls-1 {
        fill: url(#linear-gradient);
      }

      .cls-1, .cls-2, .cls-3, .cls-4, .cls-5 {
        stroke-width: 0px;
      }

      .cls-3 {
        fill: url(#linear-gradient-2);
      }

      .cls-4 {
        fill: url(#linear-gradient-3);
      }

      .cls-5 {
        fill: url(#linear-gradient-4);
      }
    </style>
    <linearGradient id="linear-gradient" x1="95.79" y1="299.51" x2="12.51" y2="155.26" gradientUnits="userSpaceOnUse">
      <stop offset="0" stop-color="#015616"/>
      <stop offset=".49" stop-color="#06b100"/>
      <stop offset="1" stop-color="#026113"/>
    </linearGradient>
    <linearGradient id="linear-gradient-2" x1="61.91" y1="243.07" x2="61.91" y2="170.11" gradientUnits="userSpaceOnUse">
      <stop offset="0" stop-color="#015616"/>
      <stop offset=".03" stop-color="#015a14"/>
      <stop offset=".32" stop-color="#03800b"/>
      <stop offset=".58" stop-color="#049a05"/>
      <stop offset=".82" stop-color="#05ab01"/>
      <stop offset="1" stop-color="#06b100"/>
    </linearGradient>
    <linearGradient id="linear-gradient-3" x1="58.36" y1="166" x2="58.36" y2="138.25" xlink:href="#linear-gradient-2"/>
    <linearGradient id="linear-gradient-4" x1="96.75" y1="229.47" x2="96.75" y2="220.02" xlink:href="#linear-gradient-2"/>
  </defs>
  <path class="cls-2" d="M76.22,174.8c1.28.39,2.24.69,3.21.97,9.31,2.67,16.44,8.24,21.67,16.3,3.84,5.9,6.75,12.21,8.12,19.17.1.49.3,1.12.67,1.36,2.78,1.85,3.66,4.66,4.4,7.71,1.52,6.2-.04,12.03-1.88,17.81-.78,2.44-2.54,4.33-4.93,5.48-.25.12-.58.34-.64.58-.65,2.33-1.59,4.63-1.82,7.01-.66,6.71.19,13.32,2.15,19.77.78,2.59.99,5.05-.84,7.25-.6.73-1.43,1.33-2.26,1.79-13.18,7.23-24.09,17.16-33.77,28.53-1.12,1.31-2.59,1.85-4.21,1.91-2.65.1-5.31.09-7.97.03-1.75-.04-3.25-.72-4.39-2.11-6.63-8.08-14.17-15.22-22.61-21.37-3.49-2.55-7.23-4.78-10.94-7.01-2.94-1.77-4.15-4.09-3.3-7.44,1.46-5.71,2.65-11.47,2.54-17.38-.06-3.03-.59-6.06-1.02-9.07-.18-1.26-.65-2.22-2.11-2.85-2.52-1.09-3.85-3.49-4.66-6.02-1.56-4.89-2.33-9.87-1.37-15.03.51-2.75.63-5.73,2.8-7.69,2-1.8,2.35-4.1,2.98-6.39,2.31-8.33,6.37-15.75,12.15-22.13,5.05-5.57,11.35-9.24,18.72-10.95,1.54-.36,1.67-.76.87-2.16-.61-1.06-1.28-2.1-1.8-3.2-.71-1.5-.37-3.03.14-4.51,2.38-6.79,4.75-13.59,7.18-20.36,1.18-3.28,2.41-6.55,3.7-9.79,1.64-4.1,5.94-5.49,9.1-2.94.76.62,1.48,1.5,1.8,2.4,3.64,10.24,7.2,20.5,10.78,30.76.84,2.4.28,4.59-1,6.68-.52.85-.92,1.78-1.48,2.87Z"/>
  <path class="cls-1" d="M47.74,173.13c-.51-.9-.83-1.67-1.32-2.3-2.02-2.61-2.02-5.29-.88-8.32,2.36-6.27,4.43-12.64,6.67-18.95,1.39-3.91,2.87-7.8,4.35-11.67,1.21-3.16,4.05-5.45,8-4.26,1.95.59,3.18,1.96,3.82,3.73,3.73,10.38,7.37,20.8,11.03,31.21,1.03,2.94.77,5.71-1.06,8.3-.5.7-.79,1.56-1.26,2.52.66.2,1.2.38,1.76.52,13.46,3.48,22.2,12.35,28.08,24.52,2.06,4.27,3.67,8.67,4.57,13.33.09.46.32,1.05.68,1.29,3.36,2.22,4.01,5.73,4.81,9.31,1.32,5.9-.42,11.38-1.95,16.88-.79,2.85-2.72,5-5.41,6.39-.29.15-.57.46-.71.76-1.23,2.68-1.85,5.49-1.95,8.45-.23,6.49.56,12.83,2.36,19.07.47,1.62.97,3.22.56,5.02-.49,2.17-1.65,3.71-3.53,4.71-12.08,6.38-22.06,15.39-31.45,25.12-1.38,1.43-2.68,2.96-3.88,4.54-1.2,1.58-2.81,2.24-4.66,2.33-2.82.13-5.64.23-8.45.11-1.76-.07-3.4-.72-4.61-2.2-6.99-8.54-14.95-16.07-23.87-22.56-3.62-2.63-7.44-5.04-11.36-7.21-2.87-1.59-4.32-5.03-3.53-7.94,1.91-6.95,3.15-14.02,2.61-21.26-.19-2.61-.83-5.19-1.33-7.77-.08-.4-.39-.94-.72-1.07-3.62-1.33-5.18-4.35-6.19-7.69-1.52-5.01-2.12-10.1-1.11-15.35.55-2.84.82-5.85,3.03-7.86,1.85-1.68,2.24-3.76,2.81-5.92,2.37-8.92,6.64-16.87,12.78-23.72,5.32-5.93,11.98-9.82,19.79-11.65.4-.09.79-.21,1.52-.4ZM62.95,132.85c-.16,0-.32-.02-.47-.02-.31.58-.7,1.14-.93,1.75-1.84,4.95-3.68,9.89-5.45,14.86-1.81,5.09-3.46,10.24-5.36,15.3-.46,1.22-.43,1.95.38,2.95,2.1,2.58,2.33,5.71,2.13,8.86-.03.49-.73,1.12-1.27,1.36-.82.35-1.76.42-2.65.61-6.78,1.45-12.81,4.41-17.69,9.35-5.06,5.12-8.6,11.25-11.12,17.96-1.24,3.29-2.47,6.6-2.58,10.2-.01.41-.65.98-1.11,1.15-1.73.65-2.65,1.97-3,3.64-.83,3.98-1.31,8.03-.47,12.05.44,2.12,1.32,4.16,2.17,6.16.27.62,1.1,1.43,1.67,1.42,2.1-.03,2.71,1.35,3.33,2.91,1.36,3.4,1.81,6.96,2.25,10.56.57,4.69-.05,9.28-.78,13.86-.49,3.05-1.37,6.04-2.02,9.08-.16.74-.16,1.43.79,1.94,9.88,5.35,18.61,12.27,26.68,20.03,3.66,3.52,6.97,7.41,10.52,11.22,0-.29.05-.55,0-.78-1.35-5.52-2.73-11.03-4.07-16.55-2.71-11.14-5.42-22.28-8.08-33.43-.66-2.75-1.89-4.88-4.53-6.31-2.81-1.52-5.39-3.47-8.05-5.27-2.62-1.78-4.69-3.95-5.18-7.27-.14-.94-.5-1.86-.61-2.8-.09-.76.05-1.55.09-2.32.76.06,1.59-.07,2.25.21,2.65,1.14,5.24,2.41,7.85,3.63,4.6,2.15,9.21,4.3,13.82,6.44,1.17.54,1.89,1.44,2.12,2.69.59,3.15.93,6.35,1.76,9.43,1.42,5.31,3.09,10.55,4.75,15.79.48,1.51,1.3,2.92,2.12,4.68,1.07-2.69,1.96-4.95,2.86-7.22,2.71-6.85,4.01-14.05,5.23-21.28.34-2,1.18-3.58,3.24-4.39,2.04-.8,4-1.81,5.99-2.73,5.32-2.46,10.63-4.92,15.95-7.36,1.29-.59,1.91-.23,1.73,1.16-.2,1.52-.81,2.99-1.03,4.52-.28,1.98-1.11,3.68-2.64,4.82-4,3-8.14,5.8-12.17,8.75-.68.5-1.39,1.27-1.61,2.04-1.39,5.05-2.67,10.12-3.93,15.21-2.68,10.76-5.32,21.53-7.99,32.3-.47,1.91-1.04,3.8-1.56,5.7,1.45-1.29,2.56-2.77,3.85-4.06,3.6-3.6,7.16-7.25,10.96-10.64,3.69-3.3,7.54-6.45,11.54-9.37,3.38-2.47,7.07-4.53,10.64-6.72.99-.61,1.49-1.19.98-2.45-.5-1.26-.69-2.63-1.04-3.95-1.26-4.81-1.9-9.72-2.03-14.66-.14-5.28.9-10.39,3.12-15.19.33-.72,1.08-1.57,1.79-1.74,2.29-.56,3.31-2.18,3.93-4.17,1.42-4.55,2.26-9.17,1.39-13.95-.46-2.52-.84-5.08-4.03-5.7-.28-.05-.6-.55-.68-.89-.29-1.25-.48-2.52-.72-3.77-1.2-6.15-3.9-11.71-7.13-16.98-3.66-5.98-8.44-10.93-15.02-13.69-3.39-1.43-6.98-2.36-10.49-3.48-.86-.28-1.52-.54-1.74-1.63-.66-3.28.39-6.13,2.05-8.83.67-1.08.96-2.08.52-3.35-2.97-8.41-5.88-16.83-8.84-25.24-.75-2.13-1.59-4.23-2.38-6.34Z"/>
  <path class="cls-3" d="M24.95,226.12c0-3.85.02-7.74-.01-11.63-.01-1.28.96-1.69,1.77-2.26,2.81-1.99,5.8-3.76,8.39-5.99,3-2.58,5.8-5.44,8.41-8.42,4.54-5.17,8.6-10.73,12.05-16.71,1.8-3.13,3.51-6.31,5.25-9.48.22-.39.41-.8.78-1.53.49.71.92,1.15,1.15,1.68,1.82,4.31,3.77,8.53,6.32,12.48,3.17,4.9,6.55,9.61,10.46,13.96,3.8,4.23,7.85,8.18,12.57,11.38,1.74,1.18,3.57,2.25,5.42,3.24,1.05.57,1.37,1.4,1.4,2.46.03,1.27-.38,1.6-1.5.99-3.46-1.89-7.05-3.62-10.26-5.87-9.69-6.78-16.72-15.88-22.13-26.31-.94-1.82-1.89-3.62-3.18-5.4v64.35c-11.21-8.6-22.98-14.92-36.88-16.94Z"/>
  <path class="cls-4" d="M61.5,138.3v27.58c-.1.04-.19.08-.29.12-1.27-1.6-2.54-3.2-3.8-4.8-.09-.11-.13-.27-.23-.34-2.8-2.11-2.03-4.61-1.02-7.34,1.73-4.65,3.24-9.39,4.83-14.09.13-.38.16-.78.24-1.18.09.02.18.03.27.05Z"/>
  <path class="cls-5" d="M98.47,220.02c.14,1.94.35,3.87.42,5.81.07,2.29.02,2.29-2.17,3.06-.68.24-1.35.48-2.11.58.82-.56,1.76-1.01,2.41-1.72.53-.58.96-1.45,1.03-2.23.15-1.82.05-3.66.05-5.49.13,0,.25-.01.38-.02Z"/>
</svg>