<svg width="511" height="511" viewBox="0 0 511 511" fill="none" xmlns="http://www.w3.org/2000/svg">
<g clip-path="url(#clip0_329_5208)">
<path d="M484.023 222.895C446.101 84.2595 269.466 56.9801 123.027 128.785C-23.4126 200.591 -26.3271 473.805 219.906 481.931C466.14 490.056 509.017 314.265 484.023 222.895Z" fill="#FAE9DC"/>
<path d="M138.335 487.102C110.921 487.102 85.4823 478.315 61.7407 451.965C50.2213 439.18 42.7472 425.845 38.8902 411.195C35.4469 398.116 34.9872 384.271 37.4851 368.868C42.1193 340.292 55.9893 311.571 70.6734 281.163C75.7805 270.587 81.0618 259.65 85.8544 248.836C94.609 229.083 100.997 207.264 107.174 186.164C123.393 130.765 138.712 78.4378 193.511 66.378C258.453 52.0845 282.088 80.3827 312.012 116.208C327.769 135.073 345.628 156.455 372.362 175.273C425.749 212.853 458.681 245.594 476.001 278.314C497.17 318.301 495.257 358.943 470.153 402.562C456.339 426.564 438.521 441.09 414.08 448.274C392.328 454.669 368.027 454.455 342.301 454.231C316.879 454.007 290.593 453.779 264.138 459.806C249.01 463.252 234.42 467.34 220.312 471.293C191.14 479.466 163.88 487.102 138.335 487.102ZM193.663 67.067L193.814 67.7559C139.831 79.6362 124.626 131.574 108.528 186.561C102.337 207.705 95.9362 229.57 87.1437 249.408C82.3417 260.243 77.0555 271.19 71.9433 281.776C42.9365 341.844 15.5385 398.58 62.7882 451.021C108.068 501.274 159.907 486.751 219.931 469.934C234.056 465.977 248.662 461.885 263.825 458.431C290.441 452.367 316.811 452.597 342.313 452.821C394.251 453.274 439.113 453.666 468.93 401.858C493.773 358.694 495.678 318.498 474.754 278.974C457.542 246.459 424.748 213.874 371.55 176.427C344.664 157.502 326.742 136.044 310.929 117.113C281.313 81.6549 257.92 53.6467 193.814 67.7557L193.663 67.067Z" fill="#F0CDB6"/>
<path d="M224.466 180.192C261.509 162.368 291.92 134.172 322.148 150.556C352.376 166.94 326.489 216.868 354.668 239.133C382.846 261.398 443.025 299.725 411.92 365.877C380.815 432.03 289.399 393.346 264.053 378.663C238.706 363.98 216.738 448.075 146.426 421.771C76.1145 395.466 127.028 333.698 126.963 309.228C126.898 284.758 81.2901 244.593 112.533 217.672C143.775 190.751 171.727 205.568 224.466 180.192Z" fill="#FFF6F0"/>
<path d="M332.062 233.181C361.393 170.31 407.141 168.078 416.626 190.952C426.11 213.826 359.162 248.586 358.604 278.07C358.046 307.554 332.062 233.181 332.062 233.181Z" fill="#38B8FF"/>
<path d="M355.702 275.196C421.647 230.564 457.352 246.743 457.352 267.943C457.352 289.143 359.894 295.071 352.467 311.375C345.039 327.679 355.702 275.196 355.702 275.196Z" fill="#ADE2FF"/>
<path d="M171.089 233.75C145.442 164.012 99.6938 176.275 98.578 195.807C97.4622 215.339 150.219 227.223 156.199 261.171C162.179 295.119 171.089 233.75 171.089 233.75Z" fill="#38B8FF"/>
<path d="M150.498 259.353C115.652 216.766 51.1566 244.35 56.7357 268.897C62.3148 293.445 127.658 246.751 150.498 271.772C173.337 296.793 150.498 259.353 150.498 259.353Z" fill="#38B8FF"/>
<path d="M144.775 311.856C66.7777 272.245 6.52425 333.098 47.2512 342.004C87.9781 350.909 97.4826 315.542 158.273 332.779C219.064 350.017 144.775 311.856 144.775 311.856Z" fill="#ADE2FF"/>
<path d="M341.463 423.731C384.387 375.068 438.462 376.755 439.77 402.638C441.078 428.52 321.621 433.923 321.621 433.923L341.463 423.731Z" fill="#ADE2FF"/>
<path d="M340.502 260.101C340.367 260.101 340.23 260.066 340.106 259.992C339.738 259.773 339.618 259.297 339.837 258.929C340.138 258.425 370.201 208.263 393.633 192.724C393.988 192.487 394.469 192.585 394.707 192.941C394.943 193.298 394.846 193.779 394.489 194.016C371.351 209.36 341.467 259.221 341.168 259.723C341.023 259.966 340.766 260.101 340.502 260.101Z" fill="#E6F7FF"/>
<path d="M338.023 305.229C337.813 305.229 337.603 305.144 337.449 304.975C337.162 304.659 337.185 304.169 337.502 303.881C338.854 302.652 338.854 302.652 339.741 301.776C340.618 300.911 342.441 299.11 347.403 294.318C352.373 289.517 368.945 281.033 387.704 273.686C397.898 269.693 423.113 260.488 437.002 261.28C437.429 261.305 437.756 261.671 437.731 262.098C437.707 262.525 437.355 262.852 436.914 262.828C415.149 261.593 358.073 286.167 348.48 295.433C343.524 300.219 341.704 302.016 340.83 302.879C339.92 303.778 339.92 303.778 338.544 305.028C338.396 305.163 338.209 305.229 338.023 305.229Z" fill="#E6F7FF"/>
<path d="M429.023 275.227C428.912 275.227 428.8 275.203 428.693 275.153L411.344 266.996C410.957 266.814 410.79 266.352 410.972 265.965C411.154 265.578 411.614 265.41 412.003 265.593L429.353 273.75C429.74 273.933 429.907 274.394 429.724 274.781C429.592 275.062 429.314 275.227 429.023 275.227Z" fill="#E6F7FF"/>
<path d="M414.641 280.411C414.514 280.411 414.387 280.38 414.268 280.315L397.989 271.362C397.614 271.156 397.477 270.685 397.683 270.31C397.89 269.935 398.361 269.799 398.736 270.004L415.015 278.957C415.39 279.163 415.527 279.635 415.32 280.009C415.179 280.266 414.914 280.411 414.641 280.411Z" fill="#E6F7FF"/>
<path d="M54.4421 323.935C54.146 323.935 53.8633 323.764 53.7343 323.476C53.5595 323.086 53.7343 322.627 54.1249 322.453C76.232 312.556 97.296 310.773 111.075 311.032C127.271 311.329 142.096 314.584 150.733 319.739C151.1 319.959 151.22 320.434 151.001 320.802C150.782 321.169 150.306 321.289 149.939 321.07C141.649 316.122 126.747 312.869 111.047 312.581C97.4295 312.333 76.6044 314.087 54.7581 323.867C54.6555 323.913 54.5478 323.935 54.4421 323.935Z" fill="#E6F7FF"/>
<path d="M71.5502 330.29C71.4584 330.29 71.365 330.274 71.274 330.239C70.8742 330.086 70.6739 329.638 70.8266 329.239L76.1598 315.269C76.3127 314.869 76.7595 314.669 77.1601 314.822C77.5599 314.974 77.7603 315.422 77.6076 315.822L72.2744 329.791C72.1562 330.1 71.8621 330.29 71.5502 330.29Z" fill="#E6F7FF"/>
<path d="M83.4569 326.691C83.386 326.691 83.3138 326.681 83.2425 326.66C82.831 326.542 82.5937 326.113 82.7121 325.702L86.1914 313.608C86.3093 313.197 86.7398 312.958 87.15 313.078C87.5615 313.196 87.7988 313.625 87.6804 314.037L84.2011 326.13C84.1036 326.469 83.7935 326.691 83.4569 326.691Z" fill="#E6F7FF"/>
<path d="M96.3472 323.935C96.2965 323.935 96.245 323.93 96.1935 323.92C95.7738 323.835 95.5024 323.427 95.5866 323.007L97.8007 312.011C97.8851 311.592 98.2931 311.32 98.7133 311.404C99.1329 311.489 99.4044 311.898 99.3202 312.317L97.1061 323.313C97.0319 323.681 96.7086 323.935 96.3472 323.935Z" fill="#E6F7FF"/>
<path d="M152.385 265.953C152.159 265.953 151.935 265.855 151.782 265.665C147.034 259.793 135.416 255.21 121.462 253.706C105.092 251.941 87.4708 254.508 71.8454 260.936C71.4485 261.098 70.9967 260.909 70.8338 260.514C70.6711 260.118 70.8598 259.665 71.2555 259.503C106.773 244.893 143.386 252.816 152.987 264.691C153.256 265.024 153.204 265.512 152.871 265.781C152.728 265.897 152.556 265.953 152.385 265.953Z" fill="#E6F7FF"/>
<path d="M81.717 265.953C81.6283 265.953 81.5381 265.938 81.45 265.906C81.0482 265.758 80.8422 265.313 80.9895 264.911L84.4688 255.424C84.6162 255.022 85.0618 254.816 85.4632 254.964C85.8651 255.111 86.0711 255.556 85.9237 255.958L82.4444 265.445C82.3294 265.759 82.0328 265.953 81.717 265.953Z" fill="#E6F7FF"/>
<path d="M89.8992 264.217C89.8094 264.217 89.7181 264.202 89.629 264.169C89.2279 264.02 89.0235 263.573 89.1729 263.172L92.7132 253.656C92.8622 253.254 93.3088 253.05 93.7094 253.199C94.1104 253.349 94.3148 253.795 94.1654 254.196L90.6252 263.713C90.5095 264.025 90.2135 264.217 89.8992 264.217Z" fill="#E6F7FF"/>
<path d="M171.089 254.701C170.752 254.701 170.442 254.479 170.344 254.139C170.307 254.01 166.511 240.989 157.557 226.884C149.326 213.917 134.918 197.346 113.025 192.04C112.609 191.939 112.353 191.52 112.454 191.104C112.555 190.689 112.973 190.435 113.39 190.534C135.8 195.965 150.502 212.867 158.889 226.09C167.952 240.379 171.796 253.581 171.834 253.712C171.952 254.124 171.714 254.553 171.303 254.671C171.231 254.691 171.159 254.701 171.089 254.701Z" fill="#E6F7FF"/>
<path d="M334.58 424.997C334.129 424.997 333.692 424.755 333.464 424.33C333.133 423.715 333.364 422.947 333.98 422.617C336.176 421.436 388.199 393.75 424.761 398.108C425.455 398.19 425.95 398.82 425.867 399.514C425.785 400.209 425.154 400.708 424.461 400.62C388.714 396.362 335.708 424.561 335.178 424.846C334.987 424.949 334.782 424.997 334.58 424.997Z" fill="#E6F7FF"/>
<path d="M162.604 446.554C155.615 446.554 149.928 440.868 149.928 433.883V174.048C149.928 167.062 155.615 161.376 162.604 161.376H344.753C351.739 161.376 357.425 167.062 357.425 174.048V433.882C357.425 440.868 351.739 446.554 344.753 446.554L162.604 446.554Z" fill="#65658C"/>
<path d="M344.724 433.043H162.631C160.02 433.043 157.903 430.926 157.903 428.315V173.788C157.903 171.177 160.02 169.06 162.631 169.06H344.724C347.335 169.06 349.451 171.177 349.451 173.788V428.315C349.452 430.926 347.335 433.043 344.724 433.043Z" fill="white"/>
<path d="M339.996 178.183H167.358V422.928H339.996V178.183Z" fill="#FAE9DC"/>
<path d="M248.607 190.971H175.158V248.946H248.607V190.971Z" fill="#F0CDB6"/>
<path d="M223.772 217.164L204.873 206.253C204.228 205.88 203.421 206.346 203.421 207.091V228.913C203.421 229.658 204.228 230.124 204.873 229.751L223.772 218.84C224.417 218.468 224.417 217.537 223.772 217.164Z" fill="white"/>
<path d="M244.145 242.207H179.616V245.18H244.145V242.207Z" fill="white"/>
<path d="M244.145 242.207H224.931V245.18H244.145V242.207Z" fill="#FAE9DC"/>
<path d="M332.197 190.971H258.748V248.946H332.197V190.971Z" fill="#F0CDB6"/>
<path d="M301.505 208.383L314.618 230.597C315.066 231.355 314.506 232.303 313.611 232.303H287.385C286.489 232.303 285.93 231.355 286.377 230.597L299.491 208.383C299.938 207.625 301.057 207.625 301.505 208.383Z" fill="white"/>
<path d="M289.999 208.343L303.112 230.557C303.56 231.315 303 232.263 302.105 232.263H275.878C274.983 232.263 274.423 231.315 274.871 230.557L287.984 208.343C288.432 207.585 289.551 207.585 289.999 208.343Z" fill="white" fill-opacity="0.7"/>
<path d="M127.709 466.337C150.594 466.337 169.146 462.648 169.146 458.097C169.146 453.547 150.594 449.857 127.709 449.857C104.824 449.857 86.2715 453.547 86.2715 458.097C86.2715 462.648 104.824 466.337 127.709 466.337Z" fill="#F0CDB6"/>
<path d="M350.205 466.337C373.09 466.337 391.642 462.648 391.642 458.097C391.642 453.547 373.09 449.857 350.205 449.857C327.32 449.857 308.768 453.547 308.768 458.097C308.768 462.648 327.32 466.337 350.205 466.337Z" fill="#F0CDB6"/>
<path d="M229.929 460.137H208.31C207.916 460.137 207.594 459.815 207.594 459.422C207.594 459.028 207.916 458.706 208.31 458.706H229.135C229.128 458.72 229.128 458.742 229.128 458.756C229.128 458.992 229.192 459.221 229.321 459.443C229.457 459.694 229.664 459.93 229.929 460.137Z" fill="#5091B9"/>
<path d="M261.582 459.421C261.582 459.815 261.26 460.137 260.866 460.137H239.247C239.511 459.929 239.719 459.693 239.855 459.443C239.984 459.221 240.048 458.992 240.048 458.756C240.048 458.741 240.048 458.72 240.041 458.706H260.866C261.26 458.706 261.582 459.028 261.582 459.421Z" fill="#5091B9"/>
<path d="M235.303 446.075V456.122C235.074 456.101 234.831 456.094 234.588 456.094C234.344 456.094 234.101 456.101 233.872 456.122V446.075C233.872 445.681 234.194 445.359 234.588 445.359C234.981 445.359 235.303 445.681 235.303 446.075Z" fill="#5091B9"/>
<path d="M235.303 461.396V476.303C235.303 476.697 234.981 477.019 234.588 477.019C234.194 477.019 233.872 476.697 233.872 476.303V461.396C234.044 461.404 234.216 461.411 234.395 461.418H234.781C234.96 461.411 235.132 461.404 235.303 461.396Z" fill="#5091B9"/>
<path d="M234.395 461.418L221.263 474.55C221.12 474.693 220.941 474.758 220.755 474.758C220.569 474.758 220.39 474.693 220.247 474.55C219.968 474.271 219.968 473.82 220.247 473.541L224.977 468.811L232.563 461.225C232.978 461.311 233.415 461.368 233.873 461.397C234.044 461.404 234.216 461.411 234.395 461.418Z" fill="#5091B9"/>
<path d="M247.863 447.95L238.768 457.045C238.367 456.809 237.88 456.609 237.336 456.459L246.854 446.941C247.133 446.654 247.584 446.654 247.863 446.941C248.142 447.22 248.142 447.67 247.863 447.95Z" fill="#5091B9"/>
<path d="M232.269 461.168L217.971 465.741L210.571 468.109C210.5 468.138 210.421 468.145 210.349 468.145C210.049 468.145 209.77 467.952 209.67 467.651C209.548 467.272 209.755 466.871 210.135 466.75L216.633 464.667L230.201 460.33C230.738 460.688 231.446 460.974 232.269 461.168Z" fill="#5091B9"/>
<path d="M258.648 452.723L251.756 454.927L240.041 458.677C240.02 458.219 239.748 457.783 239.297 457.418L250.253 453.911L258.211 451.363C258.591 451.242 258.991 451.449 259.113 451.828C259.235 452.201 259.027 452.608 258.648 452.723Z" fill="#5091B9"/>
<path d="M231.84 456.459C231.296 456.609 230.809 456.809 230.409 457.045L221.313 447.95C221.034 447.671 221.034 447.22 221.313 446.941C221.592 446.654 222.043 446.654 222.322 446.941L231.84 456.459Z" fill="#5091B9"/>
<path d="M248.929 474.55C248.786 474.693 248.607 474.757 248.421 474.757C248.235 474.757 248.056 474.693 247.913 474.55L242.56 469.197L235.303 461.94L234.781 461.418C234.96 461.411 235.132 461.404 235.303 461.396C235.761 461.368 236.198 461.311 236.613 461.225L244.199 468.81L248.929 473.541C249.208 473.82 249.208 474.271 248.929 474.55Z" fill="#5091B9"/>
<path d="M218.923 453.911L229.879 457.417C229.428 457.783 229.156 458.219 229.135 458.677L217.42 454.927L210.528 452.723C210.149 452.609 209.941 452.201 210.063 451.829C210.185 451.449 210.586 451.242 210.965 451.363L218.923 453.911Z" fill="#5091B9"/>
<path d="M259.506 467.651C259.406 467.952 259.127 468.145 258.827 468.145C258.755 468.145 258.676 468.138 258.605 468.109L251.205 465.74L236.907 461.168C237.73 460.974 238.438 460.688 238.975 460.33L252.543 464.667L259.041 466.75C259.421 466.871 259.628 467.272 259.506 467.651Z" fill="#5091B9"/>
<path d="M254.726 459.686C254.726 459.686 254.726 459.686 254.726 459.679C254.698 459.5 254.655 459.321 254.597 459.142C254.189 457.775 253.202 456.494 251.756 455.364C251.298 455.013 250.797 454.67 250.253 454.347C248.614 453.367 246.596 452.544 244.313 451.936C243.784 451.793 243.247 451.664 242.689 451.542C240.413 451.055 237.923 450.769 235.304 450.726C235.067 450.719 234.831 450.719 234.588 450.719C234.345 450.719 234.108 450.719 233.872 450.726C231.253 450.769 228.763 451.055 226.487 451.542C225.929 451.664 225.392 451.792 224.862 451.936C222.579 452.544 220.561 453.367 218.922 454.347C218.379 454.67 217.878 455.013 217.42 455.364C215.974 456.494 214.986 457.775 214.578 459.142C214.521 459.321 214.478 459.5 214.45 459.679C214.45 459.686 214.45 459.686 214.45 459.686C214.392 459.979 214.364 460.273 214.364 460.573C214.364 462.212 215.18 463.751 216.632 465.103C217.033 465.483 217.477 465.84 217.971 466.177C219.774 467.458 222.179 468.51 224.977 469.247C225.506 469.383 226.057 469.512 226.615 469.633C228.856 470.098 231.303 470.378 233.872 470.421C234.108 470.428 234.344 470.428 234.588 470.428C234.831 470.428 235.067 470.428 235.303 470.421C237.872 470.378 240.32 470.098 242.56 469.633C243.118 469.512 243.669 469.383 244.199 469.247C246.997 468.51 249.401 467.458 251.205 466.177C251.699 465.84 252.142 465.483 252.543 465.103C253.996 463.751 254.812 462.212 254.812 460.573C254.812 460.273 254.783 459.979 254.726 459.686ZM230.201 458.963C230.108 458.906 230.015 458.842 229.929 458.77C229.665 458.563 229.457 458.326 229.321 458.076C229.428 457.876 229.586 457.69 229.779 457.518C229.844 457.453 229.915 457.396 229.987 457.339C230.345 457.06 230.81 456.824 231.353 456.623C231.404 456.609 231.454 456.588 231.511 456.573C231.955 456.423 232.448 456.301 232.978 456.23C233.264 456.18 233.565 456.151 233.872 456.13C234.101 456.115 234.345 456.108 234.588 456.108C234.831 456.108 235.075 456.115 235.304 456.13C235.611 456.151 235.912 456.18 236.198 456.23C236.728 456.301 237.221 456.423 237.665 456.573C237.722 456.588 237.772 456.609 237.823 456.623C238.366 456.824 238.832 457.06 239.19 457.339C239.261 457.396 239.333 457.453 239.397 457.518C239.59 457.69 239.748 457.876 239.855 458.076C239.719 458.326 239.511 458.563 239.247 458.77C239.161 458.842 239.068 458.906 238.975 458.963C238.968 458.971 238.961 458.971 238.953 458.978C239.039 459.028 239.118 459.085 239.19 459.142C239.261 459.2 239.333 459.257 239.397 459.321C239.59 459.493 239.748 459.679 239.855 459.879C239.719 460.13 239.512 460.366 239.247 460.574C239.161 460.645 239.068 460.71 238.975 460.767C238.438 461.125 237.73 461.411 236.907 461.604C236.814 461.625 236.714 461.647 236.614 461.661C236.198 461.747 235.762 461.805 235.304 461.833C235.132 461.84 234.961 461.847 234.781 461.855H234.395C234.216 461.847 234.044 461.84 233.873 461.833C233.414 461.805 232.978 461.747 232.563 461.661C232.463 461.647 232.363 461.625 232.269 461.604C231.446 461.411 230.738 461.125 230.201 460.767C230.108 460.71 230.015 460.645 229.929 460.574C229.665 460.366 229.457 460.13 229.321 459.879C229.428 459.679 229.586 459.493 229.779 459.321C229.844 459.257 229.915 459.2 229.987 459.142C230.058 459.085 230.137 459.028 230.223 458.978C230.216 458.971 230.208 458.971 230.201 458.963Z" fill="#5091B9"/>
<path d="M210.028 450.711V452.056C210.028 452.056 211.552 451.817 211.213 451.328C210.875 450.84 210.028 450.711 210.028 450.711Z" fill="#5091B9"/>
<path d="M207.594 458.054V459.421C207.594 459.421 208.919 459.06 208.613 458.545C208.307 458.029 207.594 458.054 207.594 458.054Z" fill="#5091B9"/>
<path d="M209.635 466.096L209.639 467.498C209.639 467.498 211.423 467.006 210.948 466.499C210.473 465.992 209.635 466.096 209.635 466.096Z" fill="#5091B9"/>
<path d="M220.038 472.698L220.045 474.14C220.045 474.14 221.302 473.616 220.891 473.133C220.48 472.65 220.038 472.698 220.038 472.698Z" fill="#5091B9"/>
<path d="M248.073 445.888V447.445C248.073 447.445 247.495 448.243 247.123 447.323C246.751 446.404 248.073 445.888 248.073 445.888Z" fill="#5091B9"/>
<path d="M221.104 445.969L221.109 447.524C221.109 447.524 221.881 447.925 222.034 447.434C222.187 446.943 221.104 445.969 221.104 445.969Z" fill="#5091B9"/>
<path d="M259.148 450.647V452.064C259.148 452.064 257.975 452.157 257.837 451.615C257.7 451.073 259.148 450.647 259.148 450.647Z" fill="#5091B9"/>
<path d="M254.597 457.339C254.189 455.972 253.202 454.691 251.756 453.56C251.298 453.209 250.797 452.866 250.253 452.544C248.614 451.564 246.596 450.741 244.313 450.132C243.784 449.989 243.247 449.86 242.689 449.739C241.53 449.488 240.313 449.295 239.053 449.159C237.844 449.023 236.584 448.944 235.304 448.923C235.067 448.916 234.831 448.916 234.588 448.916C234.345 448.916 234.108 448.916 233.872 448.923C231.253 448.966 228.763 449.252 226.487 449.739C225.929 449.86 225.392 449.989 224.862 450.132C222.579 450.741 220.561 451.563 218.922 452.544C218.379 452.866 217.878 453.209 217.42 453.56C215.974 454.691 214.986 455.972 214.578 457.339C214.435 457.811 214.364 458.283 214.364 458.77C214.364 459.078 214.392 459.385 214.45 459.679C214.45 459.686 214.45 459.686 214.45 459.686C214.578 460.373 214.85 461.039 215.258 461.676C215.616 462.241 216.074 462.785 216.632 463.3C217.033 463.679 217.477 464.037 217.97 464.374C219.774 465.655 222.178 466.707 224.976 467.444C225.506 467.58 226.057 467.708 226.615 467.83C228.855 468.295 231.303 468.574 233.872 468.617C234.108 468.624 234.344 468.625 234.587 468.625C234.831 468.625 235.067 468.624 235.303 468.617C237.872 468.574 240.32 468.295 242.56 467.83C243.118 467.709 243.669 467.58 244.199 467.444C246.997 466.707 249.401 465.655 251.205 464.374C251.698 464.037 252.142 463.679 252.543 463.3C253.724 462.205 254.482 460.981 254.725 459.686C254.725 459.686 254.725 459.686 254.725 459.679C254.783 459.386 254.811 459.078 254.811 458.77C254.812 458.283 254.741 457.811 254.597 457.339ZM239.247 458.77C239.161 458.842 239.068 458.906 238.975 458.963C238.639 459.185 238.231 459.385 237.773 459.55C237.594 459.614 237.401 459.672 237.208 459.722C237.107 459.75 237.007 459.779 236.907 459.8C236.814 459.822 236.714 459.843 236.614 459.858C236.198 459.943 235.762 460.001 235.304 460.029C235.132 460.036 234.961 460.044 234.781 460.051H234.395C234.216 460.044 234.044 460.036 233.873 460.029C233.414 460.001 232.978 459.943 232.563 459.858C232.463 459.843 232.363 459.822 232.269 459.8C232.169 459.779 232.069 459.75 231.969 459.722C231.776 459.672 231.582 459.614 231.404 459.55C230.946 459.385 230.538 459.185 230.201 458.963C230.108 458.906 230.015 458.842 229.929 458.77C229.872 458.727 229.815 458.677 229.765 458.627C229.579 458.455 229.428 458.269 229.321 458.076C229.192 457.854 229.128 457.625 229.128 457.389C229.128 455.922 231.568 454.727 234.588 454.727C235.104 454.727 235.597 454.763 236.07 454.834C235.597 455.264 235.068 455.693 234.481 456.108H234.588C234.71 456.108 234.832 456.108 234.953 456.115C235.046 456.115 235.147 456.122 235.24 456.129C235.283 456.129 235.318 456.129 235.347 456.136C235.483 456.144 235.626 456.151 235.762 456.172C236.692 456.272 237.537 456.487 238.217 456.781C238.338 456.838 238.46 456.895 238.575 456.952C239.176 457.267 239.627 457.654 239.856 458.076C239.719 458.326 239.512 458.562 239.247 458.77Z" fill="#79C5EE"/>
<path d="M240.049 457.389C240.049 457.625 239.984 457.854 239.855 458.076C239.24 456.945 237.114 456.108 234.588 456.108C232.062 456.108 229.937 456.945 229.321 458.076C229.192 457.854 229.128 457.625 229.128 457.389C229.128 455.922 231.568 454.727 234.588 454.727C237.608 454.727 240.049 455.922 240.049 457.389Z" fill="#5091B9"/>
<path d="M261.582 458.054V459.421C261.582 459.421 259.793 459.801 259.729 458.963C259.664 458.126 261.582 458.054 261.582 458.054Z" fill="#5091B9"/>
<path d="M249.139 472.679V474.045C249.139 474.045 248.339 473.702 248.361 473.187C248.382 472.671 249.139 472.679 249.139 472.679Z" fill="#5091B9"/>
<path d="M259.542 466.037L259.54 467.39C259.54 467.39 258.301 467.261 258.355 466.778C258.408 466.295 259.542 466.037 259.542 466.037Z" fill="#5091B9"/>
<path d="M229.929 458.77H208.31C207.916 458.77 207.594 458.448 207.594 458.054C207.594 457.661 207.916 457.339 208.31 457.339H229.135C229.128 457.353 229.128 457.375 229.128 457.389C229.128 457.625 229.192 457.854 229.321 458.076C229.428 458.269 229.578 458.455 229.765 458.627C229.815 458.677 229.872 458.727 229.929 458.77Z" fill="#79C5EE"/>
<path d="M261.582 458.054C261.582 458.448 261.26 458.77 260.866 458.77H239.247C239.511 458.562 239.719 458.326 239.855 458.076C239.984 457.854 240.048 457.625 240.048 457.389C240.048 457.375 240.048 457.353 240.041 457.339H260.866C261.26 457.339 261.582 457.661 261.582 458.054Z" fill="#79C5EE"/>
<path d="M235.304 444.708V454.755C235.075 454.734 234.831 454.727 234.588 454.727C234.345 454.727 234.101 454.734 233.873 454.755V444.708C233.873 444.314 234.195 443.992 234.588 443.992C234.982 443.992 235.304 444.314 235.304 444.708Z" fill="#79C5EE"/>
<path d="M235.304 460.03V474.936C235.304 475.33 234.982 475.652 234.588 475.652C234.194 475.652 233.873 475.33 233.873 474.936V460.03C234.044 460.037 234.216 460.044 234.395 460.051H234.782C234.96 460.044 235.132 460.037 235.304 460.03Z" fill="#79C5EE"/>
<path d="M234.395 460.051L221.263 473.183C221.12 473.326 220.941 473.391 220.755 473.391C220.569 473.391 220.39 473.326 220.247 473.183C219.968 472.904 219.968 472.453 220.247 472.174L224.977 467.443L232.563 459.858C232.978 459.944 233.415 460.001 233.873 460.03C234.044 460.037 234.216 460.044 234.395 460.051Z" fill="#79C5EE"/>
<path d="M247.863 446.583L238.768 455.678C238.367 455.442 237.88 455.242 237.336 455.092L246.854 445.574C247.133 445.287 247.584 445.287 247.863 445.574C248.142 445.853 248.142 446.304 247.863 446.583Z" fill="#79C5EE"/>
<path d="M232.269 459.801L217.971 464.373L210.571 466.742C210.5 466.771 210.421 466.778 210.349 466.778C210.049 466.778 209.77 466.585 209.67 466.284C209.548 465.905 209.755 465.504 210.135 465.382L216.633 463.3L230.201 458.963C230.738 459.321 231.446 459.607 232.269 459.801Z" fill="#79C5EE"/>
<path d="M258.648 451.356L251.756 453.56L240.041 457.31C240.02 456.852 239.748 456.416 239.297 456.051L250.253 452.544L258.211 449.996C258.591 449.875 258.991 450.082 259.113 450.462C259.235 450.834 259.027 451.241 258.648 451.356Z" fill="#79C5EE"/>
<path d="M231.84 455.092C231.296 455.242 230.809 455.442 230.409 455.678L221.313 446.583C221.034 446.304 221.034 445.853 221.313 445.574C221.592 445.287 222.043 445.287 222.322 445.574L231.84 455.092Z" fill="#79C5EE"/>
<path d="M248.929 473.183C248.786 473.326 248.607 473.391 248.421 473.391C248.235 473.391 248.056 473.326 247.913 473.183L242.56 467.83L235.303 460.574L234.781 460.051C234.96 460.044 235.132 460.037 235.303 460.03C235.761 460.001 236.198 459.944 236.613 459.858L244.199 467.444L248.929 472.174C249.208 472.453 249.208 472.904 248.929 473.183Z" fill="#79C5EE"/>
<path d="M229.879 456.051C229.428 456.416 229.156 456.852 229.135 457.31L217.42 453.56L210.528 451.356C210.149 451.241 209.941 450.834 210.063 450.462C210.185 450.082 210.586 449.875 210.965 449.996L218.923 452.544L229.879 456.051Z" fill="#79C5EE"/>
<path d="M259.506 466.284C259.406 466.585 259.127 466.778 258.827 466.778C258.755 466.778 258.676 466.771 258.605 466.742L251.205 464.374L236.907 459.801C237.73 459.607 238.438 459.321 238.975 458.963L252.543 463.3L259.041 465.383C259.421 465.504 259.628 465.905 259.506 466.284Z" fill="#79C5EE"/>
<path d="M229.135 457.31L229.221 457.339H229.135C229.128 457.332 229.128 457.317 229.135 457.31Z" fill="#5091B9"/>
<path d="M240.042 457.31C240.049 457.317 240.049 457.332 240.042 457.339H239.956L240.042 457.31Z" fill="#5091B9"/>
<path d="M239.054 449.159C238.975 451.07 237.995 453.03 236.07 454.834C235.598 454.762 235.104 454.727 234.589 454.727C231.569 454.727 229.128 455.922 229.128 457.389C229.128 457.625 229.193 457.854 229.321 458.076C229.429 458.269 229.579 458.455 229.765 458.627C229.651 458.677 229.529 458.727 229.407 458.77C225.772 460.194 221.07 461.246 215.259 461.675C214.851 461.038 214.579 460.373 214.451 459.686C214.451 459.686 214.451 459.686 214.451 459.679C214.393 459.385 214.365 459.077 214.365 458.77H208.31C207.917 458.77 207.595 458.447 207.595 458.054C207.595 457.66 207.917 457.338 208.31 457.338H214.579C214.987 455.972 215.975 454.69 217.42 453.56L210.529 451.356C210.15 451.241 209.942 450.833 210.064 450.461C210.185 450.082 210.586 449.874 210.965 449.996L218.923 452.544C220.562 451.563 222.58 450.74 224.863 450.132L221.313 446.582C221.034 446.303 221.034 445.852 221.313 445.573C221.592 445.287 222.043 445.287 222.323 445.573L226.488 449.738C228.763 449.252 231.254 448.965 233.873 448.923V444.707C233.873 444.314 234.195 443.992 234.589 443.992C234.982 443.992 235.304 444.314 235.304 444.707V448.923C236.585 448.944 237.845 449.023 239.054 449.159Z" fill="#333333"/>
<path d="M235.35 282.731C253.879 273.815 269.091 259.71 284.212 267.906C299.333 276.102 286.384 301.076 300.479 312.214C314.574 323.351 344.677 342.523 329.117 375.614C313.558 408.705 267.83 389.354 255.151 382.009C242.472 374.665 231.484 416.731 196.312 403.573C161.141 390.414 186.609 359.517 186.577 347.276C186.544 335.036 163.73 314.945 179.358 301.479C194.987 288.012 208.969 295.424 235.35 282.731Z" fill="#FFF6F0"/>
<path d="M319.421 351.864V352.833C319.421 373.771 319.038 394.175 318.154 395.787C317.015 397.872 269.38 398.079 232.78 397.498C232.458 397.493 232.137 397.489 231.811 397.479C231.489 397.474 231.168 397.474 230.846 397.465C209.256 397.106 191.958 396.463 191.164 395.787C190.152 394.917 189.202 374.286 188.682 352.833C188.668 352.19 188.653 351.542 188.634 350.899C188.389 340.026 188.252 329.091 188.275 320.544C188.28 319.423 188.284 318.35 188.294 317.32C188.36 309.514 188.587 304.376 189.022 304.295C192 303.723 316.627 304.905 318.154 306.129C318.527 306.432 318.834 311.84 319.047 319.872C319.076 320.837 319.099 321.839 319.123 322.874C319.307 330.878 319.402 340.886 319.416 350.899C319.416 351.221 319.421 351.542 319.421 351.864Z" fill="#FFAB3B"/>
<path d="M319.048 319.873L309.716 319.693L188.294 317.32C188.361 309.515 188.588 304.376 189.023 304.295C192.001 303.723 316.627 304.905 318.154 306.13C318.528 306.432 318.835 311.841 319.048 319.873Z" fill="#FF643B"/>
<path d="M202.261 325.684C202.83 324.572 247.446 324.716 247.986 326.41C248.527 328.104 248.204 385.235 247.802 387.401C247.127 391.031 202.859 392.125 202.115 387.413C201.425 383.045 201.27 327.62 202.261 325.684Z" fill="#FF643B"/>
<path d="M260.126 325.684C260.695 324.572 305.311 324.716 305.851 326.41C306.392 328.104 306.069 385.235 305.666 387.401C304.992 391.031 260.724 392.125 259.98 387.413C259.29 383.045 259.135 327.62 260.126 325.684Z" fill="#FF863B"/>
<path d="M238.802 365.979H211.027V368.096H238.802V365.979Z" fill="#FAD6B9"/>
<path d="M238.802 370.943H211.027V373.06H238.802V370.943Z" fill="#FAD6B9"/>
<path d="M238.802 375.907H211.027V378.024H238.802V375.907Z" fill="#FAD6B9"/>
<path d="M226.888 380.871H211.027V382.987H226.888V380.871Z" fill="#FAD6B9"/>
<path d="M238.203 346.298C238.737 346.275 239.252 346.332 239.742 346.464C239.428 344.256 238.61 342.223 237.411 340.478C236.504 341.494 235.206 342.15 233.75 342.212C230.848 342.336 228.392 340.053 228.267 337.116C228.23 336.243 228.4 335.412 228.743 334.671C227.655 334.44 226.517 334.345 225.353 334.394C224.505 334.43 223.677 334.544 222.876 334.727C223.342 335.479 223.627 336.36 223.668 337.312C223.793 340.25 221.54 342.733 218.638 342.857C216.872 342.932 215.274 342.117 214.263 340.804C213.276 342.331 212.582 344.064 212.25 345.919C212.647 345.801 213.065 345.732 213.494 345.714C216.396 345.59 218.852 347.868 218.977 350.81C219.096 353.6 217.068 355.982 214.376 356.318C215.949 358.699 218.218 360.56 220.873 361.612C220.687 361.107 220.572 360.561 220.548 359.988C220.423 357.046 222.676 354.567 225.577 354.443C228.48 354.32 230.935 356.598 231.061 359.54C231.094 360.325 230.957 361.081 230.68 361.763C233.332 360.799 235.598 359.05 237.216 356.797C234.98 356.263 233.277 354.277 233.174 351.843C233.048 348.901 235.301 346.422 238.203 346.298ZM226.114 352.227C224.074 352.314 222.347 350.708 222.258 348.644C222.17 346.579 223.755 344.832 225.795 344.745C227.835 344.658 229.562 346.264 229.651 348.328C229.738 350.393 228.154 352.14 226.114 352.227Z" fill="#FF863B"/>
<path d="M227.113 344.989C226.714 344.868 226.291 344.807 225.853 344.826C223.813 344.913 222.229 346.66 222.317 348.724C222.34 349.26 222.471 349.764 222.691 350.212C221.245 349.751 220.164 348.413 220.095 346.792C220.007 344.728 221.592 342.981 223.631 342.894C225.142 342.829 226.486 343.693 227.113 344.989Z" fill="#FF863B"/>
<path d="M235.053 354.946L237.216 356.797C237.216 356.797 235.867 358.391 234.339 357.29C232.811 356.189 235.053 354.946 235.053 354.946Z" fill="#FF863B"/>
<path d="M228.517 359.912L230.68 361.763C230.68 361.763 233.171 359.491 231.729 357.839C230.287 356.186 228.517 359.912 228.517 359.912Z" fill="#FF863B"/>
<path d="M226.58 332.82L228.744 334.671C228.744 334.671 226.363 336.197 225.402 335.516C224.44 334.836 226.58 332.82 226.58 332.82Z" fill="#FF863B"/>
<path d="M235.248 338.627L237.411 340.478C237.411 340.478 238.394 342.847 236.449 342.347C234.503 341.847 235.248 338.627 235.248 338.627Z" fill="#FF863B"/>
<path d="M210.087 344.068L212.25 345.919C212.25 345.919 213.916 345.307 213.363 343.928C212.811 342.55 210.087 344.068 210.087 344.068Z" fill="#FF863B"/>
<path d="M236.04 344.447C236.574 344.424 237.088 344.481 237.579 344.613C237.265 342.405 236.447 340.372 235.248 338.627C234.341 339.642 233.043 340.299 231.587 340.361C230.625 340.402 229.714 340.177 228.919 339.753C227.315 338.901 226.188 337.228 226.104 335.265C226.067 334.392 226.237 333.561 226.58 332.82C225.492 332.589 224.354 332.494 223.19 332.543C222.342 332.579 221.514 332.693 220.713 332.876C221.18 333.628 221.464 334.509 221.504 335.461C221.63 338.398 219.377 340.882 216.475 341.006C214.709 341.081 213.111 340.265 212.099 338.953C211.113 340.48 210.419 342.213 210.087 344.068C210.484 343.95 210.902 343.881 211.331 343.862C213.968 343.75 216.238 345.624 216.726 348.176C216.773 348.429 216.803 348.691 216.814 348.959C216.933 351.749 214.904 354.131 212.213 354.467C213.786 356.848 216.055 358.708 218.71 359.761C218.524 359.256 218.409 358.71 218.385 358.137C218.259 355.195 220.513 352.716 223.414 352.592C226.316 352.469 228.772 354.747 228.898 357.689C228.931 358.474 228.794 359.229 228.517 359.912C231.169 358.948 233.435 357.199 235.053 354.946C232.817 354.412 231.114 352.426 231.011 349.992C230.885 347.05 233.138 344.571 236.04 344.447ZM223.951 350.376C221.943 350.462 220.24 348.91 220.104 346.894C220.098 346.862 220.097 346.825 220.095 346.793C220.007 344.728 221.592 342.981 223.631 342.894C224.384 342.862 225.092 343.058 225.693 343.426C226.721 344.053 227.431 345.175 227.487 346.477C227.575 348.542 225.99 350.289 223.951 350.376Z" fill="#FFAB3B"/>
<path d="M208.353 307.334H196.371V309.016H208.353V307.334Z" fill="#FE9031"/>
<path d="M208.353 310.397H196.371V312.079H208.353V310.397Z" fill="#FE9031"/>
<path d="M208.353 313.461H196.371V315.143H208.353V313.461Z" fill="#FE9031"/>
<path d="M304.624 308.769H214.814V313.708H304.624V308.769Z" fill="#FFF4EB"/>
<path d="M248.489 406.885C248.489 406.885 248.835 408.037 249.353 408.267C249.871 408.497 290.521 408.901 290.925 408.613C291.328 408.325 291.673 407.346 291.673 407.346C291.673 407.346 273.824 405.906 267.26 405.676C260.696 405.446 248.489 406.885 248.489 406.885Z" fill="#1D3442"/>
<path d="M255.226 402.106C251.771 404.121 248.144 406.252 248.489 406.885C248.835 407.519 291.27 407.979 291.673 407.346C292.076 406.712 285.167 402.106 285.167 402.106L271.307 401.818L255.226 402.106Z" fill="#28495C"/>
<path d="M255.226 402.106C255.226 402.106 252.865 384.89 253.613 384.199C254.362 383.508 286.203 383.796 286.952 384.775C287.7 385.754 285.167 402.106 285.167 402.106H255.226Z" fill="#1D3442"/>
<path d="M284.998 387.386C284.997 387.442 284.996 387.5 284.995 387.56C284.993 387.589 284.992 387.617 284.992 387.647C284.972 388.224 284.919 388.944 284.844 389.75C284.837 389.824 284.831 389.897 284.822 389.973C284.605 392.233 284.227 395.105 283.905 397.397C283.894 397.473 283.883 397.546 283.874 397.62C283.569 399.769 283.323 401.357 283.323 401.357H257.218C257.218 401.357 257.001 399.777 256.73 397.62C256.72 397.546 256.712 397.472 256.702 397.397C256.694 397.332 256.685 397.265 256.677 397.199C256.406 395.012 256.092 392.332 255.892 390.112C255.885 390.037 255.879 389.962 255.872 389.889C255.798 389.052 255.742 388.287 255.71 387.647C255.709 387.618 255.708 387.589 255.707 387.56C255.692 387.243 255.685 386.958 255.685 386.713C255.686 386.171 255.725 385.821 255.813 385.739C255.939 385.624 257.063 385.539 258.804 385.486C258.876 385.484 258.951 385.481 259.026 385.479C259.379 385.47 259.754 385.46 260.15 385.451C261.672 385.42 263.492 385.407 265.447 385.409C265.52 385.408 265.595 385.408 265.669 385.409C266.246 385.41 266.833 385.413 267.427 385.415C269.557 385.43 271.775 385.46 273.888 385.507C273.961 385.509 274.036 385.511 274.109 385.513C275.498 385.545 276.837 385.584 278.071 385.629C278.566 385.648 279.046 385.666 279.504 385.688C280.091 385.713 280.644 385.742 281.157 385.772C281.233 385.777 281.307 385.782 281.38 385.785C281.407 385.788 281.433 385.79 281.46 385.791C283.443 385.914 284.744 386.064 284.879 386.242C284.943 386.327 284.98 386.539 284.994 386.853C285.001 387.006 285.002 387.186 284.998 387.386Z" fill="#79C5EE"/>
<path d="M256.522 403.587H258.774L258.257 404.624L255.418 404.585L256.522 403.587Z" fill="#367394"/>
<path d="M259.612 403.587H262.339L262.12 404.677L259.332 404.639L259.612 403.587Z" fill="#367394"/>
<path d="M263.075 403.587H265.717L265.648 404.726L263.034 404.69L263.075 403.587Z" fill="#367394"/>
<path d="M266.473 403.587H269.074V404.773L266.551 404.738L266.473 403.587Z" fill="#367394"/>
<path d="M272.636 403.587L272.999 404.827L269.811 404.784L269.616 403.587H272.636Z" fill="#367394"/>
<path d="M276.452 403.587L277.035 404.883L273.938 404.84L273.466 403.587H276.452Z" fill="#367394"/>
<path d="M280.415 403.587L281.268 404.942L277.884 404.895L277.122 403.587H280.415Z" fill="#367394"/>
<path d="M285.294 404.997L282.126 404.954H282.125L281.013 403.587H283.9L285.294 404.997Z" fill="#367394"/>
<path d="M281.013 403.243V403.587C281.013 403.587 281.496 403.841 281.489 403.603C281.482 403.366 281.013 403.243 281.013 403.243Z" fill="#367394"/>
<path d="M285.294 404.654V404.997C285.294 404.997 284.663 404.767 284.764 404.599C284.865 404.431 285.294 404.654 285.294 404.654Z" fill="#367394"/>
<path d="M277.122 403.243V403.587C277.122 403.587 277.667 403.869 277.624 403.632C277.581 403.394 277.122 403.243 277.122 403.243Z" fill="#367394"/>
<path d="M281.268 404.599V404.942C281.268 404.942 280.632 404.726 280.747 404.532C280.863 404.337 281.268 404.599 281.268 404.599Z" fill="#367394"/>
<path d="M273.466 403.243V403.587C273.466 403.587 273.709 403.898 273.809 403.668C273.91 403.438 273.466 403.243 273.466 403.243Z" fill="#367394"/>
<path d="M277.035 404.54V404.883C277.035 404.883 276.558 404.47 276.623 404.346C276.688 404.222 277.035 404.54 277.035 404.54Z" fill="#367394"/>
<path d="M269.616 403.243V403.587C269.616 403.587 269.75 403.934 269.844 403.675C269.937 403.416 269.616 403.243 269.616 403.243Z" fill="#367394"/>
<path d="M272.998 404.484V404.827C272.998 404.827 272.6 404.668 272.629 404.438C272.658 404.208 272.998 404.484 272.998 404.484Z" fill="#367394"/>
<path d="M266.473 403.243V403.587C266.473 403.587 266.698 403.841 266.72 403.603C266.741 403.366 266.473 403.243 266.473 403.243Z" fill="#367394"/>
<path d="M265.717 403.243V403.587C265.717 403.587 265.475 403.841 265.446 403.661C265.417 403.481 265.717 403.243 265.717 403.243Z" fill="#367394"/>
<path d="M263.034 404.347V404.69C263.034 404.69 263.344 404.488 263.294 404.334C263.244 404.179 263.034 404.347 263.034 404.347Z" fill="#367394"/>
<path d="M259.332 404.295V404.639C259.332 404.639 259.854 404.409 259.775 404.208C259.695 404.006 259.332 404.295 259.332 404.295Z" fill="#367394"/>
<path d="M262.339 403.243V403.587C262.339 403.587 262.186 403.848 262.099 403.653C262.013 403.459 262.339 403.243 262.339 403.243Z" fill="#367394"/>
<path d="M255.418 404.241V404.585C255.418 404.585 256.046 404.344 256.032 404.132C256.018 403.92 255.418 404.241 255.418 404.241Z" fill="#367394"/>
<path d="M258.774 403.243V403.587C258.774 403.587 258.443 403.934 258.313 403.711C258.184 403.488 258.774 403.243 258.774 403.243Z" fill="#367394"/>
<path d="M256.522 403.243H258.774L258.257 404.281L255.418 404.241L256.522 403.243Z" fill="#79C5EE"/>
<path d="M259.612 403.243H262.339L262.12 404.334L259.332 404.295L259.612 403.243Z" fill="#79C5EE"/>
<path d="M263.075 403.243H265.717L265.648 404.383L263.034 404.347L263.075 403.243Z" fill="#79C5EE"/>
<path d="M266.473 403.243H269.074V404.43L266.551 404.395L266.473 403.243Z" fill="#79C5EE"/>
<path d="M272.636 403.243L272.999 404.484L269.811 404.44L269.616 403.243H272.636Z" fill="#79C5EE"/>
<path d="M276.452 403.243L277.035 404.54L273.938 404.497L273.466 403.243H276.452Z" fill="#79C5EE"/>
<path d="M280.415 403.243L281.268 404.599L277.884 404.552L277.122 403.243H280.415Z" fill="#79C5EE"/>
<path d="M285.294 404.654L282.126 404.611H282.125L281.013 403.243H283.9L285.294 404.654Z" fill="#79C5EE"/>
<path d="M254.704 405.238L257.915 405.314L257.349 406.45L253.467 406.357L254.704 405.238Z" fill="#367394"/>
<path d="M259.148 405.343L261.974 405.41L261.742 406.557L258.843 406.486L259.148 405.343Z" fill="#367394"/>
<path d="M263.006 405.434L265.599 405.497L265.529 406.648L262.963 406.586L263.006 405.434Z" fill="#367394"/>
<path d="M266.604 405.521L269.073 405.579V406.733L266.683 406.676L266.604 405.521Z" fill="#367394"/>
<path d="M273.245 405.678L273.584 406.842L270.132 406.76L269.943 405.6L273.245 405.678Z" fill="#367394"/>
<path d="M277.436 405.777L277.962 406.948L274.698 406.869H274.697L274.259 405.702L277.436 405.777Z" fill="#367394"/>
<path d="M281.856 405.883L282.597 407.06L279.092 406.976L278.407 405.8L281.856 405.883Z" fill="#367394"/>
<path d="M287.441 407.177L283.858 407.091L282.896 405.907L286.266 405.987L287.441 407.177Z" fill="#367394"/>
<path d="M282.896 405.557V405.907C282.896 405.907 283.349 406.083 283.36 405.931C283.371 405.78 282.896 405.557 282.896 405.557Z" fill="#367394"/>
<path d="M287.441 406.828V407.177C287.441 407.177 286.966 407.023 286.901 406.78C286.837 406.536 287.441 406.828 287.441 406.828Z" fill="#367394"/>
<path d="M278.407 405.45V405.8C278.407 405.8 278.837 406.224 278.901 405.975C278.966 405.726 278.407 405.45 278.407 405.45Z" fill="#367394"/>
<path d="M282.597 406.71V407.06C282.597 407.06 281.924 406.882 282 406.601C282.075 406.32 282.597 406.71 282.597 406.71Z" fill="#367394"/>
<path d="M274.259 405.352V405.702C274.259 405.702 274.486 406.256 274.637 405.975C274.788 405.694 274.259 405.352 274.259 405.352Z" fill="#367394"/>
<path d="M277.962 406.598V406.948C277.962 406.948 277.206 406.752 277.314 406.493C277.422 406.234 277.962 406.598 277.962 406.598Z" fill="#367394"/>
<path d="M269.943 405.25V405.6C269.943 405.6 270.162 406.192 270.278 405.975C270.394 405.759 269.943 405.25 269.943 405.25Z" fill="#367394"/>
<path d="M273.584 406.493V406.843C273.584 406.843 273.093 406.534 273.169 406.384C273.244 406.234 273.584 406.493 273.584 406.493Z" fill="#367394"/>
<path d="M258.842 406.136V406.486C258.842 406.486 259.296 406.237 259.231 406.041C259.166 405.845 258.842 406.136 258.842 406.136Z" fill="#367394"/>
<path d="M261.973 405.06V405.41C261.973 405.41 261.887 405.802 261.736 405.651C261.585 405.499 261.973 405.06 261.973 405.06Z" fill="#367394"/>
<path d="M257.915 404.965V405.314C257.915 405.314 257.525 405.629 257.407 405.494C257.288 405.359 257.915 404.965 257.915 404.965Z" fill="#367394"/>
<path d="M253.467 406.357V406.007C253.467 406.007 253.89 405.663 254.034 405.844C254.178 406.024 253.467 406.357 253.467 406.357Z" fill="#367394"/>
<path d="M254.704 404.888L257.915 404.965L257.349 406.101L253.467 406.007L254.704 404.888Z" fill="#79C5EE"/>
<path d="M259.148 404.994L261.974 405.061L261.742 406.207L258.843 406.137L259.148 404.994Z" fill="#79C5EE"/>
<path d="M263.006 405.085L265.599 405.147L265.529 406.299L262.963 406.236L263.006 405.085Z" fill="#79C5EE"/>
<path d="M266.604 405.171L269.073 405.23V406.384L266.683 406.326L266.604 405.171Z" fill="#79C5EE"/>
<path d="M273.245 405.328L273.584 406.493L270.132 406.41L269.943 405.25L273.245 405.328Z" fill="#79C5EE"/>
<path d="M277.436 405.428L277.962 406.598L274.698 406.519H274.697L274.259 405.352L277.436 405.428Z" fill="#79C5EE"/>
<path d="M281.856 405.533L282.597 406.71L279.092 406.626L278.407 405.451L281.856 405.533Z" fill="#79C5EE"/>
<path d="M287.441 406.828L283.858 406.741L282.896 405.557L286.266 405.638L287.441 406.828Z" fill="#79C5EE"/>
<path d="M260.433 390.389C260.638 390.146 280.056 390.232 280.324 390.389C280.592 390.547 280.529 396.066 280.324 396.328C280.119 396.591 260.857 396.599 260.433 396.328C260.145 396.144 260.057 390.836 260.433 390.389Z" fill="#5091B9"/>
<path d="M263.763 393.641C263.828 393.688 263.907 393.761 264.002 393.86C264.113 393.977 264.19 394.053 264.232 394.089C264.273 394.124 264.294 394.163 264.294 394.206C264.294 394.249 264.278 394.286 264.247 394.319C264.216 394.351 264.18 394.367 264.138 394.367C264.106 394.367 264.074 394.355 264.041 394.331C263.995 394.297 263.897 394.202 263.746 394.044C263.63 393.923 263.519 393.842 263.412 393.8C263.325 393.768 263.281 393.72 263.281 393.657C263.281 393.599 263.32 393.551 263.4 393.513C263.507 393.461 263.625 393.368 263.753 393.233C263.931 393.047 264.037 392.939 264.071 392.911C264.105 392.883 264.14 392.869 264.174 392.869C264.216 392.869 264.252 392.884 264.284 392.916C264.316 392.948 264.332 392.985 264.332 393.027C264.332 393.067 264.314 393.103 264.28 393.138C264.169 393.256 263.997 393.423 263.763 393.641Z" fill="#FFF4EB"/>
<path d="M264.904 394.858C264.861 394.858 264.824 394.843 264.792 394.815C264.759 394.786 264.743 394.75 264.743 394.708C264.743 394.689 264.747 394.67 264.755 394.649C264.845 394.401 265.014 394.044 265.263 393.578C265.512 393.112 265.682 392.755 265.773 392.506C265.924 392.093 266.038 391.889 266.115 391.892C266.158 391.893 266.195 391.908 266.228 391.938C266.26 391.967 266.276 392.003 266.276 392.044C266.276 392.071 266.27 392.102 266.257 392.139L266.064 392.609C265.986 392.823 265.876 393.068 265.734 393.347L265.357 394.063L265.044 394.756C265.013 394.824 264.966 394.858 264.904 394.858Z" fill="#FFF4EB"/>
<path d="M268.317 392.763C268.243 392.763 268.188 392.72 268.151 392.633C268.119 392.56 268.089 392.515 268.061 392.499C268.037 392.486 267.977 392.48 267.881 392.48C267.714 392.48 267.529 392.607 267.325 392.863C267.048 393.207 266.91 393.532 266.91 393.84C266.91 393.988 266.958 394.116 267.054 394.223C267.151 394.334 267.27 394.389 267.408 394.389C267.527 394.389 267.646 394.359 267.766 394.298C267.832 394.263 267.935 394.195 268.073 394.094C268.139 394.045 268.188 394.021 268.222 394.021C268.271 394.021 268.313 394.04 268.346 394.077C268.38 394.115 268.396 394.157 268.396 394.203C268.396 394.255 268.374 394.3 268.331 394.339C268.027 394.609 267.719 394.744 267.408 394.744C267.169 394.744 266.968 394.652 266.803 394.469C266.644 394.292 266.564 394.082 266.564 393.84C266.564 393.449 266.728 393.049 267.055 392.639C267.328 392.297 267.604 392.126 267.881 392.126C267.938 392.126 267.988 392.128 268.033 392.133C268.078 392.138 268.118 392.147 268.153 392.158C268.193 392.1 268.245 392.07 268.31 392.07C268.389 392.07 268.439 392.123 268.46 392.228C268.479 392.321 268.488 392.436 268.488 392.572C268.488 392.619 268.475 392.66 268.45 392.696C268.419 392.741 268.375 392.763 268.317 392.763Z" fill="#FFF4EB"/>
<path d="M269.928 394.808C269.603 394.808 269.328 394.71 269.102 394.516C268.862 394.308 268.742 394.041 268.742 393.714C268.742 393.315 268.86 392.953 269.096 392.627C269.36 392.265 269.689 392.084 270.083 392.084C270.462 392.084 270.744 392.169 270.928 392.34C271.121 392.517 271.217 392.797 271.217 393.18C271.217 393.578 271.109 393.938 270.892 394.258C270.644 394.624 270.322 394.808 269.928 394.808ZM270.083 392.438C269.801 392.438 269.562 392.579 269.366 392.86C269.185 393.118 269.095 393.402 269.095 393.714C269.095 393.936 269.177 394.117 269.342 394.256C269.5 394.388 269.695 394.453 269.928 394.453C270.208 394.453 270.439 394.312 270.621 394.03C270.783 393.778 270.864 393.494 270.864 393.18C270.864 392.904 270.803 392.711 270.679 392.599C270.562 392.492 270.363 392.438 270.083 392.438Z" fill="#FFF4EB"/>
<path d="M273.227 394.69C273.049 394.812 272.792 394.873 272.458 394.873C272.374 394.873 272.278 394.86 272.17 394.834C272.039 394.803 271.941 394.762 271.876 394.713H271.859C271.809 394.713 271.768 394.695 271.734 394.661C271.701 394.626 271.684 394.584 271.684 394.535C271.684 394.414 271.69 394.232 271.7 393.991C271.711 393.75 271.717 393.569 271.717 393.448C271.717 393.313 271.714 393.111 271.709 392.844C271.704 392.576 271.701 392.374 271.701 392.24C271.701 392.192 271.725 392.143 271.774 392.091C271.822 392.039 271.871 392.013 271.919 392.013C271.947 392.013 272.039 392.052 272.196 392.129C272.373 392.216 272.476 392.264 272.503 392.273C272.83 392.385 273.109 392.556 273.34 392.788C273.61 393.061 273.746 393.361 273.746 393.688C273.746 393.885 273.699 394.074 273.606 394.255C273.514 394.435 273.387 394.581 273.227 394.69ZM272.864 392.862C272.747 392.784 272.476 392.652 272.05 392.464L272.059 392.962L272.064 393.458L272.036 394.402C272.044 394.405 272.057 394.412 272.072 394.424C272.174 394.492 272.302 394.526 272.456 394.526C272.719 394.526 272.91 394.486 273.03 394.405C273.142 394.329 273.231 394.227 273.297 394.098C273.363 393.97 273.396 393.836 273.396 393.696C273.397 393.371 273.219 393.093 272.864 392.862Z" fill="#FFF4EB"/>
<path d="M275.849 392.376C275.833 392.376 275.815 392.373 275.795 392.367C275.601 392.312 275.413 392.284 275.232 392.284C275.137 392.284 275.034 392.293 274.923 392.31C274.811 392.328 274.69 392.354 274.561 392.39C274.572 392.465 274.577 392.525 274.577 392.57C274.577 392.73 274.567 392.95 274.548 393.23L275.304 393.157C275.527 393.134 275.663 393.123 275.714 393.123C275.765 393.123 275.807 393.139 275.842 393.171C275.877 393.203 275.894 393.247 275.894 393.301C275.894 393.406 275.841 393.464 275.735 393.477L275.324 393.513L274.525 393.586C274.521 393.668 274.517 393.745 274.514 393.818C274.511 393.891 274.51 393.96 274.51 394.023C274.51 394.278 274.528 394.428 274.565 394.472C274.593 394.505 274.683 394.521 274.837 394.521C274.908 394.521 275.015 394.519 275.159 394.515C275.302 394.511 275.41 394.508 275.483 394.508C275.506 394.508 275.54 394.505 275.585 394.497C275.63 394.49 275.663 394.486 275.685 394.486C275.807 394.486 275.868 394.546 275.868 394.666C275.868 394.763 275.819 394.821 275.721 394.84C275.613 394.862 275.378 394.873 275.018 394.873C274.661 394.873 274.431 394.826 274.33 394.731C274.219 394.629 274.164 394.393 274.164 394.023C274.164 393.949 274.166 393.869 274.169 393.781C274.173 393.693 274.177 393.599 274.183 393.497C274.17 393.471 274.164 393.443 274.164 393.413C274.164 393.373 274.175 393.338 274.197 393.307C274.22 392.974 274.232 392.728 274.232 392.569C274.232 392.527 274.226 392.464 274.214 392.382C274.203 392.3 274.197 392.237 274.197 392.194C274.197 392.057 274.255 391.989 274.37 391.989C274.418 391.989 274.46 392.006 274.494 392.039C274.633 392.002 274.763 391.974 274.886 391.956C275.008 391.938 275.124 391.928 275.232 391.928C275.512 391.928 275.736 391.962 275.903 392.028C275.98 392.06 276.019 392.115 276.019 392.194C276.019 392.24 276.004 392.282 275.974 392.317C275.94 392.356 275.898 392.376 275.849 392.376Z" fill="#FFF4EB"/>
<path d="M277.405 393.556C277.405 393.598 277.383 393.639 277.341 393.679C277.066 393.934 276.779 394.157 276.478 394.35C276.446 394.37 276.415 394.381 276.387 394.381C276.345 394.381 276.309 394.364 276.279 394.331C276.248 394.298 276.233 394.262 276.233 394.22C276.233 394.174 276.255 394.134 276.3 394.099L276.971 393.587C276.868 393.519 276.742 393.415 276.591 393.275C276.406 393.101 276.314 392.98 276.314 392.913C276.314 392.872 276.33 392.836 276.363 392.805C276.395 392.773 276.432 392.758 276.473 392.758C276.516 392.758 276.554 392.778 276.589 392.817C276.852 393.11 277.09 393.313 277.303 393.423C277.371 393.458 277.405 393.502 277.405 393.556Z" fill="#FFF4EB"/>
<path d="M277.732 385.629L263.385 401.358H256.877C256.877 401.358 256.633 399.568 256.337 397.199L267.087 385.415C270.697 385.438 274.56 385.511 277.732 385.629Z" fill="#1A1A1A"/>
<path d="M284.659 387.385L271.914 401.358H264.87L279.164 385.688C282.218 385.826 284.363 386.012 284.539 386.242C284.635 386.367 284.669 386.776 284.659 387.385Z" fill="#1A1A1A"/>
<path d="M192.213 359.593C179.851 367.192 170.7 362.238 170.7 362.238L123.15 422.345C123.15 422.345 131.76 440.1 120.228 449.72C112.208 456.416 103.876 456.991 99.5505 456.722C98.4913 456.659 98.1072 455.315 98.9577 454.69C102.618 451.974 109.286 446.013 110.707 437.682C112.252 428.629 100.673 420.624 91.3974 425.123C85.4078 428.028 82.4994 435.897 81.3304 440.147C81.0516 441.169 79.6744 441.287 79.2235 440.335C77.0356 435.721 74.0031 425.887 82.3011 417.633C93.5693 406.428 107.209 411.535 107.209 411.535L123.949 391.047L156.579 351.086C156.579 351.086 149.485 345.322 153.671 333.104C155.651 327.309 159.767 323.379 164.025 320.752C167.18 318.784 170.407 317.534 172.901 316.76C174.017 316.415 174.813 317.79 174.004 318.631C165.764 327.234 166.149 338.665 178.948 344.49C189.326 349.209 195.935 339.311 198.778 333.506C199.281 332.47 200.824 332.759 200.914 333.91C201.442 340.759 201.195 354.066 192.213 359.593Z" fill="#79C5EE"/>
<path d="M113.965 418.492C113.752 418.455 113.544 418.364 113.365 418.216C112.816 417.764 112.739 416.954 113.19 416.406L163.756 355.07C164.209 354.523 165.018 354.444 165.567 354.896C166.116 355.348 166.193 356.158 165.742 356.706L115.175 418.042C114.871 418.411 114.405 418.567 113.965 418.492Z" fill="#5091B9"/>
<path d="M170.205 353.266C171.927 352.715 172.876 350.873 172.326 349.152C171.776 347.43 169.934 346.48 168.212 347.031C166.49 347.581 165.54 349.423 166.091 351.145C166.641 352.867 168.483 353.816 170.205 353.266Z" fill="#5091B9"/>
<path d="M110.515 424.702C112.238 424.152 113.188 422.31 112.639 420.588C112.089 418.866 110.248 417.916 108.525 418.465C106.803 419.015 105.853 420.856 106.402 422.578C106.952 424.301 108.793 425.251 110.515 424.702Z" fill="#5091B9"/>
<path d="M332.262 347.735C332.295 347.927 331.401 349.095 329.885 350.897C329.842 350.949 329.799 351.001 329.754 351.054C322.138 360.099 307.082 375.827 306.116 375.789C304.052 375.708 265.97 354.782 266.064 354.065C266.147 353.431 281.972 336.475 290.61 329.751C290.618 329.745 290.628 329.737 290.636 329.731C291.789 328.836 292.683 328.275 293.222 328.158C297.8 327.164 332.066 346.581 332.262 347.735Z" fill="#79C5EE"/>
<path d="M332.262 347.735C332.295 347.927 331.401 349.095 329.885 350.897C319.408 344.428 299.358 334.17 290.61 329.751C290.618 329.745 290.628 329.737 290.636 329.731C291.789 328.836 292.683 328.275 293.223 328.158C297.8 327.164 332.066 346.581 332.262 347.735Z" fill="#5091B9"/>
<path d="M319.502 350.847C313.583 345.921 294.111 335.775 292.716 336.151C291.321 336.526 284.627 343.395 284.666 344.18C284.706 344.965 309.909 359.338 310.813 359.442C311.717 359.546 320.292 351.504 319.502 350.847Z" fill="#5091B9"/>
<path d="M308.971 361.903C308.91 360.906 302.302 357.882 301.835 357.994C301.368 358.106 298.679 362.15 298.603 362.444C298.527 362.738 304.911 366.48 305.193 366.477C305.476 366.474 308.998 362.343 308.971 361.903Z" fill="#FAD6B9"/>
<path d="M305.227 366.697C305.243 366.694 305.259 366.69 305.275 366.683C305.389 366.638 305.445 366.51 305.4 366.396L302.041 357.913C301.996 357.799 301.867 357.743 301.753 357.788C301.64 357.833 301.584 357.962 301.629 358.076L304.988 366.559C305.026 366.657 305.127 366.712 305.227 366.697Z" fill="#FFF4EB"/>
<path d="M309.005 362.122C309.116 362.105 309.199 362.007 309.192 361.892C309.186 361.77 309.082 361.676 308.96 361.682L298.592 362.223C298.468 362.232 298.376 362.334 298.382 362.456C298.389 362.578 298.493 362.672 298.615 362.665L308.983 362.125C308.991 362.124 308.998 362.123 309.005 362.122Z" fill="#FFF4EB"/>
<path d="M299.084 356.108C299.023 355.11 292.415 352.087 291.948 352.199C291.481 352.311 288.792 356.354 288.716 356.648C288.64 356.943 295.025 360.684 295.307 360.682C295.589 360.679 299.111 356.548 299.084 356.108Z" fill="#FAD6B9"/>
<path d="M295.34 360.901C295.357 360.899 295.373 360.894 295.389 360.888C295.502 360.843 295.558 360.714 295.513 360.601L292.154 352.117C292.109 352.003 291.98 351.948 291.867 351.993C291.753 352.038 291.697 352.167 291.742 352.28L295.101 360.763C295.14 360.861 295.24 360.916 295.34 360.901Z" fill="#FFF4EB"/>
<path d="M299.118 356.327C299.23 356.31 299.312 356.211 299.306 356.096C299.299 355.974 299.195 355.88 299.073 355.887L288.705 356.427C288.581 356.436 288.489 356.538 288.495 356.66C288.502 356.782 288.606 356.876 288.728 356.87L299.096 356.329C299.104 356.329 299.111 356.328 299.118 356.327Z" fill="#FFF4EB"/>
<path d="M289.469 350.534C289.408 349.536 282.8 346.513 282.333 346.625C281.866 346.737 279.177 350.78 279.101 351.074C279.025 351.369 285.409 355.11 285.692 355.108C285.974 355.105 289.496 350.974 289.469 350.534Z" fill="#FAD6B9"/>
<path d="M285.725 355.327C285.741 355.324 285.758 355.32 285.774 355.314C285.887 355.269 285.943 355.14 285.898 355.026L282.539 346.543C282.494 346.429 282.366 346.374 282.252 346.419C282.138 346.464 282.082 346.592 282.127 346.706L285.486 355.189C285.525 355.287 285.625 355.342 285.725 355.327Z" fill="#FFF4EB"/>
<path d="M289.503 350.753C289.614 350.736 289.697 350.637 289.691 350.522C289.684 350.4 289.58 350.306 289.458 350.313L279.09 350.853C278.966 350.862 278.874 350.964 278.88 351.086C278.887 351.208 278.991 351.302 279.113 351.296L289.481 350.755C289.488 350.754 289.496 350.754 289.503 350.753Z" fill="#FFF4EB"/>
<path d="M297.798 365.498L297.349 366.157L302.261 369.496L302.709 368.837L297.798 365.498Z" fill="#FFF4EB"/>
<path d="M300.901 365.705L300.453 366.365L303.145 368.195L303.594 367.536L300.901 365.705Z" fill="#FFF4EB"/>
<path d="M288.397 359.629L287.949 360.288L292.86 363.627L293.309 362.967L288.397 359.629Z" fill="#FFF4EB"/>
<path d="M291.5 359.835L291.052 360.495L293.745 362.325L294.193 361.666L291.5 359.835Z" fill="#FFF4EB"/>
<path d="M278.516 354.136L278.067 354.796L282.979 358.135L283.427 357.475L278.516 354.136Z" fill="#FFF4EB"/>
<path d="M281.619 354.342L281.171 355.002L283.864 356.833L284.312 356.173L281.619 354.342Z" fill="#FFF4EB"/>
<path d="M49.6627 390.882C61.0195 387.54 67.5168 375.624 64.1749 364.267C60.8327 352.91 48.917 346.413 37.5601 349.755C26.2031 353.097 19.7058 365.013 23.0479 376.37C26.3901 387.726 38.3056 394.224 49.6627 390.882ZM48.4542 386.776C39.3619 389.451 29.8293 384.254 27.1537 375.161C24.4781 366.069 29.676 356.536 38.7683 353.861C47.8607 351.185 57.3933 356.383 60.0689 365.475C62.7445 374.567 57.5466 384.1 48.4542 386.776Z" fill="#FE653B"/>
<path d="M55.7392 382.446C62.4387 375.747 62.4387 364.885 55.7392 358.185C49.0397 351.486 38.1777 351.486 31.4782 358.185C24.7787 364.885 24.7787 375.747 31.4782 382.446C38.1777 389.146 49.0397 389.146 55.7392 382.446Z" fill="#FFB03A"/>
<path d="M59.541 383.513C59.541 383.513 89.8317 407.162 90.6889 407.17C92.7098 407.189 95.3088 402.919 94.203 401.229C93.5522 400.234 62.42 379.388 62.42 379.388L59.541 383.513Z" fill="#FE653B"/>
<path d="M39.9209 368.404C42.8903 362.958 43.3505 357.481 40.9489 356.172C38.5472 354.862 34.1931 358.216 31.2237 363.662C28.2543 369.108 27.7941 374.585 30.1958 375.894C32.5974 377.204 36.9515 373.85 39.9209 368.404Z" fill="#F1EEEE"/>
<path d="M397.956 149.046L397.402 146.189L429.567 139.949L402.963 120.825L404.661 118.461L436.742 141.522L397.956 149.046Z" fill="#FFB03A"/>
<path d="M437.29 147.191C440.863 144.902 441.905 140.15 439.616 136.577C437.328 133.003 432.576 131.962 429.002 134.25C425.429 136.539 424.387 141.291 426.676 144.864C428.964 148.438 433.716 149.48 437.29 147.191Z" fill="#FE653B"/>
<path d="M405.547 127.129C409.681 126.171 412.256 122.043 411.298 117.909C410.34 113.775 406.213 111.2 402.079 112.158C397.945 113.116 395.37 117.243 396.327 121.377C397.285 125.512 401.413 128.086 405.547 127.129Z" fill="#FE653B"/>
<path d="M399.414 155.103C403.548 154.146 406.123 150.018 405.165 145.884C404.208 141.75 400.08 139.175 395.946 140.133C391.812 141.09 389.237 145.218 390.195 149.352C391.152 153.486 395.28 156.061 399.414 155.103Z" fill="#FE653B"/>
<path d="M85.9946 141.309C87.0961 141.949 88.4787 142.974 90.1423 144.384C92.1086 146.038 93.4505 147.114 94.1678 147.609C94.885 148.105 95.2795 148.691 95.3514 149.366C95.4234 150.041 95.24 150.66 94.8018 151.224C94.3636 151.787 93.8158 152.104 93.1588 152.174C92.6478 152.228 92.1164 152.091 91.5647 151.762C90.7784 151.311 89.0569 149.962 86.4002 147.717C84.3713 145.995 82.4732 144.896 80.7062 144.419C79.2648 144.056 78.4907 143.373 78.384 142.369C78.2869 141.456 78.8359 140.632 80.0308 139.896C81.6405 138.894 83.3446 137.218 85.1429 134.867C87.6568 131.609 89.1591 129.728 89.6497 129.224C90.1405 128.719 90.6596 128.438 91.207 128.38C91.864 128.31 92.47 128.499 93.0254 128.947C93.5807 129.396 93.8943 129.958 93.966 130.633C94.032 131.254 93.8205 131.867 93.3314 132.472C91.7775 134.52 89.3319 137.466 85.9946 141.309Z" fill="#FF643B"/>
<path d="M106.113 158.657C105.438 158.729 104.82 158.564 104.261 158.162C103.701 157.76 103.385 157.222 103.313 156.547C103.282 156.255 103.313 155.938 103.406 155.595C104.412 151.52 106.493 145.582 109.649 137.781C112.805 129.979 114.894 124.031 115.916 119.936C117.611 113.148 119.072 109.717 120.301 109.641C120.978 109.588 121.597 109.766 122.157 110.177C122.718 110.588 123.033 111.122 123.103 111.779C123.148 112.199 123.101 112.711 122.962 113.317L120.689 121.089C119.826 124.595 118.498 128.677 116.705 133.334L111.944 145.302L108.158 156.806C107.78 157.935 107.098 158.552 106.113 158.657Z" fill="#FF643B"/>
<path d="M147.908 133.362C147.978 134.019 147.709 134.702 147.102 135.413C143.188 139.908 139.012 143.933 134.573 147.488C134.097 147.871 133.631 148.087 133.175 148.135C132.518 148.205 131.92 148.006 131.381 147.537C130.842 147.069 130.538 146.506 130.468 145.849C130.39 145.119 130.678 144.442 131.331 143.819L141.089 134.586C139.351 133.682 137.167 132.244 134.54 130.272C131.327 127.828 129.664 126.076 129.551 125.018C129.481 124.361 129.675 123.759 130.134 123.212C130.592 122.664 131.15 122.356 131.807 122.286C132.482 122.214 133.127 122.459 133.74 123.021C138.396 127.232 142.506 130.033 146.068 131.426C147.203 131.859 147.816 132.504 147.908 133.362Z" fill="#FF643B"/>
<path d="M270.279 122.179C256.805 122.179 245.844 111.218 245.844 97.7445C245.844 84.2713 256.806 73.3099 270.279 73.3099C283.752 73.3099 294.713 84.2713 294.713 97.7445C294.713 111.218 283.752 122.179 270.279 122.179ZM270.279 80.8018C260.936 80.8018 253.336 88.4024 253.336 97.7447C253.336 107.087 260.936 114.688 270.279 114.688C279.621 114.688 287.222 107.087 287.222 97.7447C287.221 88.4024 279.621 80.8018 270.279 80.8018Z" fill="#FF643B"/>
<path d="M247.729 93.9414C247.729 93.9414 241.861 92.1435 240.393 93.0425C238.926 93.9414 239.476 100.534 240.393 102.032C241.31 103.531 247.729 102.032 247.729 102.032V93.9414Z" fill="#FF643B"/>
<path d="M292.829 93.9414C292.829 93.9414 298.697 92.1435 300.164 93.0425C301.631 93.9414 301.081 100.534 300.164 102.032C299.247 103.531 292.829 102.032 292.829 102.032V93.9414Z" fill="#FF643B"/>
<path d="M266.475 120.295C266.475 120.295 264.677 126.163 265.576 127.63C266.475 129.097 273.068 128.547 274.566 127.63C276.065 126.713 274.566 120.295 274.566 120.295H266.475Z" fill="#FF643B"/>
<path d="M266.475 75.1947C266.475 75.1947 264.677 69.3266 265.576 67.8594C266.475 66.3924 273.068 66.9425 274.566 67.8594C276.065 68.7764 274.566 75.1947 274.566 75.1947H266.475Z" fill="#FF643B"/>
<path d="M251.644 111.001C251.644 111.001 246.224 113.879 245.822 115.552C245.42 117.225 250.471 121.498 252.179 121.909C253.887 122.32 257.366 116.722 257.366 116.722L251.644 111.001Z" fill="#FF643B"/>
<path d="M283.535 79.1102C283.535 79.1102 286.413 73.6893 288.086 73.2877C289.759 72.886 294.032 77.9367 294.443 79.6445C294.854 81.3523 289.256 84.8314 289.256 84.8314L283.535 79.1102Z" fill="#FF643B"/>
<path d="M256.729 79.1102C256.729 79.1102 253.851 73.6893 252.178 73.2877C250.505 72.886 246.232 77.9367 245.821 79.6445C245.41 81.3523 251.008 84.8314 251.008 84.8314L256.729 79.1102Z" fill="#FF643B"/>
<path d="M288.619 111.001C288.619 111.001 294.04 113.879 294.442 115.552C294.843 117.225 289.793 121.498 288.085 121.909C286.377 122.32 282.898 116.722 282.898 116.722L288.619 111.001Z" fill="#FF643B"/>
</g>
<defs>
<clipPath id="clip0_329_5208">
<rect width="511" height="511" fill="white"/>
</clipPath>
</defs>
</svg>
