<?xml version="1.0" encoding="UTF-8"?>
<svg id="Layer_1" data-name="Layer 1" xmlns="http://www.w3.org/2000/svg" viewBox="0 0 1162.05 874.84">
  <defs>
    <style>
      .cls-1 {
        fill: #fcf7fd;
      }

      .cls-1, .cls-2, .cls-3, .cls-4, .cls-5, .cls-6, .cls-7, .cls-8, .cls-9, .cls-10, .cls-11, .cls-12, .cls-13, .cls-14, .cls-15, .cls-16, .cls-17, .cls-18, .cls-19, .cls-20, .cls-21, .cls-22, .cls-23, .cls-24, .cls-25, .cls-26, .cls-27, .cls-28, .cls-29, .cls-30, .cls-31, .cls-32, .cls-33, .cls-34, .cls-35, .cls-36, .cls-37, .cls-38, .cls-39, .cls-40, .cls-41, .cls-42, .cls-43, .cls-44, .cls-45, .cls-46, .cls-47, .cls-48, .cls-49, .cls-50, .cls-51, .cls-52, .cls-53, .cls-54, .cls-55, .cls-56, .cls-57, .cls-58, .cls-59, .cls-60, .cls-61, .cls-62, .cls-63, .cls-64, .cls-65, .cls-66, .cls-67, .cls-68, .cls-69, .cls-70, .cls-71, .cls-72, .cls-73, .cls-74, .cls-75, .cls-76, .cls-77, .cls-78, .cls-79, .cls-80, .cls-81, .cls-82, .cls-83, .cls-84, .cls-85, .cls-86, .cls-87, .cls-88, .cls-89, .cls-90, .cls-91, .cls-92, .cls-93, .cls-94, .cls-95, .cls-96, .cls-97, .cls-98, .cls-99, .cls-100, .cls-101, .cls-102, .cls-103, .cls-104, .cls-105, .cls-106, .cls-107, .cls-108, .cls-109, .cls-110, .cls-111, .cls-112, .cls-113, .cls-114, .cls-115, .cls-116, .cls-117, .cls-118, .cls-119, .cls-120, .cls-121, .cls-122, .cls-123, .cls-124, .cls-125, .cls-126, .cls-127, .cls-128, .cls-129, .cls-130, .cls-131, .cls-132, .cls-133, .cls-134, .cls-135, .cls-136, .cls-137, .cls-138, .cls-139, .cls-140, .cls-141, .cls-142, .cls-143, .cls-144, .cls-145, .cls-146, .cls-147, .cls-148, .cls-149, .cls-150, .cls-151, .cls-152, .cls-153, .cls-154, .cls-155, .cls-156, .cls-157 {
        stroke-width: 0px;
      }

      .cls-2 {
        fill: #e8c9fd;
      }

      .cls-3 {
        fill: #e7c6fa;
      }

      .cls-4 {
        fill: #fcf8fd;
      }

      .cls-5 {
        fill: #fdf7fe;
      }

      .cls-6 {
        fill: #855aa2;
      }

      .cls-7 {
        fill: #c2a5d5;
      }

      .cls-8 {
        fill: #fefefe;
      }

      .cls-9 {
        fill: #c5a9d7;
      }

      .cls-10 {
        fill: #aa7ec9;
      }

      .cls-11 {
        fill: #e8c8fd;
      }

      .cls-12 {
        fill: #c6a2df;
      }

      .cls-13 {
        fill: #8459a3;
      }

      .cls-14 {
        fill: #fbf5fd;
      }

      .cls-15 {
        fill: #fcf7fa;
      }

      .cls-16 {
        fill: #c5aad6;
      }

      .cls-17 {
        fill: #7d5c93;
      }

      .cls-18 {
        fill: #f7f0fc;
      }

      .cls-19 {
        fill: #dbc3eb;
      }

      .cls-20 {
        fill: #b78dd6;
      }

      .cls-21 {
        fill: #e9cffa;
      }

      .cls-22 {
        fill: #e7c9fd;
      }

      .cls-23 {
        fill: #845d9d;
      }

      .cls-24 {
        fill: #7f5899;
      }

      .cls-25 {
        fill: #e0cbec;
      }

      .cls-26 {
        fill: #b48ad4;
      }

      .cls-27 {
        fill: #815c99;
      }

      .cls-28 {
        fill: #e6d4ef;
      }

      .cls-29 {
        fill: #c4a0dc;
      }

      .cls-30 {
        fill: #fdf6fd;
      }

      .cls-31 {
        fill: #c5add6;
      }

      .cls-32 {
        fill: #fdf6fe;
      }

      .cls-33 {
        fill: #855aa4;
      }

      .cls-34 {
        fill: #c3a5d7;
      }

      .cls-35 {
        fill: #81559f;
      }

      .cls-36 {
        fill: #c3a9d4;
      }

      .cls-37 {
        fill: #815b9d;
      }

      .cls-38 {
        fill: #fef7fe;
      }

      .cls-39 {
        fill: #e7c9fc;
      }

      .cls-40 {
        fill: #e8cafd;
      }

      .cls-41 {
        fill: #fdf5fd;
      }

      .cls-42 {
        fill: #b186d0;
      }

      .cls-43 {
        fill: #fef8fe;
      }

      .cls-44 {
        fill: #8758aa;
      }

      .cls-45 {
        fill: #c6a9d8;
      }

      .cls-46 {
        fill: #b88fd4;
      }

      .cls-47 {
        fill: #b187d0;
      }

      .cls-48 {
        fill: #dbc5e9;
      }

      .cls-49 {
        fill: #d1aaec;
      }

      .cls-50 {
        fill: #e1cfec;
      }

      .cls-51 {
        fill: #c7a6dd;
      }

      .cls-52 {
        fill: #c6acda;
      }

      .cls-53 {
        fill: #f5edfa;
      }

      .cls-54 {
        fill: #fcf4fd;
      }

      .cls-55 {
        fill: #b78dd3;
      }

      .cls-56 {
        fill: #fdf8fe;
      }

      .cls-57 {
        fill: #c5a1df;
      }

      .cls-58 {
        fill: #fefdfd;
      }

      .cls-59 {
        fill: #f5edfc;
      }

      .cls-60 {
        fill: #c6a4de;
      }

      .cls-61 {
        fill: #c0a3d2;
      }

      .cls-62 {
        fill: #7f5f93;
      }

      .cls-63 {
        fill: #d2a9eb;
      }

      .cls-64 {
        fill: #aa7ccb;
      }

      .cls-65 {
        fill: #805e97;
      }

      .cls-66 {
        fill: #c3a8d8;
      }

      .cls-67 {
        fill: #c6abd8;
      }

      .cls-68 {
        fill: #c3a4d6;
      }

      .cls-69 {
        fill: #c1a4d6;
      }

      .cls-70 {
        fill: #fefbfe;
      }

      .cls-71 {
        fill: #8c5daf;
      }

      .cls-72 {
        fill: #7f5d96;
      }

      .cls-73 {
        fill: #ad81ce;
      }

      .cls-74 {
        fill: #c5aad8;
      }

      .cls-75 {
        fill: #c1a4d3;
      }

      .cls-76 {
        fill: #c8a6de;
      }

      .cls-77 {
        fill: #c4a8da;
      }

      .cls-78 {
        fill: #8357a4;
      }

      .cls-79 {
        fill: #b48ad2;
      }

      .cls-80 {
        fill: #dac2ea;
      }

      .cls-81 {
        fill: #b189ce;
      }

      .cls-82 {
        fill: #bb92d9;
      }

      .cls-83 {
        fill: #c6a2dc;
      }

      .cls-84 {
        fill: #c2a7d6;
      }

      .cls-85 {
        fill: #e7c8fc;
      }

      .cls-86 {
        fill: #be93de;
      }

      .cls-87 {
        fill: #e8cafe;
      }

      .cls-88 {
        fill: #cba1ea;
      }

      .cls-89 {
        fill: #fcf9fe;
      }

      .cls-90 {
        fill: #c5aad7;
      }

      .cls-91 {
        fill: #a87bc8;
      }

      .cls-92 {
        fill: #c0a2d4;
      }

      .cls-93 {
        fill: #c5abd8;
      }

      .cls-94 {
        fill: #fcf5fd;
      }

      .cls-95 {
        fill: #c9b0d8;
      }

      .cls-96 {
        fill: #e1cdec;
      }

      .cls-97 {
        fill: #c7aed7;
      }

      .cls-98 {
        fill: #c7acd9;
      }

      .cls-99 {
        fill: #b48bd0;
      }

      .cls-100 {
        fill: #f4ebfb;
      }

      .cls-101 {
        fill: #c3a6d8;
      }

      .cls-102 {
        fill: #c5a1de;
      }

      .cls-103 {
        fill: #b188d0;
      }

      .cls-104 {
        fill: #7d5c94;
      }

      .cls-105 {
        fill: #b58bd4;
      }

      .cls-106 {
        fill: #6a5477;
      }

      .cls-107 {
        fill: #eacff8;
      }

      .cls-108 {
        fill: #c3a8d7;
      }

      .cls-109 {
        fill: #e9c7fb;
      }

      .cls-110 {
        fill: #dfc9ed;
      }

      .cls-111 {
        fill: #cba4e6;
      }

      .cls-112 {
        fill: #b78ed3;
      }

      .cls-113 {
        fill: #e8c5fc;
      }

      .cls-114 {
        fill: #c5a3de;
      }

      .cls-115 {
        fill: #c1a5d5;
      }

      .cls-116 {
        fill: #e8cafc;
      }

      .cls-117 {
        fill: #b083ce;
      }

      .cls-118 {
        fill: #c4a8d6;
      }

      .cls-119 {
        fill: #fdfbfd;
      }

      .cls-120 {
        fill: #fdf5fe;
      }

      .cls-121 {
        fill: #825d9b;
      }

      .cls-122 {
        fill: #c4a0dd;
      }

      .cls-123 {
        fill: #755788;
      }

      .cls-124 {
        fill: #fdfcfd;
      }

      .cls-125 {
        fill: #c6acd7;
      }

      .cls-126 {
        fill: #fcf6fd;
      }

      .cls-127 {
        fill: #c6a4df;
      }

      .cls-128 {
        fill: #b086cf;
      }

      .cls-129 {
        fill: #e9c8fd;
      }

      .cls-130 {
        fill: #c6acd8;
      }

      .cls-131 {
        fill: #fbf8fa;
      }

      .cls-132 {
        fill: #e8cdf9;
      }

      .cls-133 {
        fill: #fefdfc;
      }

      .cls-134 {
        fill: #c4a7d7;
      }

      .cls-135 {
        fill: #7e5e92;
      }

      .cls-136 {
        fill: #816495;
      }

      .cls-137 {
        fill: #6c4f80;
      }

      .cls-138 {
        fill: #fef9fe;
      }

      .cls-139 {
        fill: #fdfdfd;
      }

      .cls-140 {
        fill: #87649e;
      }

      .cls-141 {
        fill: #ddc8e9;
      }

      .cls-142 {
        fill: #edcefb;
      }

      .cls-143 {
        fill: #c3a5d6;
      }

      .cls-144 {
        fill: #ddc9e8;
      }

      .cls-145 {
        fill: #c2a4d4;
      }

      .cls-146 {
        fill: #8559a4;
      }

      .cls-147 {
        fill: #dac4e9;
      }

      .cls-148 {
        fill: #c5abd9;
      }

      .cls-149 {
        fill: #fefafe;
      }

      .cls-150 {
        fill: #e7cff8;
      }

      .cls-151 {
        fill: #fefcfd;
      }

      .cls-152 {
        fill: #cba4e7;
      }

      .cls-153 {
        fill: #bb91d9;
      }

      .cls-154 {
        fill: #c3aad5;
      }

      .cls-155 {
        fill: #b48bd1;
      }

      .cls-156 {
        fill: #c9a8dd;
      }

      .cls-157 {
        fill: #8757aa;
      }
    </style>
  </defs>
  <path class="cls-129" d="M188.18,79.5c2.04-1.61,4.45-.93,6.69-.93,35.79-.04,71.57-.21,107.36.12,7.31.07,13.22-2.05,19.33-5.69,46.95-27.93,96.67-48.93,150.3-60.44,23.04-4.94,46.19-8.42,69.66-10.31,17.22-1.39,34.44-2.86,51.68-2.01,30.55,1.5,60.87,4.76,90.98,10.78,49.57,9.92,95.84,28.28,140.19,51.96,16.07,8.58,31.31,18.6,46.62,28.47-2.09,7.95-5.75,10.17-13.31,8.07-.56-.15-1.1-.47-1.65-.51-8.08-.54-12.59-4.53-13.02-12.9-.23-4.39-2.74-6.51-7.26-5.99-.76.09.2.03-.57,0-12.32-.27-12.39-.29-15.45,11.55-.86,3.33-2.29,5.63-5.97,5.96-1.15.1-2.27.51-3.31.97-6.79,2.94-12.55,2.44-16.93-4.36-2.79-4.34-6.46-4.98-10.56-1.48-.58.49-1.3.81-1.97,1.2-8.44,4.96-8.59,5-5.92,14.52,1.35,4.82.62,8.64-3.35,11.81-1.34,1.07-2.58,2.33-3.67,3.66-3.1,3.81-6.66,4.87-11.15,2.45-1.33-.71-2.95-.89-4.35-1.49-3.6-1.55-5.83-.18-7.47,3.04-1.13,2.22-2.21,4.48-3.48,6.63-.96,1.63-1.79,3.52-4.26,3.21-7.17-1.05-14.07.98-21.02,2.04-10.02,1.52-20.06,2.88-30.07,4.49-2.79.45-5.74,1.16-7.98-1.55-1.76-4.67-.68-9.52-.88-14.28-.34-8.23.85-16.49-1.19-24.67-3.66-14.66-16.24-22.61-28.86-22.57-80.79.29-161.58.17-242.37.15-69.19-.02-138.38.04-207.56-.05-3.13,0-6.62,1.04-9.23-1.85Z"/>
  <path class="cls-39" d="M918.33,159.39c8.84-2.59,18.05-3,27.07-4.49,19.03-3.14,38.11-5.95,57.2-8.74,6.78-.99,13.58-2.98,20.49-1.18,10.68,2.78,20.63,12.45,18.66,29.11-1.33,11.24-11.8,20.06-24.56,21.23-9.3.85-18.5,2.75-27.76,4.02-4.26.58-4.69,2.25-2.16,5.44,10.4,13.1,19.13,27.33,27.68,41.64,15.78,26.4,29.3,53.9,40.13,82.73,8.57,22.82,15.53,46.1,20.5,69.95,3.94,18.88,7.44,37.83,9.01,57.11.37,4.57,1.23,9.11,1.02,13.72-.16,3.45,2.01,3.81,4.52,3.44,13.23-1.94,26.5-3.68,39.65-6.05,16.13-2.91,29.18,5.15,31.93,20.3,2.5,13.78-8.76,27.41-24.22,29.68-27.77,4.08-55.46,8.79-83.29,12.37-18,2.31-35.78,6.21-53.94,7.27-2.9-4.16-1.89-7.68,2.12-10.25,2.62-1.68,2.98-3.57,2.17-6.32-1.36-4.61-2.41-9.32-4.09-13.83-1.19-3.18-.64-5.51,2.03-7.59,4.41-3.45,8.33-7.42,11.8-11.81,2.04-2.58,4.43-3.32,7.63-2.26,4.56,1.52,9.22,2.74,13.74,4.4,2.81,1.03,4.63.4,6.28-2.15,3.57-5.49,6.58-11.3,9.95-16.9,1.53-2.54.45-4.29-1.38-6.04-3.2-3.06-6.81-5.64-9.96-8.77-2.9-2.88-4.05-5.9-2.51-9.86,1.81-4.66,3.25-9.46,4.05-14.41.72-4.47,3.52-6.58,7.71-7.4,3.77-.74,7.54-1.51,11.31-2.31,3.11-.66,4.62-2.15,4.54-5.5-.14-6.15-.22-12.32.03-18.47.14-3.52-1.57-4.82-4.56-5.35-4.36-.77-8.67-1.76-13.02-2.57-3.24-.61-5.01-2.45-5.65-5.69-1.11-5.66-2.53-11.26-4.47-16.7-1.18-3.29-.54-5.89,2.18-8.22,3.65-3.13,6.72-6.91,10.52-9.86,2.16-1.68,2.27-3.38,1.03-5.47-3.32-5.63-6.34-11.43-9.97-16.88-1.79-2.68-3.95-3.32-6.92-2.33-3.65,1.21-7.37,2.26-10.9,3.79-3.88,1.69-7.11.89-9.91-2.16-.39-.42-.77-.88-1.22-1.22-10.69-7.99-16.6-17.23-8.73-30.62,1.96-3.33.48-6.04-3.02-7.96-5.22-2.87-10.35-5.93-15.52-8.89-2.62-1.5-4.42-1.21-6.34,1.28-2.81,3.65-6.59,6.47-9.32,10.23-2.11,2.9-4.83,3.58-8.13,2.34-5.05-1.91-10.26-3.27-15.55-4.29-4.39-.85-6.64-3.53-7.38-7.76-.13-.76.05.19-.11-.57q-3.35-14.88-18.37-14.88c-12.32,0-12.65-.05-14.64,12.16-1.14,7.05-4.02,11.27-11.5,11.88-2.84.23-5.83.85-8.35,2.14-6.87,3.5-11.67,1.26-15.53-4.74-.82-1.28-1.9-2.42-2.82-3.65-2.88-3.85-5.95-6.48-11.04-3.11-1.9,1.26-4.69,1.92-5.97-.94-1.33-2.96-1.27-6.08,1.69-8.32,5.83-4.42,12.18-3.55,16.98,2.27,5.26,6.37,5.62,6.44,12.85,2.51.51-.28,1.03-.52,1.53-.81,8.7-5.03,8.87-5.09,5.69-14.67-1.48-4.45-.75-7.85,2.75-10.83,1.17-1,2.34-2.05,3.26-3.26,3.71-4.93,8.11-5.42,13.74-3.24,7.69,2.97,7.81,2.67,12.13-4.57.39-.66-.07.18.28-.51,5.72-11.13,5.59-8.45-2.4-16.17-3.53-3.41-5.03-6.57-2.92-11.1.33-.7.55-1.46.6-2.22.46-7,4.1-10.33,11.16-11.39,7.33-1.09,7.25-1.65,7.31-8.93,0-.77,0,.19,0-.58-.17-13.93,1.34-11.25-10.92-14.11-6.17-1.44-8.09-5.48-5.85-12.09Z"/>
  <path class="cls-87" d="M1000.18,587.79c14.69-1.05,29.05-4.4,43.61-6.34,11.34-1.51,22.62-3.5,33.95-5.17,2.51-.37,4.11-.32,3.53,3.57-3.54,23.67-9.25,46.82-15.7,69.82-8.24,29.4-19.16,57.86-32.47,85.27-12.98,26.74-27.81,52.52-45.08,76.81-4.63,6.52-9.19,13.09-14.03,19.99,2.24,1.2,4.35.72,6.31.73,31.35.04,62.7.01,94.05.07,2.21,0,4.64-.84,6.62.98-2.08,2.28-4.89,1.98-7.53,1.99-49.3.06-98.61.06-147.91,0-2.48,0-5.02.08-7.16-1.54-1.21-1.57-.6-2.94.67-4.01,11.42-9.6,11.09-22.54,9.87-35.54-1.05-11.24-2.05-22.49-3.05-33.74-1.43-16.01-3.07-32.01-4.24-48.04-.83-11.47-1.14-23.06-3.03-34.33-1.82-10.82,2.22-16.41,11.09-21.63,8.87-5.23,14.83-13.78,18.45-23.65,2.58-7.06,3.26-7.52,10.91-7.58,4.04-.03,8.08.01,12.12-.01,14.64-.1,23.78-7.57,26.7-21.84,1.1-3.1.52-6.32.7-9.48.13-2.21-.32-4.56,1.62-6.31Z"/>
  <path class="cls-87" d="M80.8,833.47c2.01-1.73,4.43-.94,6.66-.94,31.56-.06,63.12-.04,94.68-.04,2.05,0,4.1,0,7.09,0-7.21-10.27-14.04-19.66-20.5-29.3-29.56-44.08-52.77-91.22-68.57-141.95-8.04-25.79-14.08-52.07-17.92-78.74-3.46-24.05-5.87-48.28-5-72.7.12-3.41.69-4.78,4.64-5.35,23.8-3.43,47.54-7.31,71.29-11.12,2.81-.45,5.84.32,8.43-1.41,2.25,2.17,1.59,5.01,1.59,7.62.06,25.14.02,50.27.04,75.41,0,5.61.91,11.01,3.33,16.16,3.72,7.92,10.46,12.01,18.33,14.57,2.31.75,4.31,1.6,5.51,3.75,4.18,7.49,10.19,12.85,18.27,15.85.9.33,1.6,1.04,2.16,1.85,1.81,7.39.86,14.88.66,22.33-.1,3.75-3.12,4.43-6.22,4.48-7.69.13-15.38.24-23.06-.02-4.73-.16-6.5,1.46-6.34,6.27.19,5.75-.23,10.79,5.84,14.88,5.84,3.94,4.62,13.42-1.65,17.78-3.38,2.35-4.14,4.96-4.13,8.66.07,30.16.19,60.33-.03,90.49-.1,13.69,4.12,25.2,14.72,34.12.77.86,1.58,1.68,2.39,2.5,1.39,1.42,4.13,2.46,2.91,4.94-1.02,2.07-3.64,1.82-5.71,1.84-12.85.15-25.71.06-38.56.06-20.72.01-41.44.04-62.16-.03-2.98-.01-6.23.63-8.66-1.99Z"/>
  <path class="cls-116" d="M161.61,442.27c-9.05.09-17.76,2.61-26.66,3.78-17.79,2.34-35.52,5.13-53.27,7.79-17.18,2.57-34.39,5.01-51.52,7.88-13.66,2.28-27.42-7.05-29.85-21.57-2.05-12.31,6.23-25.63,20.61-27.92,19.8-3.16,39.6-6.28,59.44-9.14,4.97-.72,7.46-2.54,8.58-7.8,6.68-31.39,16.92-61.62,29.63-91.09,10.82-25.1,23.81-48.98,38.48-71.98,1.31-2.06,2.21-4.52,4.54-5.81,2.09,1.99,1.65,4.61,1.65,7.06.04,67.25.04,134.5,0,201.75,0,2.44.44,5.06-1.64,7.06Z"/>
  <path class="cls-71" d="M80.8,833.47h114.67c-2.2-2.33-4.18-4.43-6.17-6.54-.56-1.59-2.49-2.82-1.27-4.88,1.84-.6,2.81.67,3.86,1.77,5.36,5.44,11.76,8.39,19.49,8.29,4.79-.06,9.58,0,14.37,0,15.04,0,27.25-8.51,32.57-22.66,1.01-2.69,1.66-5.5,2.56-8.23.44-1.32.91-3.2,3.1-1.78,3.18,5.92,2.22,12.15,1.34,18.35q-3.35.33-2.63-4.9c-2.45,8.33-9.03,13.4-15.2,19.41,8.63-.73,16.97.79,25.23-1,1.63-.38,3.25-.81,4.95-.59,3.59.72,7.21,1.1,10.88,1.1,62.48-.02,124.95,0,187.43-.01,2.5,0,4.99-.18,7.49-.24,2.83.5,5.69-.4,8.52.14,65.23.2,130.46.06,195.68.05,1.54,0,3.08-.04,4.59-.34,1.34-.49,2.37-1.78,3.99-1.59,4.55,1.86,9.31,2.05,14.16,2.05,36.76-.05,73.53-.04,110.29,0,4.06,0,8.07-.19,12.01-1.27,1.46-.19,2.84.11,4.17.69,12.87,1.2,25.76.76,38.64.25,1.26-.44,2.55-.77,3.9-.82,7.21,1.93,14.59,1.17,21.9,1.32,5.09.37,10.13.35,14.8-2.2,1.74.05,1.47,1.58,1.91,2.59,1.32,1.65,3.19,1.06,4.83,1.06,52.7.04,105.39.05,158.09.05,3.15,7.93,2.11,9.59-6.04,9.59-329.4,0-658.81,0-988.21,0-7.99,0-9.11-1.83-5.91-9.64Z"/>
  <path class="cls-6" d="M1000.18,587.79c-.83,5.48.92,11.1-.98,16.52-1.97-1.5-1.81-3.71-1.8-5.78.04-34.67-.27-69.34.13-103.99.42-1.15,1.4-3.46,2.11-2.48,4.64,6.43,5.28-1.29,7.8-2.03.63-.18,1.04-1.06,1.58-1.6.54-.56-.05.19.39-.43,4.88-6.82,10.68-7.76,18.51-4.58,10.88,4.42,11.09,3.91,16.7-6.44.73-1.35,1.29-2.81,2.11-4.1,2.39-3.78,1.44-6.76-1.71-9.65-2.55-2.34-5.22-4.54-7.85-6.78-3.15-2.68-4.14-5.86-2.5-9.78,2.39-5.71,3.74-11.72,4.8-17.78.72-4.1,2.76-6.49,6.95-7.29,3.39-.64,6.73-1.63,10.14-2.2,4.72-.79,7.17-3.15,6.79-8.2-.24-3.25-.23-6.55,0-9.8.3-4.35-1.76-6.32-5.84-6.95-3.61-.56-7.14-1.62-10.76-2.07-4.56-.57-6.63-3.07-7.37-7.43-1.06-6.25-2.48-12.45-4.85-18.37-1.23-3.06-.59-5.61,1.62-7.92,2.93-3.05,5.79-6.2,9.2-8.71,3.14-2.31,4.01-4.83,1.77-8.36-2.16-3.4-4.03-6.99-6.06-10.48-1.85-3.19-4.15-4.19-7.67-2.82-3.58,1.39-7.29,2.45-10.94,3.67-3.95,1.32-7.19.44-9.74-2.85-3.91-5.04-8.34-9.56-13.4-13.45-3.02-2.33-3.59-5.18-2.38-8.7,1.25-3.63,2.41-7.3,3.55-10.97,1.12-3.6.5-6.3-3.09-8.2-3.73-1.98-7.25-4.35-10.92-6.47-2.77-1.61-5.08-1.3-7.02,1.36-2.38,3.28-5.67,5.77-8.09,9-2.6,3.46-5.53,4.28-9.53,2.6-5.88-2.47-12.11-3.91-18.36-4.89-4.61-.73-6.67-3.1-7.38-7.43-.59-3.6-1.53-7.15-2.1-10.75-.59-3.65-2.43-5.32-6.22-5.23-19.27.45-16.41-3.03-20.21,15.15-1.05,5.02-3.13,7.97-8.41,8.51-2.85.29-5.58,1.41-8.41,2.02-15.79,5.24-14.89,4.77-24.72-6.9-2.13-2.53-4.3-5.06-8.26-3.33-3.36,1.46-5.06,3.74-5.07,7.53,0,3.72,1.65,5.08,5.23,5.16,6.69.15,13.36.16,20.07.72,11.31.95,18.92,6.45,21.86,17.48,1.66,6.22,1.58,12.56,1.29,18.87-.19,4.12,1.23,5.19,4.99,3.98,2-.64,4.17-.66,6.18-1.32,38.34-5.07,73.25,20.89,81.29,56.86,5.71,25.53-.96,48.18-19.04,67.29-2.8,2.5-5.14,5.51-8.37,7.5,3.56-.73,7.18-.75,10.74-.07,1.32.25,4.05.57,1.6,3.13-6.58.77-13.19,2.08-19.58-.91-1.87-3.49,1.47-4.27,3.16-5.67,8.22-6.83,15.32-14.53,20.14-24.21,22.9-45.96-10.28-94.85-52.82-97.99-9.29-.68-19.05-.17-26.12,2.56,6.95-1.24,13.9-2.18,20.99-2.11,7.46.07,14.49,1.64,21.35,4.3,7.05,2.74,13.55,6.49,19.24,11.45,5.53,4.82,10.37,10.28,14.07,16.69,3.68,6.38,6.5,13.09,8.09,20.29,6.45,29.23-7.71,59.62-33.91,72.84-.76.15.03,1.3-.17.55-.03-.12.06-.15.21-.23,1.9-1.05,3.59-1.41,4.38,1.3-4.63,3-9.34,2.52-14.08.33-1.19-3.98,2.35-4.34,4.47-5.44,12.65-6.58,22.54-15.73,28.93-28.73,12.45-25.33,5.69-56.11-16.38-73.93-15.23-12.3-32.38-16.14-51.41-12.39-2.21.44-4.56.77-6.16,3.16,6.86-1.46,13.72-2.31,20.71-2.07,26.21.89,44.2,14.08,53.31,37.98,8.33,21.85,4.25,42.47-11.73,60.02-15.79,17.35-35.52,22.76-58.15,17.65-3.9-.88-5.06.27-5.5,3.61-4.83,2.87-10,1.61-15.07,1.16-1.12-.1-2.13-.87-1.98-2.34,1.16-1.18,2.69-1.58,4.22-1.53,5.23.16,6.11-3.05,5.51-7.16-1.72-11.85-.86-23.77-.95-35.65-.14-18.62.13-37.24-.1-55.86-.15-12.3,1.84-24.49,1.28-36.8-.21-4.62-.51-9.19-1.41-13.72-1.68-8.51-6.49-13.3-14.98-14.4-6.87-.9-13.81-.4-20.72-.29-1.7.03-3.7.2-3.83,2.56-.16,2.81,2.08,2.74,3.97,2.99,3.32.44,7-.87,9.84,1.98-.61,3.15-3.27,2.37-5.21,2.45-2.38.09-4.36.58-5.7,2.68-3.86,2.27-3.48,6.08-3.48,9.71-.02,28.57.03,57.15-.06,85.72,0,3.14.82,6.63-2.21,9.1-1.77-.24-2.44-1.59-3.02-3.02-.98-3.39-.7-6.87-.71-10.32-.02-54.99-.02-109.99,0-164.98,0-7.54-1.31-14.55-6.97-20.09-4.16-4.06-9.02-6.47-14.94-6.49-2.69,0-5.39-.03-8.08-.03-109.84,0-219.68,0-329.52-.03-3.79,0-7.73.72-11.3-1.33-.65-.59-.72-1.24-.24-1.97,2.18-1.68,4.76-1.3,7.22-1.3,66.94-.03,133.89-.36,200.83.25,14.24.13,28.5.45,40.26.77-9.23-.01-20.95,0-32.66-.01-1.89-.72-1.07-1.65-.05-2.3,2.05-1.29,4.42-1.08,6.7-1.08,13.4-.01,26.8-.06,40.19,0,1.71,0,4.29,1.09,4.7-1.71.32-2.21-1.15-3.96-3.21-4.98-1.91-.95-4.02-1.21-6.06-1.72-6.55-1.64-7.53-2.89-7.9-9.91-.07-.76-.05-1.52-.03-2.29.41-12.29-2.1-14.1,12.73-16.99,3.09-.6,4.58-2.38,4.94-5.42.22-1.9.66-3.79,1.34-5.57,1.29-3.33.45-5.85-2.24-8.11-2.04-1.71-4.01-3.59-5.51-5.82-1.5-2.24-2.29-4.54.74-6.32,2.2-3.8,4.53-7.54,6.57-11.43,1.75-3.32,4.12-4.59,7.48-2.7,7.63,4.29,13.11,2.68,18.94-4.16,3.76-4.41,3.66-7.49,2.01-12.1-2.95-8.24-2.77-8.31,4.61-12.77.33-.2.66-.4.99-.59,10.8-6.44,10.88-6.51,19.08,3.06,2.07,2.42,3.96,3.47,6.88,1.94.17-.09.36-.17.55-.18,9.53-.54,14.75-5.25,14.96-15.11.07-3.29,2.19-4.7,5.43-4.55,1.34.06,2.69,0,4.04-.01q13.17-.03,16.14,12.57c.6,2.56,1.28,4.78,4.69,4.64,1.48-.06,3.13.37,4.45,1.07,7.49,3.93,12.59,1.31,16.25-5.63,2.78-3.52,5.85-3.73,9.26-.89.73.6,1.63.99,2.47,1.46,11.56,6.58,11.69,6.62,7.34,19.31-.94,2.73-.56,4.32,1.59,5.84.31.22.63.47.84.78,5.3,7.96,12.05,10,20.58,5.14,2.46-1.4,4.37-.55,5.73,1.85.85,1.5,1.87,2.89,2.75,4.37,6.78,11.39,6.96,11.61-2.93,20.08-4.3,3.69-1.78,6.62-.3,9.98.96,9.83.91,10.18,10.3,11.44,6.12.82,8.31,3.16,8.07,9.59-.5,13.48-.1,13.52-13.57,17.28-2.27.63-3.12,1.9-4.03,4.15-3.62,8.98-2.97,16.39,6,21.81,2.55,1.54,2.98,3.8,1.22,6.39-.75,1.11-1.27,2.37-1.92,3.55-6.51,11.87-6.54,11.94-19.33,7.77-2.7-.88-4.77-1.03-6.38,1.6-.2.32-.48.62-.79.83-7.58,5.21-10.42,11.56-5.31,20.21,1.98,3.34.33,5.66-2.97,7.21-2.43,1.14-4.69,2.64-7.05,3.94q-8.38,4.64-14.62-3c-3.91-4.78-10.21-5.65-15.27-2.05-2.6,1.85-1.8,4.84-1.14,6.85,1.04,3.14,3.44.57,4.55-.23,4.61-3.32,8.2-2.39,10.89,2.21,5.95,10.19,13.27,12.26,24.91,8.15,7.79-2.75,11.56-5.28,12.63-13.59,1.49-11.61,2.13-11.53,13.82-11.57,4.43-.02,8.87.22,13.28-.11,3.92-.3,5.57,1.37,6.13,5.02.47,3.03,1.82,6,1.84,9,.05,6.95,3.63,9.92,10.11,10.38,1.14.08,2.48.04,3.38.61,10.36,6.43,16.79,1.29,23.05-6.91,5.19-6.81,5.69-6.44,13.23-2.16,3.34,1.9,6.75,3.71,9.98,5.78,9.47,6.07,9.19,3.08,4.97,14.08-3.7,9.64-2,15.33,5.44,22.5,6.85,6.61,12.37,8.97,20.6,4.3,1.48-.84,3.29-1.06,4.89-1.71,3.14-1.29,5.47-.76,7.25,2.37,3.51,6.18,7.14,12.3,10.84,18.37,1.6,2.63,1.15,4.49-1.17,6.46-3.95,3.36-7.54,7.16-11.55,10.45-2.19,1.8-2.41,3.31-1.49,5.89,1.67,4.69,3.48,9.51,3.97,14.4.58,5.8,3.59,7.52,8.7,8.26,5.05.73,11.63-.04,14.54,3.9,2.84,3.85.95,10.05,1.01,15.21.16,13.54.17,14.07-13.46,16.3-7.21,1.18-10.92,3.81-11.22,11.25-.11,2.79-1.13,5.73-2.42,8.25-2.64,5.14-1.8,9.04,3.07,12.15.8.51,1.41,1.31,2.13,1.94q10.07,8.9,3.54,20.35c-8.01,14.04-8.09,14.29-23.72,9.08-5.43-1.81-9.29-1.93-12.32,3.55-.98,1.78-2.67,3.46-4.44,4.47-7.58,4.33-8.1,10.22-4.7,17.5,1.28,2.75,1.62,5.92,2.67,8.81.91,2.51.09,4.39-2.06,5.25-4.96,1.99-4.75,5.86-4.17,10.01-.03,16.94-.05,33.89-.08,50.83Z"/>
  <path class="cls-123" d="M690.4,208.95h41.46c0,.42,0,.83,0,1.25h-256.07c-.32-.8-.11-1.42.64-1.86,3.27-1.59,6.8-1.08,10.23-1.08,55.42-.03,110.84-.05,166.26.02,5.8,0,11.51-.72,17.27-1.05,3.46-.2,5.12-1.88,4.59-5.1-3.05-18.57,2.15-37.23-.77-55.83-.91-5.84-.49-11.9.39-17.84,1.18-7.91.45-15.77-1.26-23.5-2.4-10.86-12.9-19.42-24.04-19.97-2.31-.11-4.62-.06-6.93-.06-147.98,0-295.96,0-443.94,0-1.92,0-3.85-.03-5.77.03-12.07.39-21.25,7.43-24.71,18.99-1.44,4.82-1.98,9.77-1.98,14.81.02,151,.02,301.99,0,452.99,0,4.84.52,9.62,1.65,14.3,1.79,7.41,6.5,12.49,13.25,15.81,2.78,1.37,4.42.72,4.5-2.62.04-1.73.05-3.46.05-5.19,0-30.58.17-61.17-.08-91.75-.1-12.63,2.81-23.62,13.28-31.62,3.04-2.32,2.93-5.6,2.98-8.89.21-14.55.22-14.67,14.76-14.49,6.3.08,12.7-1.07,18.91,1.01,2,1.73,2.07,3.57.29,5.5-2.95.07-5.78-1.18-8.77-.76-4.62.23-9.23.11-13.85.11-3.51,0-5.38,1.39-5.4,5.08-.06,19.8-.11,39.6.03,59.4.02,2.62,1.05,4.83,2.76,6.79,1.51,1.74,3.06,3.47,3.65,5.81.68,11.15.26,22.3.29,33.45.07,27.31.05,54.62-.01,81.92,0,2.71.65,5.75-2.74,8.45-1.45-9.07.3-17.66-1.05-26.05-9.53-2.27-16.59-7.67-20.91-16.51-.91-1.87-2.12-2.73-4.25-3.25-14.59-3.57-23.21-14.75-23.28-30.16-.14-28.38-.16-56.76-.23-85.13,0-16.55,0-33.11,0-49.66.07-18.99.19-37.99.2-56.98.03-51.05.01-102.1,0-153.14,0-1.91-.14-3.83-.22-5.74.08-37.82.17-75.64.22-113.46,0-5.43.62-10.69,3.02-15.67,4.78-9.9,12.71-15.61,23.35-17.78,61.74-.04,123.48-.1,185.22-.11,88.85-.02,177.69-.01,266.54.01,5.18,0,10.42-.47,15.51.85,13.42,3.47,23.01,15.82,23.33,30.18.25,10.95.23,21.91.33,32.86,1.55,1.7,1.75,3.81,1.75,5.94.01,15,.27,30-.12,44.98-.02.93.05,1.88.05,2.82q.02,8.71,8.21,10.96c.56.15.98.55,1.39.94Z"/>
  <path class="cls-157" d="M580.88,874.5c-50.81,0-101.61-.01-152.42,0-2.88,0-5.77.18-8.65.31-3.37.15-6.1-.21-6.24-4.68-.14-4.67,2.39-5.23,6.21-5.22,47.53.08,95.07.06,142.6.05,59.66,0,119.32,0,178.97-.1,4.27,0,7.3.42,6.74,5.76-.26,2.48-1.08,4.04-3.84,3.89-.96-.05-1.92,0-2.89,0-53.5,0-107,0-160.5,0Z"/>
  <path class="cls-44" d="M327.38,874.49c-11.73,0-23.47,0-35.2.01-3.48,0-7.08.69-6.99-4.89.1-5.7,3.96-4.62,7.27-4.62,23.47-.04,46.94-.01,70.41-.04,3.5,0,6.85-.67,6.81,4.95-.04,5.41-3.3,4.57-6.51,4.58-11.93,0-23.85,0-35.78,0Z"/>
  <path class="cls-44" d="M834.56,874.44c-12.28,0-24.57-.07-36.85.04-3.41.03-5.4-.67-5.39-4.72,0-3.94,1.76-4.85,5.29-4.84,24.57.07,49.14.07,73.71-.06,3.59-.02,5.24,1.01,5.34,4.84.11,3.99-1.72,4.84-5.24,4.8-12.28-.13-24.57-.05-36.85-.05v-.02Z"/>
  <path class="cls-8" d="M679.07,195.22c.01-17.31.03-34.61.04-51.92,12.27-1.73,24.55-3.43,36.82-5.2,6.04-.87,12.05-1.91,18.08-2.78,1.69-.24,3.61-.47,3.93,2.08-2.53,3.57-.01,5.95,2.42,7.58,6.82,4.57,8.07,9.84,5.16,17.68-1.61,4.34-2.47,7.05-7.49,8.02-10.57,2.03-10.51,2.34-10.52,13.04,0,1.15-.05,2.29-.08,3.44-.77,1.81-2.35,2.44-4.11,2.73-13.63,2.25-27.3,4.28-40.99,6.14-1.16.16-2.3,0-3.26-.8Z"/>
  <path class="cls-104" d="M234.5,452.66c1.54-1.17.91-2.86,1.04-4.37,3.22.17,2.55,2.86,2.87,4.71.43,2.45.13,4.98.32,7.48.2,2.53,1.51,3.78,4.01,3.99,2.5.21,4.99.16,7.49.16,99.4,0,198.8,0,298.2,0,2.69,0,5.4-.19,8.07.18,1.96.28,4.45,0,4.87,2.94-3.03,2.45-6.64,1.51-10.01,1.51-101.12.05-202.25.04-303.37.07-2.8,0-5.83-.8-8.25,1.45-1.68,2.2-1.23,4.78-1.24,7.24-.05,10.95-.37,21.91.09,32.84.34,8.03-.47,15.23-7.39,20.45-1.14,2.36-.98,4.88-.93,7.38.46,25.19.11,50.37.24,75.56.04,8.21.61,8.78,8.94,8.78,104.66.01,209.32.01,313.99,0,2.3,0,4.62.13,6.84-.7,13.36-4.13,18.85-11.36,18.88-25.37.06-32.87-.1-65.74.1-98.61.06-8.77-2.08-16.3-8.64-22.32-.71-.65-1.2-1.5-1.54-2.41-.32-1.1.11-1.93.95-2.61,3.14-.97,5.17.97,6.86,3,2.81,3.35,5.57,6.81,6.77,11.18,1.37,3.69,1.34,7.54,1.34,11.39,0,32.12,0,64.23,0,96.35,0,11.79,4.21,14.52,16.16,10.48.37-.56.72-1.13.97-1.75.53-20.56.11-41.1.2-61.64.08-16.13,0-32.25.02-48.38,1.62-15.7,12.73-26.27,28.61-26.75,11.89-.36,23.79-.04,35.69-.12,2.45-.01,5.03.44,7.18-1.29,2.46-6.8,1.44-13.58,0-20.34-.39-1.85-1.92-2.24-3.52-2.39-2.11-.21-4.23-.13-6.35-.13-59.66,0-119.32-.02-178.98.02-6.02,0-11.92-.38-17.55-2.73-11.04-5.55-16.51-14.62-16.52-26.86-.07-58.19-.07-116.37,0-174.56.01-12.19,5.11-21.49,16.26-27.01,2.73-1.35,5.62-2.8,8.6-.39,0,.36,0,.72,0,1.08,0,.32-.02.64-.03.96-1.13,2.03-3.3,2.54-5.14,3.51-8.57,4.5-13.07,11.62-13.72,21.23-.1,1.54-.09,3.08-.09,4.61,0,55.77.02,111.54-.04,167.32,0,5.5.77,10.7,3.55,15.53,3.17,5.5,7.73,8.97,14.06,9.99,4.94.8,9.89,1.36,14.92,1.36,108.7-.03,217.41-.03,326.11-.01,4.25,0,8.44-.37,12.64-1,7.91-1.18,13.37-5.43,16.75-12.58.97-2.05,1.56-4.42,4-5.4,1.05.55,1.19,1.57,1.34,2.58,2.05,2.96.49,5.55-1,8-5.8,9.54-14.63,13.89-25.53,14.21-9.42.28-18.85.07-28.27.08-35.2,0-70.4,0-105.6,0-8.61,0-8.81.23-8.88,8.6-.01,1.35.01,2.69,0,4.04-.18,13.9.77,11.03,11.15,11.57,24.06-.33,48.12-.1,72.18-.13,35.42-.05,70.83,0,106.25-.02,8.61,0,8.9-.29,8.9-8.6.02-40.79-.11-81.58.1-122.37.05-9.51-3.49-15.9-12.53-19.05-2.92-2.02-6.92-.25-9.72-2.72-1.81-1.72-.6-2.28,1.03-2.36,3.07-.13,6.15-.09,9.22-.12,2.51-1.8,4.88-.64,6.96.67,7.22,4.51,12.07,10.49,12.07,19.58,0,43.36.02,86.72-.03,130.08,0,2.28.11,4.65-1.66,6.51,5.73,2.54,11.5,1.8,17.27.18,1.99-2.02,4.58-1.84,7.01-1.62,8.96.79,17.91.72,26.86-.04,2.65-.23,5.39-.42,7.61,1.59,4.6,2.14,9.23,1.8,13.89.21.33-.4.69-.44,1.09-.12,6.84,2.49,13.93.58,20.88,1.17,6.48-.07,10.47,2.54,11.79,7.72-.7.95-1.67,1.07-2.74.89-8.81-5.2-18.44-5.72-28.41-5.71-106.59.13-213.19.08-319.78.08-2.69,0-5.39-.07-8.08.08-14.61.81-23.88,10.27-24,24.94-.18,21.73-.05,43.47-.05,65.2,0,12.12-.09,24.23.03,36.35.16,16.21,9.19,25.37,25.51,25.6,16.54.24,33.09.06,49.64.06,48.1,0,96.2,0,144.31,0,1.73,0,3.46.02,5.2-.01,6.73-.14,7.49-.58,7.23-7.25-.43-10.85,1.32-21.07,7.05-30.44,3.93-6.43,8.21-12.56,14.48-17,6.14-2.08,7.12-1.6,8.5,4.18.27,2.42-.03,4.85.13,7.27.03,9.15-.05,18.3.04,27.45.04,4.35,1.64,7.41,6.45,7.83,12.88.3,25.77-.6,38.64.62,4.03.38,7.68-.73,9.5-4.96,1.81-4.27.95-8.75.93-13.12-.05-8.64.62-17.29-.43-25.91-.22-1.82.09-3.51,1.68-4.61,1.87-1.29,3.69-.54,5.39.49,2.16,1.31,3.88,3.13,5.62,4.93.72.64,1.38,1.36,2.03,2.06,10.36,12.75,16.69,26.88,14.74,43.76-.35,3,.48,4.93,3.85,4.88,5.91-.08,11.85.62,17.73-.45,11.05-2.06,16.65-9.56,19.64-19.67.57-23,.11-45.98.23-68.96.05-9.96.07-19.92-.04-29.88-.22-3.56-.03-7.12-.05-10.68.53-2.26-.51-5.21,2.71-6.31,1.54,1.5,1.56,3.07.25,4.72.05,37.49.09,74.99.14,112.48-1.85,12.74-12.3,22.22-25.17,22.62-5.95.18-11.93.14-17.88-.08-2.92-.11-4.53.72-5.47,3.64-4.58,14.19-13.71,24.7-26.64,31.95-2.95,1.65-4.77,3.71-4.45,7.31,2.06,23.51,4.1,47.03,6.11,70.54,1.83,21.41,3.81,42.82,5.31,64.26.8,11.43-3.27,21.06-12.95,27.86-.9-.49-1.03-1.35-1.06-2.26-.25-1.05.19-1.93.89-2.59,9.27-8.75,9.92-19.87,8.7-31.49-2.12-20.22-3.54-40.5-5.48-60.74-1.94-20.24-2.99-40.56-5.42-60.75-.9-7.46.81-12.51,7.76-16.71,27.73-16.78,30.84-46.72,19.79-69.2-2.55-5.18-5.31-10.6-11.36-12.8-.94,9.43-.23,18.84-.39,28.24-.23,13.41-4.32,17.62-17.68,17.7-11.35.07-22.7.12-34.04-.02-11.47-.14-17.11-5.49-16.29-16.73.65-8.87-.86-17.65-.09-26.45.16-1.68-.2-3.49.99-4.98-11.55,9.57-17.57,22.01-18.55,36.92-.61,9.19.94,17.99,5.49,26.17,1.19,2.13,2.6,4.38,1.45,7.07-.69.95-1.61,1.15-2.69.8-3.43-2.02-4.86-5.51-5.86-8.97-1.56-5.41-4.91-6.99-10.27-6.89-14.42.25-28.85.08-43.28.08-52.12,0-104.25-.02-156.37.03-6.87,0-13.43-.79-19.22-4.87-2.74-1.69-4.85-4.06-6.97-6.43-4.93-6.68-15.79-9.72-23.42-6.6-1.92.79-2.97,2.4-4.02,4-6.51,9.89-15.77,13.92-27.47,13.89-87.2-.15-174.39-.18-261.59-.09-2.15,0-4.52-.85-6.46.89-.06.06.02.34.1.47.09.16.25.29.43.42,13.17,1.33,26.34.23,39.48.62,2.81.08,5.77-.58,8.34,1.24-.4,4.47-4.07,3.14-6.4,3.19-12.49.27-24.98.1-37.47.13-3.68,0-7.33.2-10.62,2.1-6.45,3.73-10.17,9.13-10.43,16.77-1.82,51.83-1.07,103.69-1.13,155.53,0,6.13,1.64,11.75,5.73,16.52,1.24,1.45,2.54,2.91,2.8,4.94-.85,1.1-2.07.85-3.21.88-6.04-1.71-9.59-7.48-8.41-13.71.13-6.62.55-13.26-1.11-19.79-2.47-2.75-1.75-6.16-1.76-9.34-.07-27.43-.02-54.86-.04-82.29,0-9.44-.74-10.44-9.92-10.52-22.45-.2-44.9-.07-67.35-.06-1.72,0-3.49-.09-4.76,1.43-1.18,2.34-.95,4.87-.95,7.34-.01,28.94.02,57.88-.03,86.82-.01,8.66,1.97,16.69,6.73,23.97,1.05,1.98,2.83,3.6,2.99,6.02.39,1.53.78,3.05,1.17,4.58-9.59-7.2-14.58-17.33-14.79-28.77-.62-33.64-.29-67.29-.39-100.94,0-2.48.87-3.62,3.28-4.56,4.25-1.66,6.7-4.91,6.52-9.82-.17-4.59-2.39-7.77-6.63-9.11-2.56-.81-3.04-2.13-3.15-4.53-.78-16.81-.83-16.81,15.97-16.73,5.39.03,10.78-.07,16.15.16,3.28.14,4.38-1.06,4.26-4.32-.25-7.11-.19-14.22-.26-21.33,2.31,5.13.57,10.53,1.02,15.79.24,2.77.04,5.58,1.2,8.37v-122.34c3.65,1.32,2.87,4.59,2.91,7.24.17,11.9.07,23.8.07,35.7.01,23.8-.02,47.6.02,71.4,0,3.51-.21,7.23,4.88,7.44,2.66-.07,3.67-1.71,3.94-4.07.24-2.11.18-4.22.18-6.34,0-34.02.05-68.04-.05-102.06-.02-5.61.75-10.67,5.14-14.68,3-2.73,3-6.47,3-10.17,0-17.3-.04-34.6.04-51.89.01-3-.62-6.23,1.9-8.72Z"/>
  <path class="cls-12" d="M833.68,831.27c-2.12,1.88-4.56,2.39-7.41,2.38-40.78-.08-81.55-.12-122.33.04-3.7.01-6.16-1.5-8.63-3.67-5.15-2.77-5.06-7.79-5.11-12.54-.19-18.85-.04-37.7-.05-56.55,0-17.31-.1-34.62,0-51.93.08-12.89,7.16-20.09,19.92-20.11,36.95-.06,73.9-.05,110.85,0,11.5.01,19.07,7.5,19.11,19.07.12,36.55.09,73.1-.03,109.64-.02,5.35-.25,10.95-6.33,13.67Z"/>
  <path class="cls-124" d="M275.95,831.58c-6.58-4.55-10.03-10.92-10.02-18.83.1-52.68.24-105.35.55-158.03.07-11.73,9.15-20.79,20.9-21.06,13.46-.31,26.93-.11,40.39-.19,2.09-.01,4.17-.34,6.26-.52,1.35-1.77,3.33-1.77,5.24-1.76,37.99.08,75.98-.4,113.96.22,6.63,1.75,13.39.78,20.09.85,15.08.17,24.74,9.04,25.91,24.16.24,3.07.12,6.15.12,9.23,0,48.06.05,96.12-.02,144.18-.01,8.34-1.77,16.57-9.91,21.49-1.32.8-2.73,1.42-4.34,1.4-2.28.23-4.56.67-6.84.67-64.47.05-128.94.04-193.41.14-3.2,0-6.02-.88-8.89-1.94Z"/>
  <path class="cls-51" d="M864.99,577.34c.27,9.76.62,19.51.28,29.29-.33,9.26,4,13.33,13.29,13.35,12.7.03,25.4.03,38.09-.03,9.27-.04,12.87-3.68,12.91-13,.04-10-.05-20,.01-30,.01-1.8-.86-3.91,1.21-5.27,8.39,9.48,13.32,20.4,14.68,33.09,2.4,22.27-5.85,40.32-23.24,53.27-8.15,6.07-10.18,12.23-9.12,21.32,2.26,19.43,3.5,38.97,5.49,58.44,2.18,21.37,3.3,42.83,5.49,64.21.93,9.11-1.83,17.39-7.02,24.98-3.74,5.48-9.3,6.16-15.1,6.57-7.72-.57-15.73,1.88-23.14-2.13-4.17-.3-5.81-3.14-6.74-6.71-5.42-14.29-2.52-28.91-1.32-43.34,1.72-20.85,3.57-41.69,5.3-62.54,1.28-15.5,2.66-30.99,3.91-46.49.35-4.37.12-8.16-5.02-9.49-5.17-1.76-9.84-4.27-13.12-8.84-4-5.83-8.21-11.47-11.09-18.05-8.53-19.44-3.4-42.1,8.99-56.65,1.31-1.54,2.7-3.5,5.27-1.98Z"/>
  <path class="cls-37" d="M873.22,825.47c1.21,2.61,3.57,4.13,5.6,5.96-.5.9-1.36,1.03-2.27,1.06-4.15.14-5.99-3.02-8.02-5.76-6.94-9.34-6.96-19.97-5.99-30.92,1.8-20.29,3.99-40.55,5.33-60.88.44-6.69.13-6.81-6.51-6.87-4.43-.04-8.85.06-13.28-.01-3.9-.06-5.56,1.71-5.55,5.56,0,8.66,0,17.31,0,25.97-.02,19.81.09,39.63-.06,59.44-.04,5.42-.36,10.94-6.58,13.45-.73-.4-1.47-.8-2.2-1.19,3.53-4.14,4.86-8.91,4.85-14.36-.08-36.34,0-72.68-.01-109.02,0-10.52-6.74-17.41-17.07-17.42-37.51-.04-75.02-.05-112.53-.01-10.08,0-17.13,6.86-17.15,16.86-.08,36.92-.01,73.84-.09,110.75,0,4.43,1.54,8.24,3.64,11.95-.07.95-.21,1.88-1.13,2.44-5.46-2.14-5.98-7.01-6.43-11.83-.65-6.85-.71-7.09-7.5-7.1-57.04-.04-114.07.01-171.11-.09-4.85,0-6.98,1.73-8.48,6.39-1.66,5.15-2.57,11.62-9.9,12.63-1.89-.21-3.67,2.38-5.65.24,8.8-4.88,12.4-12.47,12.38-22.38-.1-50.2-.06-100.41-.03-150.61,0-6.08-.76-11.9-4.45-16.97-4.2-5.76-9.63-9.11-17.03-9.21-7.47-.11-14.98.7-22.42-.6,1.87-2.26,4.49-1.69,6.9-1.77,6.65-.23,13.32.32,19.96-.34,7.48-.16,12.92,3.84,16.08,9.88,3.16,6.03,7.44,7.48,13.46,6.43,108.32-.2,216.63-.08,324.93-.08.96,0,1.92.03,2.86.16,3.2.13,6.43-.04,9.63.23,2.51.22,3.37-1,3.69-3.11.48-.52.96-1.05,1.44-1.57,4.88,2.21,6.65,7.32,10.14,10.83,3.28,3.56,7.44,5.83,11.74,7.88,4.1,1.2,4.74,4.51,5.01,8.1.54,7.15-.74,14.2-1.41,21.26-3.29,34.6-5.62,69.3-9.18,103.87-1.12,10.89-.26,20.96,4.42,30.76Z"/>
  <path class="cls-60" d="M188.14,822.35c-1.25-1.14-2.79-2.04-3.26-3.84-4.34-8.58-5.53-17.74-5.48-27.26.13-28.58.02-57.16.08-85.74,0-3.19-.64-6.58,1.65-9.41,13.98-.9,27.97-.19,41.96-.38,7.86-.1,15.73-.04,23.6-.01,6.54.02,7.06.81,5.2,7.61-1.18,2.12-3.27,2.49-5.38,2.55-2.93.07-4.53,1.59-5.3,4.26-.89,2.62-.55,5.33-.55,8.01-.03,27.83-.18,55.66.09,83.49.07,7.53-2.79,13-8.68,17.1-12.83,8.91-26.34,13.42-41.48,5.65-.81-.67-1.63-1.35-2.44-2.02Z"/>
  <path class="cls-100" d="M490.75,832.47c5.86-3.98,8.37-9.99,9.16-16.59.41-3.45,1.75-3.93,4.69-3.93,60.13-.01,120.25-.06,180.38-.26,3.91-.01,4.49,1.66,4.25,4.82-.46,5.95.55,11.49,4.95,15.95-1.35,1.64-3.21.92-4.85.92-64.57.02-129.13,0-193.7-.04-1.64,0-3.49.68-4.88-.88Z"/>
  <path class="cls-40" d="M835.88,832.47c4.02-4.12,5.23-9.13,5.2-14.76-.11-28.44.06-56.88-.22-85.32-.05-5.17,1.41-6.66,6.45-6.32,6.51.44,13.07.16,19.6.07,2.67-.04,3.65.67,3.36,3.68-2.19,22.72-4.1,45.47-6.25,68.2-1.28,13.53.89,25.68,12.53,34.47-2.35,2-5.14.88-7.7.93-9.19.18-18.39.15-27.58.11-1.82,0-3.88.71-5.39-1.06Z"/>
  <path class="cls-128" d="M190.58,824.37c10.17,2.11,20.25,3.53,30.28-.97,5.14-2.31,9.71-5.33,13.77-9.12,3.2-2.99,4.51-6.68,4.48-11.27-.18-29.16-.11-58.31-.06-87.47,0-2.22-.75-4.63.96-6.64,2.53,2.29,1.74,5.36,1.75,8.14.07,26.35.04,52.7.04,79.05,0,1.92.01,3.85,0,5.77,0,3.88.37,7.9,5.38,7.87,5.55-.03,3.97-4.77,3.99-7.84.13-29.43.04-58.85.13-88.28,0-3.09-.95-6.04-.74-9.12.1-.95-.03-2,.33-2.84,1.78-4.16.33-5.45-3.98-5.42-21.91.15-43.83.1-65.74.12-1.45,1.12-2.91,1.2-4.38.03,1.4-2,3.5-1.17,5.3-1.18,23.99-.06,47.99-.07,71.98-.08,8.86,0,9.17.32,9.16,8.85-.01,31.66-.01,63.32-.01,94.98-2.7,9.58-5.51,19.04-13.57,25.89-6.33,5.37-13,9.29-21.72,8.86-6.32-.32-12.68.13-19.01-.13-7.42-.3-13.58-3.47-18.35-9.22Z"/>
  <path class="cls-81" d="M901.95,833.55c16.1-5.17,22.25-16.86,20.02-34.88-1.19-9.62-2.17-19.35-2.59-29.07-.74-16.98-2.83-33.82-4.52-50.71-1.06-10.63-1.68-21.31-2.49-31.97-.46-6.09-1.48-12.13-1.25-18.3.13-3.44,1.22-5.53,4.2-7.43,15.97-10.18,26.26-24.03,28.37-43.47,1.67-15.37-1.86-29.11-11.07-41.42-1.09-1.46-1.91-2.83-1.84-4.65,26.72,20.26,26.8,62.93.15,82.95-2.45,1.84-4.73,4.23-7.5,5.28-6.19,2.35-6.91,6.89-6.38,12.5,2.68,28.39,5.37,56.78,7.88,85.18,1.4,15.83,2.59,31.68,3.6,47.55.65,10.29-3.31,18.69-11.54,25.01-4.35,4.05-9.69,3.76-15.03,3.41Z"/>
  <path class="cls-109" d="M264.33,818.75c.82,5.79,3.58,10.38,8.41,13.71-9.36,2.35-18.8.35-29.91,1.26,9.33-6.9,16.23-13.63,19.77-23.61,1.55,3.13-.18,6.24,1.73,8.64Z"/>
  <path class="cls-102" d="M848.8,415.73c-2.05,6.25-4.37,12.26-10.23,16.2-5.94,4-12.63,4.36-19.34,4.36-91.38.06-182.77.03-274.15.03-19.82,0-39.63.07-59.45-.07-4.58-.03-9.27-.3-13.72-1.32-9.83-2.24-16.84-12.5-16.85-24.13-.04-41.35-.02-82.69-.02-124.04,0-16.73-.08-33.46.02-50.19.08-13.13,7.74-22.41,20.7-25.42,66.74.03,133.48.06,200.23.08,49.05.02,98.1.32,147.14-.15,12.95-.12,25.74,10.19,25.71,25.84-.12,59.6-.05,119.2-.04,178.8Z"/>
  <path class="cls-102" d="M890.6,290.08c10.96-.28,16.22-5.67,17.33-16.83.87-8.77,1.81-8.67,10.89-8.73,15.02-.1,15.39-.17,18.07,14.54,1.1,6.05,3.31,8.87,9.55,9.49,5.87.59,11.68,2.19,17.14,4.7,2.36,1.08,3.99.9,5.79-1.54,3.07-4.16,6.87-7.76,10.18-11.75,1.8-2.17,3.42-2.53,5.86-1.02,5.06,3.14,10.26,6.05,15.4,9.05,2.07,1.2,2.93,2.59,1.99,5.19-1.77,4.86-3,9.91-4.72,14.79-.98,2.77-.59,4.71,1.88,6.39,5.47,3.71,9.86,8.55,13.81,13.78,2.25,2.98,4.7,4.04,8.43,2.39,4.03-1.77,8.46-2.63,12.46-4.45,3.28-1.49,5.05-.36,6.58,2.28,2.8,4.81,5.48,9.7,8.42,14.43,1.84,2.96.86,4.87-1.5,6.88-3.79,3.24-7.41,6.69-11.1,10.06-1.44,1.31-2.95,2.57-1.82,4.89,3.31,6.81,4.53,14.23,6,21.54.59,2.93,1.73,4.06,4.75,4.46,4.92.65,9.71,2.22,14.62,2.98,3.15.49,4.26,1.94,4.19,4.96-.12,5.19-.24,10.39-.02,15.57.17,3.94-1.82,5.5-5.3,6.16-4.14.79-8.22,1.9-12.38,2.56-3.65.59-5.69,2.19-6.17,6.09-.83,6.68-2.51,13.21-5.26,19.36-1.33,2.97-.28,4.64,1.77,6.44,3.76,3.28,7.38,6.72,11.19,9.94,2.14,1.81,2.43,3.51.99,5.94-2.73,4.63-5.28,9.38-7.78,14.13-1.74,3.31-4.06,4.34-7.51,2.58-1.18-.6-2.62-.72-3.8-1.32-8-4.05-15.41-5-21.15,3.71-1.76-1.59-1.51-3.86-1.93-5.88-2.85-13.61-13.49-22.84-27.37-23.93-2.31-.18-5.64,1.3-6.54-2.67,12.73-13.54,19.92-29.65,20.47-48.13.53-17.8-4.86-34.09-16.52-47.81-17.03-20.03-38.93-28.46-65.02-26.32-3.31,1.2-3.52-1.34-3.78-3.36-.46-3.63-.25-7.3-.19-10.95.2-11.57-4.65-20.36-14.34-26.59-1.52-.98-3.7-1.51-3.55-4.01Z"/>
  <path class="cls-122" d="M860.42,227.57c12.88-9,21.43-20.75,23.25-36.73,2.37-20.82-4.4-37.8-21.74-49.95-30.58-21.43-70.41-5.11-80.43,28.3-3.09,10.3-2.03,20.46.45,30.64-.71.96-1.71,1.61-2.83,1.79-10.75,1.75-21.44,2.29-31.86-1.8-.29-2.64-1.76-4.12-4.38-4.59-1.88-.34-3.73-.85-5.61-1.23-5.04-1.01-8-2.58-6.64-9.16,1.88-9.13,1.12-9.5,10.24-11.74,4.25-1.04,6.99-2.62,6.75-7.38,0-.18.1-.37.18-.54,4.31-8.95,4.34-16.86-5.29-22.59-1.69-1.01-2.13-2.6-.95-4.43.41-.64.58-1.42.96-2.09,7.07-12.57,3-11.28,16.31-7.47,4.13,1.18,6.63,1.33,8.96-2.7,1.3-2.25,3.41-4.38,5.67-5.65,5.16-2.9,5.49-6.5,3.31-11.5-1.23-2.82-3.56-6.28-1.14-9.22,3.09-3.76,7.96-5.35,12.3-7.24,2.16-.94,3.99,2.21,5.06,3.95,4.2,6.91,9.62,7.84,16.38,4.23.16-.09.37-.13.56-.14,8.19-.49,12.06-4.96,12.45-13.02.18-3.77,2.17-6.03,6.4-5.23.56.1,1.15,0,1.73,0,11.02-.04,11.11-.05,12.57,10.98.43,3.28,1.52,5.42,5.14,5.6,1.13.06,2.32.33,3.34.82,8.84,4.27,16.47,4.26,21.79-5.53,1.22-2.25,3.28-2.41,5.36-.82.46.35.94.68,1.44.96,10.22,5.75,11.23,3.9,6.72,16.55-1.51,4.23-.61,6.99,3.26,8.99.33.17.67.44.87.74,5.48,8.5,12.52,11.16,21.8,6.02,1.83-1.01,3.31.07,4.39,1.64.22.32.44.63.65.95,6.98,10.39,7.07,10.49-2.18,19.37-2.72,2.61-3.7,4.82-1.94,8.48,1.3,2.69,1.86,5.87,2.14,8.88.47,5.1,3.21,7.27,8.06,7.53,3.21.17,7.81-.11,8.77,2.75,1.61,4.8,1.14,10.32.12,15.38-.49,2.43-3.92,2.37-5.96,2.52-7.22.55-9.3,4.49-11.66,11.14-3.22,9.07-.84,14.34,6.03,19.27,2.52,1.81,3.07,3.65,1.21,6.75-6.44,10.78-6.34,11.05-18.14,6.91-3.45-1.21-5.36-.3-7.3,2.26-1.38,1.83-2.65,4.07-4.54,5.14-7.35,4.16-7.48,9.84-3.89,16.33,2.5,4.52.61,6.74-3.4,8.86-10.19,5.39-10.12,5.52-17.58-3.02-.88-1.01-1.72-2.06-2.58-3.09-2.1-.69-4.8-.75-4.88-3.83-.3-11.02-1.2-22.04.28-33.04Z"/>
  <path class="cls-116" d="M899.51,406.72c0-15,.1-30-.06-44.99-.04-3.61,1.04-5.38,4.63-6.63,33.31-11.58,68.33,11.07,72.13,46.13,3.03,27.9-17.13,58.21-52.06,60.42-2.1.13-4.25.09-6.33-.19q-18.32-2.47-18.32-20.71c0-11.34,0-22.69,0-34.03Z"/>
  <path class="cls-48" d="M857.17,311.94c3.02.68,6.27-.93,9.18.92-3.03,6.68-2.94,13.88-2.92,20.92.07,27.88-.94,55.79.16,83.64.73,18.54-15.13,33.61-32.83,33.56-10.78-.03-21.55.01-32.33.02-32.14.01-64.27,0-96.41.01-8.22,0-8.21.04-8.47,8.32-.08,2.48.13,5.05-1.75,7.1-12.81.67-12.95.66-12.79-12.04.06-5.09-2.46-11.63,1.1-14.9,3.19-2.93,9.56-.8,14.53-.81,43.08-.05,86.16,0,129.24-.04,13.57-.01,24.39-8.49,26.27-20.33,1.67-2.43,1.01-5.21,1.02-7.83.06-30.3.17-60.6-.07-90.9-.04-4.85,1.01-7.51,6.09-7.64Z"/>
  <path class="cls-22" d="M866.26,166.26c10.24,17.39,1.24,44.52-17.14,51.95-1.96.79-3.14.59-4.47-.94-6.35-7.32-14.87-9.04-23.99-9.09-3.85-.02-7.76-.38-11.54.15-6.07.85-9.22-2.09-11.49-7.16-3.69-8.25-5.65-16.65-3.18-25.63,19.82-2.41,39.5-5.71,59.23-8.72,4.19-.64,8.33-1.45,12.56-.54Z"/>
  <path class="cls-127" d="M884.77,466.29c0-45.47.03-90.93-.04-136.4-.02-10.58-6.99-18.61-17.31-20.43-3.79-2.03-7.9-1.12-11.84-1.02-3.73.09-4.56-1.47-4.49-4.79.06-2.96.55-4.75,4.11-4.53,8.61.52,17.26-.84,25.86.86,8.07,1.59,12.48,7.01,13.77,14.44,2.04,11.76,1.62,23.71.77,35.6-.17,2.29-.39,4.59-.39,6.89-.02,30.19-.04,60.37.04,90.55.01,4.21.31,8.44.88,12.61.75,5.5-1.62,7.3-6.76,6.52-1.51-.23-3.06-.21-4.59-.3Z"/>
  <path class="cls-8" d="M866.26,166.26c-5.9,1.13-11.77,2.46-17.7,3.35-16.9,2.55-33.84,4.87-50.74,7.42-1.71.26-2.99.72-3.35-1.51,3.19-16.56,16.57-28.88,34.38-30.55,14-1.31,30.3,5.15,37.41,21.28Z"/>
  <path class="cls-10" d="M943.53,466.4c-13.83.02-27.66.05-41.49.07-1.36-1.3-3.4-2.57-1.97-4.73,1.34-2.02,3.17-.27,4.67.18,33.93,10.14,67.91-11.72,73.72-46.38,4.94-29.48-15.41-61.18-48.38-65.4-8.11-1.04-16.44-.93-24.54,1.69-1.49.48-4.59,3.28-5.69-.48-.89-3.07,2.08-3.64,4.27-4.27,18.05-5.2,35.19-3.51,51.15,6.88,18.9,12.31,29.43,30.02,29.5,52.26.07,23.56-10.55,42.35-31.25,54.71-3.26,1.94-6.66,3.65-9.99,5.47Z"/>
  <path class="cls-113" d="M679.07,195.22c14.66-2.3,29.32-4.64,43.99-6.86,1.54-.23,3.02-.4,4.36-1.21-.71,6.24,2.3,8.88,8.36,9.38,4.62.38,8.74,1.56,9.7,7.62.6,3.79.38,4.45-3.6,4.37-16.06-.34-32.13-.25-48.19-.26-1.1,0-2.2.45-3.3.7q-12.2-.5-11.44-13.17c.01-.19.07-.38.11-.56Z"/>
  <path class="cls-99" d="M890.6,290.08c9.62,5.14,17.22,12.1,18.94,23.42.82,5.41.36,11.02.53,16.53.06,1.97-.71,4.42,2.39,4.97-.31.23-.59.58-.93.66-11.95,2.72-11.99,2.72-11.92-9.5.03-5.97-.11-11.9-2.67-17.46-4.02-8.76-10.97-13.01-20.53-13.08-6.35-.05-12.7.1-19.05-.07-2.06-.06-5.48,1.41-5.85-1.75-.44-3.78-2.08-8.28,1.3-11.49,5.36-5.09,9.53-4.59,14.39,1.16q9.37,11.08,23.38,6.63Z"/>
  <path class="cls-20" d="M958.52,466.5c-.37,0-.73.03-1.09.12-1.91,0-3.82,0-7.63,0,7.76-4.97,14.03-9.05,19.35-14.52,28.59-29.4,21.77-80.03-13.47-100.87-15.92-9.41-32.45-11.81-50.27-7.38-1.61.4-4.46,2.8-5.38-.17-1.08-3.51,2.36-3.63,4.74-4.11,21.05-4.26,40.79-1.64,58.33,11.55,35.32,26.57,36.46,75.29,8.91,103.81-4.15,4.29-8.63,8.15-13.5,11.58Z"/>
  <path class="cls-64" d="M792.64,208.79c-4.41-.53-5.06-3.23-6.08-5.37-12.9-27.04,4.48-61.96,33.86-68.12,27.78-5.82,53.74,9.86,60.07,36.7,4.82,20.47-3.7,44.37-24.15,54.62-.52.26-1,.61-1.54.79-1.31.45-2.92,2.2-3.89,0-.77-1.74,1.28-2.07,2.37-2.58,6.96-3.26,12.21-8.35,16.86-14.42,12.61-16.45,10.96-42.74-3.1-57.87-8.73-9.39-19.23-14.94-31.57-15.88-22.19-1.69-43.47,13.46-48.9,35.53-3.08,12.53-1.07,24.62,6.08,36.6Z"/>
  <path class="cls-91" d="M848.87,222.79c15.37-10.26,26.06-23.01,24.17-42.64-.9-9.35-3.83-17.94-10.47-24.94-14.24-15.01-36.31-17.58-53.51-6.2-18.95,12.53-22.89,32.02-11.75,58.03-4.91-.41-10.38-12.89-9.56-24.7,1.64-23.5,15.59-41.64,42.35-43.06,22.68-1.2,41.03,11.32,46.21,38.39,3.58,18.7-10.95,42.16-27.44,45.12Z"/>
  <path class="cls-103" d="M973.55,457.26c4.28,2.66,9.25.66,13.88,2.31,14.11,5.03,21.83,15.19,21.96,30.17-2.7,2.89-5.4,5.77-8.19,8.76-2.12-2.22-.14-5.03-2.14-6.67-.08-1.47-.16-2.94-.23-4.41-3.01-4.08-5.4-8.52-7.79-12.97-3.12-3.57-7.38-5.18-11.64-6.77-4.79-2.59-10.05-.17-15.55-1.55,3.39-3.09,6.55-5.98,9.7-8.86Z"/>
  <path class="cls-47" d="M860.42,227.57c2.32,10.16.82,20.45,1,30.68.05,3.13,1.1,4.88,3.6,6.19-3.37-.34-6.44.83-9.53,1.89-2.86.98-4.4.26-4.37-3.06.08-9.43-.16-18.86.13-28.28.17-5.61,6.06-4.98,9.17-7.41Z"/>
  <path class="cls-105" d="M747.27,199.82c11.56.59,23.12,2.41,34.69.01,4.22,8.61,4.22,8.37-4.8,8.26-6.66-.08-13.33-.56-20.01.68-7.58,1.41-8.5.32-9.88-8.96Z"/>
  <path class="cls-26" d="M1000.36,515.04c3.99,7.1,4,7.64,0,10.7v-10.7Z"/>
  <path class="cls-139" d="M582.04,483.85c-3.23-4.81-5.77-10.23-11.53-12.74-3.31-.39-6.37-1.44-8.99-3.57-2.29-1.49-4.87-.88-7.31-.88-103.55-.05-207.09-.11-310.64.05-5.46,0-7.47-1.06-6.99-6.82.31-3.78,1.45-7.94-1.03-11.6-9.6-.17-19.21-.3-28.81-.53-2.64-.06-3.99.88-3.8,3.66.09,1.34-.02,2.69.04,4.04.31,7.6.71,14.37-7.61,19.56-6.94,4.33-8,13.1-8,21.28.02,34.43-.03,68.86-.04,103.29,0,5.99-.47,6.38-6.05,3.88-12.17-5.46-16.99-15.33-16.97-28.24.07-42.7.04-85.4.03-128.11-.02-109.64-.04-219.28-.06-328.92,0-5-.15-10.03,1.16-14.91,3.51-13.17,14.6-21.47,29.22-21.48,80.63-.07,161.26-.05,241.89-.05,67.93,0,135.86,0,203.79.03,4.6,0,9.26-.41,13.79.74,11.88,2.99,21.27,13.19,21.63,25.51.65,21.9.36,43.83.46,65.75.04,9.42-.14,18.85.22,28.26.18,4.73-.63,6.49-6.12,6.48-59.46-.16-118.92.01-178.38.14-5.38.01-10.75.31-16.13.47-13.17,1.03-23.03,11.99-23.11,26.23-.14,26.33-.05,52.66-.06,78.98,0,31.13.3,62.27-.17,93.4-.19,12.83,4.23,22.34,15.23,28.83,7.68,7.26,16.7,9.86,27.33,9.8,55.74-.31,111.49-.14,167.23-.14,2.11,0,4.23-.04,6.34.03,7.17.22,7.66.59,7.5,7.49-.09,4.17.77,8.41-.6,12.52-14.15.12-28.3.24-42.45.34-16.22.12-25.92,8.13-29.25,24.18-.6,1.27-.41,2.63-.41,3.96,0,35.08,0,70.15,0,105.23,0,1.33-.2,2.69.43,3.96.14.36.11.7-.08,1.03-.48.3-.92.61-1.55.65-9.93.64-10.37.27-10.39-9.75-.03-25.87-.23-51.75.08-77.61.15-12.59-1.09-24.49-9.86-34.4Z"/>
  <path class="cls-53" d="M220.53,652.36c-7.24.37-7.2.37-7.19-6.73.04-37.11.07-74.21.05-111.32,0-1.84.65-3.87-.91-5.49-6.84-4.97-7.41-11.91-7.21-19.73.45-17.83.29-35.67.04-53.5-.06-4.37,1.18-5.66,5.47-5.34,5.53.41,11.12.17,16.68.2,3.04,6.85,3.5,14.24,2.81,21.4-1.35,14.02-.76,28.03-.89,42.05-.04,4.81-.83,9.13-4.33,12.69-3.02,3.07-2.64,7.05-2.64,10.88-.02,35.17,0,70.35-.04,105.52,0,3.21.56,6.6-1.83,9.38Z"/>
  <path class="cls-139" d="M203.02,471.83c0,15.99.14,30.55-.09,45.11-.06,4.2.91,7.51,4.33,10,2.69,1.97,3.63,4.56,3.61,7.95-.18,27.84-.2,55.68-.3,83.52-.02,5.78-1.13,6.52-6.27,3.85-8.63-4.48-14.09-11.34-14.12-21.4-.1-35.92-.09-71.83,0-107.75.02-8.92,4.4-15.54,12.83-21.3Z"/>
  <path class="cls-25" d="M220.53,652.36c0-39.39.05-78.79-.06-118.18-.01-3.89.49-7.2,3.81-9.61,2.77-2.01,3.31-4.81,3.27-8.11-.15-11.34-.99-22.77.21-33.98,1.16-10.8-.3-21.37-.3-32.04,2.45.41,5.85-2.19,7.05,2.22-.07,21.16-.23,42.32-.13,63.48.02,3.94-.59,7.2-3.96,9.53-3.33,2.31-4.17,5.47-4.16,9.46.13,37.13.02,74.26.19,111.39.02,4.56-.7,7.16-5.92,5.85Z"/>
  <path class="cls-139" d="M997.71,493.47c0,3.21,0,6.42.01,9.63-.89,2.03-.46,4.17-.46,6.26-.03,29.79-.01,59.58-.04,89.37,0,2.1.36,4.23-.36,6.29-3.05,9.9-8.76,16.99-19.64,18.65-.35.17-.7.34-1.07.37-13.28.78-13.58.83-15.76-12.08-2.55-15.07-10.74-26.67-21.33-36.98-.41-.36-.82-.72-1.22-1.08.79-3.5,3.75-2.69,6-2.78,6.34-.25,12.69-.07,19.03-.1,1.54,0,3.09.04,4.6-.3,1.3-.29,2.86-.52,2.96-2.22.11-1.97-1.53-2.44-3.04-2.87-1.12-.31-2.28-.38-3.43-.36-8.64.15-17.3-.61-25.9.85-4.93.83-9.96-.7-14.9.39-1.23.27-2.95.06-2.98,1.96-.03,1.36,1.19,1.99,2.3,2.22,4.25.89,4.5,3.89,4.38,7.44-.35,10.93.45,21.88-.42,32.81-.67,5.34-4.82,6.28-8.9,6.29-13.65.01-27.3-.35-40.95-.57-1.86-2.06-1.62-4.62-1.64-7.09-.05-7.85,0-15.71-.02-23.56q0-6.96-6.45-6.32c.02-2.3.04-4.59.06-6.89,1.23-1.47,3.05-1.32,4.68-1.7,1.4-.32,2.53-.99,2.51-2.6-.02-1.76-1.11-2.87-2.72-3.16-4.17-.75-7.92-.11-10.34,3.89-15.27,13.2-22.99,29.6-20.72,49.98.51,4.55-.91,5.4-5.18,5.39-67.92-.14-135.84-.09-203.76-.12-16.56,0-26.53-9.91-26.58-26.58-.1-34.04-.07-68.08-.05-102.12.01-16.33,10.33-26.69,26.65-26.7,81.19,0,162.39.03,243.58.04,30.59,0,61.18-.01,91.78-.13,7.9-.03,15.06,1.82,21.27,6.84,5.23,2.55,7.03,7.19,7.59,12.55.18,1.7-.27,3.46.47,5.11Z"/>
  <path class="cls-139" d="M569.03,472.49c8.92,6.61,12.12,15.41,11.99,26.5-.42,33.43-.11,66.87-.2,100.31-.04,12.76-7.3,21.68-19.4,24.36-2.05.82-4.18.42-6.28.42-104.38.02-208.77.02-313.15.02-7.45,0-7.4,0-7.25-7.71.21-11.34.03-22.67.1-34.01.02-2.87-.21-5.78.79-8.55,1.53-2.94,4.4-2.58,7.01-2.68,4.76-.18,9.53.17,14.28-.18,3.23-.24,5.51-1.29,2.48-4.85-5.41-2.05-11-.74-16.49-.95-7.76-.3-7.98-.29-7.9-8.2.04-3.86-.92-7.6-1.09-11.42-.37-7.16,1.13-13.39,8.41-16.73,5.52-1.18,11.12-.44,16.68-.65,1.92-.07,3.86,0,5.73-.52,1.17-.33,2.17-.92,2.13-2.32-.04-1.39-1.08-1.93-2.25-2.22-1.31-.33-2.66-.39-4.01-.41-3.08-.05-6.16.02-9.23-.04-8.18-.16-9.48-1.35-9.56-9.33-.11-11.92-.11-23.85,0-35.77.08-7.99.89-8.69,9.12-8.69,103.31,0,206.61-.02,309.92,0,3.28-.04,6.26.63,8.18,3.65Z"/>
  <path class="cls-18" d="M691.8,466.42c-.02-3.85.26-7.72-.12-11.53-.47-4.68,1.38-5.83,5.86-5.8,26.55.19,53.11.09,79.66.1,17.9,0,35.79.06,53.69-.02,13.97-.06,25.79-8.63,29.85-21.17.8-2.48.83-4.9.83-7.38.03-20.97-.04-41.93.04-62.9.06-14.13-.1-28.27.79-42.4.23-3.67,2.68-1.63,3.95-2.47,9.87,1.86,15.14,8.36,15.15,19.2.05,38.61,0,77.23,0,115.84,0,4.99-.05,9.99.11,14.98.08,2.67-.78,4.03-3.6,3.72-.57-.06-1.15,0-1.73,0-60.54,0-121.08,0-181.61,0-.96,0-1.92-.11-2.87-.17Z"/>
  <path class="cls-18" d="M839.53,648.75c-54.07.04-108.15.09-162.22.1-54.46.01-108.92,0-163.38-.02-1.92,0-3.84-.1-5.76-.15-3.77-1.87-5.52-5.75-8.39-8.52-1.98-1.91-.85-3.42,1.55-4.04,2.07-.54,4.19-.42,6.3-.42,18.22-.02,36.44-.01,54.66,0,9.86,0,17.85-3.68,23.85-11.63,6.49-8.61,13.4-10.42,23.8-6.41,1.55,1.47,3.1,2.93,4.64,4.4,7.93,9.24,17.46,13.81,30.16,13.72,60.13-.42,120.27-.2,180.4-.17,9.02,0,12.27,2.25,14.67,9.9.35,1.12.6,2.24-.27,3.26Z"/>
  <path class="cls-147" d="M839.53,648.75c-1.56-3.05-3.12-6.1-4.67-9.15-1.49-2.94-4.25-2.15-6.64-2.16-45.23-.04-90.46-.03-135.69-.04-18.09,0-36.19.21-54.27-.1-10.81-.18-19-5.21-23.7-15.26,6.04,3.79,12.59,5.01,19.73,4.99,67.65-.17,135.29-.1,202.94-.26,4.31-.01,6.52.84,7.58,5.45,1.02,4.38,3.01,8.67,6.24,12.11,2.31,3.27,2.48,5.22-2.54,4.65-2.96-.34-5.99-.18-8.98-.24Z"/>
  <path class="cls-19" d="M609.92,617.65c-.96.03-1.93.18-2.88.08-8.87-.91-16.16-.12-21.46,9.26-4.43,7.85-13.36,10.42-22.52,10.41-19.24-.02-38.47-.01-57.71-.02-1.82,0-3.65,0-5.63.48,3.93,2.97,6.51,6.64,8.44,10.82-5.49.95-9.56.4-12.1-6-2.39-6.02-7.99-9.57-14.56-10.97-64.88-.22-129.76-.06-194.63-.08-.96,0-1.92.14-2.86-.12-1.5-.07-3.22.27-3.25-2.12-.03-2.2,1.38-2.43,3.05-2.43,2.5,0,5-.04,7.5-.04,86.96,0,173.93-.1,260.89.13,13.03.03,22.85-4.2,28.7-16.12,1.02-2.08,2.48-2.65,4.61-2.55,2.69.13,5.45.44,8.07.01,8.05-1.32,13.65,1.3,16.34,9.26Z"/>
  <path class="cls-50" d="M675.51,466.25c-.49-5.86,2.51-13.42-1.31-17.16-3.54-3.46-10.98-.99-16.7-1-56.28-.07-112.57.02-168.85-.11-8.82-.02-16.64-2.73-20.95-11.43,5.37,1.64,10.84,2.19,16.47,2.18,62.15-.11,124.31-.09,186.46-.25,4.39-.01,5.92.72,5.58,5.67-.51,7.33,1.28,14.77-.7,22.1Z"/>
  <path class="cls-50" d="M582.04,483.85c9.4,5.95,11.43,15.33,11.48,25.41.12,28.61.04,57.22.05,85.82q0,9.96,10.19,9.88c-6.08,2.5-12.39.41-18.58.84-2.63.18-1.93-2.3-1.93-3.91.02-33.63.06-67.26.11-100.89,0-5.75.21-11.51-1.31-17.15Z"/>
  <path class="cls-76" d="M241.3,670.78c-20.14.04-40.28.1-60.43.11-1.42,0-3.15.63-4.03-1.26,4.65-3.41,4.66-10.12.03-13.67,2.66-2.23,5.81-.94,8.7-1.02,8.18-.22,16.37-.11,24.56-.14,11.64,1.15,23.3.14,34.95.54,2.3.08,5.42-1.22,6.49,2.04,1.27,3.87,1.45,7.93-.45,11.73-.7,1.41-2.29,1.07-3.6,1.17-2.08.16-4.22-.46-6.23.5Z"/>
  <path class="cls-143" d="M562.46,469.94c-102.98-.01-205.96-.05-308.93-.01-11.48,0-9.84-1.46-9.93,9.65-.1,12.12.11,24.25-.1,36.36-.07,3.83,1.2,5.1,4.96,4.91,5.18-.26,10.39-.04,15.59-.1,3.32-.04,5.98,1.11,5.94,4.71-.03,3.67-2.84,4.53-6.09,4.53-7.5,0-15.01.11-22.51.18-3.56,1.74-7.19,2.09-10.91.52-.24-.24-.48-.49-.72-.74,7.01-4.14,7.11-10.71,6.95-17.86-.33-14.4-.03-28.82.02-43.23,1.99-1.1,4.15-.56,6.22-.56,104.35-.03,208.71-.04,313.06.07,2.09,0,5.04-1.87,6.45,1.57Z"/>
  <path class="cls-141" d="M235.51,545.03c.77,5.27,1.76,10.56,1,15.89-.42,2.95,1.37,2.56,3.05,2.57,5.35.02,10.7-.04,16.04.03,1.84.02,3.87-.6,5.39,1.11-2.37,2.29-5.38,1.5-8.16,1.59-4,.14-8.02-.06-12.02.07-6.13.2-6.66,1.16-3.95,6.63-.77,16.13.61,32.3-.73,48.42-.13,1.56.6,2.09,1.91,2.16,1.54.08,3.08.05,4.62.05,104.91,0,209.81-.02,314.72-.02,1.34,0,2.69.08,4.03.13-2.06,1.53-4.46.96-6.71.96-104.91.05-209.82.08-314.72.09-11.12,0-11.14-.05-11.16-11.34-.03-25.78-.06-51.56-.03-77.34,0-2.04-.68-4.27.97-6.08,0,0,.07.46.07.46.93.78,1.42,1.9,1.29,2.99-.57,4.68,1.58,8.26,4.39,11.63Z"/>
  <path class="cls-11" d="M244.98,652.52c-4.77-.75-12.06,2.54-15.21-1.37-2.66-3.31-.81-10.26-.94-15.59-.04-1.53.11-3.08-.02-4.6-.25-2.91.82-4.13,3.89-4.08,8.82.13,17.65.12,26.48-.03,3.05-.05,4.03,1.13,3.95,4.06-.16,5.94-.18,11.89-.04,17.83.08,3.16-1.41,3.91-4.21,3.82-4.41-.14-8.82-.04-13.91-.04Z"/>
  <path class="cls-29" d="M240.05,692.89h-57.14c1.19-2.27,2.13-4.07,3.06-5.87.66-1.04.62-2.23.48-3.35-.47-3.87,1.71-5.08,5.05-5.27,3.06-.17,6.13-.11,9.2-.11,11.69,0,23.38-.05,35.07.02,7.36.05,12.38,5.51,11.9,12.69-.11,1.69-.95,2.4-2.54,2.34-1.7-.06-3.45.37-5.09-.45Z"/>
  <path class="cls-155" d="M240.05,692.89c1.53-.04,3.06-.07,4.6-.14.98-.05,2.49-.63,1.89-1.42-2.42-3.18-1.97-7.42-3.94-10.46-1.26-1.94-4.68-.72-7.12-.74-13.03-.07-26.07.23-39.09-.16-5.64-.17-9.98.18-10.41,7.05-.16-4.54.84-9.3-3.81-13.58h73.59c-2.9,6.28-4.95,12.41.72,18.09,1.1,1.1.41,2.34-1.09,2.26-5.12-.27-10.34,1.11-15.35-.91Z"/>
  <path class="cls-150" d="M176.79,696.39c1.46,0,2.92-.02,4.38-.03.03,32.83-.04,65.65.18,98.48.05,7.57.35,15.27,4.12,22.25.15.28-.39.94-.6,1.42-5.11-6.14-8.02-13.4-8.08-21.18-.25-33.65-.05-67.3,0-100.95Z"/>
  <path class="cls-77" d="M926.41,610.93c-.08-11.14-.26-22.28-.2-33.42.02-3.19-.42-5.16-4.3-4.88-2.91.21-4.83-1.51-4.77-4.52.07-3.52,2.83-3.55,5.42-3.6,13.82-.28,27.63-.58,41.45-.86,1.54-.03,3.1-.12,4.61.12,2.75.44,4.86,2.03,4.68,4.92-.18,2.91-2.36,4.12-5.28,4.1-8.27-.04-16.54-.04-24.8.05-1.83.02-3.89-.77-5.4,1.04-1.89-1.6-3.69-3.31-5.7-4.75-1.29-.93-2.65-2.64-4.53-1.32-1.52,1.06-.74,2.69-.72,4.21.15,12.45.17,24.9.19,37.35,0,.52-.42,1.04-.65,1.56Z"/>
  <path class="cls-137" d="M284.01,631.51c2.19-1.02,4.52-.75,6.81-.75,60.92-.02,121.85-.04,182.77-.02,2.66,0,5.41-.42,7.91.97-5.96,2.19-12.12.47-18.17.94-3.25.25-6.53.21-9.79.3-39.83,0-79.67,0-119.5,0-14.7-.08-29.41-.14-44.11-.29-2-.02-4.25.79-5.92-1.14Z"/>
  <path class="cls-106" d="M562.46,469.94c-1.79-1.59-3.99-1.18-6.06-1.18-106.55.02-213.11.06-319.66.1,2.1-2.07,4.75-1.12,7.13-1.12,103.58-.05,207.16-.04,310.74-.04,2.3,0,4.61-.11,6.91-.16,3.41.16,6.41,1.33,8.99,3.57-.49.46-.98.93-1.47,1.39-2.19-.85-4.38-1.7-6.58-2.56Z"/>
  <path class="cls-144" d="M939.05,574.97c11.68,7.34,17.98,18.5,21.72,31.28,1.33,4.55,1.83,9.37,2.34,14.11.28,2.6,1.49,3.19,3.73,3.17,3.46-.03,6.92.09,10.38.14-7.34,2-14.82.53-22.23.83-2.64.11-2.46-2.03-2.16-3.7,3.24-17.64-3.72-32.19-13.78-45.82Z"/>
  <path class="cls-107" d="M862.64,653.6c-4.2-2.84-6.78-7.2-10.14-10.83-8.44-14.5-11-29.78-5.77-45.94,3.26-10.05,8.85-18.58,17.84-25.36,1.01,2.25.61,4.07.42,5.87-5.99,2.76-8.8,8.38-11.25,13.8-9.89,21.95-7.29,42.31,8.82,60.59.54.61.98,1.21.07,1.88Z"/>
  <path class="cls-96" d="M868.45,579.67c2.54-1.13,4.78-4.93,7.12-3.69,2.42,1.28.87,5.24.9,8,.14,10.89.07,21.77.08,32.66-5.52.37-8.21-2.3-8.21-7.75.01-9.74.06-19.48.1-29.23Z"/>
  <path class="cls-73" d="M241.3,670.78c1.2-1.32,2.82-1.19,4.29-1.01,4.23.53,5.16-1.51,5.05-5.33-.29-9.96.71-8.47-8.66-8.56-8.8-.08-17.59-.01-26.39-.08-1.85-.01-3.87.56-5.45-1.01,16.26-.02,32.53.03,48.79-.1,3.24-.03,4.23,1.1,4.35,4.31.45,11.83.56,11.84-11.07,11.89-3.63.01-7.27-.07-10.9-.11Z"/>
  <path class="cls-50" d="M603.83,603.93c-1.53-1.62-.97-3.64-.97-5.5-.03-34.05-.03-68.09,0-102.14,0-1.86-.56-3.88.95-5.51,0,37.72.01,75.44.02,113.15Z"/>
  <path class="cls-6" d="M996.86,605.02c.07-31.7.14-63.4.24-95.11,0-2.27-.47-4.62.62-6.81.04,32.72.09,65.45.13,98.17,0,1.33.13,2.71-.99,3.75Z"/>
  <path class="cls-142" d="M263.02,683.66c0,.76.1,1.54-.02,2.29-.34,2.11,1.42,5.54-1.07,6.07-2.64.56-4.35-2.57-5.62-4.97-1.11-2.11-1.51-4.38-.7-6.65.98-2.75,2.53-6.08,5.54-5.78,3.51.35,1.16,4.05,1.75,6.19.25.89.04,1.9.04,2.85h.08Z"/>
  <path class="cls-117" d="M266.65,642.06c0-3.61.27-6.26-.06-8.83-.66-5.14,1.42-7.05,6.41-6.24,1.61.26,3.71-.4,4.04,2.07.24,1.85.59,3.82-1.19,5.29-2.77,2.29-5.5,4.61-9.2,7.71Z"/>
  <path class="cls-7" d="M862.64,569.22c1.44-5.2,9.65-7.75,13.65-4.28,1.5,1.3,1.74,2.92,1.47,4.68-.3,1.96-1.55,3.05-3.51,3.14-1.91.09-3.82.03-5.74.03.18-4.7-1.78-5.9-5.87-3.57Z"/>
  <path class="cls-132" d="M176.88,655.96c3.14-.32,5.72-.17,4.5,4.26-.33,1.21-.24,2.75.21,3.92,1.96,5.01-.28,6.16-4.75,5.5.01-4.56.02-9.11.03-13.67Z"/>
  <path class="cls-6" d="M997.71,493.47c-.91-6.69-3.25-12.74-8.05-17.66.46-.46.92-.91,1.39-1.37,4.48,3.19,6.61,7.79,7.79,12.97-1.75,1.77-.6,4.07-1.12,6.06Z"/>
  <path class="cls-151" d="M749.87,804.63c-6.25,1.34-5.91-1.3-4.34-5.78,8.38-23.84,16.51-47.76,24.73-71.66,1.62-4.7,7.98-7.39,12.43-5.16,2.93,1.47,1.04,3.68.42,5.47-5.98,17.38-12.05,34.73-18.09,52.08-2.2,6.33-4.64,12.59-6.51,19.01-1.38,4.74-3.47,7.66-8.64,6.04Z"/>
  <path class="cls-124" d="M789.74,785.72c-5.82-14.99,6.99-17.05,15.16-22.67-2.1-2.85-5.15-3.74-7.61-5.23-9.55-5.78-9.67-5.8-7.85-18.5,8.94,5.22,17.79,10.1,26.31,15.49,4.08,2.58,11.28,3.92,11.2,8.49-.07,3.86-7.31,5.21-11.34,7.68-8.46,5.18-17.23,9.86-25.86,14.74Z"/>
  <path class="cls-124" d="M724.66,762.73c3.68,2.14,6.28,3.73,8.94,5.18,8.15,4.43,9.1,6.47,7.81,15.57-.41,2.87-1.39,2.5-3.31,1.35-10.67-6.4-21.37-12.77-32.13-19.02-3.49-2.03-4.02-3.57-.12-5.79,10.48-5.98,20.87-12.11,31.26-18.23,2.92-1.72,4.12-1.61,4.39,2.38.41,6.05-.28,10.8-7,13.04-3.17,1.06-5.95,3.29-9.84,5.52Z"/>
  <path class="cls-72" d="M381.67,814.29c-27.71,0-55.42.03-83.13-.01-13.78-.02-21.55-7.64-21.59-21.31-.07-30.01-.08-60.01.02-90.02.05-14.11,7.74-21.59,21.9-21.59,55.23-.02,110.46-.03,165.68-.01,13.64,0,21.53,7.84,21.55,21.42.04,30.2.04,60.4-.01,90.6-.02,13.03-7.78,20.88-20.71,20.91-27.9.06-55.81.02-83.71.02Z"/>
  <path class="cls-136" d="M486.15,653.82c-.09,5.62-4.76,10.05-10.44,9.92-5.59-.13-10.2-4.76-10.23-10.29-.03-5.5,4.68-10.22,10.21-10.23,5.8,0,10.56,4.82,10.46,10.61Z"/>
  <path class="cls-62" d="M431.41,653.69c-.06,5.53-4.78,10.13-10.37,10.11-5.57-.02-10.13-4.59-10.18-10.22-.06-6.03,4.56-10.56,10.53-10.34,5.67.21,10.08,4.81,10.03,10.45Z"/>
  <path class="cls-135" d="M448.13,643.14c5.63-.12,10.25,4.35,10.39,10.06.13,5.66-4.4,10.45-9.95,10.52-5.63.07-10.33-4.43-10.5-10.07-.17-5.46,4.55-10.38,10.07-10.5Z"/>
  <path class="cls-13" d="M898.25,625.92c4.41,0,8.83-.03,13.24,0,3.81.03,5.37,1.61,5.03,5.76-.45,5.47.58,10.97-.35,16.54-.59,3.56-1.92,5.22-5.39,5.22-8.83.02-17.65,0-26.48.02-3.52,0-5.39-1.64-5.39-5.21,0-5.75.05-11.51.06-17.26,0-3.66,1.98-5.12,5.46-5.08,4.6.05,9.21.01,13.82.01Z"/>
  <path class="cls-21" d="M873.22,825.47c-5.52-6.72-7.69-14.42-6.91-23.05,3.73-41.24,7.53-82.47,11.01-123.72.49-5.78,3.11-12.37-2.95-17.21,5.68.48,8.31,3.77,7.81,9.13-1.21,12.75-2.19,25.52-3.34,38.28-1.84,20.56-3.78,41.12-5.57,61.69-.95,10.86-1.74,21.74-2.44,32.63-.43,6.74-.23,13.46,2.73,19.76.45.95.65,1.79-.35,2.51Z"/>
  <path class="cls-35" d="M896.91,781.76c-16.46-.17-15.39,2.68-14.39-15.18,1.61-28.72,4.52-57.37,5.75-86.12.27-6.39,3.72-9.67,9.19-9.6,4.98.06,8.75,3.41,9.09,8.56,2.01,30.06,4.05,60.11,5.81,90.18.71,12.15.41,12.17-11.99,12.17-1.15,0-2.31,0-3.46,0Z"/>
  <path class="cls-24" d="M897.46,828.02c-11.37-.1-19.79-8.44-19.77-19.57.02-10.86,9-19.84,19.79-19.77,11.21.07,19.75,8.99,19.58,20.45-.16,11.01-8.44,19-19.6,18.9Z"/>
  <path class="cls-59" d="M841,704.34c-2.79-11.77-8.37-16.35-20.14-16.35-36.95-.01-73.9,0-110.86.02-11.73,0-17.16,4.02-20.74,15.19-.83,4.39-.62,8.85-.28,13.21.39,4.99-1.55,6.09-6.19,5.91-9.42-.35-18.86-.1-28.29-.1-46,0-91.99-.05-137.99.08-4.25.01-6.66-1.02-6.71-5.57-.16-14.81-.18-29.62-.02-44.42,0-.6.35-1.09.57-1.62,2.06-.73,4.19-.37,6.29-.37,113.07-.02,226.14-.02,339.22-.02,8.46,0,8.59.43,8.06,8.8-.69,10.94-2.4,21.77-2.95,32.71-.49,9.73-1.33,10.4-10.7,10.4-8.93,0-8.88,0-8.95-8.7-.02-3.06.41-6.15-.33-9.18Z"/>
  <path class="cls-12" d="M647.72,745.98c7.29,19.38,14.51,38.78,21.93,58.11,1.29,3.35.77,4.25-2.88,4.25-50.17-.12-100.35-.13-150.52-.17-1.91-2-1.89-4.55-1.9-7.05-.07-15.76-.13-31.53.01-47.29.07-8.52,1.34-9.77,9.73-9.79,38.47-.08,76.93-.04,115.4-.03,2.9,0,5.8,0,8.24,1.97Z"/>
  <path class="cls-57" d="M679.17,652.45c57.53,0,115.06.04,172.58-.08,3.98,0,7.01.95,9.61,3.96,2.94,3.41,7.4,4.76,10.87,7.47.7.54,1.58,1.57,1.48,2.25-.22,1.5-1.73,1.15-2.82,1.15-116.87.02-233.74.02-350.6.04-4.23,0-8.44.01-12.62-.86-2.36-.49-6.06,1.2-6.91-1.19-1.15-3.27-.65-7.17-.57-10.79.05-2.15,1.97-1.98,3.49-1.99,4.23-.05,8.46-.08,12.7-.08,54.26,0,108.52,0,162.77,0v.13Z"/>
  <path class="cls-79" d="M647.72,745.98c-42.12-.03-84.23,0-126.35-.15-4.04-.01-5.29,1.22-5.25,5.25.19,19.03.1,38.06.12,57.09-16.24.46-16.08.45-16.3-15.34-.09-6.62.9-12.74,3.45-18.96,5.88-14.36,11.11-28.98,16.49-43.54,1.04-2.83,2.32-4.17,5.71-4.16,36.9.14,73.81.12,110.71.01,3.22,0,4.9,1.02,5.87,4.09,1.68,5.29,3.68,10.48,5.55,15.71Z"/>
  <path class="cls-2" d="M689.21,767.58c0,11.73-.16,23.46.09,35.18.09,4.13-.88,5.42-5.34,5.69-6.59.39-9.7-1.68-11.96-8.1-8.16-23.16-16.92-46.12-25.75-69.04-1.78-4.63-.71-5.33,3.79-5.22,11.34.29,22.7.28,34.04.05,3.96-.08,5.33.99,5.25,5.12-.26,12.11-.09,24.22-.09,36.33h-.02Z"/>
  <path class="cls-80" d="M841,704.34c2.02,4.21.76,8.68.88,13.02.08,3.22,1.13,4.25,4.36,4.37,12.18.45,12.54-.19,13.11-12.79.48-10.66,1.91-21.28,3.1-31.9.41-3.64.75-6.2-4.45-6.2-115.77.13-231.54.13-347.31.16-3.47,2.21-6.91,2.26-10.33-.12,1.56-1.73,3.62-.93,5.43-.93,121.24-.05,242.49-.03,363.73-.14,4.96,0,5.98,1.18,5.35,6.23-1.73,13.9-2.86,27.89-3.77,41.87-.27,4.19-1.75,5.12-5.55,4.97-6.73-.26-13.47-.25-20.2,0-3.63.13-4.72-1.23-4.52-4.69.26-4.6.13-9.22.17-13.84Z"/>
  <path class="cls-110" d="M500.35,670.88c3.44.04,6.88.08,10.33.12,1.82,5.25.75,10.68.86,16.01.19,9.22.37,18.47-.07,27.68-.26,5.48,1.29,7.13,6.94,7.11,50.39-.22,100.78-.12,151.17-.15,5.76,0,12.74,1.8,16.95-.8,4.48-2.77.95-10.26,1.83-15.6.12-.71.6-1.36.91-2.04.01,5-.27,10.02.12,14.98.37,4.69-2.16,4.7-5.61,4.7-32.12-.07-64.23,0-96.35-.01-26.92,0-53.85-.24-80.77.06-5.78.07-6.97-1.7-6.79-7.11.49-14.97.37-29.96.49-44.94Z"/>
  <path class="cls-3" d="M517.58,726.2c-5.81,15.34-11.21,29.59-16.61,43.85l-.92-.05c0-6.3.01-12.6,0-18.9-.02-6.9.07-13.81-.16-20.7-.11-3.28,1.03-4.42,4.27-4.25,4.19.22,8.4.05,13.42.05Z"/>
  <path class="cls-33" d="M199.89,758c0,15.19-.04,30.37.02,45.56.02,4.62-1.28,8.03-6.59,8.22-3.88.14-6.45-1.63-6.38-5.7.47-26.49-2.35-52.96-.21-79.46.38-4.78.26-9.61.05-14.41-.21-4.75,1.5-8.02,6.35-8.67,3.97-.54,6.68,3.22,6.7,8.9.05,15.19.02,30.37.02,45.56h.05Z"/>
  <path class="cls-146" d="M213.43,757.76c0-15,.11-29.99-.05-44.99-.05-4.82,1.09-8.56,6.39-9.22,3.93-.49,6.57,3.23,6.59,9.03.07,30.38.04,60.76.12,91.13.01,4.54-.81,8.1-6.43,8.13-5.5.03-6.68-3.27-6.66-7.94.08-15.38.03-30.76.04-46.14Z"/>
  <path class="cls-78" d="M250.57,704.49c1.9,2.11,2.45,4.55,2.44,7.4-.09,30.57-.09,61.14-.04,91.71,0,4.45-.47,8.4-6.23,8.13-5.11-.25-6.64-3.55-6.64-8.24.02-31.53-.05-63.06-.09-94.59,1.68-5.85,6.23-4.85,10.55-4.4Z"/>
  <path class="cls-75" d="M639.78,349.01c-2.71.87-5.33-1.4-8.05-.23-1.59-2.77-4.07-3.91-7.19-3.93-23.21-.12-46.42-.1-69.63,0-1.33,0-2.7.06-4.18,1.36,1.91,2.53,4.69,1.87,7.09,1.88,21.29.07,42.59,0,63.88.07,3,0,6.2-.63,8.82,1.61-3.43,1.79-6.9,1.75-10.81,1.62-14.8-.5-29.63-.21-44.44-.17-8.84.02-17.73,1.16-26.49-.44-2.63-.48-4.93-.54-7.2.49-5.43,2.46-10.86-.26-16.32.09-4.14.26-8.31-.55-12.52.57-2.17.57-4.61.46-6.89.22-6.02-.65-8.19-4.54-5.54-10,.81-1.68.8-3.31.93-5.01,2.09-1.81,4.66-1.59,7.14-1.58,8.65.02,17.3-.17,25.94.11,1.61.05,3.41.7,4.68-.85-.27-1.08-.99-1.39-1.74-1.43-10.18-.48-20.36-.34-30.54-.09-2.66.07-3.89,2.21-5.45,3.86-1.3-.75-2.32-2.26-1.64-3.31,3.01-4.68-.88-8.74-.91-13.13-.02-3.09-2.92-3.84-5.41-4.18-2.27-.31-4.62-.23-6.92-.09-3.81.24-6.27-2.03-6.54-5.16-.3-3.44,2.85-5.51,6-5.71,7.51-.49,15.25-2.61,22.35,2.02.53.34,1.6.41,2.14.1,8.08-4.49,17.35-4.08,25.26-2.32,10.58,2.36,20.59-2.34,31.05.2,3.75.91,8.87.66,13.36-.18,5.76-1.07,9.56,2.31,9.21,8.22-.23,3.9,2.19,4.28,4.76,3.88,14.16-2.25,28.39-.74,42.58-.95,4.94-.07,10.3-.96,14.78,2.54.46.36,1.53.38,2.1.11,8.63-4.18,17.29-4.14,26-.31.95.42,1.85.45,2.75-.06,8.67-4.87,18.05-1.59,27.08-2.27,3.68-.28,5.48,2.9,6.1,5.93.67,3.25-2.18,5.04-4.74,5.4-9.1,1.3-18.37,3.98-27.11-1.57-1.18-.75-2.59-1.05-3.74,0-1.04.96-.35,2.09.04,3.17.57,1.61,1.3,3.23,1.49,4.9.44,3.9,2.71,5.16,6.3,5.12,6.35-.06,12.7-.15,19.05.04,3.47.1,7.07.61,6.11,5.7-21.7-1.13-43.42-.28-65.12-.51-3.36-.03-6.68.16-7.87,4.22Z"/>
  <path class="cls-1" d="M630.52,349.78c-25.73.02-51.46.04-77.2.03-2.36,0-5.52.81-5.74-2.96-.22-3.96,2.84-3.86,5.62-3.86,24.39.01,48.78,0,73.16.06,3.65,0,7.53.14,5.36,5.74-.4.33-.81.67-1.21,1Z"/>
  <path class="cls-138" d="M589.54,289.94c-13.46,0-26.93,0-40.39,0-1.15,0-2.31-.05-3.46-.01-2.11.06-3.41-1.11-3.57-3-.19-2.23,1.55-2.86,3.46-2.89,3.46-.04,6.92-.04,10.39-.04,24.24,0,48.47.02,72.71.03,1.15,0,2.31-.01,3.46,0,2.32.04,5.12-.18,4.97,3.18-.13,2.94-2.75,2.68-4.86,2.68-10.58.02-21.16.02-31.74.03-3.65,0-7.31,0-10.96,0Z"/>
  <path class="cls-4" d="M735.42,398.36c-11.16,0-22.32-.01-33.48,0-2.77,0-6.18.06-6.15-3.45.03-3.52,3.5-3.36,6.23-3.36,22.51.01,45.02.01,67.53.02.77,0,1.55-.03,2.31.06,2.1.25,3.85,1.26,3.95,3.47.12,2.56-2.15,3.02-4.04,3.11-3.84.2-7.69.11-11.54.11-8.27,0-16.55,0-24.82,0v.02Z"/>
  <path class="cls-1" d="M639.78,349.01c-2.43-3.9-.76-5.93,3.25-5.95,21.81-.12,43.62-.04,65.43-.06,1.91,0,3.31.71,4.32,2.3.05,2.84-1.57,4.41-4.19,4.4-22.56-.11-45.14.7-67.69-.4-.37-.02-.74-.18-1.11-.28Z"/>
  <path class="cls-1" d="M547.4,405.41c6.54,0,13.08,0,19.61,0,2.28,0,4.43.35,4.52,3.2.1,3.16-2.14,3.65-4.69,3.64-12.88-.01-25.77,0-38.65,0-2.46,0-4.98-.23-4.9-3.41.08-3.1,2.73-3.37,5.07-3.4,6.34-.08,12.69-.03,19.04-.03Z"/>
  <path class="cls-126" d="M518.49,391.57c6.14,0,12.28,0,18.42-.01,2.66,0,5.54.42,5.38,3.64-.14,2.72-2.86,3.14-5.33,3.14-12.67-.02-25.33,0-38,0-2.53,0-4.79-.46-4.63-3.67.14-2.88,2.34-3.1,4.58-3.1,6.53,0,13.05,0,19.58,0Z"/>
  <path class="cls-94" d="M600.14,398.36c-6.34,0-12.67-.02-19.01,0-2.25,0-4.53-.24-4.7-3.01-.2-3.17,2.37-3.69,4.73-3.71,12.87-.1,25.73-.09,38.6-.09,2.34,0,4.49.93,4.48,3.43,0,2.5-2.16,3.38-4.51,3.38-6.53.01-13.06,0-19.59,0Z"/>
  <path class="cls-38" d="M614.21,277.24c-7.28,0-14.56,0-21.83,0-1.99,0-4.17-.14-4.3-2.68-.15-2.94,2.18-3.17,4.39-3.17,14.56-.02,29.11-.03,43.67-.03,2.18,0,4.63.05,4.58,2.98-.04,2.9-2.51,2.92-4.67,2.92-7.28.01-14.56,0-21.83,0v-.02Z"/>
  <path class="cls-1" d="M671.54,398.33c-4.8,0-9.59-.02-14.39,0-2.3.01-4.41-.4-4.53-3.2-.14-3.23,2.21-3.57,4.7-3.57,9.59,0,19.19,0,28.78,0,2.29,0,4.4.39,4.51,3.21.12,3.21-2.18,3.6-4.69,3.6-4.8-.01-9.59,0-14.39,0v-.05Z"/>
  <path class="cls-149" d="M514.46,289.93c-5.37,0-10.75,0-16.12,0-1.98,0-3.97.03-4.11-2.76-.13-2.67,1.5-3.18,3.68-3.18,11.13.02,22.27.02,33.4,0,1.93,0,3.69.57,3.76,2.66.08,2.36-1.84,3.22-3.91,3.25-5.57.08-11.13.03-16.7.02Z"/>
  <path class="cls-138" d="M514.56,277.25c-5.58,0-11.15-.01-16.73.02-2.26.01-3.74-.69-3.62-3.28.12-2.45,1.84-2.6,3.66-2.6,10.96,0,21.92,0,32.88,0,1.86,0,3.63.43,3.78,2.65.17,2.6-1.72,3.17-3.82,3.19-5.38.04-10.77.01-16.15.02Z"/>
  <path class="cls-138" d="M562.16,277.23c-5,0-10-.01-15.01,0-2.18,0-4.66.11-4.8-2.78-.14-2.87,2.18-3.11,4.47-3.11,10.39.01,20.78-.02,31.17-.03,1.99,0,4.01,0,4.1,2.79.1,3.17-2.16,3.14-4.34,3.14-5.19.02-10.39,0-15.58,0v-.04Z"/>
  <path class="cls-70" d="M775.88,277.24c-4.99,0-9.98.01-14.97,0-2.01,0-4.18-.21-3.96-2.9.18-2.27,1.92-3,4.15-2.99,10.36.05,20.72.01,31.08.01,1.89,0,3.46.4,3.54,2.76.1,2.66-1.57,3.17-3.73,3.16-5.37-.01-10.74,0-16.12,0v-.04Z"/>
  <path class="cls-70" d="M783.88,325.75c-4.79,0-9.57.03-14.36,0-2.11-.01-4.62.17-4.77-2.78-.16-2.97,2.23-3.12,4.43-3.12,9.96,0,19.91,0,29.87.01,2.2,0,4.61.13,4.51,3.05-.1,2.91-2.6,2.82-4.74,2.83-4.98.02-9.96,0-14.93.01Z"/>
  <path class="cls-4" d="M798.97,398.38c-4.03,0-8.07.02-12.1,0-2.2-.02-3.77-.92-3.79-3.35-.02-2.56,2-3.3,3.9-3.33,8.45-.14,16.9-.1,25.35-.01,1.88.02,3.52,1.16,3.64,3.05.14,2.29-1.65,3.44-3.75,3.51-4.41.14-8.84.04-13.25.04,0,.03,0,.06,0,.09Z"/>
  <path class="cls-5" d="M542.93,241.44c-4.81,0-9.61.01-14.42,0-2.12,0-4-.61-3.87-3.15.11-2.15,1.82-2.72,3.73-2.72,10-.02,20-.04,30-.03,1.87,0,3.71.5,3.57,2.76-.14,2.23-1.71,3.2-4,3.17-5-.08-10-.02-15-.02Z"/>
  <path class="cls-43" d="M501.2,235.52c4.98,0,9.97,0,14.95,0,1.9,0,3.54.41,3.44,2.78-.08,2.1-1.41,3.1-3.39,3.1-10.16.04-20.32.03-30.48.03-2.15,0-3.14-1.09-3.06-3.22.09-2.4,1.73-2.68,3.58-2.68,4.98,0,9.97,0,14.95,0Z"/>
  <path class="cls-89" d="M560.55,398.34c-3.25,0-6.51.08-9.75-.03-2.26-.07-3.56-1.35-3.41-3.69.13-2.09,1.53-3.03,3.47-3.04,6.31-.03,12.63-.09,18.93.08,2.19.06,4.27.99,4.06,3.78-.18,2.45-2.03,2.96-4.13,2.96-3.06,0-6.12,0-9.18,0,0-.02,0-.04,0-.06Z"/>
  <path class="cls-94" d="M507.41,412.25c-3.05,0-6.11,0-9.16,0-2.14,0-3.79-.64-3.97-3.1-.16-2.21,1.38-3.32,3.12-3.38,6.86-.24,13.72-.28,20.59-.21,1.7.02,2.69,1.37,2.73,3.12.06,2.02-.99,3.36-3.01,3.44-3.43.14-6.87.04-10.3.04,0,.03,0,.06,0,.09Z"/>
  <path class="cls-120" d="M732.45,277.22c-3.83,0-7.66.02-11.49,0-1.95-.01-3.53-.85-3.55-2.93-.01-2.1,1.59-2.89,3.54-2.9,7.85-.01,15.71-.02,23.56,0,1.95,0,3.54.83,3.54,2.92,0,2.09-1.56,2.9-3.53,2.91-4.02,0-8.04,0-12.07,0Z"/>
  <path class="cls-30" d="M740.61,325.69c-3.84,0-7.68.02-11.52,0-1.94-.01-3.58-.79-3.56-2.89.01-2.07,1.6-2.91,3.56-2.91,7.68-.01,15.36.02,23.04-.03,2.35-.01,3.78,1.14,3.77,3.35,0,2.3-1.98,2.5-3.78,2.51-3.84.02-7.68,0-11.52,0v-.02Z"/>
  <path class="cls-149" d="M690.91,271.33c3.45,0,6.9.01,10.35,0,2.1,0,4.05.47,4.15,2.92.1,2.55-1.9,3.02-3.97,3.02-6.9,0-13.8-.01-20.7-.01-2.03,0-3.94-.12-4-2.86-.06-2.7,1.71-3.04,3.82-3.03,3.45.02,6.9,0,10.35,0v-.04Z"/>
  <path class="cls-1" d="M493.85,379.96c2.67,0,5.35-.01,8.02,0,1.91.01,3.52.71,3.69,2.79.17,1.98-1.24,3.55-2.98,3.63-5.9.27-11.81.28-17.72.12-1.49-.04-2.93-1.34-2.92-3.05,0-1.98,1.55-3.18,3.32-3.34,2.84-.26,5.72-.07,8.59-.07,0-.03,0-.05,0-.08Z"/>
  <path class="cls-126" d="M585.66,412.22c-1.91,0-3.83.02-5.74,0-2.26-.03-3.66-1.09-3.63-3.46.03-2.43,1.62-3.3,3.79-3.32,3.25-.03,6.51-.05,9.76.02,2.6.06,4.73,1.26,4.63,3.99-.1,2.79-2.61,2.83-4.79,2.82-1.34,0-2.68,0-4.02,0v-.04Z"/>
  <path class="cls-14" d="M638.36,398.38c-1.53,0-3.05-.01-4.58,0-2.31.03-4.3-.47-4.38-3.29-.07-2.77,1.75-3.53,4.15-3.52,2.86,0,5.72.04,8.58,0,2.49-.03,5.04.56,5.15,3.29.13,2.87-2.46,3.44-4.93,3.45-1.34,0-2.67,0-4.01,0v.06Z"/>
  <path class="cls-32" d="M660.33,271.42c2.09,0,4.19-.06,6.28.02,1.75.07,2.93,1.06,2.96,2.83.03,1.78-1.14,2.84-2.89,2.87-4.37.09-8.75.1-13.13.04-1.94-.03-3.35-.94-3.21-3.12.12-1.85,1.46-2.59,3.14-2.65,2.28-.08,4.57-.02,6.85-.02,0,.01,0,.02,0,.03Z"/>
  <path class="cls-1" d="M808.35,277.31c-1.86-.24-3.91.52-5.55-.87-1.59-1.34-.9-2.81.15-4.03,1.42-1.65,10.14-1.54,11.44.08,1.17,1.46.95,2.94-.45,4.04-1.65,1.29-3.71.57-5.59.79Z"/>
  <path class="cls-41" d="M816.81,325.85c-2.5-.57-5.93,1.08-6.07-2.95-.13-4.04,3.24-3.09,5.49-2.99,2.34.1,6.07-1.44,6,3.05-.07,4.17-3.71,2.04-5.43,2.9Z"/>
  <path class="cls-65" d="M420.98,120.6c38.86,0,77.72,0,116.58,0,28.09,0,56.18-.11,84.28,0,16.22.06,27.31,8.93,30.78,24.18,4.23,18.61-9.54,35.72-29.44,36.25-10.77.28-21.55.05-32.33.06-122.21,0-244.42.02-366.62.04-5.2,0-10.4.02-15.46-1.43-13.43-3.86-22.52-16.8-21.5-30.56,1.1-14.84,11.59-26.27,25.95-28.11,7.86-1.01,15.75-.16,23.63-.17,51.76-.03,103.51-.14,155.27-.22,9.62-.01,19.24,0,28.86,0,0,0,0-.02,0-.03Z"/>
  <path class="cls-17" d="M416.99,323.93c0,28.47.07,56.94-.01,85.4-.05,18.38-11.14,29.3-29.58,29.31-56,.02-111.99.02-167.99,0-21.7,0-32.11-10.52-32.11-32.28.02-55.01.03-110.02.05-165.03,0-22.62,9.94-32.89,32.66-32.95,36.17-.1,72.35.2,108.52.24,19.24.02,38.47-.37,57.71-.21,16.56.13,26.68,7.57,29.99,21.56.65,2.76.72,5.71.73,8.58.05,28.47.03,56.93.04,85.4Z"/>
  <path class="cls-134" d="M829.22,542.72c7.09,0,14.18.02,21.27-.02,3.4-.02,6.44.7,6.32,4.8-.1,3.69-2.94,4.44-6.14,4.43-14.37-.05-28.74,0-43.11-.09-3.31-.02-7.21-.28-6.99-4.79.22-4.34,3.96-4.38,7.38-4.35,7.09.06,14.18.02,21.27.01Z"/>
  <path class="cls-90" d="M658.42,529.93c-7.11,0-14.22-.02-21.32.02-3.37.02-6.49-.58-6.42-4.72.06-3.71,2.89-4.47,6.11-4.46,14.6.04,29.2.04,43.8,0,3.03-.01,5.5.51,5.44,4.23-.06,3.68-2.35,4.95-5.7,4.94-7.3-.01-14.6,0-21.9,0Z"/>
  <path class="cls-101" d="M712.51,572.76c-7.49,0-14.99-.03-22.48.02-3.2.02-6.11-.68-6.04-4.44.07-3.58,3.02-3.75,5.91-3.8,13.81-.24,27.62-.61,41.43-.88,1.71-.03,3.48,0,5.14.39,2.5.57,4,2.15,3.82,4.95-.19,3.01-2.1,3.81-4.71,3.8-7.69,0-15.37,0-23.06,0v-.03Z"/>
  <path class="cls-67" d="M716.67,551.9c-5.56,0-11.12,0-16.68,0-3.25,0-5.93-1.11-5.79-4.8.12-3.26,2.57-4.4,5.63-4.4,11.51.02,23.01.03,34.52.01,3.32,0,5.88,1.17,5.78,4.8-.09,3.29-2.57,4.4-5.62,4.39-5.94-.01-11.89,0-17.83,0Z"/>
  <path class="cls-74" d="M834.41,572.84c-5.55,0-11.1-.06-16.65.02-3.33.05-6.64-.42-6.8-4.37-.19-4.52,3.62-4.88,6.94-4.82,5.15.1,10.28.79,15.42.79,5.52,0,11.04-.68,16.57-.77,3.33-.06,7.09.42,6.9,4.9-.18,4.09-3.64,4.22-6.87,4.17-5.17-.07-10.34-.02-15.51-.02v.09Z"/>
  <path class="cls-9" d="M781.05,551.88c-3.65,0-7.3.1-10.94-.04-2.79-.11-5.07-1.56-5.04-4.46.03-3.04,1.96-4.76,5.3-4.71,6.91.1,13.82.07,20.73.05,3.1-.01,5.51,1.17,5.58,4.43.08,3.65-2.55,4.78-5.84,4.75-3.26-.03-6.52,0-9.79-.01Z"/>
  <path class="cls-101" d="M705.58,520.79c3.82,0,7.65-.08,11.47.03,2.61.08,4.38,1.53,4.64,4.17.29,2.87-1.77,4.49-4.12,4.59-7.63.33-15.28.39-22.91.2-2.87-.07-4.26-2.24-4.07-5.2.19-2.94,2.01-3.84,4.67-3.8,3.44.04,6.88.01,10.32.01Z"/>
  <path class="cls-84" d="M897.54,572.82c-3.46,0-6.92-.04-10.38.01-2.91.04-4.91-.9-4.91-4.2,0-3.02,1.65-4.83,4.52-4.9,7.11-.17,14.23-.17,21.33.03,2.98.08,5.35,1.82,5.17,5.03-.16,2.98-2.5,4.03-5.36,3.99-3.46-.05-6.92-.01-10.38-.01v.05Z"/>
  <path class="cls-52" d="M663.62,572.78c-3.44,0-6.89.02-10.33,0-2.42-.01-4.01-1.01-4.26-3.63-.23-2.46.87-4.02,3.12-4.85,3.53-1.3,7.21-.65,10.81-.61,3.99.05,7.98.59,11.97.83,2.85.17,5.13,1.34,4.95,4.33-.17,2.9-2.49,4-5.36,3.94-3.63-.07-7.27-.02-10.91,0Z"/>
  <path class="cls-16" d="M641.05,542.74c.57,0,1.15.01,1.72,0,3.69-.11,8.14-.48,8.03,4.69-.09,4.63-4.33,4.49-7.85,4.48-2.29,0-4.59.02-6.88,0-3.04-.03-5.39-1.24-5.47-4.53-.08-3.34,2.2-4.6,5.28-4.65,1.72-.03,3.44,0,5.16,0v.03Z"/>
  <path class="cls-130" d="M756.74,572.78c-1.34,0-2.68-.01-4.02,0-2.62.03-5.11-.12-5.49-3.56-.38-3.47,1.78-5.05,4.65-5.38,3.78-.44,7.6-.52,11.4.49,2.73.72,3.84,2.22,3.56,4.95-.27,2.68-1.96,3.49-4.36,3.47-1.92-.02-3.83,0-5.75,0v.03Z"/>
  <path class="cls-36" d="M665.68,542.78c1.53,0,3.1-.2,4.59.04,2.58.42,4.15,2.08,4.06,4.74-.09,2.41-1.66,3.97-3.97,4.21-2.66.27-5.39.3-8.04,0-2.55-.29-5.13-1.33-5.02-4.48.12-3.27,2.42-4.54,5.5-4.56.96,0,1.92,0,2.88,0,0,.01,0,.03,0,.04Z"/>
  <path class="cls-93" d="M782.83,564.52c1.15,0,2.3,0,3.45,0,2.54,0,4.77.62,4.72,3.69-.05,2.99-1.95,4.45-4.84,4.55-2.3.08-4.6.03-6.9,0-3.12-.03-5.34-1.38-5.31-4.68.04-3.5,2.86-3.52,5.43-3.56,1.15-.02,2.3,0,3.45,0Z"/>
  <path class="cls-92" d="M754.17,542.68c2.04.21,4.36-.63,5.98,1.16,1.75,1.94,2.93,4.14.66,6.55-2.07,2.2-10.74,2.21-12.94-.02-1.96-1.99-1.68-4.08-.08-6.14,1.71-2.2,4.19-1.3,6.39-1.55Z"/>
  <path class="cls-31" d="M636.84,572.83c-2.66-.14-6.36.56-6.22-4.18.17-5.59,4.62-3.84,7.74-4.1,3.22-.27,7,.13,6.82,4.11-.22,4.74-4.58,4.15-8.34,4.16Z"/>
  <path class="cls-115" d="M801.04,572.83c-3.04-.06-6.58.39-6.43-4.24.14-4.43,3.59-4.81,6.93-4.92,3.22-.1,5.67,1.06,5.79,4.73.14,4.53-3.08,4.5-6.28,4.42Z"/>
  <path class="cls-61" d="M684.8,551.95c-4.22-.06-6.99-1.01-6.86-4.71.17-4.47,3.65-4.61,7.08-4.56,3.34.05,5.79,1.32,5.51,4.95-.31,4.07-3.51,4.41-5.73,4.32Z"/>
  <path class="cls-45" d="M413.12,542.73c7.29,0,14.58.02,21.87-.01,3.25-.01,5.94.97,5.99,4.63.04,3.46-2.87,4.46-5.62,4.48-15.35.12-30.69.1-46.04,0-2.81-.02-4.86-1.58-4.76-4.63.09-2.99,2.1-4.42,4.97-4.44,7.87-.06,15.73-.02,23.6-.02Z"/>
  <path class="cls-148" d="M528.81,572.78c-7.49,0-14.98-.03-22.47.02-3.1.02-5.36-.76-5.21-4.45.14-3.46,2.5-3.79,5.22-3.84,14.38-.26,28.76-.59,43.14-.86,1.33-.03,2.79-.14,3.98.33,2.2.87,4.28,2.39,3.96,5.03-.31,2.62-2.36,3.77-4.99,3.77-7.88,0-15.75,0-23.63,0Z"/>
  <path class="cls-108" d="M295.55,572.78c-7.49,0-14.97-.01-22.46,0-2.71,0-5.06-.35-5.2-3.84-.14-3.73,2.14-4.5,5.21-4.41,13.81.38,27.59-.41,41.39-.89,1.71-.06,3.48.03,5.13.43,2.48.6,3.98,2.16,3.74,4.98-.26,3-2.18,3.76-4.77,3.75-7.68-.01-15.36,0-23.04,0v-.03Z"/>
  <path class="cls-98" d="M300.96,551.93c-5.58,0-11.15-.02-16.73,0-3.59.01-6.05-1.31-5.97-5.29.07-3.82,2.84-3.97,5.7-3.96,10.96.03,21.92.06,32.88.02,3.42-.01,6.51.7,6.4,4.77-.11,4.11-3.4,4.49-6.71,4.45-5.19-.05-10.38-.01-15.57-.01v.02Z"/>
  <path class="cls-66" d="M417.7,572.84c-5.75,0-11.51-.02-17.26,0-2.92.02-5.49-.34-5.56-4.12-.06-3.53,2.44-4.73,5.22-4.93,4.39-.32,8.87-.6,13.21-.05,7.27.92,14.53.73,21.79.78,3.01.02,5.76.86,5.69,4.2-.07,3.27-2.81,4.11-5.83,4.07-5.75-.08-11.51-.02-17.26-.02v.08Z"/>
  <path class="cls-68" d="M364.93,542.71c3.45,0,6.9.01,10.35,0,2.63-.01,4.53.88,4.73,3.81.2,2.96-1.29,5.11-4.13,5.21-7.65.26-15.33.24-22.98,0-2.52-.08-4.25-1.98-4.04-4.69.21-2.62,1.96-4.17,4.58-4.26,3.83-.14,7.66-.03,11.5-.03v-.04Z"/>
  <path class="cls-130" d="M290.03,520.77c3.45,0,6.9.02,10.35,0,2.73-.02,4.32,1.17,4.58,4,.28,3.08-1.21,4.98-4.13,5.05-7.46.18-14.94.19-22.4-.05-2.46-.08-4.5-1.82-4.27-4.51.23-2.7,1.86-4.52,4.96-4.47,3.64.07,7.28.02,10.92.02v-.03Z"/>
  <path class="cls-34" d="M481.48,564.52c3.65,0,7.3-.01,10.95,0,2.45.01,4.07,1.02,4.17,3.69.1,2.74-1.06,4.49-3.96,4.51-7.49.06-14.98.13-22.47,0-2.89-.05-4.74-1.78-4.62-4.76.12-3.08,2.53-3.45,4.99-3.47,3.65-.02,7.3,0,10.95,0v.02Z"/>
  <path class="cls-69" d="M236.86,572.91c-2.67-.54-4.97-1.83-4.43-4.83.51-2.84,2.97-3.51,5.74-3.47,7.61.1,15.22.02,22.83.02,2.52,1.36,2.79,3.6,1.97,5.94-.89,2.53-3.28,2.23-5.38,2.24-6.91.04-13.81.07-20.72.11Z"/>
  <path class="cls-154" d="M340.75,572.78c-1.72,0-3.45,0-5.17,0-2.88,0-5.17-1.33-5.03-4.25.15-2.95,2.48-5.07,5.47-4.61,3.45.53,6.85.51,10.29.61,2.56.08,4.7.78,4.62,3.83-.08,2.7-1.8,4.14-4.43,4.32-1.91.13-3.83.02-5.74.02,0,.03,0,.05,0,.08Z"/>
  <path class="cls-97" d="M249.92,551.88c-1.52,0-3.07.18-4.55-.04-2.3-.34-3.82-1.75-3.96-4.16-.16-2.7,1.38-4.39,3.91-4.78,2.23-.34,4.55-.15,6.83-.16,3.23,0,5.97,1.26,5.98,4.68,0,3.4-2.53,4.84-5.92,4.54-.75-.07-1.52,0-2.28,0,0-.03,0-.05,0-.08Z"/>
  <path class="cls-95" d="M365.8,572.84c-2.4-.38-5.26.89-6.99-1.45-1.47-1.98-1.42-4.31.58-6.16,2.52-2.33,11.12-2.29,13.51.09,1.89,1.88,2.04,4.27.44,6.18-1.98,2.36-5.02.91-7.54,1.34Z"/>
  <path class="cls-145" d="M337.51,551.91c-3.23.18-6.93,0-7.02-4.39-.1-4.82,3.85-4.81,7.45-4.81,3.38,0,7.12-.04,7.21,4.44.1,4.91-3.86,4.85-7.63,4.76Z"/>
  <path class="cls-125" d="M453.75,572.79c-2.44-.32-6.67,1.15-6.73-3.94-.07-5.36,4.49-4.8,7.86-5.16,3.57-.38,6.97,1,6.8,5.02-.18,4.4-4.1,4.17-7.93,4.07Z"/>
  <path class="cls-118" d="M383.97,572.87c-2.28.14-5.91-.04-5.94-4.09-.03-4.04,3.66-5.05,7.06-5.08,3.21-.03,6.33.79,6.37,4.92.05,4.66-3.49,4.15-7.49,4.25Z"/>
  <path class="cls-118" d="M267.11,551.97c-2.22.05-5.56-.69-5.64-4.47-.09-4.22,3.47-4.78,6.94-4.79,3.35-.02,6.39.7,6.31,4.73-.08,4.06-3.28,4.53-7.61,4.53Z"/>
  <path class="cls-28" d="M235.51,545.03c-7.74-2.61-5.5-9.09-5.68-14.62,3.84-.82,7.7-.42,11.55-.25-4.33,4.02-6.9,8.74-5.88,14.87Z"/>
  <path class="cls-12" d="M381.69,811.75c-27.52,0-55.04.03-82.56,0-13.23-.02-19.69-6.57-19.7-19.96-.02-29.24-.04-58.48,0-87.72.02-13.45,6.79-20.3,20.26-20.31,54.85-.05,109.69-.05,164.54,0,11.7,0,17.82,5.46,18.64,16.63,1.83,24.96.44,49.97.75,74.95.09,7.47.71,14.97-.69,22.44-1.68,8.93-7.44,13.93-16.95,13.95-28.1.06-56.19.02-84.29.03Z"/>
  <path class="cls-156" d="M475.27,660.68c-4.39-.32-6.49-2.88-6.6-7.44-.12-4.99,3.19-6.71,7.2-7.24,3.59-.47,8.15,4.25,7.47,7.78-.77,4.04-3.17,6.89-8.07,6.9Z"/>
  <path class="cls-29" d="M428.39,653.47c-.14,4.43-3.34,7.31-7.85,7.13-4.74-.19-6.75-3.16-7.07-7.39-.29-3.73,4.11-7.69,7.86-7.44,3.68.25,7.18,4.06,7.06,7.7Z"/>
  <path class="cls-83" d="M441.15,652.23c.68-3.5,2.98-5.96,7.64-5.77,4.68.19,7.01,2.83,7.18,7.22.16,4.23-3.52,7.2-8.03,6.93-4.16-.24-7.04-3.42-6.79-8.38Z"/>
  <path class="cls-152" d="M904.43,631.86c.08-.78-.17-1.92,1.07-2.2,1.2-.27,1.71.72,1.94,1.61,1.26,4.77,2.48,9.55,3.6,14.35.28,1.19-.31,2.44-1.45,2.82-1.57.52-1.83-.97-2.06-2-1.07-4.81-2.05-9.64-3.09-14.58Z"/>
  <path class="cls-111" d="M890.58,649.53c-3.38-5.21-4.05-11.14-5.68-16.79-.27-.94.06-1.94.91-2.55.86-.61,1.63.08,1.83.7,1.96,6.04,3.19,12.22,2.95,18.64Z"/>
  <path class="cls-49" d="M900.73,649.73c-4.39-5.72-5.46-12.4-5.04-19.49,3.94,5.82,4.28,12.7,5.04,19.49Z"/>
  <path class="cls-153" d="M882.98,634.65c.6,2.75,1.21,5.51,1.8,8.26.24,1.12.64,2.37-1.18,2.46-1.34.07-2.19-.63-2.21-2-.04-2.91-.01-5.82-.01-8.73h1.6Z"/>
  <path class="cls-82" d="M904.34,645.82c-1.9-3.64-2.74-7.43-2.48-11.44,2.29,3.51,3.41,7.27,2.48,11.44Z"/>
  <path class="cls-86" d="M894.01,644.78c-1.2-3.22-2.75-6.4-2.3-10.77,2.36,3.79,2.17,7.33,2.3,10.77Z"/>
  <path class="cls-88" d="M912.04,632.28c2.36,3.42,1.08,6.04,1.11,8.49-.66-2.36-2.53-4.55-1.11-8.49Z"/>
  <path class="cls-63" d="M886.33,649.42c-.23,1.03-.92,1.55-1.93,1.61-1.33.08-2.13-.56-2.04-1.92.07-1.2,1.02-1.36,2-1.32,1.06.04,1.62.71,1.97,1.63Z"/>
  <path class="cls-114" d="M899.67,674.31c3.84.87,4.33,3.89,4.53,7.07,1.6,25.25,3.06,50.52,4.89,75.76.43,5.93.84,11.85,1.16,17.79.19,3.58-1.23,4.77-4.7,4.63-6.53-.26-13.06-.24-19.6-.34.31-12.45,1.47-24.85,2.3-37.28,1.19-17.77,2.71-35.52,3.89-53.29.2-3.1.89-6.08,1.55-9.05.68-3.03,2.55-5.14,5.97-5.3Z"/>
  <path class="cls-42" d="M899.67,674.31c-4.57,2.35-5.21,6.9-5.6,11.15-1.06,11.57-1.61,23.18-2.52,34.76-1.48,18.78-3.07,37.54-4.66,56.31-.08.92-.61,1.8-.93,2.7-2.65-4.26-1.2-8.89-1-13.32.39-8.59,1.31-17.15,1.96-25.72,1.57-20.58,3.06-41.18,4.7-61.75.38-4.78,2.77-5.86,8.05-4.12Z"/>
  <path class="cls-85" d="M897.06,825.71c-9.45-.1-17.13-7.95-17-17.37.13-9.47,8.51-17.44,18.06-17.16,9.15.27,16.6,8.06,16.52,17.3-.08,10.1-7.48,17.35-17.58,17.24Z"/>
  <path class="cls-23" d="M580.58,673.99c12.18,0,21.3,8.93,21.27,20.84-.03,11.66-9.32,20.98-20.77,20.82-11.88-.16-21.13-9.54-21.03-21.33.09-11.43,9.08-20.33,20.53-20.33Z"/>
  <path class="cls-46" d="M189.31,757.45c0-14.8-.02-29.6.02-44.4,0-2.77-.72-6.44,3.76-6.24,3.68.16,4.36,3.05,4.36,6.24-.02,29.99,0,59.97.04,89.96,0,3.21-.72,6.07-4.38,6.22-4.4.18-3.82-3.4-3.83-6.23-.03-15.19-.01-30.37-.01-45.56h.04Z"/>
  <path class="cls-55" d="M215.85,758.01c0-15-.02-29.99.02-44.99,0-2.82-.55-6.42,3.84-6.25,3.71.14,4.34,3.07,4.34,6.25-.03,29.99-.03,59.98,0,89.98,0,3.2-.66,6.11-4.34,6.25-4.41.18-3.8-3.45-3.81-6.25-.04-15-.02-29.99-.02-44.99h-.02Z"/>
  <path class="cls-112" d="M250.62,757.45c0,14.81.01,29.62-.01,44.43,0,1.7.36,3.51-.67,5.06-1,1.51-2.29,2.74-4.29,2.18-1.76-.49-3.13-1.5-3.16-3.6,0-.77-.05-1.54-.05-2.31,0-30.2,0-60.4.02-90.6,0-2.45-.51-5.34,3.06-5.85,4.38-.62,5.08,2.1,5.07,5.67-.07,15-.03,30.01-.03,45.01h.05Z"/>
  <path class="cls-38" d="M587.98,337.36c-10.55,0-21.1.02-31.66-.02-2.25,0-5.15.43-5.26-2.89-.11-3.4,2.8-3.04,5.06-3.04,21.1,0,42.21.02,63.31.06,2.3,0,5.06-.31,5.21,2.98.17,3.72-2.93,2.83-5.02,2.85-10.55.08-21.1.04-31.66.04v.02Z"/>
  <path class="cls-138" d="M639.66,319.63c1.92.08,3.83.15,5.75.24,1.95.09,3.48.88,3.44,3.02-.04,2.2-1.7,2.82-3.6,2.83-7.68.03-15.36.03-23.03.03-7.29,0-14.59-.02-21.88-.05-1.76,0-3.59-.05-4.2-2.18-.54-1.91-.18-3.45,2.16-3.79,13.79-.71,27.58-.51,41.37-.1Z"/>
  <path class="cls-126" d="M521.47,349.82c-5.37,0-10.73,0-16.1,0-2.09,0-3.95-.47-4.06-3-.12-2.66,1.49-3.76,3.98-3.77,11.11-.03,22.23-.05,33.34-.07,2.14,0,3.89.64,4.04,3.07.16,2.67-1.46,3.76-3.96,3.77-5.75.01-11.5,0-17.25,0Z"/>
  <path class="cls-38" d="M501.28,337.17c-.45-3.7.66-5.85,4.92-5.8,10.54.12,21.09.07,31.64,0,2.44-.02,4.45.7,4.49,3.25.05,2.51-1.93,3.7-4.33,3.39-12.22-1.55-24.51-.06-36.74-.87,0,0,.03.03.03.03Z"/>
  <path class="cls-138" d="M521.41,319.86c5.58,0,11.16.03,16.74-.02,2.21-.02,3.99.63,3.9,3.09-.08,2.08-1.69,2.74-3.69,2.74-11.16,0-22.33.03-33.49.08-2.16,0-3.76-.4-3.67-3.14.09-2.92,2.11-2.77,4.03-2.79,5.39-.03,10.78-.01,16.17-.01v.05Z"/>
  <path class="cls-56" d="M585.41,308.14c1.6.95,2.86,2.16,2.03,4.17-.67,1.63-2.23,1.91-3.85,1.9-10.73-.03-21.46-.04-32.2-.06-1.65,0-3.1-.48-3.65-2.18-.62-1.91-.22-3.42,2.07-3.84,11.87-.55,23.73-.56,35.6,0Z"/>
  <path class="cls-70" d="M588.91,319.75c1.56,1,2.84,2.23,1.83,4.23-.79,1.56-2.41,1.75-4,1.75-10.57,0-21.14.01-31.71.02-1.59,0-3.2-.17-3.83-1.9-.73-2,.36-3.28,2.08-4.16,11.88-.53,23.76-.66,35.64.06Z"/>
  <path class="cls-138" d="M660.66,337.35c-5,0-9.99,0-14.99,0-1.86,0-3.57-.3-3.53-2.72.04-2.12,1.31-3.13,3.33-3.14,10.37-.03,20.75-.06,31.12,0,1.92,0,3.48.94,3.35,3.1-.13,2.17-1.85,2.72-3.73,2.73-5.19.02-10.37,0-15.56,0v.03Z"/>
  <path class="cls-56" d="M541.57,308.25c2.48,3.81,1.16,5.78-3.1,5.87-7.09.14-14.19.05-21.29.08-1.6,0-3.2-.15-3.9-1.8-.83-1.96.24-3.28,1.89-4.25,8.81-.51,17.61-.69,26.41.11Z"/>
  <path class="cls-70" d="M698.65,325.77c-3.26,0-6.52,0-9.79,0-1.98,0-3.98.02-4.1-2.77-.11-2.69,1.59-3.12,3.74-3.11,7.1.03,14.2.02,21.3.03,1.9,0,3.61.55,3.7,2.72.1,2.55-1.81,3.09-3.91,3.1-3.65.03-7.29,0-10.94,0v.02Z"/>
  <path class="cls-120" d="M503.4,308.13c1.57.95,2.82,2.14,2.04,4.14-.65,1.64-2.2,1.9-3.8,1.9-5.32,0-10.63,0-15.95.01-1.61,0-3.11-.3-3.76-1.95-.8-2.03.48-3.18,2.05-4.11,6.47-.51,12.94-.53,19.41,0Z"/>
  <path class="cls-54" d="M667.16,319.9c2.48,0,4.97-.05,7.45.02,1.77.05,2.95,1.08,3,2.82.04,1.77-1.12,2.87-2.89,2.89-4.77.07-9.55.07-14.32-.02-2.01-.04-3.13-1.22-3.15-3.3-.03-2.63,1.92-2.41,3.62-2.45,2.1-.05,4.2-.01,6.31-.01,0,.02,0,.03,0,.05Z"/>
  <path class="cls-102" d="M639.66,319.63c-13.79.04-27.58.07-41.37.1,2.39-1.87,5.19-1.01,7.75-.92,11.2.39,22.46-1.19,33.62.81Z"/>
  <path class="cls-102" d="M585.41,308.14c-11.87,0-23.73,0-35.6,0,8.83-2.08,17.79-.52,26.69-.85,2.94-.11,6.1-1.02,8.91.85Z"/>
  <path class="cls-102" d="M588.91,319.75c-11.88-.02-23.76-.04-35.64-.06,9.24-2.1,18.59-.49,27.89-.87,2.56-.11,5.37-.98,7.75.93Z"/>
  <path class="cls-102" d="M541.57,308.25c-8.8-.03-17.61-.07-26.41-.11,8.81-1.43,17.62-1.74,26.41.11Z"/>
  <path class="cls-102" d="M503.4,308.13c-6.47,0-12.95,0-19.42,0,6.47-1.5,12.95-1.52,19.42,0Z"/>
  <path class="cls-102" d="M420.96,123.53c67.36,0,134.72-.04,202.07.02,19.79.02,32.8,19.02,25.77,37.34-3.96,10.32-13.43,17.09-24.43,17.09-135.87.04-271.74.05-407.61,0-15.32,0-26.39-11.43-26.38-26.78.01-16.27,10.89-27.64,26.77-27.65,67.94-.05,135.87-.02,203.81-.02Z"/>
  <path class="cls-102" d="M302.5,211.25c28.67,0,57.33-.02,86,.02,15.6.02,25.99,10.42,26,26.03.03,56.73.02,113.46.01,170.2,0,18.57-9.15,28.6-27.67,28.69-56.56.27-113.13.15-169.69.06-9.51-.02-17.6-3.26-23.15-11.62-2.8-4.22-3.72-8.67-3.71-13.62.07-35.7.02-71.41.01-107.11,0-22.12.65-44.26-.21-66.34-.55-14.18,12.64-26.97,26.4-26.56,28.64.84,57.33.25,85.99.26Z"/>
  <path class="cls-139" d="M420.15,747.95c-25.75,15.57-51.08,30.88-77.32,46.75,0-6.74,0-12.26,0-17.78,0-23.24,0-46.48.07-69.72,0-1.58-.97-3.78,1.07-4.62,1.48-.61,2.76.95,4.05,1.72,22.55,13.5,45.1,26.99,67.63,40.52,1.42.85,2.73,1.9,4.49,3.14Z"/>
  <path class="cls-12" d="M581.4,677.66c9.67.06,16.96,7.55,16.85,17.28-.12,9.97-7.94,17.61-17.68,17.26-9.18-.33-17.04-8.48-17.04-17.67,0-9.74,7.63-16.94,17.88-16.88Z"/>
  <path class="cls-121" d="M552.06,151.46c-.07,7.16-5.63,12.59-12.87,12.56-8.12-.03-13.91-5.82-13.72-13.72.18-7.36,5.88-12.86,13.31-12.85,8.12,0,13.36,5.53,13.28,14.01Z"/>
  <path class="cls-27" d="M620.34,150.46c.05,7.89-5.08,13.45-12.51,13.56-7.3.11-14.03-6.09-14.16-13.03-.13-7.35,5.98-13.43,13.6-13.52,7.6-.09,13.02,5.29,13.07,13Z"/>
  <path class="cls-140" d="M560,150.58c-.02-7.72,5.25-13.09,12.84-13.08,7.22,0,13.79,6.44,13.69,13.41-.1,6.8-6.49,13.06-13.4,13.12-7.82.08-13.11-5.34-13.13-13.45Z"/>
  <path class="cls-58" d="M332.07,260.92c-7.5,21.68-14.79,42.64-22,63.63-6.54,19.03-13.12,38.04-19.4,57.15-1.31,3.98-3.2,5.8-7.35,5.18-1.13-.17-2.3-.02-3.45-.02q-10.69,0-7.25-9.97c12.7-36.95,25.46-73.88,37.99-110.89,1.35-3.98,3.18-5.49,7.34-5.15,4.52.36,9.08.08,14.13.08Z"/>
  <path class="cls-133" d="M338.45,286.41c12.99,7.6,25.03,14.64,37.07,21.69,5.63,3.3,11.35,6.44,16.82,9.99,5.01,3.25,5.01,5.85-.07,8.9-16.28,9.78-32.71,19.3-48.99,29.07-4.35,2.61-4.46.88-5.01-3.16-1.55-11.31,1.02-19.74,13.09-23.24,2.16-.63,4.16-1.98,6.09-3.23,2-1.3,5.64-1.43,5.65-4.09,0-2.24-3.48-2.49-5.37-3.69-2.26-1.44-4.51-3.2-7.02-3.91-11.19-3.15-14.12-10.76-12.3-21.33.32-1.86.05-3.81.05-7.01Z"/>
  <path class="cls-139" d="M240.04,323.04c6.73,3.64,12.92,7.49,19.53,10.41,4.82,2.13,6.69,4.96,6.02,10.12-.44,3.4-.22,6.92-.02,10.37.23,4.07-1.32,4.12-4.28,2.35-10.55-6.31-21.13-12.55-31.73-18.79-5.96-3.51-12.04-6.81-17.91-10.46-5.37-3.33-5.29-6.02.08-9.15,16.26-9.48,32.59-18.83,48.8-28.39,3.98-2.35,5.05-1.67,5.11,2.96.19,15.88.31,15.85-13.88,23.31-3.86,2.03-7.95,3.74-11.72,7.27Z"/>
  <path class="cls-15" d="M549.49,150.71c.06,5.53-5.24,10.82-10.73,10.71-5.57-.11-10.65-5.39-10.55-10.95.09-5.4,5.03-10.31,10.43-10.39,5.55-.08,10.79,5.06,10.85,10.63Z"/>
  <path class="cls-131" d="M617.82,150.82c-.02,5.6-5.13,10.72-10.64,10.67-5.62-.06-10.42-5.07-10.35-10.82.07-5.9,4.79-10.64,10.54-10.6,5.67.04,10.47,4.97,10.45,10.76Z"/>
  <path class="cls-119" d="M573.21,161.4c-5.57.19-10.64-4.82-10.76-10.62-.12-5.6,4.39-10.44,9.97-10.72,5.81-.29,10.82,4.4,10.97,10.26.15,5.96-4.37,10.88-10.18,11.08Z"/>
</svg>