<svg width="450" height="450" viewBox="0 0 450 450" fill="none" xmlns="http://www.w3.org/2000/svg">
<path d="M225 420.539C319.38 420.539 395.89 376.365 395.89 321.873C395.89 267.381 319.38 223.207 225 223.207C130.62 223.207 54.1099 267.381 54.1099 321.873C54.1099 376.365 130.62 420.539 225 420.539Z" fill="#055519"/>
<path d="M264.352 191.128L394.11 266.041L394.112 156.687L264.354 81.7729L264.352 191.128Z" fill="#05A602"/>
<path d="M264.354 81.773L394.112 156.687L329.233 62.364L264.354 81.773Z" fill="#05A602"/>
<path d="M264.352 191.128L394.11 266.041L330.412 171.54L264.352 191.128Z" fill="#055519"/>
<path d="M264.352 191.128L394.11 266.041L329.232 173.907L264.352 191.128Z" fill="#05A602"/>
<path d="M394.112 156.687L264.354 81.7729L329.232 173.907L394.112 156.687Z" fill="#055519"/>
<path d="M249.293 77.3169L311.002 112.944C314.728 115.095 317.776 120.375 317.776 124.677V136.878C318.248 142.336 320.297 147.992 323.647 151.816C319.551 152.198 314.294 147.763 309.571 141.778L249.293 106.977C245.568 104.826 242.519 99.5459 242.519 95.2439V81.2279C242.519 76.9259 245.567 75.1659 249.293 77.3169Z" fill="#F1F1F1"/>
<path d="M310.507 132.438V136.218L284.27 121.07V117.29L310.507 132.438Z" fill="#B2D5B2"/>
<path d="M310.507 125.733V129.513L247.493 93.133V89.353L310.507 125.733Z" fill="#B2D5B2"/>
<path d="M310.507 119.029V122.809L247.493 86.4289V82.6489L310.507 119.029Z" fill="#B2D5B2"/>
<path d="M244.996 89.421C244.996 96.635 250.06 105.406 256.307 109.013C262.554 112.62 267.618 109.696 267.618 102.482C267.618 95.268 262.554 86.497 256.307 82.89C250.061 79.283 244.996 82.207 244.996 89.421ZM249.175 97.811C248.118 95.522 247.493 93.097 247.493 90.862C247.493 88.794 248.029 87.1799 248.947 86.1039L254.074 94.983L249.175 97.811ZM256.308 85.773C258.243 86.89 260.031 88.644 261.485 90.704L256.196 93.758L251.002 84.762C252.477 84.326 254.315 84.622 256.308 85.773ZM263.346 106.142L258.318 97.434L263.579 94.396C264.552 96.595 265.123 98.905 265.123 101.04C265.123 103.342 264.461 105.081 263.346 106.142ZM256.308 106.13C254.458 105.062 252.743 103.413 251.325 101.471L256.195 98.659L261.155 107.25C259.764 107.507 258.099 107.164 256.308 106.13Z" fill="#F10505"/>
<path d="M417.26 143.968L347.822 103.879C343.63 101.459 340.2 103.439 340.2 108.28V122.01C339.669 127.537 337.364 131.241 333.594 131.19C338.203 136.942 344.119 138.782 349.433 138.183L417.261 177.342C421.453 179.762 424.883 177.782 424.883 172.941V157.17C424.883 152.33 421.453 146.389 417.26 143.968Z" fill="#F1F1F1"/>
<path d="M417.374 159.264V163.337L349.469 124.133V120.06L417.374 159.264Z" fill="#379F39" fill-opacity="0.34"/>
<path d="M394.487 157.904L349.469 131.914V127.84L394.487 153.831V157.904Z" fill="#379F39" fill-opacity="0.34"/>
<path d="M417.374 152.039V156.112L349.469 116.908V112.835L417.374 152.039Z" fill="#379F39" fill-opacity="0.34"/>
<path d="M421.832 163.824C421.832 170.362 417.241 173.013 411.579 169.744C405.916 166.475 401.326 158.523 401.326 151.985C401.326 145.446 405.916 142.796 411.579 146.064C417.241 149.335 421.832 157.285 421.832 163.824Z" fill="#F10505"/>
<path d="M413.267 164.416C413.267 165.064 413.085 165.461 412.722 165.604C412.358 165.748 411.946 165.687 411.486 165.422C411.026 165.157 410.615 164.742 410.251 164.178C409.887 163.614 409.705 163.008 409.705 162.36C409.705 161.712 409.887 161.315 410.251 161.172C410.615 161.028 411.026 161.089 411.486 161.354C411.946 161.619 412.358 162.033 412.722 162.598C413.085 163.161 413.267 163.768 413.267 164.416ZM413.018 154.654C413.018 155.848 412.98 156.94 412.903 157.926C412.826 158.914 412.724 159.901 412.597 160.889L410.414 159.629C410.286 158.494 410.181 157.386 410.098 156.307C410.015 155.227 409.974 154.09 409.974 152.896V148.938L413.018 150.696V154.654Z" fill="white"/>
<path d="M367.598 49.843L362.489 52.812C364.58 51.597 367.475 51.768 370.67 53.613C371.352 54.006 372.02 54.462 372.669 54.967L377.778 51.998C377.129 51.493 376.461 51.038 375.779 50.644C372.584 48.8 369.689 48.628 367.598 49.843Z" fill="#E0DDE1"/>
<path d="M389.438 49.6481C381.367 44.9881 374.573 47.4471 372.67 54.9671C372.021 54.4621 371.353 54.0071 370.671 53.6131C364.32 49.9461 359.156 52.8911 359.135 60.1881C359.116 67.0241 363.618 75.2571 369.409 79.2851L408.048 101.662C414.399 105.329 419.563 102.386 419.584 95.0881C419.605 87.7901 414.474 78.9021 408.123 75.2351C407.44 74.8411 406.772 74.5251 406.123 74.2801C404.267 64.5911 397.509 54.3081 389.438 49.6481Z" fill="#F1F1F1"/>
<path d="M406.123 74.2811L411.232 71.3121C409.376 61.6221 402.619 51.3391 394.547 46.6791L389.438 49.6481C397.509 54.3081 404.267 64.5911 406.123 74.2811Z" fill="#E0DDE1"/>
<path d="M382.277 45.478L377.168 48.447C380.303 46.625 384.645 46.882 389.438 49.649L394.547 46.68C389.754 43.912 385.412 43.655 382.277 45.478Z" fill="#E0DDE1"/>
<path d="M416.229 102.465L421.338 99.496C423.402 98.297 424.682 95.746 424.692 92.121C424.713 84.823 419.582 75.935 413.231 72.268C412.548 71.874 411.881 71.558 411.231 71.313L406.122 74.282C406.771 74.526 407.439 74.843 408.122 75.237C414.473 78.904 419.604 87.792 419.583 95.09C419.573 98.714 418.293 101.265 416.229 102.465Z" fill="#E0DDE1"/>
<path d="M332.936 387.885L339.655 383.983C342.253 382.474 343.864 379.264 343.875 374.703L337.157 378.607C337.146 383.167 335.534 386.376 332.936 387.885Z" fill="#F1F1FF"/>
<mask id="mask0_322_1430" style="mask-type:luminance" maskUnits="userSpaceOnUse" x="332" y="374" width="12" height="14">
<path d="M332.936 387.885L339.655 383.983C342.253 382.474 343.864 379.264 343.875 374.703L337.157 378.607C337.146 383.167 335.534 386.376 332.936 387.885Z" fill="white"/>
</mask>
<g mask="url(#mask0_322_1430)">
<path d="M332.936 387.885L339.655 383.983C342.253 382.474 343.864 379.264 343.875 374.703L337.157 378.607C337.146 383.167 335.534 386.376 332.936 387.885Z" fill="#F1F1FF"/>
</g>
<path d="M337.157 378.608L343.875 374.704L344.263 229.756L337.544 233.66L337.157 378.608Z" fill="#F1F1FF"/>
<path d="M323.139 208.695L329.854 204.791L135.256 92.439L128.538 96.344L323.139 208.695Z" fill="#F1F1FF"/>
<path d="M337.544 233.66L344.262 229.755C344.287 220.572 337.837 209.401 329.854 204.79L323.139 208.694C331.12 213.303 337.569 224.477 337.544 233.66Z" fill="#F1F1FF"/>
<mask id="mask1_322_1430" style="mask-type:luminance" maskUnits="userSpaceOnUse" x="323" y="204" width="22" height="30">
<path d="M337.544 233.66L344.262 229.755C344.287 220.572 337.837 209.401 329.854 204.79L323.139 208.694C331.12 213.303 337.569 224.477 337.544 233.66Z" fill="white"/>
</mask>
<g mask="url(#mask1_322_1430)">
<path d="M337.544 233.66L344.262 229.755C344.27 226.235 343.328 222.422 341.714 218.8L334.996 222.705C336.611 226.327 337.553 230.138 337.544 233.66Z" fill="#F1F1FF"/>
<path d="M334.997 222.706L341.715 218.801C340.458 215.982 338.793 213.277 336.852 210.911L330.133 214.816C332.075 217.18 333.74 219.883 334.997 222.706Z" fill="#F1F1FF"/>
<path d="M330.133 214.815L336.852 210.91C334.78 208.39 332.396 206.258 329.854 204.79L323.139 208.694C325.678 210.163 328.062 212.296 330.133 214.815Z" fill="#F1F1FF"/>
</g>
<path d="M128.538 96.3439C120.558 91.7359 114.055 95.4299 114.031 104.613L113.646 249.562C113.618 258.734 120.079 269.924 128.06 274.532L322.658 386.883C330.642 391.491 337.133 387.78 337.158 378.608L337.546 233.66C337.571 224.477 331.121 213.303 323.141 208.695L128.538 96.3439Z" fill="#E5E3E8"/>
<path d="M121.584 249.592C121.567 255.881 126.541 264.491 132.038 267.654L326.634 380.01C327.744 380.644 328.492 380.835 328.871 380.899C329.016 380.534 329.206 379.819 329.223 378.578V377.34L329.602 233.635C329.619 227.346 324.645 218.734 319.165 215.574L126.383 104.267L124.569 103.218C123.442 102.581 122.697 102.376 122.315 102.329C122.174 102.691 121.98 103.409 121.966 104.63L121.584 249.592Z" fill="#D4CED8"/>
<path d="M126.001 247.972C125.984 254.261 130.955 262.87 136.438 266.033L329.223 377.34L329.602 233.635C329.619 227.346 324.645 218.734 319.165 215.574L126.383 104.267L126.001 247.972Z" fill="#F7FCF7" fill-opacity="0.74"/>
<path d="M124.966 91.434L118.247 95.339C120.878 93.81 124.52 94.024 128.537 96.344L135.255 92.439C131.238 90.121 127.596 89.906 124.966 91.434Z" fill="#F1F1FF"/>
<path d="M174.957 198.745C174.803 201.124 174.018 202.613 172.601 203.212C171.184 203.812 169.318 203.443 167 202.105C164.466 200.642 162.473 198.501 161.02 195.683C159.567 192.865 158.841 189.729 158.841 186.275V184.873C158.841 182.668 159.176 180.919 159.846 179.626C160.515 178.333 161.473 177.597 162.718 177.418C163.962 177.239 165.408 177.624 167.055 178.576C169.336 179.893 171.173 181.663 172.567 183.885C173.961 186.108 174.767 188.562 174.984 191.25L170.911 188.898C170.811 187.36 170.456 186.082 169.845 185.062C169.235 184.043 168.305 183.172 167.055 182.451C165.697 181.667 164.681 181.644 164.007 182.384C163.333 183.123 162.987 184.674 162.968 187.037V188.769C162.968 191.247 163.291 193.245 163.939 194.763C164.586 196.281 165.607 197.443 167 198.247C168.258 198.973 169.198 199.183 169.818 198.874C170.438 198.565 170.793 197.739 170.884 196.395L174.957 198.745Z" fill="#374F9F"/>
<path d="M189.526 204.856L181.705 200.341V206.484L190.884 211.783V215.579L177.633 207.928V184.996L190.857 192.631V196.458L181.706 191.174V196.639L189.527 201.154L189.526 204.856Z" fill="#EC891D"/>
<path d="M209.348 226.239L205.275 223.887L197.346 204.221V219.31L193.273 216.958V194.026L197.346 196.378L205.289 216.084V200.964L209.348 203.308V226.239Z" fill="#F14405"/>
<path d="M223.157 228.195C223.157 227.303 222.885 226.46 222.342 225.669C221.799 224.878 220.821 223.809 219.41 222.463C217.998 221.118 216.88 219.95 216.056 218.96C213.811 216.257 212.689 213.714 212.689 211.33C212.689 210.091 212.99 209.16 213.592 208.536C214.194 207.913 215.058 207.653 216.185 207.757C217.312 207.862 218.577 208.319 219.98 209.129C221.391 209.944 222.65 210.967 223.755 212.198C224.859 213.429 225.717 214.762 226.328 216.196C226.939 217.63 227.244 219.035 227.244 220.41L223.171 218.059C223.171 217.009 222.886 216.028 222.316 215.116C221.745 214.204 220.945 213.45 219.912 212.854C218.916 212.28 218.143 212.077 217.591 212.246C217.039 212.415 216.762 212.899 216.762 213.697C216.762 214.443 217.086 215.254 217.733 216.132C218.38 217.009 219.332 218.032 220.591 219.199C222.908 221.346 224.597 223.323 225.656 225.131C226.715 226.939 227.244 228.736 227.244 230.521C227.244 232.505 226.597 233.689 225.303 234.07C224.009 234.452 222.266 234.01 220.075 232.745C218.555 231.867 217.17 230.744 215.921 229.378C214.671 228.011 213.719 226.576 213.063 225.074C212.407 223.572 212.079 222.08 212.079 220.6L216.165 222.959C216.165 225.489 217.469 227.508 220.075 229.012C221.044 229.571 221.8 229.779 222.343 229.636C222.885 229.495 223.157 229.014 223.157 228.195Z" fill="#374F9F"/>
<path d="M246.239 236.591C246.239 238.849 245.894 240.629 245.207 241.933C244.519 243.237 243.535 243.981 242.254 244.165C240.973 244.35 239.505 243.964 237.848 243.008C236.21 242.062 234.747 240.761 233.463 239.106C232.177 237.45 231.182 235.571 230.476 233.468C229.77 231.365 229.412 229.208 229.403 226.998V225.864C229.403 223.607 229.753 221.822 230.455 220.511C231.156 219.199 232.147 218.454 233.429 218.274C234.709 218.095 236.174 218.481 237.821 219.432C239.468 220.383 240.932 221.688 242.214 223.346C243.495 225.004 244.485 226.894 245.187 229.016C245.888 231.138 246.239 233.322 246.239 235.569V236.591ZM242.111 233.169C242.111 230.765 241.74 228.723 240.998 227.045C240.255 225.367 239.196 224.131 237.82 223.336C236.454 222.547 235.398 222.555 234.656 223.36C233.914 224.166 233.538 225.757 233.529 228.136V229.254C233.529 231.595 233.9 233.626 234.642 235.346C235.384 237.066 236.453 238.328 237.846 239.133C239.212 239.922 240.262 239.906 240.996 239.085C241.729 238.264 242.1 236.664 242.109 234.286V233.169H242.111Z" fill="#1F915C"/>
<path d="M256.517 245.077L253.271 243.204V251.599L249.198 249.248V226.316L256.543 230.557C258.879 231.905 260.68 233.549 261.947 235.488C263.214 237.427 263.848 239.499 263.848 241.704C263.848 243.269 263.556 244.405 262.972 245.113C262.388 245.821 261.503 246.142 260.317 246.076L264.595 257.916V258.137L260.223 255.613L256.517 245.077ZM253.271 239.376L256.557 241.273C257.58 241.864 258.371 242.019 258.933 241.739C259.494 241.46 259.775 240.789 259.775 239.728C259.775 238.647 259.51 237.644 258.981 236.718C258.451 235.793 257.639 235.014 256.543 234.382L253.271 232.493V239.376Z" fill="#F14405"/>
<path d="M278.839 256.421L271.018 251.905V258.048L280.196 263.347V267.143L266.945 259.492V236.56L280.169 244.195V248.023L271.018 242.739V248.204L278.839 252.719V256.421Z" fill="#374F9F"/>
<path d="M282.585 268.522V245.59L288.668 249.102C290.406 250.105 291.96 251.457 293.332 253.157C294.703 254.857 295.773 256.766 296.543 258.885C297.312 261.004 297.697 263.129 297.697 265.261V266.317C297.697 268.448 297.319 270.125 296.563 271.348C295.807 272.57 294.741 273.241 293.365 273.361C291.989 273.48 290.437 273.046 288.708 272.058L282.585 268.522ZM286.659 251.77V267.079L288.628 268.216C290.221 269.136 291.438 269.235 292.28 268.513C293.122 267.792 293.552 266.313 293.57 264.076V262.863C293.57 260.532 293.154 258.525 292.321 256.842C291.488 255.159 290.271 253.855 288.669 252.93L286.659 251.77Z" fill="#EC891D"/>
<path d="M300.937 308.864C300.274 308.864 299.545 308.646 298.795 308.213L157.441 226.604C154.9 225.137 152.832 221.556 152.832 218.622L152.833 206.44C152.833 204.953 153.35 203.836 154.289 203.294C155.228 202.752 156.454 202.864 157.741 203.606L299.096 285.215C301.637 286.682 303.704 290.262 303.704 293.196L303.703 305.378C303.703 306.865 303.186 307.982 302.247 308.524C301.856 308.751 301.414 308.864 300.937 308.864ZM299.096 307.693C300.189 308.325 301.202 308.435 301.949 308.006C302.694 307.576 303.105 306.643 303.105 305.379L303.106 293.197C303.106 290.454 301.173 287.106 298.797 285.735L157.442 204.126C156.348 203.493 155.335 203.383 154.59 203.813C153.844 204.244 153.434 205.176 153.434 206.439L153.433 218.621C153.433 221.364 155.366 224.712 157.741 226.083L299.096 307.693Z" fill="#959396"/>
<path d="M249.587 298.112L206.952 273.497C206.209 273.069 205.607 272.025 205.607 271.168V262.437C205.607 261.579 206.209 261.232 206.952 261.66L249.587 286.275C250.33 286.704 250.931 287.747 250.931 288.604V297.335C250.931 298.192 250.329 298.54 249.587 298.112Z" fill="#D4CED8"/>
<path d="M218.211 274.633C217.591 274.069 217.14 273.557 216.858 273.094C216.576 272.631 216.435 272.179 216.435 271.739C216.435 271.24 216.607 270.928 216.952 270.801C217.297 270.674 217.746 270.77 218.297 271.089C218.673 271.306 219.01 271.584 219.304 271.922C219.599 272.26 219.827 272.623 219.989 273.012C220.151 273.401 220.231 273.771 220.231 274.121L219.505 273.702C219.505 273.319 219.4 272.956 219.189 272.615C218.978 272.274 218.681 271.993 218.297 271.771C217.941 271.565 217.663 271.496 217.464 271.562C217.265 271.628 217.165 271.822 217.165 272.144C217.165 272.402 217.26 272.675 217.449 272.963C217.638 273.251 217.961 273.6 218.416 274.011C218.871 274.422 219.227 274.791 219.484 275.118C219.741 275.444 219.932 275.763 220.056 276.072C220.18 276.381 220.242 276.697 220.242 277.018C220.242 277.531 220.069 277.842 219.723 277.95C219.376 278.058 218.914 277.945 218.334 277.611C217.958 277.394 217.606 277.107 217.28 276.753C216.954 276.398 216.703 276.025 216.526 275.633C216.349 275.241 216.261 274.862 216.261 274.493L216.987 274.913C216.987 275.295 217.109 275.668 217.353 276.03C217.598 276.393 217.925 276.693 218.334 276.929C218.715 277.149 219.007 277.228 219.211 277.166C219.414 277.104 219.516 276.917 219.516 276.608C219.516 276.298 219.422 276.004 219.234 275.726C219.046 275.447 218.705 275.083 218.211 274.633Z" fill="#0E1838"/>
<path d="M222.748 280.16C222.196 279.841 221.748 279.373 221.401 278.755C221.055 278.136 220.882 277.477 220.882 276.775V276.627C220.882 276.161 220.959 275.789 221.114 275.511C221.268 275.234 221.484 275.072 221.761 275.025C222.038 274.978 222.338 275.048 222.662 275.235C223.191 275.54 223.602 275.979 223.896 276.551C224.189 277.123 224.336 277.784 224.336 278.534V278.869L221.578 277.277C221.588 277.746 221.705 278.188 221.93 278.603C222.154 279.018 222.439 279.326 222.786 279.525C223.032 279.667 223.24 279.729 223.41 279.712C223.581 279.695 223.73 279.627 223.858 279.51L224.283 280.138C223.942 280.546 223.43 280.553 222.748 280.16ZM222.662 275.896C222.381 275.734 222.145 275.715 221.954 275.841C221.764 275.967 221.646 276.23 221.6 276.63L223.64 277.807V277.746C223.619 277.326 223.524 276.954 223.353 276.631C223.184 276.309 222.953 276.063 222.662 275.896Z" fill="#0E1838"/>
<path d="M227.655 282.906C227.615 282.79 227.582 282.606 227.557 282.354C227.234 282.556 226.847 282.527 226.398 282.268C225.997 282.036 225.667 281.715 225.41 281.304C225.153 280.893 225.024 280.487 225.024 280.084C225.024 279.594 225.185 279.307 225.508 279.223C225.83 279.138 226.284 279.264 226.868 279.602L227.545 279.993V279.623C227.545 279.342 227.472 279.076 227.327 278.826C227.182 278.575 226.967 278.368 226.684 278.205C226.435 278.062 226.227 278.014 226.059 278.062C225.891 278.11 225.807 278.237 225.807 278.442L225.107 278.038C225.107 277.804 225.179 277.618 225.324 277.483C225.468 277.348 225.663 277.287 225.911 277.303C226.158 277.318 226.43 277.411 226.725 277.582C227.194 277.853 227.562 278.201 227.828 278.625C228.094 279.049 228.231 279.502 228.242 279.983V282.147C228.242 282.579 228.29 282.949 228.385 283.259V283.329L227.655 282.906ZM226.5 281.626C226.718 281.752 226.925 281.806 227.12 281.789C227.316 281.772 227.458 281.684 227.546 281.526V280.561L227 280.246C226.148 279.754 225.721 279.796 225.721 280.372C225.721 280.624 225.794 280.863 225.939 281.089C226.085 281.315 226.272 281.494 226.5 281.626Z" fill="#0E1838"/>
<path d="M231.301 281.031C231.195 280.949 231.082 280.874 230.958 280.802C230.502 280.539 230.192 280.584 230.029 280.939V284.276L229.333 283.874V279.173L230.011 279.564L230.022 280.114C230.25 279.826 230.574 279.802 230.993 280.045C231.129 280.123 231.231 280.203 231.301 280.284V281.031Z" fill="#0E1838"/>
<path d="M233.502 285.712C233.75 285.855 233.967 285.894 234.152 285.827C234.338 285.761 234.441 285.603 234.461 285.353L235.119 285.733C235.106 285.995 235.026 286.205 234.878 286.363C234.73 286.521 234.533 286.601 234.286 286.603C234.039 286.605 233.777 286.527 233.502 286.367C232.948 286.048 232.507 285.579 232.179 284.963C231.851 284.346 231.688 283.667 231.688 282.926V282.791C231.688 282.333 231.761 281.968 231.907 281.696C232.052 281.424 232.261 281.268 232.533 281.228C232.805 281.189 233.127 281.276 233.498 281.49C233.954 281.754 234.334 282.131 234.636 282.621C234.938 283.111 235.099 283.614 235.119 284.13L234.461 283.75C234.441 283.434 234.341 283.127 234.162 282.828C233.983 282.529 233.761 282.304 233.498 282.151C233.144 281.947 232.87 281.936 232.676 282.118C232.482 282.3 232.385 282.669 232.385 283.225V283.377C232.385 283.919 232.481 284.392 232.675 284.796C232.867 285.2 233.143 285.505 233.502 285.712Z" fill="#0E1838"/>
<path d="M236.599 283.937C236.907 283.678 237.309 283.69 237.803 283.976C238.663 284.473 239.097 285.284 239.104 286.409V289.516L238.409 289.114V286.003C238.406 285.662 238.339 285.373 238.207 285.135C238.075 284.896 237.87 284.697 237.592 284.536C237.366 284.406 237.168 284.361 236.997 284.401C236.827 284.442 236.693 284.547 236.599 284.719V288.069L235.903 287.667V280.994L236.599 281.396V283.937Z" fill="#0E1838"/>
<path d="M290.204 294.235C288.022 292.975 286.247 289.901 286.247 287.382C286.247 284.862 288.022 283.838 290.204 285.097C292.386 286.357 294.161 289.431 294.161 291.95C294.16 294.47 292.385 295.495 290.204 294.235ZM290.204 287.298C289.073 286.645 288.153 287.176 288.153 288.482C288.153 289.788 289.073 291.381 290.204 292.034C291.335 292.687 292.255 292.156 292.255 290.85C292.254 289.544 291.334 287.951 290.204 287.298Z" fill="#959396"/>
<path d="M295.96 301.638C295.716 301.497 295.472 301.249 295.286 300.927L291.221 293.885C290.848 293.24 290.848 292.544 291.221 292.329C291.593 292.114 292.197 292.462 292.569 293.107L296.634 300.149C297.006 300.794 297.006 301.49 296.634 301.705C296.448 301.812 296.203 301.779 295.96 301.638Z" fill="#959396"/>
<path d="M38.4138 156.503L94.6708 124.024C98.0678 122.063 100.847 123.667 100.847 127.589V138.713C101.277 143.191 103.145 146.192 106.2 146.151C102.466 150.811 97.6728 152.302 93.3668 151.817L38.4138 183.543C35.0178 185.504 32.2378 183.899 32.2378 179.977V167.199C32.2388 163.277 35.0178 158.464 38.4138 156.503Z" fill="#F1F1F1"/>
<path d="M58.4092 162.908L94.5062 142.068L94.5052 138.578L58.4092 159.417V162.908Z" fill="#B2D5B2"/>
<path d="M36.314 165.982V169.473L94.505 135.877V132.386L36.314 165.982Z" fill="#B2D5B2"/>
<path d="M33.689 173.991C33.689 178.94 37.164 180.945 41.449 178.471C45.735 175.997 49.209 169.979 49.208 165.031C49.208 160.082 45.734 158.077 41.448 160.551C37.163 163.025 33.689 169.042 33.689 173.991Z" fill="#D42B01"/>
<path d="M40.5829 173.062C40.8589 172.635 41.1699 172.322 41.5179 172.121C41.8659 171.92 42.1769 171.874 42.4529 171.983C42.7279 172.092 42.8659 172.391 42.8659 172.882C42.8659 173.373 42.7279 173.832 42.4529 174.258C42.1769 174.685 41.8659 174.998 41.5189 175.199C41.1709 175.4 40.8589 175.446 40.5839 175.337C40.3089 175.228 40.1719 174.928 40.1719 174.438C40.1709 173.948 40.3079 173.489 40.5829 173.062ZM40.3589 164.056L42.6629 162.726V165.721C42.6629 166.625 42.6319 167.485 42.5689 168.302C42.5059 169.119 42.4259 169.957 42.3299 170.816L40.6779 171.77C40.5809 171.022 40.5039 170.275 40.4459 169.528C40.3879 168.781 40.3589 167.955 40.3589 167.051V164.056Z" fill="white"/>
<path d="M224.765 82.116L227.384 80.594L227.427 65.438L224.808 66.96L224.765 82.116Z" fill="#CBC3D0"/>
<path d="M224.808 66.96L227.427 65.438L165.318 29.579L162.699 31.101L224.808 66.96Z" fill="#F1F1F1"/>
<path d="M162.699 31.101L162.656 46.258L224.765 82.116L224.808 66.96L162.699 31.101Z" fill="#E0DDE1"/>
<path d="M170.841 45.1579C170.789 45.9559 170.526 46.4549 170.051 46.6559C169.576 46.8569 168.95 46.7329 168.173 46.2839C167.323 45.7929 166.655 45.0759 166.168 44.1309C165.681 43.1859 165.438 42.1349 165.438 40.9769V40.5069C165.438 39.7679 165.55 39.1819 165.774 38.7479C165.999 38.3149 166.32 38.0679 166.737 38.0079C167.154 37.9479 167.639 38.0769 168.191 38.3959C168.956 38.8379 169.571 39.4309 170.039 40.1759C170.507 40.9209 170.777 41.7439 170.849 42.6449L169.483 41.8569C169.45 41.3409 169.331 40.9129 169.126 40.5709C168.921 40.2289 168.608 39.9369 168.19 39.6949C167.734 39.4319 167.394 39.4249 167.168 39.6729C166.941 39.9199 166.826 40.4409 166.819 41.2319V41.8129C166.819 42.6439 166.928 43.3139 167.144 43.8219C167.361 44.3309 167.703 44.7199 168.171 44.9899C168.593 45.2339 168.908 45.3039 169.115 45.1999C169.323 45.0969 169.442 44.8199 169.472 44.3689L170.841 45.1579Z" fill="#05A602"/>
<path d="M175.725 47.207L173.103 45.693V47.752L176.18 49.529V50.801L171.737 48.236V40.548L176.17 43.108V44.391L173.102 42.62V44.452L175.724 45.966V47.207H175.725Z" fill="#05A602"/>
<path d="M182.37 54.3749L181.004 53.5869L178.346 46.9939V52.0519L176.98 51.2639V43.5759L178.346 44.3649L181.009 50.9709V45.9019L182.37 46.6879V54.3749Z" fill="#05A602"/>
<path d="M186.999 55.0309C186.999 54.7319 186.908 54.4499 186.727 54.1839C186.545 53.9189 186.217 53.5609 185.743 53.1089C185.27 52.6579 184.895 52.2669 184.619 51.9349C183.866 51.0289 183.49 50.1759 183.49 49.3769C183.49 48.9619 183.591 48.6499 183.792 48.4399C183.994 48.2309 184.284 48.1439 184.661 48.1789C185.039 48.2139 185.463 48.3669 185.934 48.6389C186.407 48.9119 186.829 49.2549 187.2 49.6679C187.569 50.0799 187.857 50.5269 188.062 51.0079C188.267 51.4889 188.37 51.9599 188.37 52.4209L187.005 51.6329C187.005 51.2809 186.909 50.9519 186.718 50.6459C186.527 50.3399 186.258 50.0869 185.912 49.8869C185.578 49.6939 185.319 49.6259 185.134 49.6839C184.949 49.7399 184.856 49.9029 184.856 50.1699C184.856 50.4199 184.965 50.6919 185.182 50.9869C185.398 51.2809 185.718 51.6239 186.14 52.0149C186.917 52.7339 187.483 53.3979 187.838 54.0039C188.194 54.6099 188.371 55.2129 188.371 55.8109C188.371 56.4769 188.154 56.8729 187.72 57.0009C187.285 57.1289 186.702 56.9809 185.967 56.5569C185.457 56.2629 184.993 55.8859 184.574 55.4279C184.155 54.9699 183.836 54.4889 183.616 53.9849C183.396 53.4809 183.286 52.9809 183.286 52.4849L184.656 53.2759C184.656 54.1249 185.093 54.8009 185.967 55.3049C186.292 55.4929 186.545 55.5619 186.728 55.5149C186.908 55.4669 186.999 55.3049 186.999 55.0309Z" fill="#05A602"/>
<path d="M194.737 57.8459C194.737 58.6029 194.622 59.1999 194.391 59.6369C194.161 60.0739 193.831 60.3239 193.401 60.3859C192.971 60.4479 192.479 60.3189 191.924 59.9979C191.375 59.6809 190.885 59.2449 190.454 58.6899C190.023 58.1349 189.689 57.5049 189.453 56.7999C189.216 56.0949 189.096 55.3719 189.093 54.6309V54.2499C189.093 53.4929 189.211 52.8949 189.446 52.4549C189.681 52.0149 190.013 51.7659 190.443 51.7059C190.873 51.6459 191.363 51.7749 191.916 52.0939C192.468 52.4129 192.959 52.8499 193.388 53.4059C193.818 53.9619 194.15 54.5959 194.385 55.3069C194.62 56.0179 194.738 56.7509 194.738 57.5039V57.8459H194.737ZM193.354 56.6979C193.354 55.8919 193.23 55.2079 192.981 54.6449C192.733 54.0829 192.377 53.6679 191.916 53.4019C191.457 53.1369 191.104 53.1399 190.855 53.4099C190.606 53.6799 190.48 54.2129 190.477 55.0109V55.3859C190.477 56.1709 190.602 56.8519 190.85 57.4279C191.099 58.0049 191.457 58.4279 191.924 58.6979C192.382 58.9629 192.735 58.9569 192.98 58.6819C193.226 58.4059 193.35 57.8699 193.353 57.0729V56.6979H193.354Z" fill="#05A602"/>
<path d="M198.183 60.6899L197.095 60.0619V62.8759L195.73 62.0879V54.3999L198.192 55.8219C198.976 56.2739 199.579 56.8249 200.004 57.4749C200.429 58.1249 200.641 58.8199 200.641 59.5589C200.641 60.0839 200.543 60.4639 200.348 60.7019C200.152 60.9389 199.855 61.0469 199.458 61.0249L200.891 64.9939V65.0679L199.426 64.2219L198.183 60.6899ZM197.095 58.7789L198.197 59.4149C198.54 59.6129 198.806 59.6649 198.994 59.5709C199.182 59.4769 199.276 59.2519 199.276 58.8969C199.276 58.5349 199.187 58.1979 199.01 57.8879C198.832 57.5779 198.56 57.3169 198.192 57.1049L197.095 56.4719V58.7789Z" fill="#05A602"/>
<path d="M205.115 65.4899C205.115 65.1909 205.024 64.9079 204.842 64.6429C204.66 64.3779 204.332 64.0199 203.859 63.5679C203.385 63.1169 203.01 62.7249 202.735 62.3939C201.983 61.4869 201.606 60.6349 201.606 59.8359C201.606 59.4209 201.707 59.1079 201.909 58.8989C202.11 58.6899 202.4 58.6029 202.778 58.6379C203.156 58.6729 203.58 58.8259 204.05 59.0979C204.523 59.3709 204.945 59.7139 205.316 60.1269C205.686 60.5399 205.973 60.9869 206.178 61.4669C206.383 61.9479 206.486 62.4189 206.486 62.8799L205.12 62.0909C205.12 61.7389 205.024 61.4099 204.834 61.1049C204.643 60.7989 204.374 60.5459 204.028 60.3469C203.694 60.1539 203.435 60.0859 203.25 60.1429C203.065 60.1999 202.973 60.3619 202.973 60.6289C202.973 60.8789 203.081 61.1509 203.298 61.4449C203.515 61.7389 203.834 62.0819 204.256 62.4729C205.033 63.1919 205.599 63.8549 205.954 64.4609C206.309 65.0669 206.487 65.6699 206.487 66.2679C206.487 66.9329 206.27 67.3299 205.836 67.4579C205.402 67.5859 204.818 67.4379 204.083 67.0129C203.573 66.7189 203.109 66.3429 202.691 65.8849C202.271 65.4269 201.953 64.9459 201.732 64.4419C201.512 63.9379 201.403 63.4379 201.403 62.9419L202.773 63.7329C202.773 64.5809 203.209 65.2569 204.083 65.7619C204.408 65.9499 204.662 66.0189 204.844 65.9709C205.024 65.9259 205.115 65.7649 205.115 65.4899Z" fill="#05A602"/>
<path d="M212.803 71.946L211.438 71.157V67.862L208.775 66.325V69.62L207.41 68.832V61.144L208.775 61.932V65.047L211.438 66.584V63.469L212.803 64.258V71.946Z" fill="#05A602"/>
<path d="M215.448 73.4728L214.083 72.6848V64.9968L215.448 65.7848V73.4728Z" fill="#05A602"/>
<path d="M218.079 72.2829V74.9919L216.713 74.2039V66.5159L219.299 68.0089C219.797 68.2959 220.235 68.6549 220.612 69.0839C220.99 69.5139 221.28 69.9819 221.483 70.4879C221.687 70.9939 221.788 71.4959 221.788 71.9919C221.788 72.7449 221.566 73.2109 221.121 73.3889C220.677 73.5669 220.061 73.4289 219.275 72.9759L218.079 72.2829ZM218.079 70.9999L219.299 71.7049C219.66 71.9129 219.935 71.9739 220.125 71.8859C220.315 71.7979 220.41 71.5719 220.41 71.2059C220.41 70.8289 220.314 70.4689 220.123 70.1269C219.932 69.7839 219.668 69.5119 219.331 69.3109L218.08 68.5879V70.9999H218.079Z" fill="#05A602"/>
<path d="M230.317 100.532L250.346 148.762L210.288 125.634L230.317 100.532Z" fill="#F20505"/>
<path d="M230.317 105.299L246.352 143.912L214.282 125.396L230.317 105.299ZM230.317 102.916L212.283 125.515L248.348 146.336L230.317 102.916Z" fill="white"/>
<path d="M231.367 130.846C231.367 131.713 231.124 132.242 230.638 132.435C230.151 132.627 229.601 132.546 228.986 132.191C228.372 131.836 227.822 131.282 227.335 130.528C226.849 129.774 226.606 128.964 226.606 128.097C226.606 127.23 226.85 126.701 227.336 126.509C227.822 126.317 228.372 126.398 228.987 126.753C229.601 127.107 230.152 127.662 230.639 128.415C231.124 129.169 231.367 129.98 231.367 130.846ZM231.035 117.797C231.035 119.393 230.984 120.852 230.881 122.171C230.779 123.491 230.642 124.811 230.471 126.132L227.553 124.447C227.382 122.929 227.242 121.45 227.131 120.007C227.02 118.564 226.965 117.044 226.965 115.448V110.157L231.035 112.507V117.797Z" fill="white"/>
<path d="M201.194 101.26L203.813 99.7381L203.855 84.5811L201.237 86.1031L201.194 101.26Z" fill="#CBC3D0"/>
<path d="M201.237 86.103L203.855 84.581L141.747 48.723L139.128 50.245L201.237 86.103Z" fill="#F1F1F1"/>
<path d="M139.128 50.245L139.085 65.401L201.194 101.26L201.237 86.103L139.128 50.245Z" fill="#E0DDE1"/>
<path d="M144.934 66.337C144.517 66.096 144.101 65.841 143.686 65.572C143.272 65.303 142.842 64.985 142.395 64.616V56.051C142.747 56.178 143.131 56.342 143.549 56.545C143.967 56.748 144.355 56.953 144.714 57.16C145.197 57.439 145.642 57.737 146.049 58.052C146.455 58.368 146.805 58.708 147.098 59.072C147.392 59.437 147.62 59.826 147.785 60.24C147.949 60.654 148.032 61.094 148.032 61.562C148.032 62.267 147.739 62.654 147.154 62.724C147.637 63.215 147.967 63.695 148.142 64.161C148.318 64.628 148.406 65.091 148.406 65.549C148.406 66.476 148.115 67.004 147.532 67.135C146.95 67.267 146.084 67 144.934 66.337ZM144.067 60.355L144.902 60.838C145.429 61.142 145.807 61.281 146.033 61.255C146.261 61.229 146.374 61.042 146.374 60.693C146.374 60.336 146.257 60.018 146.022 59.738C145.788 59.458 145.443 59.187 144.989 58.925C144.843 58.841 144.685 58.752 144.517 58.659C144.348 58.566 144.198 58.49 144.067 58.431V60.355ZM144.067 61.872V64.154C144.191 64.243 144.327 64.334 144.473 64.427C144.619 64.52 144.781 64.618 144.956 64.719C145.469 65.015 145.882 65.169 146.197 65.181C146.512 65.193 146.67 64.97 146.67 64.511C146.67 64.103 146.538 63.736 146.274 63.41C146.01 63.083 145.633 62.778 145.142 62.495L144.067 61.872Z" fill="#05A602"/>
<path d="M154.866 70.248V71.956L149.779 69.019V60.187L151.493 61.176V68.301L154.866 70.248Z" fill="#05A602"/>
<path d="M162.996 72.227C162.996 72.984 162.899 73.592 162.705 74.053C162.511 74.515 162.245 74.841 161.908 75.033C161.571 75.225 161.17 75.285 160.705 75.212C160.24 75.138 159.74 74.948 159.205 74.639C158.685 74.338 158.195 73.957 157.733 73.496C157.271 73.034 156.869 72.511 156.524 71.925C156.18 71.34 155.909 70.703 155.711 70.015C155.513 69.327 155.415 68.605 155.415 67.849C155.415 67.093 155.517 66.487 155.722 66.032C155.927 65.577 156.204 65.255 156.552 65.064C156.9 64.874 157.302 64.814 157.76 64.882C158.218 64.951 158.7 65.131 159.205 65.423C159.725 65.723 160.216 66.105 160.677 66.566C161.139 67.028 161.542 67.554 161.886 68.143C162.23 68.733 162.501 69.371 162.699 70.059C162.898 70.749 162.996 71.471 162.996 72.227ZM157.184 68.872C157.184 69.305 157.23 69.723 157.321 70.124C157.413 70.525 157.545 70.901 157.717 71.251C157.889 71.601 158.1 71.916 158.349 72.195C158.598 72.475 158.883 72.708 159.206 72.894C159.521 73.076 159.805 73.172 160.058 73.182C160.31 73.192 160.522 73.121 160.695 72.97C160.867 72.819 160.999 72.595 161.091 72.3C161.183 72.004 161.228 71.64 161.228 71.207C161.228 70.774 161.182 70.354 161.091 69.949C160.999 69.544 160.867 69.166 160.695 68.816C160.523 68.466 160.311 68.15 160.058 67.868C159.805 67.586 159.521 67.354 159.206 67.172C158.884 66.986 158.598 66.891 158.349 66.887C158.1 66.883 157.889 66.958 157.717 67.109C157.545 67.26 157.413 67.486 157.321 67.785C157.23 68.085 157.184 68.447 157.184 68.872Z" fill="#05A602"/>
<path d="M167.897 79.6579C166.659 78.9429 165.716 77.9989 165.068 76.8269C164.42 75.6539 164.095 74.3329 164.095 72.8619C164.095 72.1319 164.194 71.5369 164.392 71.0769C164.59 70.6179 164.86 70.2899 165.205 70.0929C165.549 69.8969 165.96 69.8339 166.436 69.9049C166.912 69.9759 167.428 70.1719 167.985 70.4939C168.308 70.6799 168.6 70.8769 168.864 71.0839C169.128 71.2909 169.359 71.4889 169.557 71.6749C169.755 71.8619 169.92 72.0309 170.051 72.1829C170.183 72.3359 170.278 72.4509 170.336 72.5259L169.842 73.8459C169.608 73.5659 169.335 73.2849 169.023 73.0039C168.711 72.7229 168.358 72.4679 167.962 72.2389C167.699 72.0869 167.44 71.9889 167.188 71.9439C166.935 71.8999 166.712 71.9349 166.517 72.0479C166.323 72.1609 166.167 72.3619 166.05 72.6509C165.933 72.9399 165.875 73.3399 165.875 73.8499C165.875 74.2579 165.913 74.6599 165.991 75.0569C166.068 75.4539 166.192 75.8289 166.364 76.1839C166.537 76.5379 166.761 76.8699 167.04 77.1789C167.319 77.4889 167.655 77.7569 168.05 77.9859C168.299 78.1299 168.523 78.2419 168.721 78.3219C168.919 78.4029 169.094 78.4639 169.248 78.5059C169.401 78.5479 169.537 78.5729 169.655 78.5809C169.772 78.5889 169.878 78.5949 169.973 78.5989L170.445 80.4649C170.203 80.4949 169.863 80.4519 169.423 80.3339C168.984 80.2169 168.475 79.9919 167.897 79.6579Z" fill="#05A602"/>
<path d="M176.033 84.176C175.878 83.799 175.697 83.384 175.487 82.929C175.278 82.474 175.052 82.007 174.81 81.529C174.568 81.051 174.315 80.579 174.05 80.116C173.785 79.652 173.522 79.225 173.257 78.834V82.575L171.543 81.585V72.752L173.257 73.741V77.061C173.697 76.779 174.145 76.475 174.6 76.152C175.054 75.828 175.475 75.526 175.86 75.244L177.894 76.418C177.376 76.835 176.854 77.222 176.33 77.58C175.806 77.938 175.254 78.284 174.675 78.619C175.283 79.56 175.872 80.599 176.437 81.734C177.003 82.87 177.547 84.076 178.07 85.352L176.033 84.176Z" fill="#05A602"/>
<path d="M179.059 77.0911L180.773 78.0811V86.9141L179.059 85.9241V77.0911Z" fill="#05A602"/>
<path d="M187.64 90.878C187.149 89.583 186.618 88.278 186.047 86.963C185.475 85.648 184.867 84.366 184.223 83.119V88.905L182.531 87.928V79.095L183.926 79.9C184.168 80.32 184.435 80.818 184.728 81.396C185.021 81.973 185.32 82.581 185.624 83.219C185.928 83.858 186.23 84.512 186.531 85.183C186.831 85.853 187.113 86.494 187.377 87.105V81.892L189.08 82.875V91.708L187.64 90.878Z" fill="#05A602"/>
<path d="M194.551 87.5651C193.752 87.1041 193.176 87.0281 192.821 87.3371C192.465 87.6461 192.288 88.2471 192.288 89.1391C192.288 89.5721 192.332 89.9911 192.42 90.3941C192.507 90.7971 192.64 91.1771 192.815 91.5341C192.99 91.8901 193.211 92.2151 193.474 92.5071C193.737 92.7991 194.045 93.0471 194.397 93.2501C194.588 93.3601 194.75 93.4501 194.886 93.5201C195.021 93.5901 195.14 93.6411 195.243 93.6751V90.6031L196.957 91.5931V95.9651C196.752 95.9401 196.422 95.8501 195.968 95.6941C195.514 95.5381 194.954 95.2681 194.288 94.8831C193.716 94.5531 193.198 94.1521 192.733 93.6791C192.268 93.2071 191.871 92.6801 191.541 92.0991C191.212 91.5181 190.957 90.8911 190.777 90.2181C190.598 89.5451 190.508 88.8431 190.508 88.1121C190.508 87.3731 190.607 86.7761 190.805 86.3211C191.003 85.8661 191.273 85.5401 191.618 85.3441C191.962 85.1471 192.367 85.0821 192.832 85.1461C193.297 85.2111 193.794 85.3951 194.321 85.7001C194.68 85.9071 195.004 86.1221 195.294 86.3451C195.583 86.5671 195.832 86.7751 196.041 86.9671C196.25 87.1601 196.422 87.3341 196.558 87.4881C196.693 87.6421 196.79 87.7581 196.849 87.8351L196.354 89.1421C196.12 88.8621 195.85 88.5821 195.546 88.3001C195.241 88.0161 194.91 87.7721 194.551 87.5651Z" fill="#05A602"/>
<path d="M162.967 334.448L162.943 342.753C162.953 339.092 160.537 335.426 155.699 332.632C146.08 327.078 130.543 327.079 120.99 332.63C116.242 335.389 113.866 338.998 113.856 342.613L113.879 334.308C113.889 330.693 116.266 327.084 121.014 324.325C130.566 318.774 146.103 318.774 155.722 324.327C160.561 327.121 162.978 330.787 162.967 334.448Z" fill="#0E1838"/>
<mask id="mask2_322_1430" style="mask-type:luminance" maskUnits="userSpaceOnUse" x="113" y="320" width="50" height="23">
<path d="M162.967 334.448L162.943 342.753C162.953 339.092 160.537 335.426 155.699 332.632C146.08 327.078 130.543 327.079 120.99 332.63C116.242 335.389 113.866 338.998 113.856 342.613L113.879 334.308C113.889 330.693 116.266 327.084 121.014 324.325C130.566 318.774 146.103 318.774 155.722 324.327C160.561 327.121 162.978 330.787 162.967 334.448Z" fill="white"/>
</mask>
<g mask="url(#mask2_322_1430)">
<path d="M162.967 334.448L162.943 342.753C162.953 339.092 160.537 335.426 155.699 332.632C146.08 327.078 130.543 327.079 120.99 332.63C116.242 335.389 113.866 338.998 113.856 342.613L113.879 334.308C113.889 330.693 116.266 327.084 121.014 324.325C130.566 318.774 146.103 318.774 155.722 324.327C160.561 327.121 162.978 330.787 162.967 334.448Z" fill="#D4CED8"/>
</g>
<path d="M167.156 334.46L167.133 341.116C167.121 345.348 164.34 349.573 158.785 352.801C147.6 359.3 129.41 359.303 118.152 352.803C112.487 349.532 109.658 345.239 109.67 340.952L109.693 334.296C109.681 338.583 112.51 342.877 118.175 346.147C129.433 352.647 147.623 352.644 158.808 346.145C164.363 342.917 167.144 338.691 167.156 334.46Z" fill="#0E1838"/>
<mask id="mask3_322_1430" style="mask-type:luminance" maskUnits="userSpaceOnUse" x="109" y="334" width="59" height="24">
<path d="M167.156 334.46L167.133 341.116C167.121 345.348 164.34 349.573 158.785 352.801C147.6 359.3 129.41 359.303 118.152 352.803C112.487 349.532 109.658 345.239 109.67 340.952L109.693 334.296C109.681 338.583 112.51 342.877 118.175 346.147C129.433 352.647 147.623 352.644 158.808 346.145C164.363 342.917 167.144 338.691 167.156 334.46Z" fill="white"/>
</mask>
<g mask="url(#mask3_322_1430)">
<path d="M167.156 334.46L167.133 341.116C167.121 345.348 164.34 349.573 158.785 352.801C147.6 359.3 129.41 359.303 118.152 352.803C112.487 349.532 109.658 345.239 109.67 340.952L109.693 334.296C109.681 338.583 112.51 342.877 118.175 346.147C129.433 352.647 147.623 352.644 158.808 346.145C164.363 342.917 167.144 338.691 167.156 334.46Z" fill="#D4CED8"/>
</g>
<path d="M158.676 322.611C169.933 329.11 169.988 339.647 158.808 346.145C147.624 352.645 129.433 352.647 118.175 346.147C106.918 339.647 106.858 329.108 118.042 322.609C129.223 316.112 147.418 316.112 158.676 322.611ZM121.128 344.432C130.743 349.983 146.28 349.983 155.836 344.43C165.389 338.878 165.338 329.879 155.723 324.328C146.104 318.774 130.567 318.775 121.015 324.326C111.458 329.879 111.509 338.878 121.128 344.432Z" fill="#F9F7FC"/>
<path opacity="0.4" d="M162.749 336.346C162.049 339.3 159.743 342.153 155.833 344.427C146.281 349.986 130.744 349.986 121.129 344.434C117.136 342.129 114.793 339.238 114.099 336.245C114.793 333.284 117.098 330.431 121.015 328.158C130.566 322.605 146.103 322.605 155.725 328.158C159.712 330.462 162.055 333.353 162.749 336.346Z" fill="#E0DDE1"/>
<path d="M177.98 357.444L160.152 347.016C159.729 346.769 159.143 346.802 158.494 347.174L176.321 357.601C176.971 357.229 177.557 357.196 177.98 357.444Z" fill="#E0DDE1"/>
<mask id="mask4_322_1430" style="mask-type:luminance" maskUnits="userSpaceOnUse" x="158" y="346" width="20" height="12">
<path d="M177.98 357.444L160.152 347.016C159.729 346.769 159.143 346.802 158.494 347.174L176.321 357.601C176.971 357.229 177.557 357.196 177.98 357.444Z" fill="white"/>
</mask>
<g mask="url(#mask4_322_1430)">
<path d="M177.98 357.444L160.152 347.016C159.729 346.769 159.143 346.802 158.494 347.174L176.321 357.601C176.971 357.229 177.557 357.196 177.98 357.444Z" fill="#E0DDE1"/>
</g>
<path d="M156.839 352.68L174.666 363.108C174.249 362.863 173.991 362.347 173.991 361.612C173.991 360.136 175.035 358.339 176.322 357.601L158.495 347.174C157.208 347.912 156.164 349.709 156.164 351.185C156.164 351.919 156.422 352.436 156.839 352.68Z" fill="#E0DDE1"/>
<mask id="mask5_322_1430" style="mask-type:luminance" maskUnits="userSpaceOnUse" x="156" y="347" width="21" height="17">
<path d="M156.839 352.68L174.666 363.108C174.249 362.863 173.991 362.347 173.991 361.612C173.991 360.136 175.035 358.339 176.322 357.601L158.495 347.174C157.208 347.912 156.164 349.709 156.164 351.185C156.164 351.919 156.422 352.436 156.839 352.68Z" fill="white"/>
</mask>
<g mask="url(#mask5_322_1430)">
<path d="M176.322 357.6L158.495 347.173C157.208 347.911 156.164 349.708 156.164 351.184C156.164 351.918 156.422 352.435 156.839 352.679L174.666 363.107C174.249 362.862 173.991 362.346 173.991 361.611C173.992 360.136 175.036 358.339 176.322 357.6Z" fill="#E0DDE1"/>
</g>
<path d="M176.322 357.6C175.035 358.338 173.991 360.135 173.991 361.611C173.991 363.089 175.036 363.688 176.323 362.95C177.611 362.211 178.654 360.415 178.654 358.937C178.654 357.461 177.611 356.862 176.322 357.6Z" fill="#E0DDE1"/>
<path d="M210.79 372.054L171.532 350.576C170.755 350.125 169.678 350.189 168.49 350.875L207.14 372.411C208.566 371.588 209.858 371.512 210.79 372.054Z" fill="#EC891D"/>
<mask id="mask6_322_1430" style="mask-type:luminance" maskUnits="userSpaceOnUse" x="168" y="350" width="43" height="23">
<path d="M210.79 372.054L171.532 350.576C170.755 350.125 169.678 350.189 168.49 350.875L207.14 372.411C208.566 371.588 209.858 371.512 210.79 372.054Z" fill="white"/>
</mask>
<g mask="url(#mask6_322_1430)">
<path d="M210.79 372.054L171.532 350.576C170.755 350.125 169.678 350.189 168.49 350.875L207.14 372.411C208.566 371.588 209.858 371.512 210.79 372.054Z" fill="#EC891D"/>
</g>
<path d="M165.478 360.993L203.525 384.553C202.605 384.018 202.034 382.881 202.03 381.264C202.021 378.009 204.309 374.046 207.141 372.412L168.491 350.876C166.132 352.238 164.224 355.54 164.232 358.253C164.235 359.599 164.711 360.547 165.478 360.993Z" fill="#EC891D"/>
<mask id="mask7_322_1430" style="mask-type:luminance" maskUnits="userSpaceOnUse" x="164" y="350" width="44" height="35">
<path d="M165.478 360.993L203.525 384.553C202.605 384.018 202.034 382.881 202.03 381.264C202.021 378.009 204.309 374.046 207.141 372.412L168.491 350.876C166.132 352.238 164.224 355.54 164.232 358.253C164.235 359.599 164.711 360.547 165.478 360.993Z" fill="white"/>
</mask>
<g mask="url(#mask7_322_1430)">
<path d="M207.14 372.411L168.49 350.875C166.131 352.237 164.223 355.539 164.231 358.252C164.235 359.6 164.71 360.548 165.478 360.993L203.525 384.553C202.605 384.018 202.034 382.881 202.03 381.264C202.02 378.008 204.309 374.046 207.14 372.411Z" fill="#EC891D"/>
</g>
<path d="M207.14 372.411C204.309 374.045 202.02 378.008 202.029 381.263C202.038 384.518 204.342 385.829 207.173 384.195C210.005 382.56 212.294 378.597 212.285 375.342C212.276 372.087 209.973 370.776 207.14 372.411Z" fill="#F14405"/>
</svg>
