<?xml version="1.0" encoding="utf-8"?>
<!-- Generator: Adobe Illustrator 27.5.0, SVG Export Plug-In . SVG Version: 6.00 Build 0)  -->
<svg version="1.1" id="Layer_1" xmlns="http://www.w3.org/2000/svg" xmlns:xlink="http://www.w3.org/1999/xlink" x="0px" y="0px"
	 viewBox="0 0 450 450" style="enable-background:new 0 0 450 450;" xml:space="preserve">
<g>
	<ellipse style="fill:#1A3073;" cx="225" cy="321.873" rx="170.89" ry="98.666"/>
	<g>
		<g>
			<g>
				<polygon style="fill:#EC891D;" points="264.352,191.128 394.11,266.041 394.112,156.687 264.354,81.773 				"/>
				<polygon style="fill:#EC891D;" points="264.354,81.773 394.112,156.687 329.233,62.364 				"/>
				<polygon style="fill:#F25C05;" points="264.352,191.128 394.11,266.041 330.412,171.54 				"/>
				<polygon style="fill:#EC891D;" points="264.352,191.128 394.11,266.041 329.232,173.907 				"/>
				<polygon style="fill:#F25C05;" points="394.112,156.687 264.354,81.773 329.232,173.907 				"/>
			</g>
			<g>
				<path style="fill:#F1F1F1;" d="M249.293,77.317l61.709,35.627c3.726,2.151,6.774,7.431,6.774,11.733l0,12.201
					c0.472,5.458,2.521,11.114,5.871,14.938c-4.096,0.382-9.353-4.053-14.076-10.038l-60.278-34.801
					c-3.725-2.151-6.774-7.431-6.774-11.733V81.228C242.519,76.926,245.567,75.166,249.293,77.317z"/>
				<g>
					<polygon style="fill:#CDC5D3;" points="310.507,132.438 310.507,136.218 284.27,121.07 284.27,117.29 					"/>
					<polygon style="fill:#CDC5D3;" points="310.507,125.733 310.507,129.513 247.493,93.133 247.493,89.353 					"/>
					<polygon style="fill:#CDC5D3;" points="310.507,119.029 310.507,122.809 247.493,86.429 247.493,82.649 					"/>
				</g>
				<path style="fill:#F14405;" d="M244.996,89.421c0,7.214,5.064,15.985,11.311,19.592c6.247,3.607,11.311,0.683,11.311-6.531
					c0-7.214-5.064-15.985-11.311-19.592C250.061,79.283,244.996,82.207,244.996,89.421z M249.175,97.811
					c-1.057-2.289-1.682-4.714-1.682-6.949c0-2.068,0.536-3.682,1.454-4.758l5.127,8.879L249.175,97.811z M256.308,85.773
					c1.935,1.117,3.723,2.871,5.177,4.931l-5.289,3.054l-5.194-8.996C252.477,84.326,254.315,84.622,256.308,85.773z
					 M263.346,106.142l-5.028-8.708l5.261-3.038c0.973,2.199,1.544,4.509,1.544,6.644
					C265.123,103.342,264.461,105.081,263.346,106.142z M256.308,106.13c-1.85-1.068-3.565-2.717-4.983-4.659l4.87-2.812l4.96,8.591
					C259.764,107.507,258.099,107.164,256.308,106.13z"/>
			</g>
			<g>
				<path style="fill:#F1F1F1;" d="M417.26,143.968l-69.438-40.089c-4.192-2.42-7.622-0.44-7.622,4.401l0,13.73
					c-0.531,5.527-2.836,9.231-6.606,9.18c4.609,5.752,10.525,7.592,15.839,6.993l67.828,39.159c4.192,2.42,7.622,0.44,7.622-4.401
					l0-15.771C424.883,152.33,421.453,146.389,417.26,143.968z"/>
				<g>
					<polygon style="fill:#374F9F;" points="417.374,159.264 417.374,163.337 349.469,124.133 349.469,120.06 					"/>
					<polygon style="fill:#374F9F;" points="394.487,157.904 349.469,131.914 349.469,127.84 394.487,153.831 					"/>
					<polygon style="fill:#374F9F;" points="417.374,152.039 417.374,156.112 349.469,116.908 349.469,112.835 					"/>
				</g>
				<g>
					<path style="fill:#D42B01;" d="M421.832,163.824c0,6.538-4.591,9.189-10.253,5.92c-5.663-3.269-10.253-11.221-10.253-17.759
						c0-6.539,4.59-9.189,10.253-5.921C417.241,149.335,421.832,157.285,421.832,163.824z"/>
					<g>
						<path style="fill:#FFFFFF;" d="M413.267,164.416c0,0.648-0.182,1.045-0.545,1.188c-0.364,0.144-0.776,0.083-1.236-0.182
							c-0.46-0.265-0.871-0.68-1.235-1.244c-0.364-0.564-0.546-1.17-0.546-1.818c0-0.648,0.182-1.045,0.546-1.188
							c0.364-0.144,0.775-0.083,1.235,0.182c0.46,0.265,0.872,0.679,1.236,1.244C413.085,163.161,413.267,163.768,413.267,164.416z
							 M413.018,154.654c0,1.194-0.038,2.286-0.115,3.272c-0.077,0.988-0.179,1.975-0.306,2.963l-2.183-1.26
							c-0.128-1.135-0.233-2.243-0.316-3.322c-0.083-1.08-0.124-2.217-0.124-3.411v-3.958l3.044,1.758V154.654z"/>
					</g>
				</g>
			</g>
		</g>
		<g>
			<g style="enable-background:new    ;">
				<path style="fill:#E0DDE1;" d="M367.598,49.843l-5.109,2.969c2.091-1.215,4.986-1.044,8.181,0.801
					c0.682,0.393,1.35,0.849,1.999,1.354l5.109-2.969c-0.649-0.505-1.317-0.96-1.999-1.354
					C372.584,48.8,369.689,48.628,367.598,49.843z"/>
				<g>
					<path style="fill:#F1F1F1;" d="M389.438,49.648c-8.071-4.66-14.865-2.201-16.768,5.319c-0.649-0.505-1.317-0.96-1.999-1.354
						c-6.351-3.667-11.515-0.722-11.536,6.575c-0.019,6.836,4.483,15.069,10.274,19.097l38.639,22.377
						c6.351,3.667,11.515,0.724,11.536-6.574c0.021-7.298-5.11-16.186-11.461-19.853c-0.683-0.394-1.351-0.71-2-0.955
						C404.267,64.591,397.509,54.308,389.438,49.648z"/>
				</g>
				<path style="fill:#E0DDE1;" d="M406.123,74.281l5.109-2.969c-1.856-9.69-8.613-19.973-16.685-24.633l-5.109,2.969
					C397.509,54.308,404.267,64.591,406.123,74.281z"/>
				<path style="fill:#E0DDE1;" d="M382.277,45.478l-5.109,2.969c3.135-1.822,7.477-1.565,12.27,1.202l5.109-2.969
					C389.754,43.912,385.412,43.655,382.277,45.478z"/>
				<path style="fill:#E0DDE1;" d="M416.229,102.465l5.109-2.969c2.064-1.199,3.344-3.75,3.354-7.375
					c0.021-7.298-5.11-16.186-11.461-19.853c-0.683-0.394-1.35-0.71-2-0.955l-5.109,2.969c0.649,0.244,1.317,0.561,2,0.955
					c6.351,3.667,11.482,12.555,11.461,19.853C419.573,98.714,418.293,101.265,416.229,102.465z"/>
			</g>
			<g>
				<g>
					<g>
						<path style="fill:#F25C05;" d="M376.951,70.267c-2.971-4.395-4.803-8.103-4.88-8.259l-0.453-0.923l0.453-0.399
							c0.077-0.068,1.908-1.661,4.88-2.625c3.983-1.292,8.123-0.8,11.973,1.423c3.851,2.223,7.991,6.512,11.974,12.402
							c2.971,4.395,4.803,8.103,4.88,8.259l0.453,0.923l-0.453,0.399c-0.077,0.067-1.908,1.661-4.88,2.625
							c-3.983,1.292-8.123,0.8-11.974-1.423C385.074,80.446,380.933,76.157,376.951,70.267z M388.924,61.614
							c-7.083-4.09-13.188-0.4-14.919,0.85c1.728,3.249,7.822,13.979,14.919,18.076c7.084,4.09,13.19,0.399,14.92-0.85
							C402.115,76.441,396.021,65.711,388.924,61.614z"/>
					</g>
					<g>
						<path style="fill:#F25C05;" d="M381.409,64.158c0-4.389,3.082-6.169,6.884-3.974c3.801,2.195,6.883,7.533,6.883,11.923
							c0,4.39-3.082,6.169-6.883,3.974C384.491,73.886,381.409,68.548,381.409,64.158z"/>
					</g>
					<g>
						<path style="fill:#F1F1F1;" d="M389.492,66.235c0-1.526,1.072-2.145,2.394-1.382c1.322,0.763,2.394,2.619,2.394,4.146
							c0,1.526-1.071,2.145-2.394,1.382C390.564,69.618,389.492,67.762,389.492,66.235z"/>
					</g>
				</g>
			</g>
			<g>
				<path style="fill:#F25C05;" d="M376.987,79.729c-0.026,0.41-0.162,0.667-0.406,0.771c-0.244,0.104-0.566,0.04-0.966-0.191
					c-0.437-0.252-0.781-0.622-1.032-1.108c-0.251-0.486-0.376-1.027-0.376-1.623v-0.242c0-0.381,0.058-0.682,0.173-0.905
					c0.116-0.223,0.281-0.35,0.495-0.381c0.215-0.031,0.464,0.036,0.748,0.2c0.394,0.227,0.711,0.532,0.951,0.916
					c0.241,0.383,0.38,0.807,0.417,1.271l-0.703-0.406c-0.017-0.265-0.079-0.486-0.184-0.662c-0.105-0.176-0.266-0.326-0.481-0.45
					c-0.234-0.135-0.409-0.139-0.526-0.011c-0.116,0.127-0.176,0.395-0.179,0.803v0.299c0,0.427,0.056,0.772,0.167,1.034
					c0.111,0.262,0.287,0.462,0.528,0.601c0.217,0.125,0.379,0.161,0.486,0.108c0.107-0.053,0.168-0.196,0.184-0.428L376.987,79.729
					z"/>
				<path style="fill:#F25C05;" d="M379.5,80.783l-1.349-0.779v1.06l1.583,0.914v0.655l-2.286-1.32v-3.956l2.282,1.317v0.66
					l-1.579-0.911v0.943l1.349,0.779V80.783z"/>
				<path style="fill:#F25C05;" d="M382.92,84.473l-0.703-0.406l-1.368-3.393v2.603l-0.703-0.406v-3.956l0.703,0.406l1.37,3.4
					v-2.609l0.7,0.404V84.473z"/>
				<path style="fill:#F25C05;" d="M385.302,84.81c0-0.154-0.046-0.299-0.14-0.436c-0.094-0.137-0.262-0.321-0.506-0.553
					c-0.244-0.232-0.437-0.434-0.579-0.604c-0.387-0.466-0.581-0.905-0.581-1.316c0-0.214,0.052-0.374,0.156-0.482
					c0.104-0.108,0.253-0.152,0.447-0.134c0.194,0.018,0.412,0.097,0.655,0.237c0.244,0.14,0.461,0.317,0.651,0.529
					c0.19,0.212,0.338,0.442,0.444,0.69c0.105,0.247,0.158,0.49,0.158,0.727l-0.703-0.406c0-0.181-0.049-0.35-0.147-0.508
					c-0.099-0.157-0.237-0.287-0.415-0.39c-0.172-0.099-0.306-0.134-0.401-0.105c-0.095,0.029-0.143,0.113-0.143,0.25
					c0,0.129,0.056,0.269,0.167,0.42c0.112,0.151,0.276,0.328,0.493,0.529c0.4,0.37,0.691,0.711,0.874,1.023
					c0.183,0.312,0.274,0.622,0.274,0.93c0,0.342-0.112,0.547-0.335,0.612c-0.223,0.066-0.524-0.011-0.902-0.229
					c-0.262-0.152-0.501-0.345-0.717-0.581c-0.215-0.236-0.38-0.483-0.493-0.743c-0.113-0.259-0.17-0.516-0.17-0.772l0.705,0.407
					c0,0.437,0.225,0.785,0.674,1.044c0.167,0.097,0.297,0.132,0.391,0.108C385.256,85.034,385.302,84.951,385.302,84.81z"/>
				<path style="fill:#F25C05;" d="M389.285,86.259c0,0.39-0.06,0.697-0.178,0.922c-0.119,0.225-0.288,0.353-0.509,0.385
					c-0.221,0.032-0.475-0.035-0.76-0.2c-0.283-0.163-0.535-0.388-0.757-0.673c-0.222-0.285-0.393-0.61-0.515-0.973
					c-0.122-0.363-0.184-0.735-0.185-1.116v-0.196c0-0.389,0.06-0.697,0.181-0.923c0.121-0.227,0.292-0.355,0.513-0.386
					c0.221-0.031,0.474,0.035,0.758,0.2c0.284,0.164,0.537,0.389,0.758,0.675c0.221,0.286,0.392,0.612,0.513,0.978
					c0.121,0.366,0.182,0.743,0.182,1.131V86.259z M388.573,85.668c0-0.415-0.064-0.767-0.192-1.056
					c-0.128-0.29-0.311-0.503-0.548-0.64c-0.236-0.136-0.418-0.135-0.546,0.004c-0.128,0.139-0.193,0.414-0.195,0.824v0.193
					c0,0.404,0.064,0.754,0.192,1.051c0.128,0.296,0.312,0.514,0.553,0.653c0.236,0.136,0.417,0.133,0.544-0.008
					c0.126-0.142,0.19-0.418,0.192-0.828V85.668z"/>
				<path style="fill:#F25C05;" d="M391.058,87.723l-0.56-0.323v1.448l-0.703-0.406v-3.956l1.267,0.732
					c0.403,0.233,0.714,0.516,0.932,0.851c0.219,0.335,0.328,0.692,0.328,1.073c0,0.27-0.05,0.466-0.151,0.588
					c-0.101,0.122-0.254,0.178-0.458,0.166l0.738,2.043v0.038l-0.754-0.436L391.058,87.723z M390.498,86.739l0.567,0.327
					c0.176,0.102,0.313,0.129,0.41,0.08c0.097-0.048,0.145-0.164,0.145-0.347c0-0.187-0.046-0.36-0.137-0.519
					c-0.091-0.16-0.232-0.294-0.42-0.403l-0.564-0.326V86.739z"/>
				<path style="fill:#F25C05;" d="M394.626,90.192c0-0.154-0.047-0.299-0.141-0.436c-0.094-0.137-0.262-0.321-0.506-0.553
					c-0.243-0.232-0.437-0.434-0.578-0.605c-0.387-0.466-0.581-0.905-0.581-1.316c0-0.214,0.052-0.375,0.156-0.482
					c0.104-0.108,0.253-0.152,0.447-0.134c0.194,0.018,0.412,0.097,0.655,0.237c0.244,0.14,0.46,0.317,0.651,0.529
					c0.19,0.212,0.338,0.442,0.444,0.69c0.105,0.248,0.158,0.49,0.158,0.727l-0.703-0.406c0-0.181-0.049-0.35-0.148-0.508
					c-0.098-0.157-0.236-0.287-0.415-0.39c-0.172-0.099-0.305-0.134-0.4-0.105c-0.095,0.029-0.143,0.113-0.143,0.251
					c0,0.129,0.056,0.269,0.168,0.42c0.112,0.151,0.276,0.328,0.493,0.529c0.4,0.37,0.691,0.711,0.874,1.023
					c0.183,0.312,0.274,0.622,0.274,0.93c0,0.342-0.112,0.546-0.335,0.612c-0.223,0.066-0.524-0.011-0.902-0.229
					c-0.262-0.152-0.501-0.345-0.717-0.581c-0.215-0.236-0.38-0.483-0.493-0.743c-0.113-0.259-0.17-0.517-0.17-0.772l0.705,0.407
					c0,0.436,0.225,0.785,0.674,1.044c0.167,0.096,0.298,0.132,0.391,0.108C394.579,90.417,394.626,90.334,394.626,90.192z"/>
				<path style="fill:#F25C05;" d="M398.582,93.515l-0.703-0.406v-1.695l-1.37-0.791v1.695l-0.703-0.406v-3.956l0.703,0.406v1.603
					l1.37,0.791v-1.603l0.703,0.406V93.515z"/>
				<path style="fill:#F25C05;" d="M399.943,94.301l-0.703-0.406v-3.956l0.703,0.406V94.301z"/>
				<path style="fill:#F25C05;" d="M401.297,93.688v1.394l-0.703-0.406V90.72l1.331,0.768c0.256,0.148,0.481,0.332,0.676,0.553
					c0.194,0.221,0.344,0.462,0.448,0.722c0.105,0.261,0.157,0.519,0.157,0.774c0,0.388-0.115,0.627-0.343,0.719
					c-0.229,0.092-0.546,0.02-0.95-0.213L401.297,93.688z M401.297,93.028l0.628,0.363c0.186,0.107,0.327,0.138,0.425,0.093
					c0.098-0.045,0.146-0.162,0.146-0.35c0-0.194-0.049-0.379-0.147-0.556c-0.098-0.176-0.234-0.316-0.408-0.42l-0.644-0.372V93.028
					z"/>
			</g>
		</g>
		<path style="fill:#FFBC99;" d="M32.291,297.869c-1.725-5.953-1.864-12.237,0.647-17.588c5.944-12.666,19.954-5.933,23.661-49.176
			c2.149-25.079,7.359-30.241,21.967-39.061c7.424-4.482,12.567-10.862,18.357-17.106c5.784-6.238,12.963-10.405,21.36-12.044
			c8.536-1.666,17.449-0.728,25.766,1.815c1.321,0.404,2.719,0.911,3.524,2.033c0.739,1.028,0.832,2.369,0.9,3.633
			c0.159,2.958,0.318,5.917,0.476,8.875c0.126,2.338,0.16,4.95-1.413,6.683c-1.305,1.436-3.374,1.862-5.308,2.023
			c-4.366,0.362-8.748-0.221-13.126-0.397c-4.378-0.175-8.914,0.092-12.85,2.018c-2.479,1.213,0.551,6.218,1.02,8.7
			c0.811,4.291-0.084,5.594,3.131,7.254c3.015,1.557,4.631,4.683,5.757,7.756c3.476,9.494,2.552,19.965,1.419,30.011
			c-1.169,10.366-2.033,21.958-7.181,31.309c-5.939,10.787-16.938,17.991-27.085,24.415c-16.342,10.347-18.251,19.663-24.918,22.833
			C59.1,326.276,38.553,319.482,32.291,297.869z"/>
		<path style="fill:#F9B28C;" d="M99.618,271.392c-4.042,8.589-42.894,44.925-56.94,43.564c8.589,7.853,19.594,9.812,25.715,6.901
			c6.667-3.17,8.575-12.487,24.918-22.833c10.148-6.425,21.146-13.629,27.085-24.415c5.148-9.351,6.012-20.943,7.181-31.309
			c1.133-10.046,2.057-20.517-1.419-30.011c-0.279-0.761-0.588-1.525-0.94-2.267C105.84,226.317,108.463,251.244,99.618,271.392z"/>
		<g id="man_21_">
			<path style="fill:#FFBC99;" d="M374.37,316.444c-0.425-2.996-2.89-28.526-6.184-37.316c-2.875-7.67-9.609-16.233-19.209-24.979
				c-3.587-3.268-7.775-6.27-12.607-6.765c-0.53-0.055-1.076-0.075-1.586,0.071c-0.626,0.172-1.162,0.581-1.642,1.021
				c-2.436,2.228-3.89,5.492-3.921,8.791c-0.061,7.684,5.759,13.353,8.872,19.956c3.293,6.993,5.426,14.541,6.224,22.236
				c0.06,0.601,0.228,1.621,0.282,2.592c0.066,1.102-0.005,2.132-0.525,2.39c0.344,0.086,0.693,0.172,1.036,0.258
				c4.108,1.051,8.023,2.349,11.813,3.906c6.058,2.475,11.802,5.593,17.512,9.337h0.005
				C374.492,317.44,374.4,316.652,374.37,316.444z"/>
			<g>
				<g style="enable-background:new    ;">
					<g>
						<defs>
							<path id="SVGID_1_" d="M332.936,387.885l6.719-3.902c2.598-1.509,4.209-4.719,4.22-9.28l-6.718,3.904
								C337.146,383.167,335.534,386.376,332.936,387.885z"/>
						</defs>
						<use xlink:href="#SVGID_1_"  style="overflow:visible;fill:#F1F1FF;"/>
						<clipPath id="SVGID_00000100371133509936235830000012119666758912782767_">
							<use xlink:href="#SVGID_1_"  style="overflow:visible;"/>
						</clipPath>
						<g style="clip-path:url(#SVGID_00000100371133509936235830000012119666758912782767_);enable-background:new    ;">
							<path style="fill:#F1F1FF;" d="M332.936,387.885l6.719-3.902c2.598-1.509,4.209-4.719,4.22-9.28l-6.718,3.904
								C337.146,383.167,335.534,386.376,332.936,387.885L332.936,387.885z"/>
						</g>
					</g>
					<g>
						<polygon style="fill:#F1F1FF;" points="337.157,378.608 343.875,374.704 344.263,229.756 337.544,233.66 						"/>
					</g>
					<g>
						<polygon style="fill:#F1F1FF;" points="323.139,208.695 329.854,204.791 135.256,92.439 128.538,96.344 						"/>
					</g>
					<g>
						<defs>
							<path id="SVGID_00000086671009298266583770000012304286858929253008_" d="M337.544,233.66l6.718-3.905
								c0.025-9.183-6.425-20.354-14.408-24.965l-6.715,3.904C331.12,213.303,337.569,224.477,337.544,233.66z"/>
						</defs>
						<use xlink:href="#SVGID_00000086671009298266583770000012304286858929253008_"  style="overflow:visible;fill:#F1F1FF;"/>
						<clipPath id="SVGID_00000166660139513890557340000003038048940214095805_">
							<use xlink:href="#SVGID_00000086671009298266583770000012304286858929253008_"  style="overflow:visible;"/>
						</clipPath>
						<g style="clip-path:url(#SVGID_00000166660139513890557340000003038048940214095805_);enable-background:new    ;">
							<path style="fill:#F1F1FF;" d="M337.544,233.66l6.718-3.905c0.008-3.52-0.934-7.333-2.548-10.955l-6.718,3.905
								C336.611,226.327,337.553,230.138,337.544,233.66L337.544,233.66z"/>
							<path style="fill:#F1F1FF;" d="M334.997,222.706l6.718-3.905c-1.257-2.819-2.922-5.524-4.863-7.89l-6.719,3.905
								C332.075,217.18,333.74,219.883,334.997,222.706L334.997,222.706z"/>
							<path style="fill:#F1F1FF;" d="M330.133,214.815l6.719-3.905c-2.072-2.52-4.456-4.652-6.998-6.12l-6.715,3.904
								C325.678,210.163,328.062,212.296,330.133,214.815L330.133,214.815z"/>
						</g>
					</g>
					<g>
						<path style="fill:#E5E3E8;" d="M128.538,96.344c-7.98-4.608-14.483-0.914-14.507,8.269l-0.385,144.949
							c-0.028,9.172,6.433,20.362,14.414,24.97l194.598,112.351c7.984,4.608,14.475,0.897,14.5-8.275l0.388-144.948
							c0.025-9.183-6.425-20.357-14.405-24.965L128.538,96.344z"/>
						<path style="fill:#D4CED8;" d="M121.584,249.592c-0.017,6.289,4.957,14.899,10.454,18.062L326.634,380.01
							c1.11,0.634,1.858,0.825,2.237,0.889c0.145-0.365,0.335-1.08,0.352-2.321v-1.238l0.379-143.705
							c0.017-6.289-4.957-14.901-10.437-18.061L126.383,104.267l-1.814-1.049c-1.127-0.637-1.872-0.842-2.254-0.889
							c-0.141,0.362-0.335,1.08-0.349,2.301L121.584,249.592z"/>
						<path style="fill:#F9F7FC;" d="M126.001,247.972c-0.017,6.289,4.954,14.898,10.437,18.061L329.223,377.34l0.379-143.705
							c0.017-6.289-4.957-14.901-10.437-18.061L126.383,104.267L126.001,247.972z"/>
					</g>
				</g>
				<path style="fill:#F1F1FF;" d="M124.966,91.434l-6.719,3.905c2.631-1.529,6.273-1.315,10.29,1.005l6.718-3.905
					C131.238,90.121,127.596,89.906,124.966,91.434z"/>
			</g>
			<path style="fill:#FFBC99;" d="M374.436,317.94c-0.01,0.51-0.217,1.182-0.53,2.207c-0.738,2.405-1.571,4.734-2.647,7.008
				c-2.072,4.365-4.744,8.417-7.498,12.368c-5.613,8.059-11.635,15.824-18.037,23.271c-3.178,3.694-6.896,7.088-9.883,10.918
				c-2.465,3.163-4.345,6.381-7.103,9.448c-5.376,5.977-9.842,13.945-12.09,21.7c-0.924,3.183-1.5,6.472-2.662,9.569
				c-1.167,3.101-3.027,6.088-5.866,7.791c-2.865,1.717-6.376,1.944-9.71,1.733c-5.649-0.359-11.04-0.909-16.567-2.112
				c-4.35-0.945-8.918-1.314-12.596-4.098c-3.42-2.592-5.169-7.033-5.244-11.242c-0.097-5.052,1.849-9.923,4.158-14.414
				c2.839-5.512,7.609-11.464,7.018-17.88c-0.511-5.523-2.4-10.57-0.197-16.052c1.339-3.334,3.891-6.022,6.533-8.457
				c3.198-2.946,6.613-5.659,10.206-8.104c4.486-3.056,9.251-5.699,13.626-8.912c5.239-3.845,9.862-8.463,14.783-12.712
				c3.391-2.931,15.824-10.635,21.321-13.965c1.511-0.92,2.501-1.501,2.627-1.566c0.344,0.086,0.693,0.172,1.036,0.258
				c4.138,1.036,8.251,2.253,12.262,3.739c5.108,1.879,10.055,4.179,14.693,7.043C373.845,316.581,374.466,317.001,374.436,317.94z"
				/>
			<g>
				<g>
					<path style="fill:#374F9F;" d="M174.957,198.745c-0.154,2.379-0.939,3.868-2.356,4.467c-1.417,0.6-3.283,0.231-5.601-1.107
						c-2.534-1.463-4.527-3.604-5.98-6.422c-1.453-2.818-2.179-5.954-2.179-9.408v-1.402c0-2.205,0.335-3.954,1.005-5.247
						c0.669-1.293,1.627-2.029,2.872-2.208c1.244-0.179,2.69,0.206,4.337,1.158c2.281,1.317,4.118,3.087,5.512,5.309
						c1.394,2.223,2.2,4.677,2.417,7.365l-4.073-2.352c-0.1-1.538-0.455-2.816-1.066-3.836c-0.61-1.019-1.54-1.89-2.79-2.611
						c-1.358-0.784-2.374-0.807-3.048-0.067c-0.674,0.739-1.02,2.29-1.039,4.653v1.732c0,2.478,0.323,4.476,0.971,5.994
						c0.647,1.518,1.668,2.68,3.061,3.484c1.258,0.726,2.198,0.936,2.818,0.627c0.62-0.309,0.975-1.135,1.066-2.479L174.957,198.745
						z"/>
					<path style="fill:#EC891D;" d="M189.526,204.856l-7.821-4.515v6.143l9.179,5.299v3.796l-13.251-7.651v-22.932l13.224,7.635
						v3.827l-9.151-5.284v5.465l7.821,4.515V204.856z"/>
					<path style="fill:#F14405;" d="M209.348,226.239l-4.073-2.352l-7.929-19.666v15.089l-4.073-2.352v-22.932l4.073,2.352
						l7.943,19.706v-15.12l4.059,2.344V226.239z"/>
					<path style="fill:#374F9F;" d="M223.157,228.195c0-0.892-0.272-1.735-0.815-2.526c-0.543-0.791-1.521-1.86-2.932-3.206
						c-1.412-1.345-2.53-2.513-3.354-3.503c-2.245-2.703-3.367-5.246-3.367-7.63c0-1.239,0.301-2.17,0.903-2.794
						c0.602-0.623,1.466-0.883,2.593-0.779c1.127,0.105,2.392,0.562,3.795,1.372c1.411,0.815,2.67,1.838,3.775,3.069
						c1.104,1.231,1.962,2.564,2.573,3.998c0.611,1.434,0.916,2.839,0.916,4.214l-4.073-2.351c0-1.05-0.285-2.031-0.855-2.943
						c-0.571-0.912-1.371-1.666-2.404-2.262c-0.996-0.574-1.769-0.777-2.321-0.608c-0.552,0.169-0.829,0.653-0.829,1.451
						c0,0.746,0.324,1.557,0.971,2.435c0.647,0.877,1.599,1.9,2.858,3.067c2.317,2.147,4.006,4.124,5.065,5.932
						c1.059,1.808,1.588,3.605,1.588,5.39c0,1.984-0.647,3.168-1.941,3.549c-1.294,0.382-3.037-0.06-5.228-1.325
						c-1.52-0.878-2.905-2.001-4.154-3.367c-1.25-1.367-2.202-2.802-2.858-4.304c-0.656-1.502-0.984-2.994-0.984-4.474l4.086,2.359
						c0,2.53,1.304,4.549,3.91,6.053c0.969,0.559,1.725,0.767,2.268,0.624C222.885,229.495,223.157,229.014,223.157,228.195z"/>
					<path style="fill:#1F915C;" d="M246.239,236.591c0,2.258-0.345,4.038-1.032,5.342c-0.688,1.304-1.672,2.048-2.953,2.232
						c-1.281,0.185-2.749-0.201-4.406-1.157c-1.638-0.946-3.101-2.247-4.385-3.902c-1.286-1.656-2.281-3.535-2.987-5.638
						c-0.706-2.103-1.064-4.26-1.073-6.47v-1.134c0-2.257,0.35-4.042,1.052-5.353c0.701-1.312,1.692-2.057,2.974-2.237
						c1.28-0.179,2.745,0.207,4.392,1.158c1.647,0.951,3.111,2.256,4.393,3.914c1.281,1.658,2.271,3.548,2.973,5.67
						c0.701,2.122,1.052,4.306,1.052,6.553V236.591z M242.111,233.169c0-2.404-0.371-4.446-1.113-6.124
						c-0.743-1.678-1.802-2.914-3.178-3.709c-1.366-0.789-2.422-0.781-3.164,0.024c-0.742,0.806-1.118,2.397-1.127,4.776v1.118
						c0,2.341,0.371,4.372,1.113,6.092c0.742,1.72,1.811,2.982,3.204,3.787c1.366,0.789,2.416,0.773,3.15-0.048
						c0.733-0.821,1.104-2.421,1.113-4.799V233.169z"/>
					<path style="fill:#F14405;" d="M256.517,245.077l-3.246-1.873v8.395l-4.073-2.351v-22.932l7.345,4.241
						c2.336,1.348,4.137,2.992,5.404,4.931c1.267,1.939,1.901,4.011,1.901,6.216c0,1.565-0.292,2.701-0.876,3.409
						c-0.584,0.708-1.469,1.029-2.655,0.963l4.278,11.84v0.221l-4.372-2.524L256.517,245.077z M253.271,239.376l3.286,1.897
						c1.023,0.591,1.814,0.746,2.376,0.466c0.561-0.279,0.842-0.95,0.842-2.011c0-1.081-0.265-2.084-0.794-3.01
						c-0.53-0.925-1.342-1.704-2.438-2.336l-3.272-1.889V239.376z"/>
					<path style="fill:#374F9F;" d="M278.839,256.421l-7.821-4.516v6.143l9.178,5.299v3.796l-13.251-7.651V236.56l13.224,7.635
						v3.828l-9.151-5.284v5.465l7.821,4.515V256.421z"/>
					<path style="fill:#EC891D;" d="M282.585,268.522V245.59l6.083,3.512c1.738,1.003,3.292,2.355,4.664,4.055
						c1.371,1.7,2.441,3.609,3.211,5.728c0.769,2.119,1.154,4.244,1.154,6.376v1.056c0,2.131-0.378,3.808-1.134,5.031
						c-0.756,1.222-1.822,1.893-3.198,2.013c-1.376,0.119-2.928-0.315-4.657-1.303L282.585,268.522z M286.659,251.77v15.309
						l1.969,1.137c1.593,0.92,2.81,1.019,3.652,0.297c0.842-0.721,1.272-2.2,1.29-4.437v-1.213c0-2.331-0.416-4.338-1.249-6.021
						c-0.833-1.683-2.05-2.987-3.652-3.912L286.659,251.77z"/>
				</g>
				<g>
					<g>
						<g>
							<path style="fill:#959396;" d="M300.937,308.864c-0.663,0-1.392-0.218-2.142-0.651l-141.354-81.609
								c-2.541-1.467-4.609-5.048-4.609-7.982l0.001-12.182c0-1.487,0.517-2.604,1.456-3.146c0.939-0.542,2.165-0.43,3.452,0.312
								l141.355,81.609c2.541,1.467,4.608,5.047,4.608,7.981l-0.001,12.182c0,1.487-0.517,2.604-1.456,3.146
								C301.856,308.751,301.414,308.864,300.937,308.864z M299.096,307.693c1.093,0.632,2.106,0.742,2.853,0.313
								c0.745-0.43,1.156-1.363,1.156-2.627l0.001-12.182c0-2.743-1.933-6.091-4.309-7.462l-141.355-81.609
								c-1.094-0.633-2.107-0.743-2.852-0.313c-0.746,0.431-1.156,1.363-1.156,2.626l-0.001,12.182c0,2.743,1.933,6.091,4.308,7.462
								L299.096,307.693z"/>
						</g>
					</g>
				</g>
				<g>
					<g>
						<path style="fill:#D4CED8;" d="M249.587,298.112l-42.635-24.615c-0.743-0.428-1.345-1.472-1.345-2.329l0-8.731
							c0-0.858,0.602-1.205,1.345-0.777l42.635,24.615c0.743,0.429,1.344,1.472,1.344,2.329v8.731
							C250.931,298.192,250.329,298.54,249.587,298.112z"/>
					</g>
				</g>
				<g>
					<path style="fill:#0E1838;" d="M218.211,274.633c-0.62-0.564-1.071-1.076-1.353-1.539c-0.282-0.463-0.423-0.915-0.423-1.355
						c0-0.499,0.172-0.811,0.517-0.938c0.345-0.127,0.794-0.031,1.345,0.288c0.376,0.217,0.713,0.495,1.007,0.833
						c0.295,0.338,0.523,0.701,0.685,1.09c0.162,0.389,0.242,0.759,0.242,1.109l-0.726-0.419c0-0.383-0.105-0.746-0.316-1.087
						c-0.211-0.341-0.508-0.622-0.892-0.844c-0.356-0.206-0.634-0.275-0.833-0.209c-0.199,0.066-0.299,0.26-0.299,0.582
						c0,0.258,0.095,0.531,0.284,0.819c0.189,0.288,0.512,0.637,0.967,1.048c0.455,0.411,0.811,0.78,1.068,1.107
						c0.257,0.326,0.448,0.645,0.572,0.954c0.124,0.309,0.186,0.625,0.186,0.946c0,0.513-0.173,0.824-0.519,0.932
						c-0.347,0.108-0.809-0.005-1.389-0.339c-0.376-0.217-0.728-0.504-1.054-0.858c-0.326-0.355-0.577-0.728-0.754-1.12
						c-0.177-0.392-0.265-0.771-0.265-1.14l0.726,0.42c0,0.382,0.122,0.755,0.366,1.117c0.245,0.363,0.572,0.663,0.981,0.899
						c0.381,0.22,0.673,0.299,0.877,0.237c0.203-0.062,0.305-0.249,0.305-0.558c0-0.31-0.094-0.604-0.282-0.882
						C219.046,275.447,218.705,275.083,218.211,274.633z"/>
					<path style="fill:#0E1838;" d="M222.748,280.16c-0.552-0.319-1-0.787-1.347-1.405c-0.346-0.619-0.519-1.278-0.519-1.98v-0.148
						c0-0.466,0.077-0.838,0.232-1.116c0.154-0.277,0.37-0.439,0.647-0.486c0.277-0.047,0.577,0.023,0.901,0.21
						c0.529,0.305,0.94,0.744,1.234,1.316c0.293,0.572,0.44,1.233,0.44,1.983v0.335l-2.758-1.592
						c0.01,0.469,0.127,0.911,0.352,1.326c0.224,0.415,0.509,0.723,0.856,0.922c0.246,0.142,0.454,0.204,0.624,0.187
						c0.171-0.017,0.32-0.085,0.448-0.202l0.425,0.628C223.942,280.546,223.43,280.553,222.748,280.16z M222.662,275.896
						c-0.281-0.162-0.517-0.181-0.708-0.055c-0.19,0.126-0.308,0.389-0.354,0.789l2.04,1.177v-0.061
						c-0.021-0.42-0.116-0.792-0.287-1.115C223.184,276.309,222.953,276.063,222.662,275.896z"/>
					<path style="fill:#0E1838;" d="M227.655,282.906c-0.04-0.116-0.073-0.3-0.098-0.552c-0.323,0.202-0.71,0.173-1.159-0.086
						c-0.401-0.232-0.731-0.553-0.988-0.964c-0.257-0.411-0.386-0.817-0.386-1.22c0-0.49,0.161-0.777,0.484-0.861
						c0.322-0.085,0.776,0.041,1.36,0.379l0.677,0.391v-0.37c0-0.281-0.073-0.547-0.218-0.797c-0.145-0.251-0.36-0.458-0.643-0.621
						c-0.249-0.143-0.457-0.191-0.625-0.143c-0.168,0.048-0.252,0.175-0.252,0.38l-0.7-0.404c0-0.234,0.072-0.42,0.217-0.555
						c0.144-0.135,0.339-0.196,0.587-0.18c0.247,0.015,0.519,0.108,0.814,0.279c0.469,0.271,0.837,0.619,1.103,1.043
						c0.266,0.424,0.403,0.877,0.414,1.358v2.164c0,0.432,0.048,0.802,0.143,1.112v0.07L227.655,282.906z M226.5,281.626
						c0.218,0.126,0.425,0.18,0.62,0.163c0.196-0.017,0.338-0.105,0.426-0.263v-0.965L227,280.246
						c-0.852-0.492-1.279-0.45-1.279,0.126c0,0.252,0.073,0.491,0.218,0.717C226.085,281.315,226.272,281.494,226.5,281.626z"/>
					<path style="fill:#0E1838;" d="M231.301,281.031c-0.106-0.082-0.219-0.157-0.343-0.229c-0.456-0.263-0.766-0.218-0.929,0.137
						v3.337l-0.696-0.402v-4.701l0.678,0.391l0.011,0.55c0.228-0.288,0.552-0.312,0.971-0.069c0.136,0.078,0.238,0.158,0.308,0.239
						V281.031z"/>
					<path style="fill:#0E1838;" d="M233.502,285.712c0.248,0.143,0.465,0.182,0.65,0.115c0.186-0.066,0.289-0.224,0.309-0.474
						l0.658,0.38c-0.013,0.262-0.093,0.472-0.241,0.63c-0.148,0.158-0.345,0.238-0.592,0.24c-0.247,0.002-0.509-0.076-0.784-0.236
						c-0.554-0.319-0.995-0.788-1.323-1.404c-0.328-0.617-0.491-1.296-0.491-2.037v-0.135c0-0.458,0.073-0.823,0.219-1.095
						c0.145-0.272,0.354-0.428,0.626-0.468c0.272-0.039,0.594,0.048,0.965,0.262c0.456,0.264,0.836,0.641,1.138,1.131
						c0.302,0.49,0.463,0.993,0.483,1.509l-0.658-0.38c-0.02-0.316-0.12-0.623-0.299-0.922c-0.179-0.299-0.401-0.524-0.664-0.677
						c-0.354-0.204-0.628-0.215-0.822-0.033c-0.194,0.182-0.291,0.551-0.291,1.107v0.152c0,0.542,0.096,1.015,0.29,1.419
						C232.867,285.2,233.143,285.505,233.502,285.712z"/>
					<path style="fill:#0E1838;" d="M236.599,283.937c0.308-0.259,0.71-0.247,1.204,0.039c0.86,0.497,1.294,1.308,1.301,2.433v3.107
						l-0.695-0.402v-3.111c-0.003-0.341-0.07-0.63-0.202-0.868c-0.132-0.239-0.337-0.438-0.615-0.599
						c-0.226-0.13-0.424-0.175-0.595-0.135c-0.17,0.041-0.304,0.146-0.398,0.318v3.35l-0.696-0.402v-6.673l0.696,0.402V283.937z"/>
				</g>
				<g>
					<g>
						<path style="fill:#959396;" d="M290.204,294.235c-2.182-1.26-3.957-4.334-3.957-6.853c0-2.52,1.775-3.544,3.957-2.285
							c2.182,1.26,3.957,4.334,3.957,6.853C294.16,294.47,292.385,295.495,290.204,294.235z M290.204,287.298
							c-1.131-0.653-2.051-0.122-2.051,1.184c0,1.306,0.92,2.899,2.051,3.552c1.131,0.653,2.051,0.122,2.051-1.184
							C292.254,289.544,291.334,287.951,290.204,287.298z"/>
					</g>
					<g>
						<path style="fill:#959396;" d="M295.96,301.638c-0.244-0.141-0.488-0.389-0.674-0.711l-4.065-7.042
							c-0.373-0.645-0.373-1.341,0-1.556c0.372-0.215,0.976,0.133,1.348,0.778l4.065,7.042c0.372,0.645,0.372,1.341,0,1.556
							C296.448,301.812,296.203,301.779,295.96,301.638z"/>
					</g>
				</g>
			</g>
		</g>
		<path style="fill:#FAC8AD;" d="M140.466,211.007c-10.018,8.053-14.54,11.479-16.794,13.596c-1.192,1.121-1.748,1.874-2.147,2.754
			c-0.273,0.601-0.475,1.263-0.758,2.142c-9.336,29.141-4.501,29.925-7.28,41.298c-2.663,10.888-15.97,14.728-25.823,11.509
			c-18.002-5.871-24.115-34.366,2.951-61.209c3.233-3.208,6.466-6.417,9.7-9.625c2.334-2.319,4.113-5.194,6.856-7.028
			c7.427-4.981,13.247-7.952,18.335-10.307c3.375-1.561,6.427-2.854,9.418-4.284c2.602-1.243,5.285-1.642,7.664-1.334
			C150.808,189.57,155.406,199.002,140.466,211.007z"/>
		<path style="fill:#FAC8AD;" d="M100.628,276.951c9.6-5.053,10.61-19.704,7.578-29.809c9.599-7.578,7.579-22.23,2.021-31.83
			c4.042,3.032,9.094,6.568,14.652,3.032c10.246-6.52,20.486-15.619,23.213-27.292c-1.376-1.367-3.308-2.251-5.504-2.532
			c-2.38-0.308-5.063,0.091-7.664,1.334c-2.991,1.43-6.043,2.723-9.418,4.284c-5.088,2.355-10.908,5.326-18.335,10.307
			c-2.743,1.834-4.522,4.709-6.856,7.028c-3.233,3.208-6.466,6.416-9.7,9.625c-21.859,21.679-22.074,44.433-11.867,55.479
			C85.84,279.897,93.29,280.975,100.628,276.951z"/>
		<path style="fill:#FFBC99;" d="M148.092,191.051c-2.727,11.673-12.967,20.772-23.213,27.292c-5.558,3.537-10.61,0-14.652-3.032
			c5.557,9.6,7.578,24.252-2.021,31.83c3.031,10.105,2.021,24.756-7.578,29.809c-7.338,4.024-14.788,2.946-21.88-0.375
			c2.431,2.632,5.452,4.601,8.915,5.731c9.852,3.219,23.16-0.621,25.823-11.509c2.779-11.373-2.056-12.156,7.28-41.298
			c0.283-0.88,0.485-1.541,0.758-2.142c0.399-0.879,0.955-1.632,2.147-2.754c2.253-2.117,6.775-5.543,16.794-13.596
			C151.413,202.211,151.865,194.799,148.092,191.051z"/>
		<path style="fill:#FAC8AD;" d="M346.272,295.912c-3.79,10.6-12.2,21.406-15.105,32.446c-4.022,15.28,0.056,52.935-35.029,50.332
			c-21.93-1.627-24.875-22.374-13.227-38.807c0.162-0.228,0.324-0.449,0.49-0.672c2.9-3.9,6.599-6.815,9.988-10.231
			c3.173-3.198,6.108-6.967,8.953-10.508c9.169-11.388,15.399-24.828,25.292-35.595c3.157-3.435,6.397-6.826,11.015-7.512
			c1.672-0.248,4.874,0.507,6.294,1.42C350.524,280.371,348.187,290.57,346.272,295.912z"/>
		<path style="fill:#F9B28C;" d="M344.657,295.644c-16.167,19.199-17.683,43.956-25.767,66.187
			c-3.537,8.589-11.621,14.147-21.22,12.125c-7.228-1.399-14.024-3.769-20.093-7.204c2.521,6.472,8.561,11.196,18.562,11.938
			c35.084,2.603,31.006-35.051,35.029-50.332c2.905-11.039,11.316-21.846,15.105-32.446c0.466-1.299,0.956-2.886,1.351-4.595
			C346.89,292.916,345.922,294.379,344.657,295.644z"/>
		<path style="fill:#F8B495;" d="M144.296,197.815c-0.465,0.424-2.436,2.521-4.527,3.324c-1.702,0.647-3.39,1.107-5.214,1.121
			c-1.061,0.01-2.137-0.091-3.158-0.388c-3.33-0.976-5.81-4.285-5.891-7.736c3.375-1.561,6.427-2.854,9.418-4.284
			c2.602-1.243,5.285-1.642,7.664-1.334C144.564,191.99,145.791,196.421,144.296,197.815z"/>
		<path style="fill:#FFCFC0;" d="M125.506,194.137c0.081,3.451,2.561,6.76,5.891,7.736c0.416,0.121,0.846,0.191,1.276,0.253
			c-0.378-3.794-3.033-6.619-4.595-9.15C127.225,193.359,126.4,193.723,125.506,194.137z"/>
		<path style="fill:#F9B28C;" d="M358.753,307.77c-0.454,0.268-0.914,0.49-1.379,0.667c-0.146,0.065-0.298,0.116-0.449,0.167
			c-3.254,1.081-6.734,0.253-10.069-0.713c-1.859-0.535-3.658-1.156-5.406-1.884c1.511-0.92,2.501-1.501,2.627-1.566
			c0.521-0.258,0.591-1.288,0.525-2.39c0.566,0.318,1.132,0.632,1.698,0.939c3.719,2.036,7.967,4.315,12.307,4.249
			C358.895,307.239,358.991,307.628,358.753,307.77z"/>
		<g>
			<path style="fill:#F8B495;" d="M329.834,295.225c1.922,2.762,6.781,4.822,9.793,2.85c3.394-2.223,5.896-7.114,6.995-11.039
				c0.853-3.047-5.145-6.244-8.339-7.982c-1.836-0.998-4.759-2.293-8.038,4.077C328.467,286.581,326.384,290.266,329.834,295.225z"
				/>
			<path style="fill:#FFCFC0;" d="M328.082,291.166c0.207,1.261,0.741,2.605,1.752,4.058c1.922,2.762,6.781,4.822,9.793,2.85
				c0.032-0.021,0.062-0.045,0.094-0.066C336.887,294.383,332.777,291.905,328.082,291.166z"/>
		</g>
		<path style="fill:#F9B28C;" d="M374.37,316.444c-0.425-2.996-2.89-28.526-6.184-37.316c-2.875-7.67-9.609-16.233-19.209-24.979
			c-0.656-0.598-1.333-1.186-2.029-1.752c11.416,24.844,34.135,52.924,14.382,78.108c-17.683,22.23-38.397,39.409-52.039,65.175
			c-7.64,14.261-21.184,20.947-36.492,24.008c2.87,1.113,6.009,1.494,9.043,2.154c5.527,1.203,10.918,1.753,16.567,2.112
			c3.334,0.212,6.845-0.015,9.71-1.733c2.839-1.703,4.699-4.689,5.866-7.791c1.162-3.098,1.738-6.387,2.662-9.569
			c2.248-7.755,6.714-15.723,12.09-21.7c2.759-3.067,4.638-6.285,7.103-9.448c2.987-3.83,6.705-7.224,9.883-10.918
			c6.401-7.447,12.424-15.212,18.037-23.271c2.754-3.951,5.427-8.003,7.498-12.368c1.076-2.273,1.91-4.603,2.647-7.008
			c0.313-1.026,0.521-1.697,0.53-2.207h0.005C374.492,317.44,374.4,316.652,374.37,316.444z"/>
		<path style="fill:#F9B28C;" d="M327.05,318.078c-2.202,0.066-4.463,0.42-6.602-0.287c-2.535-0.838-4.373-2.465-5.831-4.657
			c-0.331-0.497-1.171-0.199-0.995,0.42c1.451,5.099,9.327,9.298,13.764,5.333C327.691,318.614,327.45,318.066,327.05,318.078z"/>
		<path style="fill:#F9B28C;" d="M326.18,312.005c-1.087-0.622-2.449-0.716-3.653-1.043c-1.51-0.41-2.958-0.974-4.366-1.655
			c-0.596-0.289-1.119,0.571-0.526,0.9c2.266,1.257,5.777,3.19,8.438,2.62C326.456,312.745,326.504,312.19,326.18,312.005z"/>
		<path style="fill:#F9B28C;" d="M324.446,324.478c-5.711-0.587-10.603-1.676-14.433-6.338c-0.304-0.37-0.954,0.124-0.67,0.516
			c3.265,4.515,9.482,8.309,15.223,6.705C325.081,325.217,324.93,324.528,324.446,324.478z"/>
		<g>
			<g>
				<path style="fill:#EC891D;" d="M38.414,156.503l56.257-32.479c3.397-1.961,6.176-0.357,6.176,3.565l0,11.124
					c0.43,4.478,2.298,7.479,5.353,7.438c-3.734,4.66-8.527,6.151-12.833,5.666l-54.953,31.726
					c-3.396,1.961-6.176,0.356-6.176-3.566v-12.778C32.239,163.277,35.018,158.464,38.414,156.503z"/>
				<g>
					<polygon style="fill:#F1F1F1;" points="58.409,162.908 94.506,142.068 94.505,138.578 58.409,159.417 					"/>
					<polygon style="fill:#F1F1F1;" points="36.314,165.982 36.314,169.473 94.505,135.877 94.505,132.386 					"/>
				</g>
			</g>
			<g>
				<path style="fill:#D42B01;" d="M33.689,173.991c0,4.949,3.475,6.954,7.76,4.48c4.286-2.474,7.76-8.492,7.759-13.44
					c0-4.949-3.474-6.954-7.76-4.48C37.163,163.025,33.689,169.042,33.689,173.991z"/>
				<g>
					<path style="fill:#FFFFFF;" d="M40.583,173.062c0.276-0.427,0.587-0.74,0.935-0.941c0.348-0.201,0.659-0.247,0.935-0.138
						c0.275,0.109,0.413,0.408,0.413,0.899c0,0.491-0.138,0.95-0.413,1.376c-0.276,0.427-0.587,0.74-0.934,0.941
						c-0.348,0.201-0.66,0.247-0.935,0.138c-0.275-0.109-0.412-0.409-0.412-0.899C40.171,173.948,40.308,173.489,40.583,173.062z
						 M40.359,164.056l2.304-1.33v2.995c0,0.904-0.031,1.764-0.094,2.581c-0.063,0.817-0.143,1.655-0.239,2.514l-1.652,0.954
						c-0.097-0.748-0.174-1.495-0.232-2.242c-0.058-0.747-0.087-1.573-0.087-2.477V164.056z"/>
				</g>
			</g>
		</g>
		<g>
			<g>
				<g>
					<g style="enable-background:new    ;">
						<g>
							<polygon style="fill:#CBC3D0;" points="224.765,82.116 227.384,80.594 227.427,65.438 224.808,66.96 							"/>
						</g>
						<g>
							<polygon style="fill:#F1F1F1;" points="224.808,66.96 227.427,65.438 165.318,29.579 162.699,31.101 							"/>
						</g>
						<g>
							<polygon style="fill:#E0DDE1;" points="162.699,31.101 162.656,46.258 224.765,82.116 224.808,66.96 							"/>
						</g>
					</g>
				</g>
			</g>
			<g>
				<path style="fill:#F25C05;" d="M170.841,45.158c-0.052,0.798-0.315,1.297-0.79,1.498c-0.475,0.201-1.101,0.077-1.878-0.372
					c-0.85-0.491-1.518-1.208-2.005-2.153c-0.487-0.945-0.73-1.996-0.73-3.154v-0.47c0-0.739,0.112-1.325,0.336-1.759
					c0.225-0.433,0.546-0.68,0.963-0.74c0.417-0.06,0.902,0.069,1.454,0.388c0.765,0.442,1.38,1.035,1.848,1.78
					c0.468,0.745,0.738,1.568,0.81,2.469l-1.366-0.788c-0.033-0.516-0.152-0.944-0.357-1.286c-0.205-0.342-0.518-0.634-0.936-0.876
					c-0.456-0.263-0.796-0.27-1.022-0.022c-0.227,0.247-0.342,0.768-0.349,1.559v0.581c0,0.831,0.109,1.501,0.325,2.009
					c0.217,0.509,0.559,0.898,1.027,1.168c0.422,0.244,0.737,0.314,0.944,0.21c0.208-0.103,0.327-0.38,0.357-0.831L170.841,45.158z"
					/>
				<path style="fill:#F25C05;" d="M175.725,47.207l-2.622-1.514v2.059l3.077,1.777v1.272l-4.443-2.565v-7.688l4.433,2.56v1.283
					l-3.068-1.771v1.832l2.622,1.514V47.207z"/>
				<path style="fill:#F25C05;" d="M182.37,54.375l-1.366-0.788l-2.658-6.593v5.058l-1.366-0.788v-7.688l1.366,0.789l2.663,6.606
					v-5.069l1.361,0.786V54.375z"/>
				<path style="fill:#F25C05;" d="M186.999,55.031c0-0.299-0.091-0.581-0.272-0.847c-0.182-0.265-0.51-0.623-0.984-1.075
					c-0.473-0.451-0.848-0.842-1.124-1.174c-0.753-0.906-1.129-1.759-1.129-2.558c0-0.415,0.101-0.727,0.302-0.937
					c0.202-0.209,0.492-0.296,0.869-0.261c0.378,0.035,0.802,0.188,1.273,0.46c0.473,0.273,0.895,0.616,1.266,1.029
					c0.369,0.412,0.657,0.859,0.862,1.34c0.205,0.481,0.308,0.952,0.308,1.413l-1.365-0.788c0-0.352-0.096-0.681-0.287-0.987
					c-0.191-0.306-0.46-0.559-0.806-0.759c-0.334-0.193-0.593-0.261-0.778-0.203c-0.185,0.056-0.278,0.219-0.278,0.486
					c0,0.25,0.109,0.522,0.326,0.817c0.216,0.294,0.536,0.637,0.958,1.028c0.777,0.719,1.343,1.383,1.698,1.989
					c0.356,0.606,0.533,1.209,0.533,1.807c0,0.666-0.217,1.062-0.651,1.19c-0.435,0.128-1.018-0.02-1.753-0.444
					c-0.51-0.294-0.974-0.671-1.393-1.129c-0.419-0.458-0.738-0.939-0.958-1.443c-0.22-0.504-0.33-1.004-0.33-1.5l1.37,0.791
					c0,0.849,0.437,1.525,1.311,2.029c0.325,0.188,0.578,0.257,0.761,0.21C186.908,55.467,186.999,55.305,186.999,55.031z"/>
				<path style="fill:#F25C05;" d="M194.737,57.846c0,0.757-0.115,1.354-0.346,1.791c-0.23,0.437-0.56,0.687-0.99,0.749
					c-0.43,0.062-0.922-0.067-1.477-0.388c-0.549-0.317-1.039-0.753-1.47-1.308c-0.431-0.555-0.765-1.185-1.001-1.89
					c-0.237-0.705-0.357-1.428-0.36-2.169v-0.381c0-0.757,0.118-1.355,0.353-1.795c0.235-0.44,0.567-0.689,0.997-0.749
					c0.43-0.06,0.92,0.069,1.473,0.388c0.552,0.319,1.043,0.756,1.472,1.312c0.43,0.556,0.762,1.19,0.997,1.901
					c0.235,0.711,0.353,1.444,0.353,2.197V57.846z M193.354,56.698c0-0.806-0.124-1.49-0.373-2.053
					c-0.248-0.562-0.604-0.977-1.065-1.243c-0.459-0.265-0.812-0.262-1.061,0.008c-0.249,0.27-0.375,0.803-0.378,1.601v0.375
					c0,0.785,0.125,1.466,0.373,2.042c0.249,0.577,0.607,1,1.074,1.27c0.458,0.265,0.811,0.259,1.056-0.016
					c0.246-0.276,0.37-0.812,0.373-1.609V56.698z"/>
				<path style="fill:#F25C05;" d="M198.183,60.69l-1.088-0.628v2.814l-1.365-0.788v-7.688l2.462,1.422
					c0.784,0.452,1.387,1.003,1.812,1.653c0.425,0.65,0.637,1.345,0.637,2.084c0,0.525-0.098,0.905-0.293,1.143
					c-0.196,0.237-0.493,0.345-0.89,0.323l1.433,3.969v0.074l-1.465-0.846L198.183,60.69z M197.095,58.779l1.102,0.636
					c0.343,0.198,0.609,0.25,0.797,0.156c0.188-0.094,0.282-0.319,0.282-0.674c0-0.362-0.089-0.699-0.266-1.009
					c-0.178-0.31-0.45-0.571-0.818-0.783l-1.097-0.633V58.779z"/>
				<path style="fill:#F25C05;" d="M205.115,65.49c0-0.299-0.091-0.582-0.273-0.847c-0.182-0.265-0.51-0.623-0.983-1.075
					c-0.474-0.451-0.849-0.843-1.124-1.174c-0.752-0.907-1.129-1.759-1.129-2.558c0-0.415,0.101-0.728,0.303-0.937
					c0.201-0.209,0.491-0.296,0.869-0.261c0.378,0.035,0.802,0.188,1.272,0.46c0.473,0.273,0.895,0.616,1.266,1.029
					c0.37,0.413,0.657,0.86,0.862,1.34c0.205,0.481,0.308,0.952,0.308,1.413l-1.366-0.789c0-0.352-0.096-0.681-0.286-0.986
					c-0.191-0.306-0.46-0.559-0.806-0.758c-0.334-0.193-0.593-0.261-0.778-0.204c-0.185,0.057-0.277,0.219-0.277,0.486
					c0,0.25,0.108,0.522,0.325,0.816c0.217,0.294,0.536,0.637,0.958,1.028c0.777,0.719,1.343,1.382,1.698,1.988
					c0.355,0.606,0.533,1.209,0.533,1.807c0,0.665-0.217,1.062-0.651,1.19c-0.434,0.128-1.018-0.02-1.753-0.445
					c-0.51-0.294-0.974-0.67-1.392-1.128c-0.42-0.458-0.738-0.939-0.959-1.443c-0.22-0.504-0.329-1.004-0.329-1.5l1.37,0.791
					c0,0.848,0.436,1.524,1.31,2.029c0.325,0.188,0.579,0.257,0.761,0.209C205.024,65.926,205.115,65.765,205.115,65.49z"/>
				<path style="fill:#F25C05;" d="M212.803,71.946l-1.365-0.789v-3.295l-2.663-1.537v3.295l-1.365-0.788v-7.688l1.365,0.788v3.115
					l2.663,1.537v-3.115l1.365,0.789V71.946z"/>
				<path style="fill:#F25C05;" d="M215.448,73.473l-1.365-0.788v-7.688l1.365,0.788V73.473z"/>
				<path style="fill:#F25C05;" d="M218.079,72.283v2.709l-1.366-0.788v-7.688l2.586,1.493c0.498,0.287,0.936,0.646,1.313,1.075
					c0.378,0.43,0.668,0.898,0.871,1.404c0.204,0.506,0.305,1.008,0.305,1.504c0,0.753-0.222,1.219-0.667,1.397
					c-0.444,0.178-1.06,0.04-1.846-0.413L218.079,72.283z M218.079,71l1.22,0.705c0.361,0.208,0.636,0.269,0.826,0.181
					c0.19-0.088,0.285-0.314,0.285-0.68c0-0.377-0.096-0.737-0.287-1.079c-0.191-0.343-0.455-0.615-0.792-0.816l-1.251-0.723V71z"/>
			</g>
		</g>
		<g>
			<g>
				<polygon style="fill:#F25C05;" points="230.317,100.532 250.346,148.762 210.288,125.634 				"/>
				<path style="fill:#FFFFFF;" d="M230.317,105.299l16.035,38.613l-32.07-18.516L230.317,105.299L230.317,105.299z
					 M230.317,102.916l-18.034,22.599l36.065,20.821L230.317,102.916L230.317,102.916z"/>
			</g>
			<g>
				<path style="fill:#FFFFFF;" d="M231.367,130.846c0,0.867-0.243,1.396-0.729,1.589c-0.487,0.192-1.037,0.111-1.652-0.244
					c-0.614-0.355-1.164-0.909-1.651-1.663c-0.486-0.754-0.729-1.564-0.729-2.431c0-0.867,0.244-1.396,0.73-1.588
					c0.486-0.192,1.036-0.111,1.651,0.244c0.614,0.354,1.165,0.909,1.652,1.662C231.124,129.169,231.367,129.98,231.367,130.846z
					 M231.035,117.797c0,1.596-0.051,3.055-0.154,4.374c-0.102,1.32-0.239,2.64-0.41,3.961l-2.918-1.685
					c-0.171-1.518-0.311-2.997-0.422-4.44c-0.111-1.443-0.166-2.963-0.166-4.559v-5.291l4.07,2.35V117.797z"/>
			</g>
		</g>
		<g id="camera_2_">
			<g>
				<g>
					<g style="enable-background:new    ;">
						<g>
							<polygon style="fill:#C7BFCD;" points="58.972,100.357 40.362,90.713 40.346,84.877 58.958,95.688 							"/>
						</g>
						<g>
							<polygon style="fill:#E0DDE1;" points="58.958,95.688 40.346,84.877 45.424,81.946 63.021,93.343 							"/>
						</g>
						<g>
							<polygon style="fill:#10225C;" points="63.021,93.343 63.035,98.011 58.972,100.357 58.958,95.688 							"/>
						</g>
					</g>
				</g>
				<g>
					<g>
						<g style="enable-background:new    ;">
							<g>
								<defs>
									<path id="SVGID_00000082354007865120750130000004955289868392920476_" d="M65.051,104.942l-7.425-4.315
										c-0.302-0.176-0.491-0.548-0.492-1.076l7.425,4.315C64.561,104.393,64.749,104.766,65.051,104.942z"/>
								</defs>
								<use xlink:href="#SVGID_00000082354007865120750130000004955289868392920476_"  style="overflow:visible;fill:#1A3073;"/>
								<clipPath id="SVGID_00000115512021660790851430000005616860418298166148_">
									<use xlink:href="#SVGID_00000082354007865120750130000004955289868392920476_"  style="overflow:visible;"/>
								</clipPath>
								<g style="clip-path:url(#SVGID_00000115512021660790851430000005616860418298166148_);enable-background:new    ;">
									<path style="fill:#1A3073;" d="M65.051,104.942l-7.425-4.315c-0.302-0.176-0.491-0.548-0.492-1.076l7.425,4.315
										C64.561,104.393,64.749,104.766,65.051,104.942L65.051,104.942z"/>
								</g>
							</g>
							<g style="enable-background:new    ;">
								<defs>
									<path id="SVGID_00000045607786146917056220000012941170156040283319_" style="enable-background:new    ;" d="
										M62.144,92.828l7.425,4.315c-0.306-0.178-0.73-0.154-1.195,0.114l-7.426-4.315C61.414,92.674,61.838,92.65,62.144,92.828z"
										/>
								</defs>
								<use xlink:href="#SVGID_00000045607786146917056220000012941170156040283319_"  style="overflow:visible;fill:#374F9F;"/>
								<clipPath id="SVGID_00000113311739786889184380000003724342691476139672_">
									<use xlink:href="#SVGID_00000045607786146917056220000012941170156040283319_"  style="overflow:visible;"/>
								</clipPath>
								<g style="clip-path:url(#SVGID_00000113311739786889184380000003724342691476139672_);enable-background:new    ;">
									<path style="fill:#374F9F;" d="M68.375,97.257l-7.426-4.315c0.177-0.102,0.347-0.169,0.508-0.203l7.425,4.315
										C68.721,97.089,68.551,97.156,68.375,97.257L68.375,97.257z"/>
									<path style="fill:#374F9F;" d="M68.882,97.055l-7.425-4.315c0.249-0.052,0.473-0.025,0.657,0.071l7.425,4.315
										C69.355,97.029,69.13,97.003,68.882,97.055L68.882,97.055z"/>
									<path style="fill:#1A3073;" d="M69.539,97.127l-7.425-4.315c0.01,0.006,0.02,0.011,0.03,0.016l7.425,4.315
										C69.56,97.137,69.55,97.132,69.539,97.127L69.539,97.127z"/>
								</g>
							</g>
							<g>
								<polygon style="fill:#1A3073;" points="64.559,103.865 57.134,99.55 57.127,97.085 64.553,101.4 								"/>
							</g>
							<g>
								<polygon style="fill:#374F9F;" points="66.229,98.497 58.803,94.182 60.949,92.943 68.375,97.257 								"/>
							</g>
							<g style="enable-background:new    ;">
								<defs>
									<path id="SVGID_00000163055483313385644090000006536144158378950315_" style="enable-background:new    ;" d="
										M64.553,101.4l-7.425-4.315c-0.003-1.063,0.751-2.369,1.676-2.903l7.425,4.315C65.304,99.031,64.549,100.337,64.553,101.4z
										"/>
								</defs>
								<use xlink:href="#SVGID_00000163055483313385644090000006536144158378950315_"  style="overflow:visible;fill:#374F9F;"/>
								<clipPath id="SVGID_00000182496878849413068720000009603086829438084796_">
									<use xlink:href="#SVGID_00000163055483313385644090000006536144158378950315_"  style="overflow:visible;"/>
								</clipPath>
								<g style="clip-path:url(#SVGID_00000182496878849413068720000009603086829438084796_);enable-background:new    ;">
									<path style="fill:#1A3073;" d="M64.553,101.4l-7.425-4.315c-0.001-0.406,0.108-0.849,0.296-1.27l7.425,4.315
										C64.661,100.551,64.551,100.993,64.553,101.4L64.553,101.4z"/>
									<path style="fill:#374F9F;" d="M64.849,100.13l-7.425-4.315c0.147-0.33,0.342-0.647,0.569-0.924l7.425,4.315
										C65.191,99.483,64.996,99.8,64.849,100.13L64.849,100.13z"/>
									<path style="fill:#374F9F;" d="M65.418,99.206l-7.425-4.315c0.241-0.293,0.517-0.54,0.811-0.71l7.425,4.315
										C65.935,98.666,65.658,98.913,65.418,99.206L65.418,99.206z"/>
								</g>
							</g>
							<g>
								<path style="fill:#1A3073;" d="M68.375,97.257c0.925-0.534,1.684-0.101,1.687,0.962l0.007,2.465
									c0.003,1.063-0.751,2.369-1.676,2.903l-2.146,1.239c-0.925,0.534-1.684,0.101-1.687-0.962l-0.007-2.465
									c-0.003-1.063,0.751-2.369,1.676-2.903L68.375,97.257z"/>
							</g>
						</g>
					</g>
					<path style="fill:#0E1838;" d="M73.933,102.377c0-2.693-2.183-4.877-4.877-4.877c-2.693,0-4.877,2.183-4.877,4.877
						c0,2.694,2.183,4.877,4.877,4.877C71.75,107.254,73.933,105.071,73.933,102.377z"/>
					<g>
						<g style="enable-background:new    ;">
							<g style="enable-background:new    ;">
								<defs>
									<path id="SVGID_00000078030032010667609960000005757898745341811373_" style="enable-background:new    ;" d="
										M73.718,91.726l-0.025,8.588c-0.001,0.35-0.229,0.699-0.686,0.964l0.025-8.588C73.489,92.425,73.717,92.076,73.718,91.726z
										"/>
								</defs>
								<use xlink:href="#SVGID_00000078030032010667609960000005757898745341811373_"  style="overflow:visible;fill:#10225C;"/>
								<clipPath id="SVGID_00000034067752031645811710000018263129750208897183_">
									<use xlink:href="#SVGID_00000078030032010667609960000005757898745341811373_"  style="overflow:visible;"/>
								</clipPath>
								<g style="clip-path:url(#SVGID_00000034067752031645811710000018263129750208897183_);enable-background:new    ;">
									<path style="fill:#10225C;" d="M73.718,91.726l-0.025,8.588c0,0.11-0.023,0.219-0.068,0.326l0.025-8.588
										C73.695,91.945,73.718,91.836,73.718,91.726L73.718,91.726z"/>
									<path style="fill:#10225C;" d="M73.65,92.052l-0.025,8.588c-0.098,0.234-0.304,0.456-0.618,0.638l0.025-8.588
										C73.346,92.508,73.552,92.287,73.65,92.052L73.65,92.052z"/>
								</g>
							</g>
							<g>
								<defs>
									<path id="SVGID_00000084506714030956879020000007196835058965102209_" d="M64.681,100.301l0.025-8.588
										c-0.001,0.354,0.231,0.709,0.697,0.978l-0.024,8.588C64.913,101.01,64.68,100.655,64.681,100.301z"/>
								</defs>
								<use xlink:href="#SVGID_00000084506714030956879020000007196835058965102209_"  style="overflow:visible;fill:#1A3073;"/>
								<clipPath id="SVGID_00000165198698963270863480000005525597388455662464_">
									<use xlink:href="#SVGID_00000084506714030956879020000007196835058965102209_"  style="overflow:visible;"/>
								</clipPath>
								<g style="clip-path:url(#SVGID_00000165198698963270863480000005525597388455662464_);enable-background:new    ;">
									<path style="fill:#1A3073;" d="M65.402,92.69l-0.024,8.588c-0.465-0.269-0.698-0.623-0.697-0.978l0.025-8.588
										C64.705,92.067,64.937,92.422,65.402,92.69L65.402,92.69z"/>
								</g>
							</g>
							<g>
								<polygon style="fill:#10225C;" points="73.032,92.69 73.008,101.278 70.876,102.517 70.9,93.929 								"/>
							</g>
							<g>
								<polygon style="fill:#1A3073;" points="67.548,93.929 67.524,102.517 65.378,101.278 65.402,92.69 								"/>
							</g>
							<g style="enable-background:new    ;">
								<defs>
									<path id="SVGID_00000116228693396884020200000009186485519118028701_" style="enable-background:new    ;" d="M70.9,93.929
										l-0.024,8.588c-0.919,0.534-2.427,0.534-3.352,0l0.025-8.588C68.473,94.463,69.981,94.463,70.9,93.929z"/>
								</defs>
								<use xlink:href="#SVGID_00000116228693396884020200000009186485519118028701_"  style="overflow:visible;fill:#1A3073;"/>
								<clipPath id="SVGID_00000170275972433782394240000007131801232785350790_">
									<use xlink:href="#SVGID_00000116228693396884020200000009186485519118028701_"  style="overflow:visible;"/>
								</clipPath>
								<g style="clip-path:url(#SVGID_00000170275972433782394240000007131801232785350790_);enable-background:new    ;">
									<path style="fill:#10225C;" d="M70.9,93.929l-0.024,8.588c-0.47,0.273-1.095,0.407-1.717,0.4l0.024-8.588
										C69.805,94.336,70.43,94.203,70.9,93.929L70.9,93.929z"/>
									<path style="fill:#1A3073;" d="M69.183,94.33l-0.024,8.588c-0.593-0.006-1.184-0.139-1.635-0.4l0.025-8.588
										C67.999,94.19,68.59,94.323,69.183,94.33L69.183,94.33z"/>
								</g>
							</g>
							<g>
								<path style="fill:#374F9F;" d="M73.021,90.749c0.925,0.534,0.93,1.408,0.011,1.942L70.9,93.929
									c-0.919,0.534-2.427,0.534-3.352,0l-2.146-1.239c-0.925-0.534-0.93-1.408-0.011-1.941l2.132-1.239
									c0.919-0.534,2.427-0.534,3.352,0L73.021,90.749z"/>
							</g>
						</g>
					</g>
				</g>
				<g>
					<g style="enable-background:new    ;">
						<g style="enable-background:new    ;">
							<defs>
								<path id="SVGID_00000098191299657419181860000012725023990252849039_" style="enable-background:new    ;" d="M72.567,82.28
									l-0.018,9.149c-0.001,0.44-0.29,0.88-0.869,1.216c-1.163,0.676-3.056,0.676-4.227,0c-0.589-0.34-0.883-0.787-0.882-1.232
									l0.018-9.149c-0.001,0.446,0.293,0.892,0.882,1.232c1.171,0.677,3.063,0.677,4.227,0
									C72.277,83.16,72.566,82.72,72.567,82.28z"/>
							</defs>
							<use xlink:href="#SVGID_00000098191299657419181860000012725023990252849039_"  style="overflow:visible;fill:#C7BFCD;"/>
							<clipPath id="SVGID_00000173864275257468903130000004277982003214555566_">
								<use xlink:href="#SVGID_00000098191299657419181860000012725023990252849039_"  style="overflow:visible;"/>
							</clipPath>
							<g style="clip-path:url(#SVGID_00000173864275257468903130000004277982003214555566_);enable-background:new    ;">
								<path style="fill:#C7BFCD;" d="M72.567,82.28l-0.018,9.149c0,0.153-0.035,0.306-0.106,0.454l0.019-9.149
									C72.532,82.585,72.567,82.433,72.567,82.28L72.567,82.28z"/>
								<path style="fill:#C7BFCD;" d="M72.462,82.734l-0.019,9.149c-0.122,0.26-0.351,0.506-0.686,0.716l0.018-9.149
									C72.111,83.24,72.34,82.994,72.462,82.734L72.462,82.734z"/>
								<path style="fill:#C7BFCD;" d="M71.776,83.45l-0.018,9.149c-0.025,0.015-0.051,0.031-0.077,0.046
									c-0.525,0.305-1.199,0.473-1.888,0.502l0.018-9.149c0.689-0.03,1.363-0.197,1.888-0.502
									C71.725,83.48,71.751,83.465,71.776,83.45L71.776,83.45z"/>
								<path style="fill:#E0DDE1;" d="M69.81,83.998l-0.018,9.149c-0.474,0.02-0.955-0.024-1.399-0.134l0.019-9.149
									C68.856,83.974,69.337,84.018,69.81,83.998L69.81,83.998z"/>
								<path style="fill:#C7BFCD;" d="M68.411,83.864l-0.019,9.149c-0.341-0.084-0.66-0.207-0.939-0.368
									c-0.589-0.34-0.883-0.787-0.882-1.232l0.018-9.149c-0.001,0.446,0.293,0.892,0.882,1.232
									C67.751,83.657,68.07,83.779,68.411,83.864L68.411,83.864z"/>
							</g>
						</g>
						<g>
							<path style="fill:#C7BFCD;" d="M71.685,81.048c1.171,0.676,1.177,1.772,0.014,2.448c-1.163,0.677-3.056,0.677-4.227,0
								c-1.171-0.676-1.177-1.771-0.013-2.448C68.622,80.372,70.514,80.371,71.685,81.048z"/>
						</g>
					</g>
				</g>
				<g>
					<g style="enable-background:new    ;">
						<g>
							<polygon style="fill:#242426;" points="79.581,84.584 79.578,85.658 74.345,88.699 74.349,87.625 							"/>
						</g>
						<g>
							<polygon style="fill:#1A3073;" points="74.349,87.625 74.345,88.699 65.051,83.333 65.054,82.26 							"/>
						</g>
						<g>
							<polygon style="fill:#29292A;" points="79.581,84.584 74.349,87.625 65.054,82.26 70.287,79.218 							"/>
						</g>
					</g>
				</g>
				<g>
					<path style="fill:#9898A1;" d="M105.046,74.479L73.074,55.848c0.985,0.573,1.749,1.547,2.2,2.9l31.972,18.632
						C106.796,76.027,106.032,75.052,105.046,74.479z"/>
					<g>
						<g style="enable-background:new    ;">
							<g>
								<defs>
									<path id="SVGID_00000071519638792378162600000010292054053119872445_" d="M73.627,55.883l26.775,15.611
										c-1.728-1.004-4.12-0.862-6.761,0.662L66.866,56.545C69.506,55.021,71.899,54.879,73.627,55.883z"/>
								</defs>
								<use xlink:href="#SVGID_00000071519638792378162600000010292054053119872445_"  style="overflow:visible;fill:#CDC5D3;"/>
								<clipPath id="SVGID_00000096750938556505915230000001317255419900257464_">
									<use xlink:href="#SVGID_00000071519638792378162600000010292054053119872445_"  style="overflow:visible;"/>
								</clipPath>
								<g style="clip-path:url(#SVGID_00000096750938556505915230000001317255419900257464_);enable-background:new    ;">
									<path style="fill:#CDC5D3;" d="M93.641,72.157L66.866,56.545c1.327-0.766,2.591-1.183,3.74-1.281l26.775,15.611
										C96.232,70.974,94.968,71.391,93.641,72.157L93.641,72.157z"/>
									<path style="fill:#CDC5D3;" d="M97.381,70.876L70.606,55.265c1.137-0.097,2.161,0.119,3.021,0.618l26.775,15.611
										C99.542,70.995,98.518,70.779,97.381,70.876L97.381,70.876z"/>
								</g>
							</g>
							<g>
								<defs>
									<path id="SVGID_00000160186930027334384330000002764771660084299148_" d="M86.943,94.653L60.168,79.042
										c-1.706-0.991-2.763-3.098-2.772-6.094c-0.017-6.031,4.223-13.374,9.47-16.403l26.775,15.611
										c-5.247,3.029-9.487,10.372-9.471,16.403C84.179,91.555,85.237,93.662,86.943,94.653z"/>
								</defs>
								<use xlink:href="#SVGID_00000160186930027334384330000002764771660084299148_"  style="overflow:visible;fill:#CDC5D3;"/>
								<clipPath id="SVGID_00000067236027546747503660000010146069568970383528_">
									<use xlink:href="#SVGID_00000160186930027334384330000002764771660084299148_"  style="overflow:visible;"/>
								</clipPath>
								<g style="clip-path:url(#SVGID_00000067236027546747503660000010146069568970383528_);enable-background:new    ;">
									<path style="fill:#CDC5D3;" d="M86.943,94.653L60.168,79.042c-1.706-0.991-2.763-3.098-2.772-6.094
										c-0.005-1.684,0.322-3.47,0.911-5.236l26.775,15.611c-0.589,1.766-0.916,3.553-0.911,5.236
										C84.179,91.555,85.237,93.662,86.943,94.653L86.943,94.653z"/>
									<path style="fill:#CDC5D3;" d="M85.082,83.323L58.307,67.712c1.519-4.559,4.778-8.983,8.56-11.167l26.775,15.611
										C89.86,74.34,86.6,78.765,85.082,83.323L85.082,83.323z"/>
								</g>
							</g>
							<g>
								<path style="fill:#E0DDE1;" d="M93.641,72.157c5.246-3.03,9.515-0.599,9.532,5.432c0.017,6.029-4.223,13.374-9.47,16.403
									c-5.247,3.029-9.515,0.597-9.532-5.432C84.154,82.529,88.395,75.186,93.641,72.157z"/>
								<path style="fill:#10225C;" d="M101.857,77.591c0.016,5.6-3.937,12.445-8.813,15.26c-1.278,0.738-2.523,1.127-3.603,1.127
									c-0.967,0-1.78-0.311-2.415-0.895c-0.982-0.906-1.533-2.465-1.538-4.528c-0.016-5.599,3.938-12.445,8.813-15.257
									c1.275-0.738,2.523-1.127,3.603-1.127c0.532,0,1.017,0.095,1.448,0.276C100.938,73.106,101.849,74.926,101.857,77.591z"/>
								<path style="fill:#0E1838;" d="M100.894,76.975c0.015,5.599-3.938,12.445-8.813,15.258
									c-1.275,0.737-2.521,1.128-3.603,1.128c-0.532,0-1.017-0.095-1.451-0.277c-0.982-0.906-1.533-2.465-1.538-4.528
									c-0.016-5.599,3.938-12.445,8.813-15.257c1.275-0.738,2.523-1.127,3.603-1.127c0.532,0,1.017,0.095,1.448,0.276
									C100.338,73.348,100.888,74.91,100.894,76.975z"/>
								<path style="fill:#1A3073;" d="M88.477,92.57c-0.367,0-0.708-0.055-1.016-0.165c-0.76-0.778-1.179-2.138-1.183-3.851
									c-0.015-5.348,3.761-11.885,8.418-14.571c1.155-0.669,2.265-1.022,3.208-1.022c0.367,0,0.708,0.056,1.015,0.166
									c0.761,0.772,1.18,2.132,1.185,3.851c0.015,5.348-3.761,11.885-8.418,14.572C90.53,92.217,89.421,92.57,88.477,92.57z"/>
								<g>
									<path style="fill:#10225C;" d="M94.239,76.607c0,0.668-0.469,1.481-1.048,1.815c-0.579,0.334-1.048,0.063-1.048-0.605
										c0-0.669,0.469-1.481,1.048-1.815C93.769,75.668,94.239,75.939,94.239,76.607z"/>
									<path style="fill:#10225C;" d="M91.694,78.216c0.289,0.411,0.118,1.251-0.384,1.874c-0.501,0.623-1.142,0.795-1.431,0.384
										c-0.289-0.412-0.118-1.251,0.384-1.874C90.763,77.976,91.404,77.804,91.694,78.216z"/>
									<path style="fill:#10225C;" d="M89.55,81.043c0.501,0.045,0.673,0.686,0.383,1.432c-0.289,0.746-0.93,1.314-1.432,1.27
										c-0.501-0.045-0.673-0.686-0.383-1.432C88.408,81.566,89.049,80.998,89.55,81.043z"/>
									<path style="fill:#10225C;" d="M88.382,84.332c0.579-0.334,1.048-0.063,1.048,0.605c0,0.668-0.469,1.481-1.048,1.815
										c-0.579,0.334-1.048,0.063-1.048-0.605C87.334,85.478,87.803,84.666,88.382,84.332z"/>
									<path style="fill:#10225C;" d="M88.502,87.201c0.501-0.624,1.143-0.796,1.432-0.383c0.289,0.411,0.118,1.251-0.383,1.874
										c-0.501,0.623-1.142,0.795-1.432,0.383C87.829,88.663,88.001,87.824,88.502,87.201z"/>
									<path style="fill:#10225C;" d="M89.879,88.881c0.289-0.746,0.93-1.314,1.431-1.269c0.501,0.045,0.673,0.686,0.384,1.432
										c-0.289,0.746-0.93,1.314-1.432,1.269C89.761,90.269,89.589,89.627,89.879,88.881z"/>
									<path style="fill:#10225C;" d="M92.143,88.923c0-0.668,0.469-1.481,1.048-1.815c0.579-0.334,1.048-0.063,1.048,0.605
										c0,0.669-0.47,1.481-1.048,1.815C92.612,89.863,92.143,89.592,92.143,88.923z"/>
									<path style="fill:#10225C;" d="M94.688,87.315c-0.289-0.411-0.117-1.251,0.384-1.875c0.501-0.623,1.142-0.795,1.432-0.383
										c0.289,0.412,0.117,1.251-0.384,1.875C95.618,87.555,94.977,87.727,94.688,87.315z"/>
									<path style="fill:#10225C;" d="M96.832,84.488c-0.502-0.045-0.673-0.686-0.384-1.432c0.289-0.746,0.93-1.315,1.431-1.27
										c0.501,0.045,0.673,0.686,0.384,1.432C97.974,83.964,97.333,84.533,96.832,84.488z"/>
									<path style="fill:#10225C;" d="M98,81.199c-0.579,0.334-1.048,0.063-1.048-0.605c0-0.669,0.469-1.481,1.048-1.816
										c0.579-0.334,1.048-0.063,1.048,0.605C99.048,80.052,98.578,80.865,98,81.199z"/>
									<path style="fill:#10225C;" d="M97.879,78.33c-0.501,0.624-1.142,0.795-1.431,0.383c-0.289-0.412-0.118-1.251,0.384-1.875
										c0.501-0.623,1.142-0.795,1.431-0.383C98.552,76.867,98.381,77.706,97.879,78.33z"/>
									<path style="fill:#10225C;" d="M96.503,76.649c-0.289,0.746-0.93,1.314-1.432,1.269c-0.501-0.045-0.673-0.686-0.384-1.431
										c0.289-0.746,0.93-1.314,1.431-1.27C96.62,75.262,96.792,75.903,96.503,76.649z"/>
									<path style="fill:#10225C;" d="M95.643,81.349c0,1.564-1.098,3.466-2.453,4.248c-1.354,0.782-2.453,0.148-2.453-1.416
										s1.098-3.466,2.453-4.248C94.545,79.151,95.643,79.785,95.643,81.349z"/>
								</g>
							</g>
						</g>
					</g>
					<g>
						<g style="enable-background:new    ;">
							<g style="enable-background:new    ;">
								<defs>
									<path id="SVGID_00000136402396059362889840000005452893697196703394_" style="enable-background:new    ;" d="
										M73.735,54.707l31.973,18.632c-1.832-1.065-4.359-0.87-7.094,0.71L66.64,55.417C69.377,53.837,71.903,53.642,73.735,54.707
										z"/>
								</defs>
								<use xlink:href="#SVGID_00000136402396059362889840000005452893697196703394_"  style="overflow:visible;fill:#F1F1F1;"/>
								<clipPath id="SVGID_00000143592993038370948130000016503780137850536629_">
									<use xlink:href="#SVGID_00000136402396059362889840000005452893697196703394_"  style="overflow:visible;"/>
								</clipPath>
								<g style="clip-path:url(#SVGID_00000143592993038370948130000016503780137850536629_);enable-background:new    ;">
									<path style="fill:#F1F1F1;" d="M98.613,74.048L66.64,55.417c1.391-0.803,2.727-1.248,3.946-1.352l31.973,18.632
										C101.34,72.8,100.004,73.245,98.613,74.048L98.613,74.048z"/>
									<path style="fill:#F1F1F1;" d="M102.559,72.697L70.586,54.065c1.179-0.101,2.248,0.119,3.149,0.642l31.973,18.632
										C104.807,72.815,103.738,72.596,102.559,72.697L102.559,72.697z"/>
								</g>
							</g>
							<g style="enable-background:new    ;">
								<defs>
									<path id="SVGID_00000108991215083229432190000015932761396984972448_" style="enable-background:new    ;" d="M89.1,87.666
										L57.127,69.034c1.272-5.595,5.096-11.067,9.513-13.618l31.973,18.632C94.196,76.599,90.372,82.071,89.1,87.666z"/>
								</defs>
								<use xlink:href="#SVGID_00000108991215083229432190000015932761396984972448_"  style="overflow:visible;fill:#F1F1F1;"/>
								<clipPath id="SVGID_00000130617115536193907010000015221302744236158093_">
									<use xlink:href="#SVGID_00000108991215083229432190000015932761396984972448_"  style="overflow:visible;"/>
								</clipPath>
								<g style="clip-path:url(#SVGID_00000130617115536193907010000015221302744236158093_);enable-background:new    ;">
									<path style="fill:#E0DDE1;" d="M89.1,87.666L57.127,69.034c0.148-0.653,0.332-1.304,0.547-1.95l31.972,18.632
										C89.432,86.362,89.248,87.013,89.1,87.666L89.1,87.666z"/>
									<path style="fill:#E0DDE1;" d="M89.646,85.717L57.674,67.084c1.626-4.883,5.065-9.415,8.966-11.668l31.973,18.632
										C94.711,76.301,91.273,80.834,89.646,85.717L89.646,85.717z"/>
								</g>
							</g>
							<g>
								<path style="fill:#CDC5D3;" d="M98.613,74.048c4.36-2.517,8.188-1.517,9.522,2.492l-0.889,0.84
									c-1.209-3.633-4.678-4.539-8.63-2.258c-4.004,2.312-7.47,7.27-8.623,12.339L89.1,87.666
									C90.372,82.071,94.196,76.599,98.613,74.048z"/>
							</g>
						</g>
					</g>
				</g>
			</g>
		</g>
		<g>
			<g>
				<g>
					<g style="enable-background:new    ;">
						<g>
							<polygon style="fill:#CBC3D0;" points="201.194,101.26 203.813,99.738 203.855,84.581 201.237,86.103 							"/>
						</g>
						<g>
							<polygon style="fill:#F1F1F1;" points="201.237,86.103 203.855,84.581 141.747,48.723 139.128,50.245 							"/>
						</g>
						<g>
							<polygon style="fill:#E0DDE1;" points="139.128,50.245 139.085,65.401 201.194,101.26 201.237,86.103 							"/>
						</g>
					</g>
				</g>
			</g>
			<g>
				<g>
					<path style="fill:#F25C05;" d="M144.934,66.337c-0.417-0.241-0.833-0.496-1.248-0.765c-0.414-0.269-0.844-0.587-1.291-0.956
						v-8.565c0.352,0.127,0.736,0.291,1.154,0.494c0.418,0.203,0.806,0.408,1.165,0.615c0.483,0.279,0.928,0.577,1.335,0.892
						c0.406,0.316,0.756,0.656,1.049,1.02c0.294,0.365,0.522,0.754,0.687,1.168c0.164,0.414,0.247,0.854,0.247,1.322
						c0,0.705-0.293,1.092-0.878,1.162c0.483,0.491,0.813,0.971,0.988,1.437c0.176,0.467,0.264,0.93,0.264,1.388
						c0,0.927-0.291,1.455-0.874,1.586C146.95,67.267,146.084,67,144.934,66.337z M144.067,60.355l0.835,0.483
						c0.527,0.304,0.905,0.443,1.131,0.417c0.228-0.026,0.341-0.213,0.341-0.562c0-0.357-0.117-0.675-0.352-0.955
						c-0.234-0.28-0.579-0.551-1.033-0.813c-0.146-0.084-0.304-0.173-0.472-0.266c-0.169-0.093-0.319-0.169-0.45-0.228V60.355z
						 M144.067,61.872v2.282c0.124,0.089,0.26,0.18,0.406,0.273c0.146,0.093,0.308,0.191,0.483,0.292
						c0.513,0.296,0.926,0.45,1.241,0.462c0.315,0.012,0.473-0.211,0.473-0.67c0-0.408-0.132-0.775-0.396-1.101
						c-0.264-0.327-0.641-0.632-1.132-0.915L144.067,61.872z"/>
					<path style="fill:#F25C05;" d="M154.866,70.248v1.708l-5.087-2.937v-8.832l1.714,0.989v7.125L154.866,70.248z"/>
					<path style="fill:#F25C05;" d="M162.996,72.227c0,0.757-0.097,1.365-0.291,1.826c-0.194,0.462-0.46,0.788-0.797,0.98
						c-0.337,0.192-0.738,0.252-1.203,0.179c-0.465-0.074-0.965-0.264-1.5-0.573c-0.52-0.301-1.01-0.682-1.472-1.143
						c-0.462-0.462-0.864-0.985-1.209-1.571c-0.344-0.585-0.615-1.222-0.813-1.91c-0.198-0.688-0.296-1.41-0.296-2.166
						c0-0.756,0.102-1.362,0.307-1.817c0.205-0.455,0.482-0.777,0.83-0.968c0.348-0.19,0.75-0.25,1.208-0.182
						c0.458,0.069,0.94,0.249,1.445,0.541c0.52,0.3,1.011,0.682,1.472,1.143c0.462,0.462,0.865,0.988,1.209,1.577
						c0.344,0.59,0.615,1.228,0.813,1.916C162.898,70.749,162.996,71.471,162.996,72.227z M157.184,68.872
						c0,0.433,0.046,0.851,0.137,1.252c0.092,0.401,0.224,0.777,0.396,1.127c0.172,0.35,0.383,0.665,0.632,0.944
						c0.249,0.28,0.534,0.513,0.857,0.699c0.315,0.182,0.599,0.278,0.852,0.288c0.252,0.01,0.464-0.061,0.637-0.212
						c0.172-0.151,0.304-0.375,0.396-0.67c0.092-0.296,0.137-0.66,0.137-1.093c0-0.433-0.046-0.853-0.137-1.258
						c-0.092-0.405-0.224-0.783-0.396-1.133c-0.172-0.35-0.384-0.666-0.637-0.948c-0.253-0.282-0.537-0.514-0.852-0.696
						c-0.322-0.186-0.608-0.281-0.857-0.285c-0.249-0.004-0.46,0.071-0.632,0.222c-0.172,0.151-0.304,0.377-0.396,0.676
						C157.23,68.085,157.184,68.447,157.184,68.872z"/>
					<path style="fill:#F25C05;" d="M167.897,79.658c-1.238-0.715-2.181-1.659-2.829-2.831c-0.648-1.173-0.973-2.494-0.973-3.965
						c0-0.73,0.099-1.325,0.297-1.785c0.198-0.459,0.468-0.787,0.813-0.984c0.344-0.196,0.755-0.259,1.231-0.188
						c0.476,0.071,0.992,0.267,1.549,0.589c0.323,0.186,0.615,0.383,0.879,0.59c0.264,0.207,0.495,0.405,0.693,0.591
						c0.198,0.187,0.363,0.356,0.494,0.508c0.132,0.153,0.227,0.268,0.285,0.343l-0.494,1.32c-0.234-0.28-0.507-0.561-0.819-0.842
						s-0.665-0.536-1.061-0.765c-0.263-0.152-0.522-0.25-0.774-0.295c-0.253-0.044-0.476-0.009-0.671,0.104
						c-0.194,0.113-0.35,0.314-0.467,0.603c-0.117,0.289-0.175,0.689-0.175,1.199c0,0.408,0.038,0.81,0.116,1.207
						c0.077,0.397,0.201,0.772,0.373,1.127c0.173,0.354,0.397,0.686,0.676,0.995c0.279,0.31,0.615,0.578,1.01,0.807
						c0.249,0.144,0.473,0.256,0.671,0.336c0.198,0.081,0.373,0.142,0.527,0.184c0.153,0.042,0.289,0.067,0.407,0.075
						c0.117,0.008,0.223,0.014,0.318,0.018l0.472,1.866c-0.242,0.03-0.582-0.013-1.022-0.131
						C168.984,80.217,168.475,79.992,167.897,79.658z"/>
					<path style="fill:#F25C05;" d="M176.033,84.176c-0.155-0.377-0.336-0.792-0.546-1.247c-0.209-0.455-0.435-0.922-0.677-1.4
						c-0.242-0.478-0.495-0.95-0.76-1.413c-0.265-0.464-0.528-0.891-0.793-1.282v3.741l-1.714-0.99v-8.833l1.714,0.989v3.32
						c0.44-0.282,0.888-0.586,1.343-0.909c0.454-0.324,0.875-0.626,1.26-0.908l2.034,1.174c-0.518,0.417-1.04,0.804-1.564,1.162
						c-0.524,0.358-1.076,0.704-1.655,1.039c0.608,0.941,1.197,1.98,1.762,3.115c0.566,1.136,1.11,2.342,1.633,3.618L176.033,84.176
						z"/>
					<path style="fill:#F25C05;" d="M179.059,77.091l1.714,0.99v8.833l-1.714-0.99V77.091z"/>
					<path style="fill:#F25C05;" d="M187.64,90.878c-0.491-1.295-1.022-2.6-1.593-3.915c-0.572-1.315-1.18-2.597-1.824-3.844v5.786
						l-1.692-0.977v-8.833l1.395,0.805c0.242,0.42,0.509,0.918,0.802,1.496c0.293,0.577,0.592,1.185,0.896,1.823
						c0.304,0.639,0.606,1.293,0.907,1.964c0.3,0.67,0.582,1.311,0.846,1.922v-5.213l1.703,0.983v8.833L187.64,90.878z"/>
					<path style="fill:#F25C05;" d="M194.551,87.565c-0.799-0.461-1.375-0.537-1.73-0.228c-0.356,0.309-0.533,0.91-0.533,1.802
						c0,0.433,0.044,0.852,0.132,1.255c0.087,0.403,0.22,0.783,0.395,1.14c0.175,0.356,0.396,0.681,0.659,0.973
						c0.263,0.292,0.571,0.54,0.923,0.743c0.191,0.11,0.353,0.2,0.489,0.27c0.135,0.07,0.254,0.121,0.357,0.155v-3.072l1.714,0.99
						v4.372c-0.205-0.025-0.535-0.115-0.989-0.271c-0.454-0.156-1.014-0.426-1.68-0.811c-0.572-0.33-1.09-0.731-1.555-1.204
						c-0.465-0.472-0.862-0.999-1.192-1.58c-0.329-0.581-0.584-1.208-0.764-1.881c-0.179-0.673-0.269-1.375-0.269-2.106
						c0-0.739,0.099-1.336,0.297-1.791c0.198-0.455,0.468-0.781,0.813-0.977c0.344-0.197,0.749-0.262,1.214-0.198
						c0.465,0.065,0.962,0.249,1.489,0.554c0.359,0.207,0.683,0.422,0.973,0.645c0.289,0.222,0.538,0.43,0.747,0.622
						c0.209,0.193,0.381,0.367,0.517,0.521c0.135,0.154,0.232,0.27,0.291,0.347l-0.495,1.307c-0.234-0.28-0.504-0.56-0.808-0.842
						C195.241,88.016,194.91,87.772,194.551,87.565z"/>
				</g>
			</g>
		</g>
		<g id="camera_3_">
			<g>
				<g>
					<g style="enable-background:new    ;">
						<g>
							<polygon style="fill:#C7BFCD;" points="410.86,251.134 430.456,240.979 430.474,234.834 410.874,246.218 							"/>
						</g>
						<g>
							<polygon style="fill:#E0DDE1;" points="410.874,246.218 430.474,234.834 425.126,231.746 406.595,243.748 							"/>
						</g>
						<g>
							<polygon style="fill:#10225C;" points="406.595,243.748 406.581,248.664 410.86,251.134 410.874,246.218 							"/>
						</g>
					</g>
				</g>
				<g>
					<g>
						<g style="enable-background:new    ;">
							<g>
								<defs>
									<path id="SVGID_00000006688341719019545530000011652339384813702820_" d="M404.458,255.962l7.819-4.544
										c0.318-0.185,0.516-0.577,0.518-1.133l-7.819,4.544C404.974,255.385,404.776,255.777,404.458,255.962z"/>
								</defs>
								<use xlink:href="#SVGID_00000006688341719019545530000011652339384813702820_"  style="overflow:visible;fill:#1A3073;"/>
								<clipPath id="SVGID_00000157290142354643880260000014838372893631163011_">
									<use xlink:href="#SVGID_00000006688341719019545530000011652339384813702820_"  style="overflow:visible;"/>
								</clipPath>
								<g style="clip-path:url(#SVGID_00000157290142354643880260000014838372893631163011_);enable-background:new    ;">
									<path style="fill:#1A3073;" d="M404.458,255.962l7.819-4.544c0.318-0.185,0.516-0.577,0.518-1.133l-7.819,4.544
										C404.974,255.385,404.776,255.777,404.458,255.962L404.458,255.962z"/>
								</g>
							</g>
							<g style="enable-background:new    ;">
								<defs>
									<path id="SVGID_00000157992861398904430750000007862808572454949810_" style="enable-background:new    ;" d="
										M407.519,243.206l-7.819,4.544c0.322-0.187,0.768-0.162,1.258,0.12l7.819-4.544
										C408.287,243.044,407.841,243.019,407.519,243.206z"/>
								</defs>
								<use xlink:href="#SVGID_00000157992861398904430750000007862808572454949810_"  style="overflow:visible;fill:#374F9F;"/>
								<clipPath id="SVGID_00000120551179746241816310000006457374715366496664_">
									<use xlink:href="#SVGID_00000157992861398904430750000007862808572454949810_"  style="overflow:visible;"/>
								</clipPath>
								<g style="clip-path:url(#SVGID_00000120551179746241816310000006457374715366496664_);enable-background:new    ;">
									<path style="fill:#374F9F;" d="M400.958,247.871l7.819-4.544c-0.186-0.107-0.366-0.178-0.535-0.214l-7.819,4.544
										C400.593,247.693,400.772,247.764,400.958,247.871L400.958,247.871z"/>
									<path style="fill:#374F9F;" d="M400.424,247.658l7.819-4.544c-0.262-0.055-0.497-0.027-0.692,0.075l-7.819,4.544
										C399.926,247.63,400.162,247.602,400.424,247.658L400.424,247.658z"/>
									<path style="fill:#1A3073;" d="M399.731,247.733l7.819-4.544c-0.011,0.006-0.021,0.012-0.032,0.018l-7.819,4.544
										C399.71,247.744,399.721,247.738,399.731,247.733L399.731,247.733z"/>
								</g>
							</g>
							<g>
								<polygon style="fill:#1A3073;" points="404.975,254.829 412.795,250.285 412.802,247.689 404.983,252.233 								"/>
							</g>
							<g>
								<polygon style="fill:#374F9F;" points="403.218,249.176 411.037,244.631 408.777,243.327 400.958,247.871 								"/>
							</g>
							<g style="enable-background:new    ;">
								<defs>
									<path id="SVGID_00000016769314049098198660000006145506219803509403_" style="enable-background:new    ;" d="
										M404.983,252.233l7.819-4.544c0.003-1.119-0.791-2.495-1.765-3.057l-7.819,4.544
										C404.192,249.738,404.986,251.113,404.983,252.233z"/>
								</defs>
								<use xlink:href="#SVGID_00000016769314049098198660000006145506219803509403_"  style="overflow:visible;fill:#374F9F;"/>
								<clipPath id="SVGID_00000012432078221467508440000017317225613122706059_">
									<use xlink:href="#SVGID_00000016769314049098198660000006145506219803509403_"  style="overflow:visible;"/>
								</clipPath>
								<g style="clip-path:url(#SVGID_00000012432078221467508440000017317225613122706059_);enable-background:new    ;">
									<path style="fill:#1A3073;" d="M404.983,252.233l7.819-4.544c0.001-0.428-0.114-0.894-0.312-1.337l-7.819,4.544
										C404.869,251.339,404.984,251.805,404.983,252.233L404.983,252.233z"/>
									<path style="fill:#374F9F;" d="M404.671,250.896l7.819-4.544c-0.155-0.348-0.361-0.681-0.6-0.973l-7.819,4.544
										C404.311,250.214,404.516,250.548,404.671,250.896L404.671,250.896z"/>
									<path style="fill:#374F9F;" d="M404.072,249.923l7.819-4.544c-0.253-0.309-0.544-0.569-0.853-0.748l-7.819,4.544
										C403.527,249.354,403.818,249.614,404.072,249.923L404.072,249.923z"/>
								</g>
							</g>
							<g>
								<path style="fill:#1A3073;" d="M400.958,247.871c-0.974-0.562-1.773-0.106-1.777,1.013l-0.007,2.596
									c-0.003,1.119,0.791,2.494,1.765,3.057l2.26,1.305c0.974,0.562,1.773,0.107,1.776-1.012l0.007-2.596
									c0.004-1.119-0.791-2.495-1.765-3.057L400.958,247.871z"/>
							</g>
						</g>
					</g>
					<path style="fill:#0E1838;" d="M395.104,253.262c0-2.836,2.3-5.136,5.136-5.136c2.836,0,5.136,2.299,5.136,5.136
						c0,2.836-2.3,5.136-5.136,5.136C397.404,258.398,395.104,256.098,395.104,253.262z"/>
					<g>
						<g style="enable-background:new    ;">
							<g style="enable-background:new    ;">
								<defs>
									<path id="SVGID_00000174582962000299571720000013018209348077992892_" style="enable-background:new    ;" d="
										M395.331,242.046l0.026,9.044c0.001,0.368,0.242,0.736,0.722,1.015l-0.026-9.044
										C395.573,242.782,395.332,242.414,395.331,242.046z"/>
								</defs>
								<use xlink:href="#SVGID_00000174582962000299571720000013018209348077992892_"  style="overflow:visible;fill:#10225C;"/>
								<clipPath id="SVGID_00000165924227436433827420000016791683136578005152_">
									<use xlink:href="#SVGID_00000174582962000299571720000013018209348077992892_"  style="overflow:visible;"/>
								</clipPath>
								<g style="clip-path:url(#SVGID_00000165924227436433827420000016791683136578005152_);enable-background:new    ;">
									<path style="fill:#10225C;" d="M395.331,242.046l0.026,9.044c0,0.115,0.024,0.231,0.072,0.343l-0.026-9.044
										C395.355,242.277,395.331,242.161,395.331,242.046L395.331,242.046z"/>
									<path style="fill:#10225C;" d="M395.402,242.389l0.026,9.044c0.103,0.247,0.32,0.48,0.65,0.672l-0.026-9.044
										C395.723,242.869,395.506,242.636,395.402,242.389L395.402,242.389z"/>
								</g>
							</g>
							<g>
								<defs>
									<path id="SVGID_00000112612385097764469090000006737253356515999106_" d="M404.847,251.075l-0.026-9.044
										c0.001,0.373-0.244,0.747-0.734,1.029l0.026,9.044C404.603,251.822,404.848,251.449,404.847,251.075z"/>
								</defs>
								<use xlink:href="#SVGID_00000112612385097764469090000006737253356515999106_"  style="overflow:visible;fill:#1A3073;"/>
								<clipPath id="SVGID_00000012463327098587915370000003157093385241444747_">
									<use xlink:href="#SVGID_00000112612385097764469090000006737253356515999106_"  style="overflow:visible;"/>
								</clipPath>
								<g style="clip-path:url(#SVGID_00000012463327098587915370000003157093385241444747_);enable-background:new    ;">
									<path style="fill:#1A3073;" d="M404.088,243.061l0.026,9.044c0.49-0.283,0.735-0.656,0.734-1.029l-0.026-9.044
										C404.823,242.405,404.578,242.778,404.088,243.061L404.088,243.061z"/>
								</g>
							</g>
							<g>
								<polygon style="fill:#10225C;" points="396.053,243.061 396.079,252.105 398.324,253.41 398.298,244.366 								"/>
							</g>
							<g>
								<polygon style="fill:#1A3073;" points="401.828,244.366 401.854,253.41 404.114,252.105 404.088,243.061 								"/>
							</g>
							<g style="enable-background:new    ;">
								<defs>
									<path id="SVGID_00000163787961246851424140000009030216306666040450_" style="enable-background:new    ;" d="
										M398.298,244.366l0.026,9.044c0.968,0.562,2.556,0.562,3.53,0l-0.026-9.044
										C400.854,244.928,399.266,244.928,398.298,244.366z"/>
								</defs>
								<use xlink:href="#SVGID_00000163787961246851424140000009030216306666040450_"  style="overflow:visible;fill:#1A3073;"/>
								<clipPath id="SVGID_00000075869481729713702100000006743214945065224127_">
									<use xlink:href="#SVGID_00000163787961246851424140000009030216306666040450_"  style="overflow:visible;"/>
								</clipPath>
								<g style="clip-path:url(#SVGID_00000075869481729713702100000006743214945065224127_);enable-background:new    ;">
									<path style="fill:#10225C;" d="M398.298,244.366l0.026,9.044c0.495,0.288,1.153,0.428,1.808,0.421l-0.026-9.043
										C399.451,244.794,398.793,244.654,398.298,244.366L398.298,244.366z"/>
									<path style="fill:#1A3073;" d="M400.106,244.788l0.026,9.043c0.625-0.006,1.247-0.147,1.722-0.421l-0.026-9.044
										C401.353,244.64,400.731,244.781,400.106,244.788L400.106,244.788z"/>
								</g>
							</g>
							<g>
								<path style="fill:#374F9F;" d="M396.065,241.016c-0.974,0.562-0.979,1.483-0.012,2.045l2.245,1.305
									c0.968,0.562,2.556,0.562,3.53,0l2.26-1.305c0.974-0.562,0.979-1.482,0.012-2.045l-2.245-1.305
									c-0.967-0.562-2.556-0.562-3.53,0L396.065,241.016z"/>
							</g>
						</g>
					</g>
				</g>
				<g>
					<g style="enable-background:new    ;">
						<g style="enable-background:new    ;">
							<defs>
								<path id="SVGID_00000080899135956725801360000009697014139077069190_" style="enable-background:new    ;" d="
									M396.543,232.098l0.019,9.635c0.001,0.464,0.306,0.926,0.914,1.28c1.225,0.712,3.218,0.712,4.451,0
									c0.62-0.358,0.93-0.828,0.928-1.297l-0.019-9.634c0.001,0.469-0.309,0.939-0.929,1.297c-1.233,0.712-3.226,0.712-4.451,0
									C396.849,233.025,396.544,232.562,396.543,232.098z"/>
							</defs>
							<use xlink:href="#SVGID_00000080899135956725801360000009697014139077069190_"  style="overflow:visible;fill:#C7BFCD;"/>
							<clipPath id="SVGID_00000113333221715740125980000005348307062337130630_">
								<use xlink:href="#SVGID_00000080899135956725801360000009697014139077069190_"  style="overflow:visible;"/>
							</clipPath>
							<g style="clip-path:url(#SVGID_00000113333221715740125980000005348307062337130630_);enable-background:new    ;">
								<path style="fill:#C7BFCD;" d="M396.543,232.098l0.019,9.635c0,0.161,0.037,0.322,0.111,0.477l-0.02-9.634
									C396.58,232.42,396.543,232.259,396.543,232.098L396.543,232.098z"/>
								<path style="fill:#C7BFCD;" d="M396.654,232.576l0.02,9.634c0.129,0.274,0.37,0.533,0.723,0.754l-0.02-9.634
									C397.024,233.109,396.782,232.85,396.654,232.576L396.654,232.576z"/>
								<path style="fill:#C7BFCD;" d="M397.377,233.33l0.02,9.634c0.026,0.016,0.053,0.032,0.08,0.049
									c0.553,0.321,1.263,0.498,1.989,0.529l-0.019-9.634c-0.726-0.031-1.435-0.208-1.989-0.529
									C397.43,233.363,397.403,233.347,397.377,233.33L397.377,233.33z"/>
								<path style="fill:#E0DDE1;" d="M399.446,233.908l0.019,9.634c0.499,0.021,1.005-0.026,1.474-0.141l-0.02-9.635
									C400.451,233.882,399.945,233.929,399.446,233.908L399.446,233.908z"/>
								<path style="fill:#C7BFCD;" d="M400.92,233.766l0.02,9.635c0.359-0.089,0.695-0.218,0.989-0.388
									c0.62-0.358,0.93-0.828,0.928-1.297l-0.019-9.634c0.001,0.469-0.309,0.939-0.929,1.297
									C401.615,233.549,401.279,233.678,400.92,233.766L400.92,233.766z"/>
							</g>
						</g>
						<g>
							<path style="fill:#C7BFCD;" d="M397.472,230.801c-1.233,0.712-1.24,1.866-0.015,2.578c1.225,0.712,3.218,0.712,4.451,0
								c1.233-0.712,1.239-1.865,0.013-2.578C400.697,230.089,398.705,230.088,397.472,230.801z"/>
						</g>
					</g>
				</g>
				<g>
					<g style="enable-background:new    ;">
						<g>
							<polygon style="fill:#242426;" points="389.157,234.525 389.16,235.656 394.671,238.858 394.667,237.727 							"/>
						</g>
						<g>
							<polygon style="fill:#1A3073;" points="394.667,237.727 394.671,238.858 404.458,233.207 404.454,232.077 							"/>
						</g>
						<g>
							<polygon style="fill:#29292A;" points="389.157,234.525 394.667,237.727 404.454,232.077 398.944,228.875 							"/>
						</g>
					</g>
				</g>
				<g>
					<path style="fill:#9898A1;" d="M362.341,223.884l33.669-19.62c-1.038,0.603-1.842,1.63-2.317,3.055l-33.669,19.621
						C360.498,225.514,361.303,224.487,362.341,223.884z"/>
					<g>
						<g style="enable-background:new    ;">
							<g>
								<defs>
									<path id="SVGID_00000150104393212383323100000001429962012160960901_" d="M395.427,204.302l-28.195,16.44
										c1.819-1.057,4.339-0.908,7.119,0.697l28.195-16.439C399.766,203.393,397.246,203.244,395.427,204.302z"/>
								</defs>
								<use xlink:href="#SVGID_00000150104393212383323100000001429962012160960901_"  style="overflow:visible;fill:#CDC5D3;"/>
								<clipPath id="SVGID_00000155852696903494006740000002123354007266468767_">
									<use xlink:href="#SVGID_00000150104393212383323100000001429962012160960901_"  style="overflow:visible;"/>
								</clipPath>
								<g style="clip-path:url(#SVGID_00000155852696903494006740000002123354007266468767_);enable-background:new    ;">
									<path style="fill:#CDC5D3;" d="M374.351,221.438l28.195-16.439c-1.397-0.807-2.729-1.246-3.939-1.349l-28.195,16.439
										C371.622,220.193,372.954,220.632,374.351,221.438L374.351,221.438z"/>
									<path style="fill:#CDC5D3;" d="M370.413,220.09l28.195-16.439c-1.197-0.102-2.276,0.125-3.181,0.651l-28.195,16.44
										C368.137,220.215,369.215,219.988,370.413,220.09L370.413,220.09z"/>
								</g>
							</g>
							<g>
								<defs>
									<path id="SVGID_00000084501120878132914970000005559278316208190896_" d="M381.405,245.128l28.195-16.439
										c1.796-1.044,2.91-3.263,2.919-6.417c0.018-6.35-4.448-14.083-9.973-17.273l-28.195,16.439
										c5.525,3.19,9.991,10.923,9.973,17.273C384.315,241.866,383.201,244.085,381.405,245.128z"/>
								</defs>
								<use xlink:href="#SVGID_00000084501120878132914970000005559278316208190896_"  style="overflow:visible;fill:#CDC5D3;"/>
								<clipPath id="SVGID_00000067954183959545404830000003420589380648380582_">
									<use xlink:href="#SVGID_00000084501120878132914970000005559278316208190896_"  style="overflow:visible;"/>
								</clipPath>
								<g style="clip-path:url(#SVGID_00000067954183959545404830000003420589380648380582_);enable-background:new    ;">
									<path style="fill:#CDC5D3;" d="M381.405,245.128l28.195-16.44c1.796-1.044,2.91-3.263,2.919-6.417
										c0.005-1.773-0.34-3.654-0.959-5.514l-28.195,16.439c0.619,1.86,0.964,3.741,0.959,5.514
										C384.315,241.866,383.201,244.085,381.405,245.128L381.405,245.128z"/>
									<path style="fill:#CDC5D3;" d="M383.365,233.197l28.195-16.439c-1.599-4.801-5.031-9.46-9.014-11.759l-28.195,16.439
										C378.333,223.738,381.766,228.397,383.365,233.197L383.365,233.197z"/>
								</g>
							</g>
							<g>
								<path style="fill:#E0DDE1;" d="M374.351,221.438c-5.525-3.19-10.02-0.63-10.038,5.72
									c-0.018,6.349,4.447,14.083,9.973,17.273c5.525,3.19,10.02,0.629,10.037-5.72
									C384.342,232.361,379.876,224.628,374.351,221.438z"/>
								<path style="fill:#10225C;" d="M365.699,227.161c-0.017,5.897,4.147,13.105,9.28,16.07c1.345,0.777,2.657,1.187,3.794,1.187
									c1.018,0,1.875-0.327,2.543-0.943c1.035-0.954,1.614-2.596,1.62-4.768c0.017-5.897-4.147-13.105-9.28-16.067
									c-1.343-0.777-2.657-1.187-3.794-1.187c-0.561,0-1.07,0.1-1.525,0.291C366.667,222.438,365.707,224.354,365.699,227.161z"/>
								<path style="fill:#0E1838;" d="M366.714,226.512c-0.016,5.896,4.146,13.105,9.28,16.067
									c1.343,0.777,2.654,1.187,3.794,1.187c0.56,0,1.071-0.1,1.528-0.291c1.035-0.954,1.614-2.596,1.62-4.768
									c0.017-5.897-4.147-13.105-9.28-16.067c-1.343-0.777-2.657-1.187-3.794-1.187c-0.561,0-1.07,0.1-1.525,0.291
									C367.3,222.693,366.72,224.338,366.714,226.512z"/>
								<path style="fill:#1A3073;" d="M379.789,242.934c0.386,0,0.745-0.058,1.07-0.174c0.8-0.82,1.241-2.251,1.245-4.055
									c0.016-5.632-3.96-12.515-8.864-15.344c-1.217-0.704-2.385-1.076-3.379-1.076c-0.387,0-0.746,0.058-1.068,0.174
									c-0.801,0.813-1.243,2.245-1.248,4.055c-0.016,5.632,3.961,12.515,8.865,15.344
									C377.627,242.563,378.795,242.934,379.789,242.934z"/>
								<g>
									<path style="fill:#10225C;" d="M373.722,226.125c0,0.704,0.494,1.56,1.104,1.911c0.61,0.352,1.104,0.066,1.104-0.637
										c0-0.704-0.494-1.56-1.104-1.911C374.216,225.136,373.722,225.421,373.722,226.125z"/>
									<path style="fill:#10225C;" d="M376.402,227.818c-0.305,0.434-0.124,1.317,0.404,1.974
										c0.527,0.656,1.203,0.837,1.507,0.404c0.305-0.434,0.124-1.317-0.404-1.974
										C377.381,227.566,376.707,227.385,376.402,227.818z"/>
									<path style="fill:#10225C;" d="M378.659,230.796c-0.528,0.047-0.709,0.722-0.404,1.507c0.304,0.786,0.98,1.384,1.508,1.337
										c0.528-0.047,0.709-0.722,0.404-1.508C379.862,231.347,379.187,230.749,378.659,230.796z"/>
									<path style="fill:#10225C;" d="M379.889,234.259c-0.609-0.352-1.103-0.066-1.103,0.637c0,0.704,0.494,1.559,1.103,1.912
										c0.61,0.352,1.104,0.067,1.104-0.638C380.993,235.467,380.499,234.611,379.889,234.259z"/>
									<path style="fill:#10225C;" d="M379.763,237.281c-0.528-0.657-1.203-0.838-1.508-0.404
										c-0.305,0.433-0.124,1.317,0.404,1.974c0.528,0.657,1.203,0.837,1.507,0.404
										C380.471,238.821,380.291,237.937,379.763,237.281z"/>
									<path style="fill:#10225C;" d="M378.313,239.05c-0.305-0.786-0.98-1.384-1.508-1.337c-0.528,0.047-0.709,0.722-0.404,1.507
										c0.305,0.785,0.979,1.384,1.508,1.337C378.437,240.511,378.618,239.836,378.313,239.05z"/>
									<path style="fill:#10225C;" d="M375.929,239.094c0-0.704-0.495-1.56-1.104-1.912c-0.609-0.352-1.104-0.066-1.104,0.637
										c0,0.704,0.494,1.56,1.104,1.912C375.435,240.083,375.929,239.798,375.929,239.094z"/>
									<path style="fill:#10225C;" d="M373.249,237.401c0.305-0.433,0.124-1.317-0.404-1.974
										c-0.528-0.656-1.203-0.837-1.508-0.404c-0.305,0.434-0.124,1.317,0.404,1.974
										C372.269,237.654,372.944,237.835,373.249,237.401z"/>
									<path style="fill:#10225C;" d="M370.991,234.424c0.528-0.047,0.709-0.722,0.404-1.508c-0.305-0.786-0.98-1.384-1.508-1.337
										c-0.528,0.047-0.708,0.722-0.404,1.508C369.789,233.872,370.464,234.471,370.991,234.424z"/>
									<path style="fill:#10225C;" d="M369.761,230.96c0.609,0.352,1.104,0.067,1.104-0.637c0-0.704-0.494-1.56-1.104-1.912
										c-0.609-0.352-1.104-0.066-1.104,0.637C368.657,229.753,369.152,230.609,369.761,230.96z"/>
									<path style="fill:#10225C;" d="M369.888,227.939c0.528,0.657,1.203,0.838,1.508,0.404c0.305-0.434,0.124-1.317-0.404-1.974
										c-0.528-0.656-1.203-0.837-1.507-0.404C369.179,226.399,369.36,227.282,369.888,227.939z"/>
									<path style="fill:#10225C;" d="M371.337,226.169c0.305,0.785,0.98,1.384,1.508,1.337c0.528-0.047,0.709-0.722,0.404-1.507
										c-0.305-0.786-0.979-1.384-1.507-1.337C371.214,224.709,371.033,225.384,371.337,226.169z"/>
									<path style="fill:#10225C;" d="M372.243,231.118c0,1.647,1.156,3.65,2.583,4.474c1.426,0.824,2.583,0.156,2.583-1.491
										s-1.156-3.65-2.583-4.474C373.399,228.804,372.243,229.471,372.243,231.118z"/>
								</g>
							</g>
						</g>
					</g>
					<g>
						<g style="enable-background:new    ;">
							<g style="enable-background:new    ;">
								<defs>
									<path id="SVGID_00000159437874208449338150000009665371317341294239_" style="enable-background:new    ;" d="
										M395.313,203.063l-33.669,19.62c1.929-1.121,4.59-0.916,7.471,0.747l33.669-19.62
										C399.902,202.147,397.242,201.942,395.313,203.063z"/>
								</defs>
								<use xlink:href="#SVGID_00000159437874208449338150000009665371317341294239_"  style="overflow:visible;fill:#F1F1F1;"/>
								<clipPath id="SVGID_00000006700344386212415930000010275001164237945510_">
									<use xlink:href="#SVGID_00000159437874208449338150000009665371317341294239_"  style="overflow:visible;"/>
								</clipPath>
								<g style="clip-path:url(#SVGID_00000006700344386212415930000010275001164237945510_);enable-background:new    ;">
									<path style="fill:#F1F1F1;" d="M369.115,223.43l33.669-19.62c-1.464-0.846-2.872-1.314-4.155-1.424l-33.669,19.62
										C366.243,222.116,367.651,222.585,369.115,223.43L369.115,223.43z"/>
									<path style="fill:#F1F1F1;" d="M364.96,222.007l33.669-19.62c-1.242-0.106-2.367,0.125-3.316,0.676l-33.669,19.62
										C362.593,222.132,363.718,221.901,364.96,222.007L364.96,222.007z"/>
								</g>
							</g>
							<g style="enable-background:new    ;">
								<defs>
									<path id="SVGID_00000160906942083941363510000007187950449040229286_" style="enable-background:new    ;" d="
										M379.133,237.77l33.669-19.62c-1.34-5.892-5.366-11.655-10.018-14.34l-33.669,19.62
										C373.767,226.116,377.793,231.878,379.133,237.77z"/>
								</defs>
								<use xlink:href="#SVGID_00000160906942083941363510000007187950449040229286_"  style="overflow:visible;fill:#F1F1F1;"/>
								<clipPath id="SVGID_00000080166901219394485880000012254217018771628704_">
									<use xlink:href="#SVGID_00000160906942083941363510000007187950449040229286_"  style="overflow:visible;"/>
								</clipPath>
								<g style="clip-path:url(#SVGID_00000080166901219394485880000012254217018771628704_);enable-background:new    ;">
									<path style="fill:#E0DDE1;" d="M379.133,237.77l33.669-19.62c-0.156-0.688-0.349-1.374-0.576-2.053l-33.669,19.621
										C378.784,236.397,378.977,237.083,379.133,237.77L379.133,237.77z"/>
									<path style="fill:#E0DDE1;" d="M378.557,235.717l33.669-19.621c-1.712-5.142-5.333-9.914-9.442-12.287l-33.669,19.62
										C373.224,225.802,376.845,230.576,378.557,235.717L378.557,235.717z"/>
								</g>
							</g>
							<g>
								<path style="fill:#CDC5D3;" d="M369.115,223.43c-4.592-2.651-8.623-1.597-10.027,2.624l0.936,0.885
									c1.274-3.826,4.927-4.78,9.088-2.377c4.216,2.434,7.866,7.656,9.08,12.993l0.941,0.215
									C377.793,231.878,373.767,226.116,369.115,223.43z"/>
							</g>
						</g>
					</g>
				</g>
			</g>
		</g>
	</g>
</g>
<g>
	<g>
		<g style="enable-background:new    ;">
			<g>
				<defs>
					<path id="SVGID_00000080918939179761268440000001529809798738880925_" d="M162.967,334.448l-0.024,8.305
						c0.01-3.661-2.406-7.327-7.244-10.121c-9.619-5.554-25.156-5.553-34.709-0.002c-4.748,2.759-7.124,6.368-7.134,9.983
						l0.023-8.305c0.01-3.615,2.387-7.224,7.135-9.983c9.552-5.551,25.089-5.551,34.708,0.002
						C160.561,327.121,162.978,330.787,162.967,334.448z"/>
				</defs>
				<use xlink:href="#SVGID_00000080918939179761268440000001529809798738880925_"  style="overflow:visible;fill:#0E1838;"/>
				<clipPath id="SVGID_00000101066362676245838880000010349004751014045614_">
					<use xlink:href="#SVGID_00000080918939179761268440000001529809798738880925_"  style="overflow:visible;"/>
				</clipPath>
				<g style="clip-path:url(#SVGID_00000101066362676245838880000010349004751014045614_);">
					<path style="fill:#D4CED8;" d="M162.967,334.448l-0.024,8.305c0.01-3.661-2.406-7.327-7.244-10.121
						c-9.619-5.554-25.156-5.553-34.709-0.002c-4.748,2.759-7.124,6.368-7.134,9.983l0.023-8.305
						c0.01-3.615,2.387-7.224,7.135-9.983c9.552-5.551,25.089-5.551,34.708,0.002C160.561,327.121,162.978,330.787,162.967,334.448
						L162.967,334.448z"/>
				</g>
			</g>
			<g>
				<defs>
					<path id="SVGID_00000116956270872882174420000007303969727303043479_" d="M167.156,334.46l-0.023,6.656
						c-0.012,4.232-2.793,8.457-8.348,11.685c-11.185,6.499-29.375,6.502-40.633,0.002c-5.665-3.271-8.494-7.564-8.482-11.851
						l0.023-6.656c-0.012,4.287,2.817,8.581,8.482,11.851c11.258,6.5,29.448,6.497,40.633-0.002
						C164.363,342.917,167.144,338.691,167.156,334.46z"/>
				</defs>
				<use xlink:href="#SVGID_00000116956270872882174420000007303969727303043479_"  style="overflow:visible;fill:#0E1838;"/>
				<clipPath id="SVGID_00000160169791053764719300000004830174326687848624_">
					<use xlink:href="#SVGID_00000116956270872882174420000007303969727303043479_"  style="overflow:visible;"/>
				</clipPath>
				<g style="clip-path:url(#SVGID_00000160169791053764719300000004830174326687848624_);">
					<path style="fill:#D4CED8;" d="M167.156,334.46l-0.023,6.656c-0.012,4.232-2.793,8.457-8.348,11.685
						c-11.185,6.499-29.375,6.502-40.633,0.002c-5.665-3.271-8.494-7.564-8.482-11.851l0.023-6.656
						c-0.012,4.287,2.817,8.581,8.482,11.851c11.258,6.5,29.448,6.497,40.633-0.002C164.363,342.917,167.144,338.691,167.156,334.46
						L167.156,334.46z"/>
				</g>
			</g>
			<g>
				<path style="fill:#F9F7FC;" d="M158.676,322.611c11.257,6.499,11.312,17.036,0.132,23.534
					c-11.184,6.5-29.375,6.502-40.633,0.002c-11.257-6.5-11.317-17.039-0.133-23.538
					C129.223,316.112,147.418,316.112,158.676,322.611z M121.128,344.432c9.615,5.551,25.152,5.551,34.708-0.002
					c9.553-5.552,9.502-14.551-0.113-20.102c-9.619-5.554-25.156-5.553-34.708-0.002
					C111.458,329.879,111.509,338.878,121.128,344.432L121.128,344.432z"/>
			</g>
		</g>
	</g>
	<path style="opacity:0.4;fill:#E0DDE1;" d="M162.749,336.346c-0.7,2.954-3.006,5.807-6.916,8.081
		c-9.552,5.559-25.089,5.559-34.704,0.007c-3.993-2.305-6.336-5.196-7.03-8.189c0.694-2.961,2.999-5.814,6.916-8.087
		c9.551-5.553,25.088-5.553,34.71,0C159.712,330.462,162.055,333.353,162.749,336.346z"/>
	<g>
		<g style="enable-background:new    ;">
			<g style="enable-background:new    ;">
				<defs>
					<path id="SVGID_00000050654450447802189980000000403743193070277009_" style="enable-background:new    ;" d="M177.98,357.444
						l-17.828-10.428c-0.423-0.247-1.009-0.214-1.658,0.158l17.827,10.427C176.971,357.229,177.557,357.196,177.98,357.444z"/>
				</defs>
				<use xlink:href="#SVGID_00000050654450447802189980000000403743193070277009_"  style="overflow:visible;fill:#E0DDE1;"/>
				<clipPath id="SVGID_00000056426706640776415500000003282997464355641018_">
					<use xlink:href="#SVGID_00000050654450447802189980000000403743193070277009_"  style="overflow:visible;"/>
				</clipPath>
				<g style="clip-path:url(#SVGID_00000056426706640776415500000003282997464355641018_);enable-background:new    ;">
					<path style="fill:#E0DDE1;" d="M177.98,357.444l-17.828-10.428c-0.423-0.247-1.009-0.214-1.658,0.158l17.827,10.427
						C176.971,357.229,177.557,357.196,177.98,357.444L177.98,357.444z"/>
				</g>
			</g>
			<g style="enable-background:new    ;">
				<defs>
					<path id="SVGID_00000030468559400821253110000011015456664207392160_" style="enable-background:new    ;" d="M156.839,352.68
						l17.827,10.428c-0.417-0.245-0.675-0.761-0.675-1.496c0-1.476,1.044-3.273,2.331-4.011l-17.827-10.427
						c-1.287,0.738-2.331,2.535-2.331,4.011C156.164,351.919,156.422,352.436,156.839,352.68z"/>
				</defs>
				<use xlink:href="#SVGID_00000030468559400821253110000011015456664207392160_"  style="overflow:visible;fill:#E0DDE1;"/>
				<clipPath id="SVGID_00000062906294659860790610000010750595946488678550_">
					<use xlink:href="#SVGID_00000030468559400821253110000011015456664207392160_"  style="overflow:visible;"/>
				</clipPath>
				<g style="clip-path:url(#SVGID_00000062906294659860790610000010750595946488678550_);enable-background:new    ;">
					<path style="fill:#E0DDE1;" d="M176.322,357.6l-17.827-10.427c-1.287,0.738-2.331,2.535-2.331,4.011
						c0,0.734,0.258,1.251,0.675,1.495l17.827,10.428c-0.417-0.245-0.675-0.761-0.675-1.496
						C173.992,360.136,175.036,358.339,176.322,357.6L176.322,357.6z"/>
				</g>
			</g>
			<g>
				<path style="fill:#E0DDE1;" d="M176.322,357.6c-1.287,0.738-2.331,2.535-2.331,4.011c0,1.478,1.045,2.077,2.332,1.339
					c1.288-0.739,2.331-2.535,2.331-4.013C178.654,357.461,177.611,356.862,176.322,357.6z"/>
			</g>
		</g>
	</g>
	<g>
		<g style="enable-background:new    ;">
			<g>
				<defs>
					<path id="SVGID_00000067930584606594007340000015119579416827253132_" d="M210.79,372.054l-39.258-21.478
						c-0.777-0.451-1.854-0.387-3.042,0.299l38.65,21.536C208.566,371.588,209.858,371.512,210.79,372.054z"/>
				</defs>
				<use xlink:href="#SVGID_00000067930584606594007340000015119579416827253132_"  style="overflow:visible;fill:#EC891D;"/>
				<clipPath id="SVGID_00000085222755820210429540000002293857945563685777_">
					<use xlink:href="#SVGID_00000067930584606594007340000015119579416827253132_"  style="overflow:visible;"/>
				</clipPath>
				<g style="clip-path:url(#SVGID_00000085222755820210429540000002293857945563685777_);enable-background:new    ;">
					<path style="fill:#EC891D;" d="M210.79,372.054l-39.258-21.478c-0.777-0.451-1.854-0.387-3.042,0.299l38.65,21.536
						C208.566,371.588,209.858,371.512,210.79,372.054L210.79,372.054z"/>
				</g>
			</g>
			<g>
				<defs>
					<path id="SVGID_00000038389598355513762380000008290091698689552574_" d="M165.478,360.993l38.047,23.56
						c-0.92-0.535-1.491-1.672-1.495-3.289c-0.009-3.255,2.279-7.218,5.111-8.852l-38.65-21.536
						c-2.359,1.362-4.267,4.664-4.259,7.377C164.235,359.599,164.711,360.547,165.478,360.993z"/>
				</defs>
				<use xlink:href="#SVGID_00000038389598355513762380000008290091698689552574_"  style="overflow:visible;fill:#EC891D;"/>
				<clipPath id="SVGID_00000183929371567473767570000013300915463552054698_">
					<use xlink:href="#SVGID_00000038389598355513762380000008290091698689552574_"  style="overflow:visible;"/>
				</clipPath>
				<g style="clip-path:url(#SVGID_00000183929371567473767570000013300915463552054698_);enable-background:new    ;">
					<path style="fill:#EC891D;" d="M207.14,372.411l-38.65-21.536c-2.359,1.362-4.267,4.664-4.259,7.377
						c0.004,1.348,0.479,2.296,1.247,2.741l38.047,23.56c-0.92-0.535-1.491-1.672-1.495-3.289
						C202.02,378.008,204.309,374.046,207.14,372.411L207.14,372.411z"/>
				</g>
			</g>
			<g>
				<path style="fill:#F14405;" d="M207.14,372.411c-2.831,1.634-5.12,5.597-5.111,8.852c0.009,3.255,2.313,4.566,5.144,2.932
					c2.832-1.635,5.121-5.598,5.112-8.853C212.276,372.087,209.973,370.776,207.14,372.411z"/>
			</g>
		</g>
	</g>
</g>
</svg>
